<?xml version="1.0" standalone="no"?>
<!DOCTYPE svg PUBLIC "-//W3C//DTD SVG 1.1//EN" "http://www.w3.org/Graphics/SVG/1.1/DTD/svg11.dtd" >
<svg xmlns="http://www.w3.org/2000/svg">
<metadata></metadata>
<defs>
<font id="satelliteregular" horiz-adv-x="669" >
<font-face units-per-em="2048" ascent="1606" descent="-442" />
<missing-glyph horiz-adv-x="614" />
<glyph unicode="&#xfb01;" horiz-adv-x="884" d="M86 895v47h125q0 31 -1 88t-1 84q0 106 18 172q41 147 162 242.5t277 97.5v-61q-166 -6 -280 -122t-114 -280v-221h455v-942h-61v895h-394v-895h-61v895h-125z" />
<glyph unicode="&#xfb02;" horiz-adv-x="903" d="M135 895v47h125q0 31 -1 87t-1 83q0 102 18 168q39 150 161 244t274 94h61v-1618h-61v895h-389v-895h-62v895h-125zM322 942h389v612q-164 -2 -276.5 -118.5t-112.5 -278.5v-215z" />
<glyph unicode="&#xfb03;" horiz-adv-x="1284" d="M35 891v47h127q0 31 -1 87t-1 85q4 119 18 170q41 147 162 241.5t278 96.5v-62q-166 -4 -280.5 -120.5t-114.5 -278.5v-219h383q0 31 -1 87t-1 85q4 119 19 170q39 145 158.5 234.5t283.5 103.5v-62q-166 -4 -281.5 -120.5t-115.5 -278.5v-219h458v-938h-61v891h-397 v-891h-62v891h-383v-891h-61v891h-127z" />
<glyph unicode="&#xfb04;" horiz-adv-x="1327" d="M72 893v47h127q0 31 -1 87t-1 83q0 104 18 170q39 147 161 241.5t279 96.5v-62q-166 -4 -280.5 -120.5t-114.5 -278.5v-217h383q0 31 -1 87t-1 83q4 119 18 170q41 147 164 242.5t279 95.5h61v-1618h-61v893h-397v-893h-62v893h-383v-893h-61v893h-127zM705 940h397v614 q-166 -2 -281.5 -118.5t-115.5 -278.5v-217z" />
<glyph horiz-adv-x="2048" />
<glyph horiz-adv-x="2048" />
<glyph unicode="&#xd;" horiz-adv-x="681" />
<glyph unicode=" "  horiz-adv-x="614" />
<glyph unicode="&#x09;" horiz-adv-x="614" />
<glyph unicode="&#xa0;" horiz-adv-x="614" />
<glyph unicode="!" horiz-adv-x="262" d="M111 41q0 18 13 32.5t32 14.5q20 0 34.5 -14.5t14.5 -32.5q0 -20 -14 -33.5t-37 -13.5q-18 0 -30.5 13t-12.5 34zM125 389v1249h68v-1249h-68z" />
<glyph unicode="&#x22;" horiz-adv-x="495" d="M98 1618h90l-12 -244h-72zM287 1618h92l-10 -244h-72z" />
<glyph unicode="#" horiz-adv-x="681" d="M55 961l8 53h101l33 188h-101l10 53h101l16 101h49l-18 -101h192l19 101h47l-16 -101h98l-8 -53h-101l-32 -188h100l-10 -53h-101l-16 -101h-49l18 101h-192l-19 -101h-47l17 101h-99zM211 1014h192l35 188h-192z" />
<glyph unicode="$" horiz-adv-x="874" d="M45 1116q0 150 103.5 230.5t257.5 85.5v145h61v-145q219 -20 334 -193l-49 -33q-98 147 -285 164v-522q66 -14 106.5 -26.5t93 -37t82 -55.5t51 -80t21.5 -112q0 -150 -102.5 -243t-251.5 -101v-173h-61v173q-221 16 -343 174l50 32q102 -133 293 -147v551 q-68 16 -108 27.5t-94 37t-84 55t-52.5 80t-22.5 113.5zM102 1116q0 -115 77 -166t227 -88v510q-129 -4 -216.5 -67.5t-87.5 -188.5zM467 252q127 8 212 83t85 202q0 113 -76 164.5t-221 86.5v-536z" />
<glyph unicode="%" horiz-adv-x="1374" d="M106 6l1080 1628h80l-1078 -1628h-82zM281 1427q0 84 60 145.5t144 61.5t145.5 -61.5t61.5 -145.5t-61.5 -143t-145.5 -59t-144 59t-60 143zM340 1427.5q0 -57.5 44 -100.5t101.5 -43t101.5 43t44 100q0 59 -43.5 102.5t-102.5 43.5q-57 0 -101 -44t-44 -101.5zM682 211 q0 84 60.5 144.5t144.5 60.5t145.5 -60.5t61.5 -144.5t-61.5 -144.5t-145.5 -60.5t-144.5 60.5t-60.5 144.5zM743 211q0 -57 43 -100t101 -43q59 0 103 43t44 100t-45 101t-102.5 44t-100.5 -44t-43 -101z" />
<glyph unicode="&#x26;" horiz-adv-x="1609" d="M133 526q0 168 101.5 304.5t271.5 193.5q-84 49 -130 124t-46 161q2 131 95 225t222 94q131 0 224.5 -93t95.5 -230h-52q0 113 -83.5 190.5t-184.5 77.5q-109 0 -185.5 -78t-78.5 -186q0 -106 76 -184t188 -81v-59q-193 -4 -325 -137t-132 -321.5t134.5 -323.5 t322.5 -135q72 0 147.5 27.5t145.5 79.5t117 144.5t51 206.5h-299v56h416q141 0 254 108l41 -43q-131 -121 -295 -121h-60q-8 -215 -155.5 -365.5t-362.5 -150.5q-211 0 -362.5 152.5t-151.5 363.5z" />
<glyph unicode="'" horiz-adv-x="206" d="M78 1618h72l-11 -244h-57z" />
<glyph unicode="(" horiz-adv-x="632" d="M51 739q0 256 122 471t337 349v-93q-178 -119 -281.5 -311t-103.5 -415.5t103.5 -416t281.5 -311.5v-92q-215 133 -337 348t-122 471z" />
<glyph unicode=")" horiz-adv-x="632" d="M82 12q178 121 281.5 312.5t103.5 415t-103.5 415t-281.5 311.5v93q213 -133 336 -349.5t123 -470.5t-123 -470t-336 -349v92z" />
<glyph unicode="*" horiz-adv-x="706" d="M88 1364v53l176 8l-131 111l51 51l113 -131l8 178h57l9 -178l108 131l51 -51l-129 -111l177 -8v-53l-177 -10l129 -113l-51 -51l-108 131l-9 -176h-57l-8 176l-113 -131l-51 51l131 113z" />
<glyph unicode="+" d="M78 756v69h192v199h68v-199h194v-69h-194v-199h-68v199h-192z" />
<glyph unicode="," horiz-adv-x="372" d="M82 -115l123 156l80 -61l-176 -132z" />
<glyph unicode="-" d="M74 588v43h497v-43h-497z" />
<glyph unicode="." horiz-adv-x="284" d="M78 53q0 25 15.5 42.5t38 17.5t38.5 -16.5t16 -43.5q0 -23 -17.5 -39t-37.5 -16q-23 0 -38 16.5t-15 38.5z" />
<glyph unicode="/" horiz-adv-x="753" d="M51 6l531 1628h65l-532 -1628h-64z" />
<glyph unicode="0" horiz-adv-x="1380" d="M147 805q0 340 163 582.5t396.5 242.5t395.5 -242.5t162 -582.5q0 -342 -162 -583.5t-395.5 -241.5t-396.5 241.5t-163 583.5zM211 805q0 -315 143.5 -535.5t352.5 -220.5q211 0 353 219t142 536.5t-142 537t-353 219.5q-209 0 -352.5 -219.5t-143.5 -536.5z" />
<glyph unicode="1" horiz-adv-x="432" d="M100 1559v59h217v-1618h-55v1559h-162z" />
<glyph unicode="2" horiz-adv-x="1058" d="M100 0v66l734 935q53 70 53 191q0 152 -106.5 259.5t-258.5 107.5q-147 0 -253.5 -106.5t-110.5 -260.5h-58q4 180 127 303t295 123q174 0 297 -125t125 -301q0 -96 -47 -195q-35 -74 -340 -452l-387 -477h774v-68h-844z" />
<glyph unicode="3" horiz-adv-x="1245" d="M117 506h55q6 -197 142.5 -333t324.5 -136q193 0 330 136t137 328.5t-135 330t-332 141.5v61q117 0 193.5 81t76.5 190q0 111 -78.5 189.5t-191.5 78.5q-109 0 -187.5 -78t-82.5 -190h-54q4 137 98.5 231t225.5 94q133 0 228.5 -95t95.5 -226q0 -197 -181 -295 q176 -59 278.5 -197.5t102.5 -310.5q0 -217 -153.5 -371.5t-370.5 -154.5q-213 0 -365.5 152.5t-156.5 373.5z" />
<glyph unicode="4" horiz-adv-x="1130" d="M131 780v838h57v-780h537v780h57v-780h201v-58h-201v-780h-57v780h-594z" />
<glyph unicode="5" horiz-adv-x="1163" d="M139 145l45 45q139 -152 340 -151q195 0 333 139t138 336q0 195 -138 335t-333 140q-199 0 -340 -151l-45 39v753h797v-61h-737v-635q158 115 325 115q217 0 373 -158t156 -377q0 -221 -155 -377.5t-374 -156.5q-223 0 -385 165z" />
<glyph unicode="6" horiz-adv-x="1052" d="M96 414q0 39 7.5 76.5t24.5 93t22 73.5q35 121 59 195l256 778h67l-290 -891q133 111 284 111q178 0 304 -128t126 -308q0 -178 -127 -306t-303 -128t-303 128t-127 306zM154 413.5q0 -155.5 109.5 -265t263 -109.5t263 109.5t109.5 265t-108.5 266.5t-264.5 111 q-154 0 -263 -111t-109 -266.5z" />
<glyph unicode="7" horiz-adv-x="974" d="M106 1550v68h750l-534 -1618h-68l508 1550h-656z" />
<glyph unicode="8" horiz-adv-x="1159" d="M68 502q0 176 104 311t274 193q-178 100 -178 288h-2q4 135 96.5 229.5t225.5 94.5t225 -94t96 -230h-2q0 -193 -178 -288q168 -55 272.5 -191.5t104.5 -312.5q0 -213 -152.5 -367.5t-365.5 -154.5q-215 0 -367.5 153.5t-152.5 368.5zM125 505.5q0 -190.5 136 -329.5 t327 -139q188 0 324.5 138t136.5 327q0 193 -134 328t-327 135q-190 0 -326.5 -134.5t-136.5 -325zM322 1294.5q0 -108.5 78.5 -188.5t187 -80t188.5 80t80 188.5t-80 187.5t-188.5 79t-187 -79t-78.5 -187.5z" />
<glyph unicode="9" horiz-adv-x="1087" d="M123 1192q0 176 124 301t298 125t298 -125t124 -301q0 -20 -5.5 -52t-17.5 -78t-22.5 -84t-31 -103.5t-32.5 -102.5t-38 -115.5t-36 -109.5l-178 -547h-67l286 872q-135 -109 -280 -108q-172 0 -297 126t-125 302zM180 1191.5q0 -151.5 107.5 -260t257 -108.5t257 108.5 t107.5 260t-106.5 259.5t-258 108t-258 -108t-106.5 -259.5z" />
<glyph unicode=":" horiz-adv-x="315" d="M111 231.5q0 26.5 18 45t45 18.5q25 0 43.5 -19.5t18.5 -44.5q0 -27 -17.5 -46t-42.5 -19q-29 0 -47 19.5t-18 46zM111 903q0 29 18 47.5t45 18.5q25 0 43.5 -19.5t18.5 -46t-18.5 -45t-43.5 -18.5q-27 0 -45 18.5t-18 44.5z" />
<glyph unicode=";" horiz-adv-x="335" d="M70 -115l102 156l86 -61l-156 -132zM111 903.5q0 26.5 18 46t47 19.5q25 0 42.5 -19.5t17.5 -46t-17.5 -45t-44.5 -18.5t-45 18.5t-18 45z" />
<glyph unicode="&#x3c;" horiz-adv-x="626" d="M92 565v43l438 299v-69l-366 -252l366 -250v-70z" />
<glyph unicode="=" d="M84 582v65h487v-65h-487zM84 750v65h487v-65h-487z" />
<glyph unicode="&#x3e;" horiz-adv-x="626" d="M88 266v70l367 250l-367 250v71l440 -299v-45z" />
<glyph unicode="?" horiz-adv-x="1011" d="M96 1198q2 182 126 309t300 127t303 -126t127 -302q0 -162 -104 -284.5t-262 -147.5v-389h-68v455q152 2 259.5 106.5t107.5 251.5q0 152 -106.5 259.5t-256.5 107.5q-147 0 -251.5 -106.5t-106.5 -260.5h-68zM498 47.5q0 22.5 15 38.5t40 16q20 0 35.5 -15t15.5 -36 q0 -23 -16.5 -38t-34.5 -15q-25 0 -40 13.5t-15 36z" />
<glyph unicode="@" horiz-adv-x="1077" d="M66 795q0 190 134 324t324.5 134t325.5 -134t135 -324q0 -141 -70 -242q-123 33 -176 156q-70 -143 -215 -144q-94 0 -161.5 67.5t-67.5 162t66.5 162t162.5 67.5q111 0 199 -115v115h31v-229q0 -131 116 -191q53 94 54 191q0 164 -118 280.5t-282 116.5t-280.5 -117 t-116.5 -280.5t116.5 -280.5t280.5 -117q178 0 283 129q8 -4 61 -26q-133 -164 -344 -164q-190 0 -324 133t-134 326zM338 795q0 -78 54 -132.5t132 -54.5t132.5 54.5t54.5 132.5q0 76 -55.5 130t-131 54t-131 -54.5t-55.5 -129.5z" />
<glyph unicode="A" horiz-adv-x="1306" d="M127 0l539 1618h14l539 -1618h-66l-125 387h-711l-124 -387h-66zM340 436h666l-332 1016z" />
<glyph unicode="B" horiz-adv-x="1173" d="M125 0v1618h496q170 0 293.5 -124t123.5 -298q0 -268 -233 -387q127 -37 200.5 -148.5t73.5 -238.5q0 -174 -121.5 -298t-295.5 -124h-537zM193 70h469q143 0 245.5 103t102.5 248.5t-101.5 249t-246.5 103.5h-469v-704zM193 829h448q139 0 233.5 106.5t94.5 256.5 q0 147 -101.5 251.5t-246.5 104.5h-428v-719z" />
<glyph unicode="C" horiz-adv-x="1392" d="M68 805q0 342 242.5 583.5t586.5 241.5q197 0 422 -112l20 -15l-34 -47q-92 39 -137.5 56.5t-124 37t-146.5 19.5q-317 0 -541.5 -223.5t-224.5 -541t224.5 -541.5t541.5 -224q68 0 146.5 19.5t123.5 37t138 56.5l36 -50l-24 -10q-94 -39 -141.5 -56.5t-128 -36.5 t-150.5 -19q-344 0 -586.5 241.5t-242.5 583.5z" />
<glyph unicode="D" horiz-adv-x="1431" d="M113 0v1618h403q332 0 568.5 -237.5t236.5 -571.5t-236.5 -571.5t-568.5 -237.5h-403zM170 57h346q309 0 528.5 220.5t219.5 531.5t-219.5 531.5t-528.5 220.5h-346v-1504z" />
<glyph unicode="E" horiz-adv-x="1222" d="M139 0v1618h930v-51h-866v-725h610v-51h-610v-740h866v-51h-930z" />
<glyph unicode="F" horiz-adv-x="1144" d="M143 0v1618h934v-51h-870v-729h614v-52h-614v-786h-64z" />
<glyph unicode="G" horiz-adv-x="1609" d="M109 805q0 340 241.5 582.5t577.5 242.5q338 0 596 -258l-47 -47q-238 238 -545 238q-315 0 -536.5 -220.5t-221.5 -537.5q0 -315 220 -537.5t534 -222.5q305 0 526 215v397h-549v54h615v-478q-250 -253 -592 -253q-336 0 -577.5 242.5t-241.5 582.5z" />
<glyph unicode="H" horiz-adv-x="1376" d="M104 0v1618h64v-776h971v776h63v-1618h-63v791h-971v-791h-64z" />
<glyph unicode="I" horiz-adv-x="415" d="M166 0v1618h67v-1618h-67z" />
<glyph unicode="J" horiz-adv-x="1064" d="M127 256h70q84 -176 264 -207q18 -4 61 -4q147 0 252 106.5t105 258.5v1220h65v-1220q0 -176 -124 -303t-298 -127q-41 0 -63 4q-94 14 -166 63q-113 78 -166 209z" />
<glyph unicode="K" horiz-adv-x="1179" d="M127 0v1618h63v-877l695 877h78l-639 -805l741 -813h-76l-702 766l-97 -121v-645h-63z" />
<glyph unicode="L" horiz-adv-x="1179" d="M125 0v1618h63v-1552h871v-66h-934z" />
<glyph unicode="M" horiz-adv-x="1601" d="M111 0v1620h10l643 -1104l641 1104l14 -2l-2 -1618h-63v1403l-590 -1006l-590 1006v-1403h-63z" />
<glyph unicode="N" horiz-adv-x="1394" d="M129 0v1618l64 4l983 -1497v1511h59v-1636h-51l-996 1511v-1511h-59z" />
<glyph unicode="O" horiz-adv-x="1712" d="M106 805q0 352 218.5 588.5t544 236.5t544.5 -236.5t219 -588.5q0 -354 -219 -589.5t-544.5 -235.5t-544 235.5t-218.5 589.5zM172 805q0 -326 198.5 -543t497.5 -217t498 217t199 543q0 324 -200 541t-497 217t-496.5 -217.5t-199.5 -540.5z" />
<glyph unicode="P" horiz-adv-x="1138" d="M125 0v1618h516q172 0 295 -124t123 -298q0 -176 -122 -300t-296 -124h-453v-772h-63zM188 838h453q147 0 249.5 105.5t102.5 252.5t-102.5 251.5t-249.5 104.5h-453v-714z" />
<glyph unicode="Q" horiz-adv-x="1732" d="M102 817q0 338 212 577.5t544 239.5t544 -239.5t212 -577.5q0 -233 -110.5 -431t-336.5 -320h447v-66h-756q-332 0 -544 239.5t-212 577.5zM170 817q0 -309 192.5 -530t497.5 -221q303 0 494.5 221t191.5 530t-192.5 530.5t-495.5 221.5q-305 0 -496.5 -221.5 t-191.5 -530.5z" />
<glyph unicode="R" horiz-adv-x="1171" d="M127 0v1618h516q170 0 292 -125t122 -297q0 -154 -104.5 -272.5t-264.5 -147.5l383 -776h-67q-100 188 -381 774h-437v-774h-59zM186 838h457q145 0 248.5 103t103.5 251q0 152 -102.5 257t-249.5 105h-457v-716z" />
<glyph unicode="S" horiz-adv-x="1220" d="M88 1208q0 211 143.5 319.5t362.5 108.5q154 0 285 -63.5t213 -186.5l-56 -36q-72 106 -185.5 162.5t-246.5 56.5q-197 0 -323.5 -84t-128.5 -268q0 -102 53 -172t138 -105t189.5 -60.5t208 -52t189.5 -66.5t139 -119t53 -193q0 -217 -146.5 -342t-359.5 -125 q-150 0 -284.5 58t-216.5 171l57 37q74 -98 190.5 -149.5t245.5 -51.5q188 0 318.5 103.5t130.5 289.5q0 102 -53.5 172t-139.5 105t-188.5 59.5t-205.5 52t-189 67.5t-139.5 119t-53.5 193z" />
<glyph unicode="T" horiz-adv-x="1263" d="M104 1567v51h1080v-51h-508v-1567h-66v1567h-506z" />
<glyph unicode="U" horiz-adv-x="1337" d="M106 518v1112h64v-1087q0 -207 145.5 -352.5t348.5 -145.5q205 0 349 145.5t144 352.5v1087h66v-1087q0 -231 -165 -397t-394 -166q-227 0 -392.5 155.5t-165.5 382.5z" />
<glyph unicode="V" horiz-adv-x="1343" d="M127 1618h68q23 -68 111.5 -332t131.5 -407q23 -72 246 -744l490 1483h67l-536 -1618h-43z" />
<glyph unicode="W" horiz-adv-x="1994" d="M55 1630h66l502 -1501l374 1124l373 -1124l500 1501h67l-567 -1706l-373 1127l-374 -1127z" />
<glyph unicode="X" horiz-adv-x="1366" d="M109 0l534 811l-530 807h73l496 -748l494 748h77l-532 -807l534 -811h-75l-498 752l-498 -752h-75z" />
<glyph unicode="Y" horiz-adv-x="1343" d="M88 1618h76l500 -754l499 754h76l-543 -821v-797h-65v797z" />
<glyph unicode="Z" horiz-adv-x="1372" d="M106 0l1041 1567h-1004v51h1108l-1038 -1567h1004v-51h-1111z" />
<glyph unicode="[" horiz-adv-x="643" d="M76 -63v1630h493v-58h-436v-1515h436v-57h-493z" />
<glyph unicode="\" horiz-adv-x="798" d="M90 1634h66l530 -1628h-63z" />
<glyph unicode="]" horiz-adv-x="643" d="M55 -6h437v1515h-437v58h494v-1630h-494v57z" />
<glyph unicode="^" horiz-adv-x="925" d="M150 973l299 440h45l297 -440h-70l-250 366l-252 -366h-69z" />
<glyph unicode="_" d="M84 -6h487v-51h-487v51z" />
<glyph unicode="`" horiz-adv-x="372" d="M102 1559l84 51l74 -144l-29 -26z" />
<glyph unicode="a" horiz-adv-x="1179" d="M111 452.5q0 190.5 127 325.5t317 135q233 0 387 -233v225h62v-905h-62v225q-154 -233 -387 -233q-190 0 -317 135t-127 325.5zM172 452.5q0 -163.5 109.5 -281.5t273.5 -118q160 0 271.5 117t111.5 283q0 164 -111.5 281.5t-271.5 117.5q-164 0 -273.5 -118 t-109.5 -281.5z" />
<glyph unicode="b" horiz-adv-x="1120" d="M160 0v1614h61v-912q51 102 147.5 161t211.5 59q188 0 317 -136.5t129 -331t-129 -330.5t-317 -136q-119 0 -213.5 57t-145.5 164v-209h-61zM225 455q0 -172 96.5 -288t258.5 -116q164 0 274.5 118t110.5 286t-110.5 286.5t-274.5 118.5q-162 0 -258.5 -116.5 t-96.5 -288.5z" />
<glyph unicode="c" horiz-adv-x="985" d="M88 454.5q0 194.5 125 330t311 135.5q213 0 320 -134l16 -20l-45 -43l-14 18q-117 117 -276.5 117t-266 -117.5t-106.5 -285.5q0 -166 106.5 -284t265.5 -118q184 0 277 117l14 18l45 -43l-16 -20q-104 -133 -320 -133q-186 0 -311 134t-125 328.5z" />
<glyph unicode="d" horiz-adv-x="1150" d="M96 461q0 193 129 330t320 137q240 0 358 -226v916h62v-1618h-62v217q-113 -225 -358 -225q-193 0 -321 136t-128 333zM158 461q0 -168 110.5 -287t276.5 -119q160 0 256 118t96 288t-96 287.5t-256 117.5q-166 0 -276.5 -118.5t-110.5 -286.5z" />
<glyph unicode="e" horiz-adv-x="1091" d="M96 444q0 193 123 326t313 133q182 0 336 -149v-2q118 -137 118 -283q0 -11 -1 -23l-2 -28h-823q14 -160 118.5 -262.5t253.5 -102.5q195 0 293 84l45 -45q-123 -100 -338 -100q-182 0 -305 117q-131 125 -131 335zM160 477h762q-14 156 -127 259.5t-262.5 103.5 t-254 -103.5t-118.5 -259.5z" />
<glyph unicode="f" horiz-adv-x="671" d="M137 893v47h125q0 31 -1 87t-1 83q4 119 19 170q39 147 158.5 241.5t273.5 96.5v-62q-162 -4 -274.5 -120.5t-112.5 -278.5v-217h258v-47h-258v-893h-62v893h-125z" />
<glyph unicode="g" horiz-adv-x="1107" d="M111 449q2 193 129 327.5t315 134.5q115 0 209 -57t145 -164v221h62v-893q0 -199 -131 -327.5t-319.5 -128.5t-336.5 151l45 45q127 -133 291 -133q162 0 275.5 115t113.5 278v183q-94 -215 -354 -215q-188 0 -316 136t-128 327zM172 449q2 -166 110.5 -284t272.5 -118 q160 0 255 117t95 285q-2 168 -96 283.5t-254 115.5q-164 0 -273.5 -117t-109.5 -282z" />
<glyph unicode="h" horiz-adv-x="942" d="M154 0v1618h61v-840q45 57 132 88t171 31q131 0 216 -85t85 -218v-594h-59v594q0 98 -72 171t-170 73q-104 0 -203.5 -58.5t-99.5 -154.5v-625h-61zM154 1618h61h-61z" />
<glyph unicode="i" horiz-adv-x="421" d="M172 1282.5q0 22.5 15.5 36.5t37.5 14q20 0 35.5 -15t15.5 -36q0 -23 -15.5 -38t-35.5 -15q-23 0 -38 15.5t-15 38zM193 0v915h61v-915h-61z" />
<glyph unicode="j" horiz-adv-x="491" d="M0 -397q61 0 106.5 43t68 109.5t32.5 129t10 119.5v911h62v-911q0 -76 -12.5 -148.5t-41 -146.5t-87 -120t-138.5 -48v62zM193 1274q4 53 55 53q23 0 37 -15.5t14 -37.5q0 -20 -14.5 -35.5t-37 -15.5t-38.5 14t-16 37z" />
<glyph unicode="k" horiz-adv-x="968" d="M141 0v1618h62v-1217l528 519h80l-430 -433l412 -487h-80l-375 446l-135 -133v-313h-62z" />
<glyph unicode="l" horiz-adv-x="397" d="M160 0v1618h61v-1618h-61z" />
<glyph unicode="m" horiz-adv-x="1486" d="M147 0v885h60v-121q53 61 133 93t154 32q164 0 258 -172q45 82 122.5 127t163.5 45q125 0 213 -88t88 -213v-586h-59v586q0 100 -70.5 170.5t-171.5 70.5q-104 0 -181 -64.5t-77 -162.5v-602h-59v588q0 100 -64.5 170.5t-162.5 70.5q-109 0 -199 -59t-90 -152v-618h-58z " />
<glyph unicode="n" horiz-adv-x="968" d="M176 0v893h60v-115q45 59 135 89t168 30q127 0 214 -83t87 -220v-594h-60v594q0 100 -71.5 172t-169.5 72q-111 0 -207 -59.5t-96 -153.5v-625h-60z" />
<glyph unicode="o" horiz-adv-x="1036" d="M82 453q0 195 122 332t308 137t308 -137.5t122 -331.5q0 -197 -121 -329t-309 -132t-309 132t-121 329zM143 453q0 -166 103.5 -283t265.5 -117q160 0 263.5 117t103.5 283q0 170 -103.5 288.5t-263.5 118.5q-162 0 -265.5 -118.5t-103.5 -288.5z" />
<glyph unicode="p" horiz-adv-x="1159" d="M164 -442v1366h61v-224q49 106 145.5 164t213.5 58q188 0 318 -137.5t130 -331.5q0 -193 -129 -330t-319 -137q-236 0 -359 229v-657h-61zM229 457q0 -172 96.5 -290t258.5 -118q166 0 276.5 118t110.5 286q0 170 -110.5 287.5t-276.5 117.5q-160 0 -257.5 -115.5 t-97.5 -285.5z" />
<glyph unicode="q" horiz-adv-x="1177" d="M139 453q0 197 128 333t321 136q252 0 358 -226v228h62v-1366h-62v653q-53 -106 -147 -165.5t-211 -59.5q-190 0 -319.5 137t-129.5 330zM201 453q0 -168 111.5 -286t275.5 -118q160 0 257 117t97 287q0 172 -97 288.5t-257 116.5q-164 0 -275.5 -117.5t-111.5 -287.5z " />
<glyph unicode="r" horiz-adv-x="681" d="M131 0v918h62v-234q150 227 382 234v-62q-162 -4 -272 -121.5t-110 -279.5v-455h-62z" />
<glyph unicode="s" horiz-adv-x="819" d="M113 133l51 35q41 -53 108.5 -85t137.5 -32q96 0 163.5 48t67.5 147q0 74 -54.5 114.5t-132 58t-155.5 37t-132 72t-54 142.5q0 125 83 194.5t207 69.5q184 0 287 -158l-51 -33q-86 127 -233 127q-98 0 -166 -49t-68 -145q0 -74 54.5 -115t133 -58.5t156.5 -37t132 -71.5 t54 -142q0 -128 -84 -196q-82 -67 -205 -66h-7q-84 0 -164 39t-129 104z" />
<glyph unicode="t" horiz-adv-x="649" d="M117 891v45h133v262h63v-262h256v-45h-256v-891h-63v891h-133z" />
<glyph unicode="u" horiz-adv-x="901" d="M135 299v602h60v-602q0 -106 64.5 -179t160.5 -73q106 0 193 63.5t87 159.5v623h60v-893h-60v115q-90 -127 -280 -127q-123 0 -204 90t-81 221z" />
<glyph unicode="v" horiz-adv-x="933" d="M111 899h73l279 -784l278 784h74l-330 -899h-47z" />
<glyph unicode="w" horiz-adv-x="1310" d="M113 901h65l215 -792l252 645l256 -652l211 799h68l-250 -901h-51l-234 584l-231 -584h-54z" />
<glyph unicode="x" horiz-adv-x="925" d="M129 901h80l252 -389l254 389h78l-291 -450l297 -451h-84l-254 389l-252 -389h-78l291 451z" />
<glyph unicode="y" horiz-adv-x="1007" d="M131 918h74l317 -834l289 834h76l-473 -1356h-74l149 428z" />
<glyph unicode="z" horiz-adv-x="901" d="M100 0l568 852h-533v53h647l-565 -852h531v-53h-648z" />
<glyph unicode="~" horiz-adv-x="780" d="M172 1069q88 39 137 39q66 0 133 -31q18 -10 52 -10q41 0 84 20l36 -47q-63 -26 -120 -26q-45 0 -84 16q-59 25 -101 25q-45 0 -96 -29z" />
<glyph unicode="&#xa1;" horiz-adv-x="262" d="M111 1536q0 20 13.5 33.5t31.5 13.5q20 0 34.5 -13.5t14.5 -33.5q0 -18 -14.5 -32.5t-34.5 -14.5q-18 0 -31.5 14.5t-13.5 32.5zM125 -61v1249h68v-1249h-68z" />
<glyph unicode="&#xa2;" horiz-adv-x="929" d="M76 792.5q0 182.5 110.5 314.5t280.5 148v158h61v-156q201 -6 301 -133l17 -20l-45 -43l-15 18q-106 106 -258 117v-805q147 6 258 117l15 18l45 -43l-17 -20q-100 -127 -301 -133v-166h-61v168q-170 16 -280.5 147t-110.5 313.5zM139 792.5q0 -155.5 92.5 -269.5 t235.5 -130v801q-143 -18 -235.5 -132t-92.5 -269.5z" />
<glyph unicode="&#xa3;" horiz-adv-x="671" d="M72 903l2 47h104q-2 29 -2 88q0 96 10.5 176t41 159t79.5 132.5t130 88t190 36.5l2 -61q-399 -8 -400 -484q0 -20 1 -42.5t3.5 -50t2.5 -42.5h262v-47h-260q2 -31 11 -213t9 -280q0 -289 -90 -357h461v-45h-535v45q102 37 103 385q0 49 -17 465h-108z" />
<glyph unicode="&#xa5;" horiz-adv-x="1343" d="M96 1456h78l424 -670l422 670h80l-469 -741v-60h327v-51h-327v-112h327v-52h-327v-440h-68v440h-315v52h315v112h-315v51h315v60z" />
<glyph unicode="&#xa9;" horiz-adv-x="755" d="M94 1288.5q0 114.5 80 195.5t194.5 81t194.5 -81t80 -196q0 -113 -80 -192.5t-194.5 -79.5t-194.5 79t-80 193.5zM141 1288q0 -94 66.5 -160.5t161 -66.5t161 66.5t66.5 160.5t-66.5 162t-161 68t-161 -68t-66.5 -162zM223 1288.5q0 59.5 42 102.5t102 43q57 0 102 -41 l12 -15l-28 -24l-11 10q-31 31 -75.5 31t-75.5 -31t-31 -76q0 -43 31 -74.5t76 -31.5q43 0 75 32l11 11l30 -29l-16 -10q-41 -41 -100.5 -41t-101.5 42t-42 101.5z" />
<glyph unicode="&#xab;" horiz-adv-x="626" d="M72 565v43l233 299v-69l-162 -252l162 -250v-70zM297 565v43l233 299v-69l-161 -252l161 -250v-70z" />
<glyph unicode="&#xad;" d="M74 588v43h497v-43h-497z" />
<glyph unicode="&#xae;" horiz-adv-x="755" d="M84 1282q0 117 83 201t200 84q121 0 201.5 -82t80.5 -203q0 -117 -83 -199t-199.5 -82t-199.5 82t-83 199zM133 1282q0 -96 68.5 -164.5t165 -68.5t166 69.5t69.5 163.5q0 96 -69.5 166t-166 70t-165 -70t-68.5 -166zM291 1137v293h84q35 0 58.5 -25t23.5 -59 q0 -57 -54 -78l66 -131h-43l-64 125h-32v-125h-39zM330 1303q8 -2 24 -3q66 0 66 46q0 18 -13.5 31.5t-31.5 13.5h-45v-88z" />
<glyph unicode="&#xb0;" horiz-adv-x="546" d="M115 1411q0 68 49 116t114.5 48t114.5 -48t49 -116q0 -66 -49 -114t-114.5 -48t-114.5 48.5t-49 113.5zM172 1411q0 -41 32 -72.5t75 -31.5t74.5 31.5t31.5 72.5t-31.5 73t-74.5 32t-75 -32t-32 -73z" />
<glyph unicode="&#xbb;" horiz-adv-x="626" d="M84 266v70l162 250l-162 252v69l233 -299v-43zM309 266v70l162 250l-162 252v69l234 -299v-43z" />
<glyph unicode="&#xbf;" horiz-adv-x="1011" d="M72 375q0 160 105 281.5t261 146.5v389h68v-455q-154 -2 -260.5 -107.5t-106.5 -254.5q0 -147 107.5 -255t255 -108t252 106.5t106.5 260.5h68q-2 -182 -126 -309t-300 -127t-303 127t-127 305zM420 1522q0 25 14 41t37 16q25 0 40 -15.5t15 -37.5q0 -20 -16 -35.5 t-39 -15.5q-20 0 -35.5 14t-15.5 33z" />
<glyph unicode="&#xc0;" horiz-adv-x="1306" d="M129 0l537 1618h14l541 -1618h-66l-127 387h-711l-122 -387h-66zM340 436h666l-332 1016zM545 1823l86 57l110 -164l-30 -30z" />
<glyph unicode="&#xc1;" horiz-adv-x="1306" d="M129 0l537 1618h14l541 -1618h-66l-127 387h-711l-122 -387h-66zM340 436h666l-332 1016zM602 1716l105 164l88 -57l-162 -137z" />
<glyph unicode="&#xc2;" horiz-adv-x="1306" d="M127 0l539 1618h16l537 -1618h-66l-125 387h-711l-124 -387h-66zM340 436h666l-332 1016zM440 1597l215 240h39l213 -240h-57l-176 181l-176 -181h-58z" />
<glyph unicode="&#xc3;" horiz-adv-x="1306" d="M127 0l541 1618h14l537 -1618h-66l-125 387h-711l-124 -387h-66zM340 436h666l-332 1016zM436 1720q98 51 156 52q51 0 130 -30t97 -30q63 0 121 41v-63q-90 -35 -121 -35q-39 0 -112.5 30.5t-114.5 30.5q-72 0 -150 -51z" />
<glyph unicode="&#xc4;" horiz-adv-x="1329" d="M127 0l539 1618h16l537 -1618h-66l-125 387h-711l-124 -387h-66zM340 436h666l-332 1016zM383 1757.5q0 22.5 14.5 37.5t37 15t37.5 -15t15 -37.5t-16 -38t-39 -15.5q-18 0 -33.5 15.5t-15.5 38zM870 1757q0 23 15.5 38t38 15t38 -15t15.5 -37.5t-16 -38t-39 -15.5 q-20 0 -36 16.5t-16 36.5z" />
<glyph unicode="&#xc5;" horiz-adv-x="1318" d="M127 0l541 1618h14l537 -1618h-66l-125 387h-711l-124 -387h-66zM340 436h666l-332 1016zM520 1964q0 66 48 113t114 47t114 -47t48 -113t-48 -113t-114 -47t-114 47t-48 113zM561 1964q0 -49 36 -85t85 -36t85 36t36 85t-36 84t-85 35t-85 -35t-36 -84z" />
<glyph unicode="&#xc6;" horiz-adv-x="1740" d="M45 0l709 1618h929v-51h-866v-725h610v-51h-610v-740h866v-51h-929v387h-478l-165 -387h-66zM299 436h455v1012z" />
<glyph unicode="&#xc7;" horiz-adv-x="1425" d="M68 805q0 342 243.5 583.5t585.5 241.5q94 0 238.5 -38t203.5 -89l-34 -47q-262 113 -408 113q-317 0 -541.5 -223.5t-224.5 -541t225.5 -541.5t540.5 -224q145 0 408 113l36 -50q-106 -43 -147 -59t-127 -38.5t-156 -24.5l-37 -105q84 -6 95 -84q0 -37 -43 -65.5 t-129 -28.5l-2 37q119 0 118 55q0 61 -96 61h-10l76 130q-340 6 -577.5 245.5t-237.5 579.5z" />
<glyph unicode="&#xc8;" horiz-adv-x="1222" d="M139 0v1618h930v-51h-866v-725h610v-51h-610v-740h866l2 -51h-932zM483 1823l86 57l111 -164l-31 -30z" />
<glyph unicode="&#xc9;" horiz-adv-x="1271" d="M162 0v1620h930v-51h-867v-727h611v-49h-611v-742h867v-51h-930zM539 1698l108 164l90 -58l-168 -137z" />
<glyph unicode="&#xca;" horiz-adv-x="1222" d="M139 0v1618h930v-51h-866v-725h610v-51h-610v-740h866v-51h-930zM399 1659l215 239h39l213 -239h-57l-176 180l-176 -180h-58z" />
<glyph unicode="&#xcb;" horiz-adv-x="1222" d="M139 0v1618h930v-51h-866v-725h610v-51h-610v-740h866v-51h-930zM322 1757.5q0 22.5 14 37.5t36.5 15t38 -15t15.5 -37.5t-16 -38t-39 -15.5q-18 0 -33.5 15.5t-15.5 38zM809 1757q0 23 15.5 38t38 15t37.5 -15t15 -37.5t-16 -38t-39 -15.5q-20 0 -35.5 16.5t-15.5 36.5z " />
<glyph unicode="&#xd1;" horiz-adv-x="1380" d="M129 0v1618l66 4l981 -1497v1511h59v-1636h-51l-996 1511v-1511h-59zM477 1720q98 51 156 52q51 0 130 -30t97 -30q63 0 121 41v-63q-90 -35 -121 -35q-39 0 -112.5 30.5t-114.5 30.5q-72 0 -150 -51z" />
<glyph unicode="&#xd2;" horiz-adv-x="1712" d="M106 801q0 356 217.5 592.5t544.5 236.5q326 0 545 -236.5t219 -588.5q0 -354 -219 -589.5t-544.5 -235.5t-544 234.5t-218.5 586.5zM172 805q0 -326 199.5 -543t496.5 -217t497 216t200 540q0 326 -199 544t-498 218q-297 0 -496.5 -217.5t-199.5 -540.5zM731 1823 l86 57l107 -164l-31 -30z" />
<glyph unicode="&#xd3;" horiz-adv-x="1712" d="M106 801q0 356 217.5 592.5t544.5 236.5q326 0 545 -236.5t219 -588.5q0 -354 -219 -589.5t-544.5 -235.5t-544 234.5t-218.5 586.5zM172 805q0 -326 199.5 -543t496.5 -217t497 216t200 540q0 326 -199 544t-498 218q-297 0 -496.5 -217.5t-199.5 -540.5zM784 1716 l109 164l88 -57l-166 -137z" />
<glyph unicode="&#xd4;" horiz-adv-x="1712" d="M106 805q0 352 218.5 588.5t544 236.5t544.5 -236.5t219 -588.5q0 -354 -219 -589.5t-544.5 -235.5t-544 235.5t-218.5 589.5zM172 805q0 -326 198.5 -543t497.5 -217t498 217t199 543q0 324 -200 541t-497 217t-496.5 -217.5t-199.5 -540.5zM625 1659l215 239h39 l213 -239h-58l-176 180l-176 -180h-57z" />
<glyph unicode="&#xd5;" horiz-adv-x="1712" d="M106 801q0 356 217.5 592.5t544.5 236.5q326 0 545 -236.5t219 -588.5q0 -354 -219 -589.5t-544.5 -235.5t-544 234.5t-218.5 586.5zM172 805q0 -326 199.5 -543t496.5 -217t497 216t200 540q0 326 -199 544t-498 218q-297 0 -496.5 -217.5t-199.5 -540.5zM600 1741 q98 51 158 51q51 0 129 -29.5t98 -29.5q66 0 119 41v-64q-94 -35 -119 -35q-41 0 -113.5 31t-113.5 31q-76 0 -154 -51z" />
<glyph unicode="&#xd6;" horiz-adv-x="1714" d="M94 786q0 354 216 591t544 237q326 0 545 -236.5t219 -591.5q0 -352 -218 -588.5t-544 -236.5t-544 236.5t-218 588.5zM160 786q0 -324 199.5 -540.5t496.5 -216.5t496.5 217t199.5 540q0 328 -198.5 545t-497.5 217t-497.5 -217t-198.5 -545zM555 1710.5 q0 22.5 16.5 38.5t40.5 16q20 0 36 -16t16 -38.5t-16 -38t-34 -15.5q-27 0 -43 15.5t-16 38zM1057 1710.5q0 22.5 15 38.5t36 16q25 0 40 -16t15 -38.5t-15 -38t-40 -15.5q-18 0 -34.5 15.5t-16.5 38z" />
<glyph unicode="&#xd7;" horiz-adv-x="626" d="M63 344l193 301l-193 299h74l154 -242l155 242h74l-190 -299l192 -301h-76l-155 242l-154 -242h-74z" />
<glyph unicode="&#xd8;" horiz-adv-x="1720" d="M106 805q0 352 218.5 588.5t543.5 236.5q209 0 379 -102l51 86h66l-70 -117q158 -111 248 -292t90 -400q0 -354 -218 -589.5t-546 -235.5q-211 0 -389 106l-57 -100h-64l76 131q-154 111 -241 291t-87 397zM172 805q0 -199 79 -362.5t216 -266.5l747 1292 q-153 95 -346 95q-297 0 -496.5 -217.5t-199.5 -540.5zM512 143q162 -98 356 -98q299 0 498 217t199 543q0 201 -80 366t-221 267z" />
<glyph unicode="&#xd9;" horiz-adv-x="1337" d="M106 518v1112h64v-1087q0 -207 145.5 -352.5t348.5 -145.5q205 0 349 145.5t144 352.5v1087h66v-1087q0 -231 -165 -397t-394 -166q-227 0 -392.5 155.5t-165.5 382.5zM547 1823l86 57l106 -164l-30 -30z" />
<glyph unicode="&#xda;" horiz-adv-x="1337" d="M106 518v1112h64v-1087q0 -207 145.5 -352.5t348.5 -145.5q205 0 349 145.5t144 352.5v1087h66v-1087q0 -231 -165 -397t-394 -166q-227 0 -392.5 155.5t-165.5 382.5zM600 1716l109 164l88 -57l-166 -137z" />
<glyph unicode="&#xdb;" horiz-adv-x="1337" d="M106 518v1112h64v-1087q0 -207 145.5 -352.5t348.5 -145.5q205 0 349 145.5t144 352.5v1087h66v-1087q0 -231 -165 -397t-394 -166q-227 0 -392.5 155.5t-165.5 382.5zM461 1659l215 239h39l213 -239h-58l-176 180l-176 -180h-57z" />
<glyph unicode="&#xdc;" horiz-adv-x="1349" d="M135 502v1110h64v-1086q0 -207 144 -352t349 -145t349.5 145t144.5 352v1086h63v-1086q0 -231 -164 -397t-393 -166q-227 0 -392 155.5t-165 383.5zM393 1656.5q0 22.5 15.5 38t38 15.5t39 -15.5t16.5 -38t-16.5 -37.5t-39 -15t-38 15t-15.5 37.5zM891 1656.5 q0 22.5 15.5 38t38 15.5t38.5 -15.5t16 -38t-17.5 -37.5t-37.5 -15q-23 0 -38 15t-15 37.5z" />
<glyph unicode="&#xdd;" horiz-adv-x="1343" d="M88 1618h76l500 -754l499 754h76l-541 -821v-797h-67v797zM602 1716l96 164l97 -57l-162 -137z" />
<glyph unicode="&#xde;" horiz-adv-x="1030" d="M106 0v1618h64v-242h225q231 0 395 -167t164 -400.5t-162.5 -399t-396.5 -165.5h-225v-244h-64zM170 303h225q209 0 355.5 148.5t146.5 357.5t-146.5 357.5t-355.5 148.5h-225v-1012z" />
<glyph unicode="&#xe0;" horiz-adv-x="1146" d="M111 454.5q0 192.5 127 329t317 136.5q231 0 387 -236v227h62v-911h-62v227q-154 -236 -387 -235q-190 0 -317 135t-127 327.5zM172 455q0 -166 109.5 -283t273.5 -117q160 0 271.5 117t111.5 283t-111.5 283.5t-271.5 117.5q-164 0 -273.5 -117.5t-109.5 -283.5z M401 1208l88 58l109 -164l-31 -31z" />
<glyph unicode="&#xe1;" horiz-adv-x="1157" d="M111 454.5q0 192.5 127 329t317 136.5q231 0 387 -236v227h62v-911h-62v227q-154 -236 -387 -235q-190 0 -317 135t-127 327.5zM172 455q0 -166 109.5 -283t273.5 -117q160 0 271.5 117t111.5 283t-111.5 283.5t-271.5 117.5q-164 0 -273.5 -117.5t-109.5 -283.5z M520 1102l107 164l86 -58l-162 -137z" />
<glyph unicode="&#xe2;" horiz-adv-x="1179" d="M111 456.5q0 192.5 127 328t317 135.5q233 0 387 -234v225h62v-911h-62v227q-154 -236 -387 -235q-190 0 -317 136t-127 328.5zM172 457q0 -166 109.5 -284t273.5 -118q160 0 271.5 118t111.5 284t-111.5 283.5t-271.5 117.5q-164 0 -273.5 -117.5t-109.5 -283.5z M336 1012l215 239h39l213 -239h-58l-176 180l-176 -180h-57z" />
<glyph unicode="&#xe3;" horiz-adv-x="1105" d="M111 454.5q0 192.5 127 328t317 135.5q233 0 387 -234v225h62v-909h-62v225q-154 -233 -387 -233q-190 0 -317 135t-127 327.5zM172 455q0 -166 109.5 -284t273.5 -118q160 0 271.5 118t111.5 284t-111.5 283.5t-271.5 117.5q-164 0 -273.5 -117.5t-109.5 -283.5z M309 1092v59h486v-59h-486z" />
<glyph unicode="&#xe4;" horiz-adv-x="1144" d="M111 454.5q0 192.5 128 328t316 135.5q233 0 387 -234v225h62v-909h-62v227q-154 -236 -387 -235q-190 0 -317 135t-127 327.5zM172 455q0 -166 109.5 -284t273.5 -118q160 0 271.5 118t111.5 284t-111.5 283.5t-271.5 117.5q-164 0 -273.5 -117.5t-109.5 -283.5z M287 1145q0 23 16 38t35 15q23 0 38 -15.5t15 -38t-15 -36.5t-38 -14q-18 0 -34.5 15t-16.5 36zM770 1145q0 23 17.5 38t37.5 15q23 0 38.5 -15.5t15.5 -37.5q0 -20 -15.5 -35.5t-38.5 -15.5q-20 0 -37.5 15t-17.5 36z" />
<glyph unicode="&#xe5;" horiz-adv-x="1146" d="M111 456.5q0 192.5 127 329t317 136.5q233 0 387 -236v227h62v-913h-62v227q-154 -236 -387 -235q-190 0 -317 136t-127 328.5zM172 457q0 -166 109.5 -284t273.5 -118q160 0 271.5 118t111.5 284t-111.5 283.5t-271.5 117.5q-164 0 -273.5 -117.5t-109.5 -283.5z M436 1403q0 66 48 114t114 48q63 0 111.5 -48.5t48.5 -113.5q0 -63 -48.5 -111.5t-111.5 -48.5q-66 0 -114 48t-48 112zM477 1403q0 -49 36 -84t85 -35t85 35t36 84t-36 84t-85 35t-85 -35t-36 -84z" />
<glyph unicode="&#xe6;" horiz-adv-x="1865" d="M90 453q0 193 127 326.5t318 133.5q236 0 387 -233v225h61v-207q59 98 157.5 151.5t215.5 53.5q180 0 334 -149v-2q117 -129 118 -281q0 -20 -4 -53h-821q14 -156 115.5 -260.5t255.5 -104.5q193 0 295 84l45 -45q-125 -100 -338 -100q-141 0 -252 73.5t-156 202.5 q-147 -276 -413 -276q-190 0 -317.5 135t-127.5 326zM152 452.5q0 -163.5 109.5 -281.5t273.5 -118q160 0 271.5 117t111.5 283q0 164 -111.5 281.5t-271.5 117.5q-164 0 -273.5 -118t-109.5 -281.5zM983 477h760q-16 154 -125.5 258.5t-263.5 104.5q-152 0 -252.5 -103.5 t-118.5 -259.5z" />
<glyph unicode="&#xe7;" horiz-adv-x="968" d="M88 454.5q0 194.5 125 330t311 135.5q211 0 320 -134l16 -20l-45 -43l-14 18q-117 117 -276.5 117t-266 -117.5t-106.5 -285.5q0 -166 106.5 -284t266 -118t276.5 117l14 18l45 -43l-16 -20q-104 -133 -320 -133q-186 0 -311 134t-125 328.5zM451 -252q49 0 83.5 17.5 t34.5 46.5q0 59 -96 59h-10l47 121h31l-35 -96q33 -2 63.5 -21.5t30.5 -62.5q0 -39 -46 -66t-101 -27z" />
<glyph unicode="&#xe8;" horiz-adv-x="1110" d="M96 444q0 195 123 327t313 132q182 0 336 -149v-2q121 -135 121 -269q0 -25 -2 -37l-4 -28h-823q14 -160 118.5 -262.5t253.5 -102.5q197 0 293 84l45 -45q-123 -100 -338 -100q-182 0 -305 117q-131 123 -131 335zM160 477h762q-14 156 -126 259.5t-261.5 103.5 t-255 -103.5t-119.5 -259.5zM401 1208l88 58l109 -164l-31 -31z" />
<glyph unicode="&#xe9;" horiz-adv-x="1103" d="M96 444q0 195 123 327t313 132q182 0 336 -149v-2q121 -135 121 -269q0 -25 -2 -37l-4 -28h-823q14 -160 118.5 -262.5t253.5 -102.5q197 0 293 84l45 -45q-123 -100 -338 -100q-182 0 -305 117q-131 123 -131 335zM160 477h762q-14 156 -126 259.5t-261.5 103.5 t-255 -103.5t-119.5 -259.5zM520 1102l107 164l86 -58l-164 -137z" />
<glyph unicode="&#xea;" horiz-adv-x="1091" d="M96 446.5q0 192.5 124 325.5t312 133q182 0 336 -149v-2q117 -133 117 -283v-25l-2 -28h-823q14 -160 118.5 -262.5t253.5 -102.5q195 0 293 84l45 -45q-123 -100 -338 -100q-188 0 -312 131t-124 323.5zM160 479h762q-14 156 -127 259.5t-262.5 103.5t-254 -103.5 t-118.5 -259.5zM295 1012l215 239h39l213 -239h-57l-177 180l-176 -180h-57z" />
<glyph unicode="&#xeb;" horiz-adv-x="1148" d="M96 444q0 193 123 325t313 132q184 0 336 -147v-2q117 -133 117 -281v-25l-2 -30h-823q14 -158 118.5 -261.5t253.5 -103.5q193 0 293 86l45 -45q-123 -100 -338 -100q-182 0 -305 117q-131 125 -131 335zM160 477h762q-14 156 -127 259.5t-262.5 103.5t-254 -103.5 t-118.5 -259.5zM270 1145q0 23 16.5 38t35.5 15q23 0 38 -15.5t15 -38t-15 -36.5t-38 -14q-18 0 -35 15t-17 36zM754 1145q0 23 16 38t38.5 15t38 -15.5t15.5 -37.5q0 -20 -15.5 -35.5t-38 -15.5t-38.5 15t-16 36z" />
<glyph unicode="&#xec;" horiz-adv-x="378" d="M76 1208l86 58l108 -164l-30 -31zM186 0v915h68v-915h-68z" />
<glyph unicode="&#xed;" horiz-adv-x="385" d="M131 1102l107 164l88 -58l-164 -137zM186 0v915h68v-915h-68z" />
<glyph unicode="&#xee;" horiz-adv-x="466" d="M-12 1012l215 239h39l213 -239h-58l-176 180l-176 -180h-57zM186 0v915h68v-915h-68z" />
<glyph unicode="&#xef;" horiz-adv-x="466" d="M0 1145q0 23 15.5 38t35.5 15q23 0 39 -15.5t16 -37.5q0 -20 -16 -35.5t-39 -15.5q-20 0 -35.5 15t-15.5 36zM186 0v915h68v-915h-68zM322 1145q0 23 15 38t37.5 15t39 -15.5t16.5 -37.5q0 -20 -16.5 -35.5t-39 -15.5t-37.5 15t-15 36z" />
<glyph unicode="&#xf1;" horiz-adv-x="933" d="M156 0v897h59v-121q53 59 132 92t151 33q121 0 200.5 -88t79.5 -215v-598h-59v598q0 100 -62.5 171t-158.5 71q-109 0 -196 -58.5t-87 -154.5v-627h-59zM231 1106q98 51 156 51q51 0 130 -29.5t97 -29.5q63 0 121 41v-64q-90 -35 -121 -35q-39 0 -112.5 31t-114.5 31 q-72 0 -149 -51z" />
<glyph unicode="&#xf2;" horiz-adv-x="1017" d="M82 454.5q0 196.5 122 335t308 138.5t308 -138.5t122 -335t-121 -329.5t-309 -133t-309 133t-121 329.5zM143 455q0 -168 103.5 -284t265.5 -116q160 0 263.5 116t103.5 284q0 170 -103.5 289.5t-263.5 119.5q-162 0 -265.5 -119.5t-103.5 -289.5zM385 1208l88 58 l109 -164l-31 -31z" />
<glyph unicode="&#xf3;" horiz-adv-x="1040" d="M82 454.5q0 196.5 122 335t308 138.5t308 -138.5t122 -335t-121 -329.5t-309 -133t-309 133t-121 329.5zM143 455q0 -168 103.5 -284t265.5 -116q160 0 263.5 116t103.5 284q0 170 -103.5 289.5t-263.5 119.5q-162 0 -265.5 -119.5t-103.5 -289.5zM487 1102l107 164 l86 -58l-164 -137z" />
<glyph unicode="&#xf4;" horiz-adv-x="1060" d="M82 453q0 199 121 337t309 138q186 0 308 -137.5t122 -334t-122 -330.5t-308 -134t-308 132t-122 329zM143 457q0 -170 103.5 -286t265.5 -116q160 0 263.5 117t103.5 285q0 170 -103.5 289.5t-263.5 119.5t-264.5 -119.5t-104.5 -289.5zM295 1012l215 239h39l213 -239 h-57l-177 180l-176 -180h-57z" />
<glyph unicode="&#xf5;" horiz-adv-x="1034" d="M82 454.5q0 196.5 122 334t308 137.5t308 -137.5t122 -334t-121 -329.5t-309 -133q-186 0 -308 133t-122 329.5zM143 459q0 -170 102.5 -288t266.5 -118q160 0 263.5 117t103.5 285q0 170 -104.5 289.5t-262.5 119.5q-160 0 -264.5 -118.5t-104.5 -286.5zM274 1104v59 h486v-59h-486z" />
<glyph unicode="&#xf6;" horiz-adv-x="1058" d="M82 454.5q0 196.5 122 334t308 137.5t308 -137.5t122 -334t-121 -329.5t-309 -133q-186 0 -308 133t-122 329.5zM143 455q0 -168 103.5 -285t265.5 -117q160 0 263.5 117t103.5 285q0 170 -103.5 289.5t-263.5 119.5t-264.5 -119.5t-104.5 -289.5zM205 1145q0 23 17.5 38 t38 15t34.5 -15.5t14 -38t-15.5 -36.5t-35.5 -14q-18 0 -35.5 15t-17.5 36zM692 1144.5q0 22.5 15.5 38t35.5 15.5q23 0 38.5 -15.5t15.5 -38t-15.5 -36.5t-38 -14t-37 14t-14.5 36.5z" />
<glyph unicode="&#xf8;" horiz-adv-x="1036" d="M82 453q0 195 122 332t308 137q115 0 211 -58l43 74h65l-61 -104q172 -137 172 -381q0 -197 -122 -329t-308 -132q-119 0 -209 53l-24 -39h-64l41 70q-174 131 -174 377zM143 453q1 -203 146 -322l401 680q-82 49 -178 49q-162 0 -265.5 -118.5t-103.5 -288.5zM334 100 q78 -47 178 -47q160 0 263.5 117t103.5 283q-1 210 -144 325z" />
<glyph unicode="&#xf9;" horiz-adv-x="917" d="M135 301v606h60v-606q0 -106 64.5 -179t160.5 -73q109 0 194.5 63.5t85.5 159.5v627h60v-899h-60v115q-90 -127 -280 -127q-123 0 -204 91t-81 222zM324 1208l88 58l106 -164l-29 -31z" />
<glyph unicode="&#xfa;" horiz-adv-x="907" d="M135 301v606h60v-606q0 -106 64.5 -179t160.5 -73q109 0 194.5 63.5t85.5 159.5v627h60v-899h-60v115q-90 -127 -280 -127q-123 0 -204 91t-81 222zM408 1102l108 164l84 -58l-160 -137z" />
<glyph unicode="&#xfb;" horiz-adv-x="890" d="M135 301v608h60v-608q0 -106 64.5 -179t160.5 -73q109 0 194.5 63.5t85.5 159.5v629h60v-901h-60v115q-90 -127 -280 -127q-123 0 -204 91t-81 222zM213 1012l215 239h39l213 -239h-57l-177 180l-176 -180h-57z" />
<glyph unicode="&#xfc;" horiz-adv-x="888" d="M135 299v606h60v-606q0 -104 64.5 -178t160.5 -74q106 0 193 64.5t87 160.5v625h60v-897h-60v115q-90 -127 -280 -127q-121 0 -203 90t-82 221zM162 1145q0 23 16.5 38t37 15t35.5 -15.5t15 -38t-14 -36.5t-37 -14q-18 0 -35.5 15t-17.5 36zM645 1145q0 23 14.5 38 t36.5 15q20 0 36 -15.5t16 -38t-15.5 -36.5t-36 -14t-36 15t-15.5 36z" />
<glyph unicode="&#xfd;" horiz-adv-x="1007" d="M131 918h74l317 -834l289 834h76l-473 -1356h-74l149 428zM459 1102l106 164l86 -58l-166 -137z" />
<glyph unicode="&#xfe;" horiz-adv-x="1159" d="M164 -442v1857h61v-715q49 106 145.5 164t213.5 58q190 0 319 -137.5t129 -331.5q0 -193 -129 -330t-319 -137q-236 0 -359 229v-657h-61zM229 453q0 -170 97.5 -287t257.5 -117q166 0 276.5 118t110.5 286q-2 170 -111.5 287.5t-275.5 117.5q-160 0 -257.5 -116.5 t-97.5 -288.5z" />
<glyph unicode="&#xff;" horiz-adv-x="1007" d="M131 918h74l317 -834l289 834h76l-473 -1356h-74l149 428zM229 1145q0 23 15.5 38t36.5 15q23 0 39 -15.5t16 -37.5q0 -20 -16 -35.5t-39 -15.5q-20 0 -36 15t-16 36zM715 1144.5q0 22.5 14 38t39 15.5q20 0 37.5 -15.5t17.5 -37.5q0 -20 -16 -35.5t-39 -15.5t-38 14 t-15 36.5z" />
<glyph unicode="&#x152;" horiz-adv-x="2531" d="M49 805q0 352 218 588.5t544 236.5q238 0 426 -131t274 -352v471h930v-51h-866v-725h610v-51h-610v-740h866v-51h-930v463q-88 -221 -275 -352t-425 -131q-326 0 -544 235.5t-218 589.5zM115 805q0 -326 198.5 -543t497.5 -217t497.5 217t198.5 543q0 324 -199.5 541 t-496.5 217t-496.5 -217.5t-199.5 -540.5z" />
<glyph unicode="&#x153;" horiz-adv-x="1824" d="M61 453q0 195 122 332t309 137q147 0 256.5 -89.5t152.5 -230.5q43 131 153.5 213t256.5 82q184 0 336 -147v-2q117 -133 116 -279v-25l-2 -30h-823q14 -156 118.5 -259.5t254.5 -103.5q190 0 293 84l45 -43q-123 -100 -338 -100q-141 0 -259 81t-155 214 q-43 -133 -151.5 -214t-253.5 -81q-188 0 -309.5 132t-121.5 329zM123 453q0 -166 103.5 -283t265.5 -117q160 0 263 117t103 283q0 170 -103 288.5t-263 118.5q-162 0 -265.5 -118.5t-103.5 -288.5zM938 475h762q-14 154 -127 257.5t-262.5 103.5t-254 -103.5 t-118.5 -257.5z" />
<glyph unicode="&#x178;" horiz-adv-x="1343" d="M88 1618h76l500 -754l499 754h76l-543 -821v-797h-65v797zM362 1757.5q0 22.5 14.5 37.5t37 15t38 -15t15.5 -37.5t-16 -38t-39 -15.5q-18 0 -34 15.5t-16 38zM850 1757q0 23 15.5 38t38 15t37.5 -15t15 -37.5t-16 -38t-39 -15.5q-20 0 -35.5 16.5t-15.5 36.5z" />
<glyph unicode="&#x2000;" horiz-adv-x="1062" />
<glyph unicode="&#x2001;" horiz-adv-x="2124" />
<glyph unicode="&#x2002;" horiz-adv-x="1062" />
<glyph unicode="&#x2003;" horiz-adv-x="2124" />
<glyph unicode="&#x2004;" horiz-adv-x="708" />
<glyph unicode="&#x2005;" horiz-adv-x="531" />
<glyph unicode="&#x2006;" horiz-adv-x="354" />
<glyph unicode="&#x2007;" horiz-adv-x="354" />
<glyph unicode="&#x2008;" horiz-adv-x="265" />
<glyph unicode="&#x2009;" horiz-adv-x="424" />
<glyph unicode="&#x200a;" horiz-adv-x="118" />
<glyph unicode="&#x2010;" d="M74 588v43h497v-43h-497z" />
<glyph unicode="&#x2011;" d="M74 588v43h497v-43h-497z" />
<glyph unicode="&#x2012;" d="M74 588v43h497v-43h-497z" />
<glyph unicode="&#x2013;" horiz-adv-x="968" d="M176 588v43h676v-43h-676z" />
<glyph unicode="&#x2014;" horiz-adv-x="1486" d="M156 588v43h1187v-43h-1187z" />
<glyph unicode="&#x201c;" horiz-adv-x="495" d="M88 1618h92l60 -244h-72zM281 1618h90l59 -244h-72z" />
<glyph unicode="&#x201d;" horiz-adv-x="495" d="M47 1374l129 244h90l-147 -244h-72zM240 1374l125 244h92l-146 -244h-71z" />
<glyph unicode="&#x2022;" horiz-adv-x="284" d="M80 827q0 31 18.5 52.5t47 21.5t48 -20.5t19.5 -53.5q0 -27 -20.5 -47t-47 -20t-46 20.5t-19.5 46.5z" />
<glyph unicode="&#x202f;" horiz-adv-x="424" />
<glyph unicode="&#x2039;" horiz-adv-x="405" d="M72 565v43l233 299v-69l-162 -252l162 -250v-70z" />
<glyph unicode="&#x203a;" horiz-adv-x="393" d="M84 266v70l162 250l-162 252v69l233 -299v-43z" />
<glyph unicode="&#x205f;" horiz-adv-x="531" />
<glyph unicode="&#x20ac;" horiz-adv-x="1310" d="M53 670l21 43h192q-8 41 -8 92q0 25 4 69h-147l20 44h133q41 203 201 333.5t367 130.5q72 0 170 -27.5t147 -66.5l-35 -47q-190 80 -280 80q-180 0 -321.5 -113.5t-182.5 -289.5h483l-20 -44h-471q-4 -45 -4 -69q0 -51 8 -92h426l-21 -43h-395q47 -170 184.5 -275.5 t311.5 -105.5q102 0 282 80l37 -52q-4 -2 -29.5 -12t-32 -13t-30 -12.5t-32.5 -12.5t-30.5 -10t-33 -10t-30.5 -8.5t-33.5 -6.5t-32 -3t-33.5 -2q-201 0 -360 124t-204 319h-221z" />
<glyph unicode="&#x2122;" horiz-adv-x="1140" d="M139 1481v39h338v-39h-145v-432h-45v432h-148zM524 1049v471h33l176 -289l176 289h33v-471h-43v370l-166 -270l-164 270v-370h-45z" />
<glyph unicode="&#xe000;" horiz-adv-x="901" d="M0 0v901h901v-901h-901z" />
</font>
</defs>
</svg>
