<svg xmlns="http://www.w3.org/2000/svg" viewBox="0 0 510.2 124.63">
  <path fill="#000" d="M56.07,37.12L69.29,76.8H42.84L56.07,37.12h0ZM42.42,3.68L0,123H27.4L35.1,99.87H77L84.73,123h27.41L69.71,3.68H42.42Z"/><path d="M117.15,123V37.14h24.08v5.58a23,23,0,0,1,17-7.25c12.36,0,21.33,8.55,21.33,20.32a49.62,49.62,0,0,1-2.41,15.77l-0.26.7H156.75l0.43-1.41a20,20,0,0,0,.79-5.2c0-5.65-2.06-8-7.12-8-6.21,0-9.63,6.09-9.63,17.15V123H117.15Z"/><polygon points="186.02 0 186.02 122.95 209.94 122.95 209.94 88.2 233.89 122.95 262.3 122.95 228.79 75.43 261.56 37.14 232.27 37.14 209.94 64.63 209.94 0 186.02 0 186.02 0"/><path d="M306.56,99.88c18.29,0,29.2-12.48,29.2-33.39,0-14.84-3.85-39.73-29.7-39.73h-12V99.88h12.47Zm-38,23.07V3.68h38.21c16.37,0,30.13,5.43,39.83,15.68,10.22,10.82,15.62,26.89,15.62,46.46,0,16-5,30.38-14.1,40.48-9.81,10.9-23.94,16.65-40.85,16.65H268.52Z"/><path d="M416.55,68.43a11.44,11.44,0,0,0-2.37-8.31c-2.12-2.49-5.5-3.75-10.05-3.75-10.46,0-13.46,7.9-13.9,12.06h26.33Zm-9.92,56.2c-25.28,0-40.39-16-40.39-42.91,0-12.68,3.35-24.11,9.42-32.21,6.89-9.19,17.14-14,29.63-14,19.55,0,33.21,13.58,33.21,33a61.27,61.27,0,0,1-2.57,17.24l-0.25.74H389.36c0.49,11.44,6.3,17.24,17.28,17.24,8.85,0,9.8-4.73,9.8-6.78a9.6,9.6,0,0,0-.29-2.21l-0.39-1.37h19.52L435.56,94a19,19,0,0,1,1.44,7.49c0,15.91-15.74,23.16-30.36,23.16"/><path d="M466.9,91.07a14.46,14.46,0,0,0-1,5.21c0,6.15,6.15,7.44,11.3,7.44,6.36,0,10.47-2.39,10.47-6.11,0-4.71-4.29-6.59-13.91-9l-1-.24c-13.1-3.18-27.95-6.78-27.95-25.74,0-16.66,12.21-27,31.86-27,15.53,0,31.2,7.26,31.2,23.5a18.61,18.61,0,0,1-1.46,7.55H484.82a16.12,16.12,0,0,0,.63-4c0-4.63-4.45-6.28-8.62-6.28-6.13,0-9.8,2.16-9.8,5.78,0,3.28,3.68,5.35,13.55,7.65,13.2,3,29.61,6.74,29.61,26.65,0,17.91-12.16,28.18-33.37,28.18-20.48,0-33.71-9.68-33.71-24.67a17.14,17.14,0,0,1,2.25-8.87l21.53,0h0Z"/>
</svg>
