<svg viewBox="0 0 683.18 478.84" version="1.1" xmlns="http://www.w3.org/2000/svg">
  <path fill="#000" d="M301,478.81c20.86,0,41.4-8.71,55.66-20.87,13.62-11.72,22-34,22-59.59l0-.64h12.63l63.71,78.85h42.73l-67-82a46.07,46.07,0,0,0,17.91-10.43,49.88,49.88,0,0,0,15.86-36.34c0-6.95-1.45-14.2-4.05-19.4H560.61V239.95l78.3,88.45h44.27L594.91,231l78.81-82H628.17L560.61,220.5V149H272.11l-42.35-52a46.24,46.24,0,0,0,17.91-10.54,50.17,50.17,0,0,0,0-73.21C238.72,5.13,227,0,208.53,0H143V96L103.4,0H76.76L0,179.36H36.08L53,139.5h73.45L143,179.07v.29h0V298.07H94.7L64.92,328.39h78V476.56h34.66V328.39h44.19v69.88c0,25.57,8.47,48,22.09,59.69,14.26,12.16,34.83,20.87,55.7,20.87ZM66,109.18,89.49,54.1l23.62,55.08Zm353.36,70.18v119a79.14,79.14,0,0,0-10-.25H378.65V179.36Zm-157.3,0h6.53V292.74l-56.26-61.88Zm-84.45-149h28.86c10,0,14.33,2.49,17.4,5.82a21.22,21.22,0,0,1,0,27.64c-3.07,3.33-7.42,5.54-17.4,5.54H177.63Zm12.74,69.32L237,157.85,177.63,220.5V149h0V99.64ZM177.63,298.07V239.95l51.7,58.12h-51.7ZM344,381.58c0,30.58-1.3,40.95-10,50.57-7.48,8.25-20.49,13-32.9,13s-24.78-3.73-32.71-11.08c-7.66-6.84-11-19.34-11-35.55V328.39h45.92v-149H344V298.07h0Zm80.72-20.29c-3.07,3.33-7.42,5.23-17.4,5.23H378.65V328.39h28.66c10,0,14.33,2.31,17.4,5.64a20.71,20.71,0,0,1,0,27.25ZM525.95,297.2H454V246.94h25.35l29.81-30.33H454V179.36h71.92Z"></path>
</svg>
