<svg height="693" viewBox="0 0 683 693" width="683" xmlns="http://www.w3.org/2000/svg"><g fill="none"><path d="m0 321c0-63 34-144 75-191 42-47 111-72 173-92 61-21 140-50 196-31s106 89 139 142c32 54 52 116 55 178 3 61-4 143-39 190s-111 78-171 93c-126.153676 31.582544-259.573506-6.537408-350-100-41-48-77-125-78-189z" fill="#ffcf4e"/><path d="m671 494c-26 53-110 94-169 117-58 23-125 31-182 20-57-10-114-43-158-81-43-39-93-95-105-151-12-55 8-127 32-184 25-57 63-130 114-157 51-28 129-12 194-5 65 6 153 4 197 43s52 126 65 193c13 66 38 151 12 205z" fill="#f0f"/><path d="m352 692c-58-5-124-57-169-100-44-43-83-101-97-158-13-57-8-130 15-185 22-54 70-110 120-141 50-30 122-48 180-43 59 4 127 32 172 70s85 101 99 158c15 58 11 133-11 188-23 54-75 104-126 139-52 35-124 76-183 72z" fill="#0ebeff"/></g></svg>