<svg xmlns="http://www.w3.org/2000/svg" viewBox="82 68 172.9 71"><path class="st0" d="M82 108.4h9c6 0 11.6 3.7 11.6 11.4 0 7.8-6.6 11.4-12.1 11.4H82v-22.8m7.1 19.2c5.1 0 9.3-2.2 9.3-7.8s-3.6-7.8-8.6-7.8h-3.7v15.5h3zm19.4-11.8v16.5c0 3.9-.8 6.8-5.2 6.8-.7 0-1.4-.1-2.1-.3l.3-1.7c.6.1 3.2.4 3.2-4.8v-16.5h3.8m-1.9-7.6c1.4 0 2.5 1 2.5 2.3 0 1.3-1.1 2.3-2.5 2.3s-2.5-1.1-2.5-2.3c0-1.2 1.1-2.3 2.5-2.3zm19 23.1h-3.7v-2.5h-.1c-.7 1.6-2.2 2.9-4.8 2.9-4.2 0-5.7-3-5.7-6.1v-9.8h3.9v7.9c0 1.7.1 4.6 2.8 4.6 2.6 0 3.6-1.9 3.6-3.9v-8.5h3.9v15.4m2.8-15.5h3.9v2.5h.1c.8-1.8 2.6-2.8 4.6-2.8.5 0 .9.1 1.4.2v3.7c-.6-.2-1.3-.3-1.9-.3-3.7 0-4.2 3.1-4.2 3.9v8.3h-3.9v-15.5m14.1 9.1c.3 2.3 2 3.7 4.2 3.7 1.9 0 3.2-.9 4.2-2.1l2.8 2.1c-1.8 2.2-4.1 3.1-6.6 3.1-4.7 0-8.4-3.3-8.4-8.2 0-4.9 3.7-8.1 8.4-8.1 4.3 0 7.3 3 7.3 8.4v1.1h-11.9m7.9-2.9c0-2.3-1.5-3.7-3.9-3.7-2.3 0-3.7 1.4-4 3.7h7.9zm5.4-6.2h3.7v2.5h.1c.7-1.6 2.2-2.9 4.8-2.9 4.2 0 5.7 2.9 5.7 6.1v9.8h-3.9v-7.9c0-1.7-.1-4.6-2.8-4.6-2.6 0-3.6 1.9-3.6 3.9v8.5h-3.9v-15.4m25.1 4.3c-.7-1-1.7-1.6-3-1.6-1 0-2.3.5-2.3 1.7 0 2.8 8.4.5 8.4 6.6 0 3.7-3.5 5-6.7 5-2.4 0-4.5-.6-6.1-2.4l2.6-2.4c1 1.1 2 1.9 3.7 1.9 1.1 0 2.6-.5 2.6-1.8 0-3.2-8.4-.7-8.4-6.6 0-3.5 3.1-5 6.2-5 2.1 0 4.3.7 5.5 2.4l-2.5 2.2m10.1-11.7h7.9c4.4 0 8.5 1.4 8.5 6.6 0 3.3-1.9 5.7-5.3 6.2l6.1 10.1h-4.9l-5.3-9.7h-3v9.7h-4v-22.9m7.2 9.7c2.3 0 5-.2 5-3.2 0-2.7-2.5-3-4.6-3H195v6.2h3.2zm20.9 11.1h-.1c-1.1 1.7-2.9 2.5-5 2.5-2.9 0-5.7-1.6-5.7-4.7 0-5 5.9-5.4 9.8-5.4h1v-.4c0-1.9-1.5-2.9-3.6-2.9-1.6 0-3.1.6-4.1 1.6l-2-2c1.7-1.7 4.1-2.5 6.6-2.5 6.6 0 6.6 4.8 6.6 7v8.9h-3.5v-2.1m-6.6-20.8c1.4 0 2.5 1 2.5 2.3 0 1.3-1.1 2.3-2.5 2.3s-2.5-1.1-2.5-2.3c0-1.2 1.1-2.3 2.5-2.3zm6.3 15.9h-.8c-2.1 0-5.8.2-5.8 2.4 0 1.4 1.5 2 2.7 2 2.6 0 3.9-1.4 3.9-3.6v-.8zm.3-15.9c1.4 0 2.5 1 2.5 2.3 0 1.3-1.1 2.3-2.5 2.3s-2.5-1.1-2.5-2.3c.1-1.2 1.1-2.3 2.5-2.3zm4.2 10.7v-3.3h3.2v-5.4h3.9v5.4h4.3v3.3h-4.3v6.8c0 1.5.4 2.5 2.2 2.5.7 0 1.6-.1 2.1-.5v3.3c-.8.4-2.2.5-3.1.5-4.1 0-5.1-1.8-5.1-5.5v-7.1h-3.2"/><path class="st0" d="M234.2 119.1v-3.3h3.2v-5.4h3.9v5.4h4.3v3.3h-4.3v6.8c0 1.5.5 2.5 2.2 2.5.7 0 1.6-.1 2.1-.5v3.3c-.8.4-2.2.5-3.1.5-4.1 0-5.1-1.8-5.1-5.5v-7.1h-3.2m18.1 7.4c1.4 0 2.6 1.1 2.6 2.5s-1.2 2.5-2.6 2.5c-1.4 0-2.6-1.1-2.6-2.5s1.2-2.5 2.6-2.5m-68-51.6c-2-3.4-8.3-9-20.8-4.1-3.2 1.2-6.3 2.9-9.6 1.8-3-1-7.9-2.4-10.8-3.6-4.5-1.8-9.9-1-12.3 1.5-1.4 1.5-8.4 8.8 1.5 20.3 7.8 9 26.6 13.6 31.4 13.8h.4c1.1.1 1.7 0 1.7 0 2-.1-6.4-4-7-4.9 3.9-.6 24.7-3.2 26.9-18 .3-2.3-.2-4.7-1.4-6.8"/></svg>
