<svg xmlns="http://www.w3.org/2000/svg" viewBox="0 0 947 197">
  <defs/>
  <g fill="#111" fill-rule="nonzero">
    <path d="M56.2 146v-2c-13-5-14.3-8.8-14.4-13.4v-.6-.6-74h22V46h-22l-.9-5.6-.2-1.3c-1.1-6.6-2.3-13.4-2.3-17.7 0-4.6 2.4-7 6.4-7 5.4 0 13.2 4 22.2 8.8l1-.6V0C28.6 0 13.4 21.6 13.4 44.8V46L3 53.4v2h10.4v74.4c0 5-.4 8.8-10.4 14.2v2h53.2zM94.5 36c8.2 0 14.8-5 14.8-13.2 0-8.4-6.6-13.4-14.8-13.4-8.4 0-15 5-15 13.4 0 8.2 6.6 13.2 15 13.2zm38.6 0c8.2 0 14.8-5 14.8-13.2 0-8.4-6.6-13.4-14.8-13.4-8.4 0-15 5-15 13.4 0 8.2 6.6 13.2 15 13.2zm-19.4 112c34.2 0 49.6-20.6 49.6-52S148 44 113.7 44c-34.4 0-49.6 20.6-49.6 52s15.2 52 49.6 52zm0-10.8c-13.8 0-19.4-15.4-19.4-43 0-29.2 5.6-39.4 19.4-39.4 13.6 0 19.4 15.4 19.4 43 0 29.2-5.6 39.4-19.4 39.4zm108.6 8.8v-2c-12.4-4.8-14.1-8.4-14.4-12.6v-.3-.6-.5-52.2a31 31 0 0120.2-7c4.2 0 8.6.8 10.4 1.2l9.2-26.2c-2.8-1-8.6-1.8-12.4-1.8-6.2 0-11.2 1.6-15.8 4.8l-11.2 21.4h-.4V46h-39v2c9.6 4.8 10.3 11.5 10.4 17.2v65.4c-.1 4.5-1 8.3-10.4 13.4v2h53.4zm78.5 0v-2c-13-5-14.3-8.8-14.4-13.4v-.6-.6-74h22V46h-22l-.9-5.6-.2-1.3c-1.1-6.6-2.3-13.4-2.3-17.7 0-4.6 2.4-7 6.4-7 5.4 0 13.2 4 22.2 8.8l1-.6V0C273.2 0 258 21.6 258 44.8V46l-10.4 7.4v2H258v74.4c0 5-.4 8.8-10.4 14.2v2h53.2zm35.1 2c9.6 0 14.4-2.6 17.8-4.8l12.2-13.8 1 16.6h37.8v-2c-9.6-5.2-10.3-9-10.4-13.3v-.4-55.1c0-23-16.4-31.2-40.2-31.2-10 0-22.4 2.4-31.2 5.6l-7.2 19.2.8.8c12.4-4.6 21.2-6 32.4-6 10 0 17 4.4 17 16.8v8.2l-33.4 6.8c-14.8 3.2-23.4 12.4-23.4 25.4 0 15.2 9.6 27.2 26.8 27.2zm16.4-20.4c-9.4 0-13-6.2-13-14 0-5.2 2-9.6 6.6-11.2l20-7.2v27.6a24.5 24.5 0 01-13.6 4.8zm86.8 20.4c9.8 0 18.4-2.6 27.8-7.2v-2c-18 .4-23.2-1-23.2-14V55.4h23V46h-23V26h-2l-22 18.2-14 9.2v2h9.6v69.4c0 17 9.2 23.2 23.8 23.2zm61.3 0c9.8 0 18.4-2.6 27.8-7.2v-2c-18 .4-23.2-1-23.2-14V55.4h23V46h-23V26h-2l-22 18.2-14 9.2v2h9.6v69.4c0 17 9.2 23.2 23.8 23.2zm56 0c9.5 0 14.3-2.6 17.7-4.8l12.2-13.8 1 16.6h37.8v-2c-9.6-5.2-10.3-9-10.4-13.3v-.4-55.1c0-23-16.4-31.2-40.2-31.2-10 0-22.4 2.4-31.2 5.6l-7.2 19.2.8.8c12.4-4.6 21.2-6 32.4-6 10 0 17 4.4 17 16.8v8.2L553 95.4c-14.8 3.2-23.4 12.4-23.4 25.4 0 15.2 9.6 27.2 26.8 27.2zm16.3-20.4c-9.4 0-13-6.2-13-14 0-5.2 2-9.6 6.6-11.2l20-7.2v27.6a24.5 24.5 0 01-13.6 4.8zM680.5 146v-2c-12.4-4.8-14.1-8.4-14.4-12.6v-.3-.6-.5-52.2a31 31 0 0120.2-7c4.2 0 8.6.8 10.4 1.2l9.2-26.2c-2.8-1-8.6-1.8-12.4-1.8-6.2 0-11.2 1.6-15.8 4.8l-11.2 21.4h-.4V46h-39v2c9.6 4.8 10.3 11.5 10.4 17.2v65.4c-.1 4.5-1 8.3-10.4 13.4v2h53.4zm72.3 2c20.8 0 34.2-9.6 38.8-25.6v-2c-6.4 4.4-15 8.8-25.8 8.8-20.4 0-30.4-15.2-31.6-35l60 .2c.6-4.6 1-9 1-12.8 0-30-21.2-37.6-38.2-37.6-37.4 0-53 25.8-53 52.4 0 31.4 17.8 51.6 48.8 51.6zm-18.6-61.6c1-23 9-31.6 20.4-31.6 9.2 0 15.6 7.2 15.6 20.8 0 2.4-.2 4.6-.6 7.2l-35.4 3.6zM849.3 146v-2c-9.6-5.2-10.3-9-10.4-13.3v-.4-56.5c4.4-3 11-6.6 21-6.6 8 0 13.2 3.6 13.2 12V130c0 4.6-.2 8.6-8.4 14v2H912v-2c-9.6-5.2-10.3-9-10.4-13.3v-.4-57.1c0-19.6-11-29.2-28.6-29.2-7.2 0-13 2.4-16.8 4.6l-16.8 17.6h-.4V46h-39v2c10.2 5 10.4 12.2 10.4 18.1v65c0 4.1-1 7.9-10.4 12.9v2h49.4zm84.2 2c7.4 0 13.4-6 13.4-13.6 0-7.4-6-13.6-13.4-13.6s-13.6 6.2-13.6 13.6c0 7.6 6.2 13.6 13.6 13.6zM4.7 196.2c3.3 0 5.6-1.6 5.6-4.5 0-5-7.6-4.7-7.6-8.7 0-1.5 1-2.6 2.7-2.6 1.7 0 2.6.8 3.7 3h.5v-3.2c-1.6-.5-2.4-.8-4.2-.8-3.2 0-5 1.9-5 4.3 0 5.2 7.4 4.5 7.4 8.8 0 1.6-1 2.7-3.2 2.7-1.6 0-2.8-.7-3.8-2.9H.2v3.2c1.7.5 2.8.7 4.5.7zm15.3 0l4.4-13.8c.4-1.2.7-1.6 2-2.2v-.5h-4.5v.5c1.8.3 1.8.9 1.5 1.7l-3.7 12-4.4-12c-.2-.8-.1-1.5 1.1-1.7v-.5h-5.1v.5c1 .3 1.2.8 1.5 1.7L18 196h2zm18.7-.2l.3-3.6h-.5c-1.2 2-1.4 2.6-2.1 2.6h-5v-6.8H34c1.2 0 1.5 0 2 1.7h.4v-4.4h-.5c-.3 1.6-.7 1.7-1.6 1.7h-2.8v-6.5h4.9c.7 0 .8.5 1.8 2.6h.5v-3.6H27.4v.5c1.6.2 1.6.8 1.6 1.9v11.5c0 1.1 0 1.7-1.6 1.9v.5h11.3zm8 0v-.5c-1.5-.2-1.6-.7-1.6-1.6v-5.2H47c1.8 0 2 1.4 2.4 2.2l1.7 5.1h3.6v-.5c-1.2-.2-1.4-.9-1.6-1.4l-1-2.7a4.6 4.6 0 00-2.8-3c2.2-.5 3.8-2 3.8-4.3 0-3-1.8-4.4-5.3-4.4H41v.5c1.7.2 1.7.8 1.7 1.9v11.5c0 1.1 0 1.7-1.7 1.9v.5h5.7zm.4-8.3h-2v-7h2c2.7 0 3.5 1 3.5 3.4 0 2.3-.8 3.6-3.5 3.6zm14.5 8.3v-.5c-1.5-.2-1.6-.7-1.6-1.6v-12c0-1 .1-1.5 1.6-1.7v-.5H56v.5c1.6.2 1.6.8 1.6 1.9v11.5c0 1.1 0 1.7-1.6 1.9v.5h5.6zm9.7.2c1.9 0 3.3 0 5.1-.4v-5.2c0-1 .1-1.4 1.4-1.6v-.5h-5.6v.5c1.8.3 1.8.8 1.8 2v3.7c-.7.3-1.6.5-2.7.5-3.1 0-5-2.3-5-7.4 0-5 1.9-7.4 5-7.4 2.1 0 3.2.8 4.2 3h.5v-3.5c-1.8-.3-2.8-.5-4.7-.5-4.1 0-7.6 2.6-7.6 8.4 0 5.8 3.5 8.4 7.6 8.4zm19.5-.2l.2-3.6h-.5c-1.2 2-1.4 2.6-2.1 2.6h-5v-6.8H86c1 0 1.4 0 1.8 1.7h.6v-4.4h-.6c-.3 1.6-.7 1.7-1.6 1.7h-2.7v-6.5h4.8c.7 0 .8.5 1.9 2.6h.5v-3.6H79.4v.5c1.7.2 1.7.8 1.7 1.9v11.5c0 1.1 0 1.7-1.7 1.9v.5h11.4zm7 .2c3.2 0 5.5-1.6 5.5-4.5 0-5-7.6-4.7-7.6-8.7 0-1.5 1-2.6 2.7-2.6 1.7 0 2.6.8 3.7 3h.5v-3.2c-1.6-.5-2.4-.8-4.2-.8-3.2 0-5 1.9-5 4.3 0 5.2 7.4 4.5 7.4 8.8 0 1.6-1 2.7-3.1 2.7-1.7 0-2.8-.7-4-2.9h-.4v3.2c1.6.5 2.8.7 4.5.7zm19.5-.2c3.3 0 5.7-1.2 5.7-4.5 0-2.1-1.4-3.8-4.4-4v-.1c2.6-.4 3.7-1.8 3.7-3.7 0-3-2.1-4-5.3-4H111v.5c1.6.2 1.6.8 1.6 1.9v11.5c0 1.1 0 1.7-1.6 1.9v.5h6.4zm-1-9h-1.4v-6.3h1.4c2.3 0 3.4.6 3.4 3.1 0 2.6-1 3.2-3.4 3.2zm.4 8H115v-7h1.6c2.6 0 4 .7 4 3.5 0 2.7-1.4 3.5-3.8 3.5zm12.5-16.5c.6 0 1.2-.5 1.2-1.2s-.6-1.2-1.2-1.2c-.7 0-1.3.5-1.3 1.2s.6 1.2 1.3 1.2zm4.3 0c.7 0 1.3-.5 1.3-1.2s-.6-1.2-1.3-1.2c-.7 0-1.2.5-1.2 1.2s.5 1.2 1.2 1.2zm-5 17.5v-.5c-1.7-.4-1.7-1-1.5-1.7l1.1-3.5h5.3l1.2 3.5c.2.8.1 1.5-1 1.7v.5h5v-.5c-.9-.3-1.2-.8-1.5-1.7l-4.7-14.2h-2l-4.3 13.7c-.4 1.2-.8 1.6-2 2.2v.5h4.5zm4.6-6.7h-4.7l2.3-7.4 2.4 7.4zm11.5 7c3.2 0 5.5-1.7 5.5-4.6 0-5-7.6-4.7-7.6-8.7 0-1.5 1-2.6 2.8-2.6 1.6 0 2.5.8 3.6 3h.5v-3.2c-1.6-.5-2.3-.8-4.2-.8-3.2 0-5 1.9-5 4.3 0 5.2 7.4 4.5 7.4 8.8 0 1.6-1 2.7-3.1 2.7-1.7 0-2.8-.7-3.9-2.9h-.5v3.2c1.6.5 2.8.7 4.5.7zm16.2-.3v-.5c-1.5-.2-1.6-.7-1.6-1.6v-13.2h2.4c.7 0 .8.5 1.8 2.6h.5v-3.6h-12v3.6h.6c1-2 1.1-2.6 1.9-2.6h2.4V194c0 1-.2 1.4-1.7 1.6v.5h5.7zm8.5 0v-.5c-1.8-.4-1.8-1-1.6-1.7l1.1-3.5h5.4l1.1 3.5c.3.8.2 1.5-1 1.7v.5h5.1v-.5c-1-.3-1.2-.8-1.5-1.7l-4.8-14.2h-2l-4.3 13.7c-.4 1.2-.8 1.6-2 2.2v.5h4.5zm4.5-6.7h-4.6l2.2-7.4 2.4 7.4zm21 6.7v-.5c-1.5-.2-1.6-.7-1.6-1.6v-13.2h2.4c.8 0 .8.5 1.9 2.6h.5v-3.6h-12v3.6h.5c1-2 1.2-2.6 2-2.6h2.3v12.9c0 1.1 0 1.7-1.6 1.9v.5h5.6zm10.7 0v-.5c-1.5-.2-1.6-.7-1.6-1.6v-12c0-1 .1-1.5 1.6-1.7v-.5h-5.6v.5c1.6.2 1.6.8 1.6 1.9v11.5c0 1.1 0 1.7-1.6 1.9v.5h5.6zm9.2 0c4.2 0 7.5-2.4 7.5-8.2 0-5.7-3.3-8.1-7.5-8.1h-7.2v.5c1.6.2 1.6.8 1.6 1.9v11.5c0 1.1 0 1.7-1.6 1.9v.5h7.2zm0-1h-3.2v-14.3h3.2c3 0 5 1.7 5 7.1 0 5.5-2 7.2-5 7.2zm14.6 1v-.5c-2-.2-2.2-.7-2.2-1.7v-10.7l9.6 12.9h.6v-14.2c0-1 .2-1.4 1.7-1.6v-.5h-5v.5c2.2.2 2.2.7 2.2 1.9v8.9l-8.5-11.3h-3.4v.5c1.6.2 1.6.8 1.6 1.9v11.5c0 1.2 0 1.6-1.6 1.9v.5h5zm17.3 0v-.5c-1.5-.2-1.6-.7-1.6-1.6v-12c0-1 0-1.5 1.6-1.7v-.5h-5.7v.5c1.7.2 1.7.8 1.7 1.9v11.5c0 1.1 0 1.7-1.7 1.9v.5h5.7zm7 0v-.5c-2-.2-2.2-.7-2.2-1.7v-10.7L261 196h.6v-14.2c0-1 .1-1.4 1.7-1.6v-.5h-5v.5c2.2.2 2.2.7 2.2 1.9v8.9l-8.6-11.3h-3.3v.5c1.6.2 1.6.8 1.6 1.9v11.5c0 1.2 0 1.6-1.6 1.9v.5h5zm19.3.2c1.9 0 3.3 0 5.1-.4v-5.2c0-1 .1-1.4 1.4-1.6v-.5h-5.7v.5c1.9.3 1.9.8 1.9 2v3.7c-.7.3-1.6.5-2.7.5-3.1 0-5-2.3-5-7.4 0-5 1.9-7.4 5-7.4 2.1 0 3.2.8 4.2 3h.5v-3.5c-1.8-.3-2.8-.5-4.7-.5-4.2 0-7.6 2.6-7.6 8.4 0 5.8 3.4 8.4 7.6 8.4zm20-.2v-.5c-2.1-.2-2.3-.7-2.3-1.7v-5.3h2.5c1.1 0 1.5 0 2 1.7h.4v-4.4h-.5c-.4 1.6-.8 1.6-1.9 1.6h-2.5v-6.7h4.8c.8 0 .9.5 2 2.6h.4v-3.6h-11.2v.5c1.6.2 1.6.8 1.6 1.9v11.5c0 1.1 0 1.7-1.6 1.9v.5h6.4zm12.3-17.5c.7 0 1.2-.5 1.2-1.2s-.5-1.2-1.2-1.2-1.3.5-1.3 1.2.6 1.2 1.3 1.2zm4.4 0c.7 0 1.2-.5 1.2-1.2s-.5-1.2-1.2-1.2-1.2.5-1.2 1.2.5 1.2 1.2 1.2zm-2.3 17.7c4.1 0 7.4-2.6 7.4-8.4 0-5.7-3.3-8.4-7.4-8.4-4.2 0-7.5 2.7-7.5 8.4 0 5.8 3.3 8.4 7.5 8.4zm0-1c-3 0-5-2-5-7.4s2-7.4 5-7.4 4.9 2 4.9 7.4c0 5.5-2 7.4-5 7.4zm15.2.8v-.5c-1.5-.2-1.6-.7-1.6-1.6v-5.2h2c1.7 0 2 1.4 2.3 2.2l1.7 5.1h3.6v-.5c-1.2-.2-1.4-.9-1.6-1.4l-1-2.7a4.6 4.6 0 00-2.8-3c2.2-.5 3.8-2 3.8-4.3 0-3-1.8-4.4-5.3-4.4h-6.8v.5c1.7.2 1.7.8 1.7 1.9v11.5c0 1.1 0 1.7-1.7 1.9v.5h5.7zm.4-8.3h-2v-7h2c2.7 0 3.5 1 3.5 3.4 0 2.3-.8 3.6-3.5 3.6zm23.6 8.3v-.5c-1.5-.2-1.6-.7-1.7-1.6v-4.6l3.6-7c.5-1 1-1.5 2.3-2.1v-.5h-4.5v.5c1.8.3 1.6.9 1.2 1.7l-3.1 6.2-3-6.2c-.5-.8-.6-1.5.6-1.7v-.5h-5.5v.5c1 .3 1.6.9 2 1.7l4 7.9v3.8c0 1.1 0 1.7-1.6 1.9v.5h5.7zm11 0v-.5c-1.5-.2-1.7-.7-1.7-1.6v-5.2h2c1.7 0 2 1.4 2.4 2.2l1.7 5.1h3.6v-.5c-1.1-.2-1.4-.8-1.6-1.2v-.2l-1-2.7a4.6 4.6 0 00-2.8-3c2.2-.5 3.8-2 3.8-4.3 0-3-1.8-4.4-5.4-4.4h-6.7v.5c1.5.2 1.6.7 1.6 1.6v12c0 1-.1 1.5-1.6 1.7v.5h5.6zm.4-8.3h-2v-7h2c2.6 0 3.5 1 3.5 3.4 0 2.3-.9 3.6-3.5 3.6zm14.5 8.3v-.5c-1.5-.2-1.6-.7-1.6-1.6v-4.3l1.4-1.4 4 5.6c.4.7.7 1.5-.5 1.7v.5h5.7v-.5c-.8-.3-1.5-.7-2-1.5l-5.4-7.6 4.2-4a10 10 0 013-2.2v-.5h-4.6v.5c1.6.3 1.2 1 .6 1.7l-6.4 6.3v-6.4c0-1 0-1.4 1.6-1.6v-.5h-5.7v.5c1.5.2 1.6.7 1.7 1.6v12c0 1-.2 1.5-1.7 1.7v.5h5.7zm21.4 0l.2-3.6h-.5c-1.2 2-1.3 2.6-2 2.6h-5v-6.8h2.5c1.1 0 1.5 0 1.9 1.7h.5v-4.4h-.5c-.4 1.6-.7 1.7-1.7 1.7h-2.7v-6.5h4.8c.8 0 .8.5 1.9 2.6h.5v-3.6h-11.2v.5c1.5.2 1.6.7 1.6 1.6v12c0 1-.1 1.5-1.6 1.7v.5h11.3zm7 .2c3.2 0 5.5-1.6 5.5-4.5 0-5-7.5-4.7-7.5-8.7 0-1.5 1-2.6 2.7-2.6 1.6 0 2.5.8 3.6 3h.5v-3.2c-1.6-.5-2.3-.8-4.1-.8-3.2 0-5.1 1.9-5.1 4.3 0 5.2 7.4 4.5 7.4 8.8 0 1.6-1 2.7-3 2.7-1.7 0-2.9-.7-4-2.9h-.5v3.2c1.6.5 2.8.7 4.5.7zm15.3 0l4.4-13.8c.4-1.2.7-1.6 2-2.2v-.5h-4.6v.5c1.8.3 1.8.9 1.6 1.7l-3.8 12-4.3-12c-.3-.8-.1-1.5 1-1.7v-.5h-5v.5c1 .3 1.2.8 1.5 1.7L414 196h2zm18.7-.2l.3-3.6h-.5c-1.2 2-1.4 2.6-2.1 2.6h-5v-6.8h2.5c1.1 0 1.5 0 2 1.7h.4v-4.4h-.5c-.4 1.6-.7 1.7-1.6 1.7h-2.8v-6.5h4.8c.8 0 .9.5 2 2.6h.4v-3.6h-11.2v.5c1.5.2 1.6.7 1.6 1.6v12c0 1-.1 1.5-1.6 1.7v.5h11.3zm8 0v-.5c-1.5-.2-1.7-.7-1.7-1.6v-5.2h2c1.7 0 2 1.4 2.4 2.2l1.7 5.1h3.6v-.5c-1.1-.2-1.4-.8-1.6-1.2v-.2l-1-2.7a4.6 4.6 0 00-2.8-3c2.2-.5 3.8-2 3.8-4.3 0-3-1.8-4.4-5.4-4.4h-6.7v.5c1.5.2 1.6.7 1.6 1.6v12c0 1-.1 1.5-1.6 1.7v.5h5.6zm.4-8.3h-2v-7h2c2.6 0 3.5 1 3.5 3.4 0 2.3-.9 3.6-3.5 3.6zm14.5 8.3v-.5c-1.5-.2-1.6-.7-1.6-1.6v-4.3l1.4-1.4 4 5.6c.4.7.7 1.5-.5 1.7v.5h5.7v-.5c-.9-.3-1.5-.7-2-1.5l-5.4-7.6 4.2-4a10 10 0 013-2.2v-.5h-4.6v.5c1.6.3 1.2 1 .6 1.7l-6.4 6.3v-6.4c0-1 0-1.4 1.6-1.6v-.5H452v.5c1.5.2 1.6.7 1.7 1.6v12c0 1-.2 1.5-1.7 1.7v.5h5.7zm14.8.2c3.2 0 5.5-1.6 5.5-4.5 0-5-7.5-4.7-7.5-8.7 0-1.5 1-2.6 2.7-2.6 1.6 0 2.5.8 3.6 3h.5v-3.2c-1.6-.5-2.3-.8-4.2-.8-3.1 0-5 1.9-5 4.3 0 5.2 7.4 4.5 7.4 8.8 0 1.6-1 2.7-3.1 2.7-1.7 0-2.8-.7-3.9-2.9h-.5v3.2c1.6.5 2.8.7 4.5.7zm11-.2v-.5c-1.8-.4-1.8-1-1.5-1.7l1-3.5h5.4l1.2 3.5c.2.8.1 1.5-1 1.7v.5h5v-.5c-1-.3-1.2-.8-1.5-1.7l-4.7-14.2h-2l-4.4 13.7c-.4 1.2-.7 1.6-2 2.2v.5h4.5zm4.6-6.7h-4.7l2.3-7.4 2.4 7.4zM503 196l5-14.7v12.2c0 1.1 0 1.7-1.7 1.9v.5h5.7v-.5c-1.5-.2-1.7-.7-1.7-1.6v-12c0-1 .2-1.5 1.7-1.7v-.5h-4.5l-4.2 12.4-4.7-12.4h-3.8v.5c1.6.2 1.6.8 1.6 1.9v11.5c0 1.2 0 1.6-1.6 1.9v.5h4.8v-.5c-2-.2-2.1-.7-2.1-1.7v-10.5l4.9 12.8h.6zm19.1 0l5-14.7v12.2c0 1.1 0 1.7-1.6 1.9v.5h5.6v-.5c-1.5-.2-1.6-.7-1.6-1.6v-12c0-1 .1-1.5 1.6-1.7v-.5h-4.4l-4.3 12.4-4.7-12.4H514v.5c1.6.2 1.6.8 1.6 1.9v11.5c0 1.2 0 1.6-1.7 1.9v.5h4.9v-.5c-2-.2-2.2-.7-2.2-1.7v-10.5l4.9 12.8h.6zm14.5-.1v-.5c-1.8-.4-1.8-1-1.5-1.7l1-3.5h5.4l1.1 3.5c.3.8.2 1.5-1 1.7v.5h5.1v-.5c-1-.3-1.2-.8-1.5-1.7l-4.7-14.2h-2l-4.4 13.7c-.4 1.2-.7 1.6-2 2.2v.5h4.5zm4.6-6.7h-4.7l2.3-7.4 2.4 7.4zm18.7 6.7v-.5c-2.2-.2-2.4-.7-2.4-1.7v-5.3h2.5c1.2 0 1.5 0 2 1.7h.4v-4.4h-.5c-.4 1.6-.7 1.6-1.9 1.6h-2.5v-6.7h4.9c.7 0 .8.5 1.8 2.6h.5v-3.6h-11.2v.5c1.6.2 1.6.8 1.6 1.9v11.5c0 1.1 0 1.7-1.6 1.9v.5h6.4zm12.2-17.5c.7 0 1.2-.5 1.2-1.2s-.5-1.2-1.2-1.2-1.3.5-1.3 1.2.6 1.2 1.3 1.2zm4.4 0c.7 0 1.2-.5 1.2-1.2s-.5-1.2-1.2-1.2-1.2.5-1.2 1.2.5 1.2 1.2 1.2zm-2.3 17.7c4.1 0 7.4-2.6 7.4-8.4 0-5.7-3.3-8.4-7.4-8.4-4.2 0-7.5 2.7-7.5 8.4 0 5.8 3.3 8.4 7.5 8.4zm0-1c-3 0-5-2-5-7.4s2-7.4 5-7.4 4.9 2 4.9 7.4c0 5.5-2 7.4-5 7.4zm15.2.8v-.5c-1.5-.2-1.6-.7-1.6-1.6v-5.2h2c1.7 0 2 1.4 2.3 2.2l1.7 5.1h3.6v-.5c-1.2-.2-1.4-.9-1.6-1.4l-1-2.7a4.6 4.6 0 00-2.8-3c2.2-.5 3.8-2 3.8-4.3 0-3-1.8-4.4-5.3-4.4h-6.8v.5c1.7.2 1.7.8 1.7 1.9v11.5c0 1.1 0 1.7-1.7 1.9v.5h5.7zm.4-8.3h-2v-7h2c2.7 0 3.5 1 3.5 3.4 0 2.3-.8 3.6-3.5 3.6zM605 196v-.5c-2.1-.2-2.3-.7-2.3-1.7v-5.3h2.5c1.1 0 1.5 0 1.9 1.7h.5v-4.4h-.5c-.4 1.6-.8 1.6-2 1.6h-2.4v-6.7h4.8c.8 0 .8.5 1.9 2.6h.5v-3.6h-11.2v.5c1.6.2 1.6.8 1.6 1.9v11.5c0 1.1 0 1.7-1.6 1.9v.5h6.3zm10.3 0v-.5c-1.8-.4-1.8-1-1.6-1.7l1.1-3.5h5.4l1.1 3.5c.3.8.2 1.5-1 1.7v.5h5.1v-.5c-1-.3-1.2-.8-1.5-1.7l-4.8-14.2h-2l-4.3 13.7c-.4 1.2-.8 1.6-2 2.2v.5h4.5zm4.5-6.7h-4.6l2.2-7.4 2.4 7.4zm15.4 6.7v-.5c-1.5-.2-1.6-.7-1.6-1.6v-13.2h2.4c.8 0 .8.5 1.9 2.6h.5v-3.6h-12v3.6h.5c1-2 1.2-2.6 2-2.6h2.3v12.9c0 1.1 0 1.7-1.6 1.9v.5h5.6zm13.7 0v-.5c-1.5-.2-1.6-.7-1.6-1.6v-13.2h2.4c.7 0 .8.5 1.9 2.6h.5v-3.6h-12v3.6h.5c1-2 1.1-2.6 1.9-2.6h2.4v12.9c0 1.1 0 1.7-1.6 1.9v.5h5.6zm8.5 0v-.5c-1.8-.4-1.8-1-1.5-1.7l1-3.5h5.4l1.2 3.5c.2.8.1 1.5-1 1.7v.5h5v-.5c-1-.3-1.2-.8-1.5-1.7l-4.7-14.2h-2l-4.4 13.7c-.4 1.2-.7 1.6-2 2.2v.5h4.5zm4.6-6.7h-4.7l2.3-7.4 2.4 7.4zm12.4 6.7v-.5c-1.5-.2-1.6-.7-1.6-1.6v-5.2h1.9c1.7 0 2 1.4 2.4 2.2l1.7 5.1h3.6v-.5c-1.2-.2-1.4-.9-1.6-1.4l-1-2.7a4.6 4.6 0 00-2.8-3c2.2-.5 3.8-2 3.8-4.3 0-3-1.8-4.4-5.3-4.4h-6.8v.5c1.7.2 1.7.8 1.7 1.9v11.5c0 1.1 0 1.7-1.7 1.9v.5h5.7zm.4-8.3h-2v-7h2c2.7 0 3.5 1 3.5 3.4 0 2.3-.8 3.6-3.5 3.6zM695 196l.2-3.6h-.5c-1.2 2-1.4 2.6-2 2.6h-5v-6.8h2.5c1.1 0 1.5 0 1.9 1.7h.5v-4.4h-.5c-.4 1.6-.7 1.7-1.7 1.7h-2.7v-6.5h4.8c.7 0 .8.5 1.9 2.6h.5v-3.6h-11.3v.5c1.7.2 1.7.8 1.7 1.9v11.5c0 1.1 0 1.7-1.7 1.9v.5H695zm15.4.2c4.2 0 7.4-2.6 7.4-8.4 0-5.7-3.2-8.4-7.4-8.4s-7.4 2.7-7.4 8.4c0 5.8 3.2 8.4 7.4 8.4zm0-1c-3 0-5-2-5-7.4s2-7.4 5-7.4 4.9 2 4.9 7.4c0 5.5-1.9 7.4-5 7.4zm17.3 1c1.8 0 2.8 0 4.7-.4l.2-3.4h-.5c-1 2.1-2.3 2.8-4.4 2.8-3.2 0-5.1-2.3-5.1-7.4 0-5 2-7.4 5-7.4 2.2 0 3.2.8 4.3 3h.5v-3.5c-1.9-.3-2.9-.5-4.7-.5-4.2 0-7.6 2.6-7.6 8.4 0 5.8 3.4 8.4 7.6 8.4zm12.5-.2v-.5c-1.6-.2-1.6-.8-1.6-1.9v-5.4h7.2v5.7c0 1-.2 1.4-1.7 1.6v.5h5.7v-.5c-1.6-.2-1.6-.8-1.6-1.9v-11.5c0-1.1 0-1.7 1.6-2v-.4H744v.5c1.5.2 1.6.7 1.7 1.6v5.4h-7.2V182c0-1.1 0-1.7 1.6-2v-.4h-5.6v.5c1.5.2 1.6.7 1.6 1.6v12c0 1-.1 1.5-1.6 1.7v.5h5.6zm22.6-17.5c.7 0 1.2-.5 1.2-1.2s-.5-1.2-1.2-1.2c-.6 0-1.2.5-1.2 1.2s.6 1.2 1.2 1.2zm4.4 0c.7 0 1.3-.5 1.3-1.2s-.6-1.2-1.3-1.2c-.7 0-1.2.5-1.2 1.2s.5 1.2 1.2 1.2zm-2.3 17.7c4.2 0 7.5-2.6 7.5-8.4 0-5.7-3.3-8.4-7.5-8.4s-7.4 2.7-7.4 8.4c0 5.8 3.2 8.4 7.4 8.4zm0-1c-3 0-4.9-2-4.9-7.4s1.9-7.4 5-7.4c3 0 4.8 2 4.8 7.4 0 5.5-1.9 7.4-4.9 7.4zm17.3 1l4.4-13.8c.4-1.2.7-1.6 2-2.2v-.5H784v.5c1.8.3 1.8.9 1.5 1.7l-3.7 12-4.3-12c-.3-.8-.2-1.5 1-1.7v-.5h-5.1v.5c1 .3 1.2.8 1.5 1.7l5.2 14.2h2zm18.8-.2l.2-3.6h-.5c-1.2 2-1.4 2.6-2 2.6h-5v-6.8h2.5c1 0 1.4 0 1.9 1.7h.5v-4.4h-.5c-.4 1.6-.8 1.7-1.7 1.7h-2.7v-6.5h4.8c.7 0 .8.5 1.9 2.6h.5v-3.6h-11.3v.5c1.5.2 1.7.7 1.7 1.6v12c0 1-.2 1.5-1.7 1.7v.5H801zm7.9 0v-.5c-1.6-.2-1.6-.8-1.6-1.9v-4.9h2c1.7 0 2 1.4 2.3 2.2l1.7 5.1h3.6v-.5c-1-.2-1.3-.8-1.5-1.2v-.2l-1-2.7a4.6 4.6 0 00-2.9-3c2.2-.5 3.8-2 3.8-4.3 0-3-1.8-4.4-5.3-4.4h-6.8v.5c1.5.2 1.7.7 1.7 1.6v12c0 1-.2 1.5-1.7 1.7v.5h5.7zm.4-8.3h-2v-7h2c2.7 0 3.5 1 3.5 3.4 0 2.3-.8 3.6-3.5 3.6zm13.6 8.5c3.2 0 5.5-1.6 5.5-4.5 0-5-7.5-4.7-7.5-8.7 0-1.5 1-2.6 2.7-2.6 1.6 0 2.5.8 3.6 3h.5v-3.2c-1.6-.5-2.3-.8-4.2-.8-3.1 0-5 1.9-5 4.3 0 5.2 7.4 4.5 7.4 8.8 0 1.6-1 2.7-3.1 2.7-1.7 0-2.8-.7-3.9-2.9h-.5v3.2c1.6.5 2.8.7 4.5.7zm11.6-17.7c.7 0 1.2-.5 1.2-1.2s-.5-1.2-1.2-1.2-1.2.5-1.2 1.2.5 1.2 1.2 1.2zm4.4 0c.7 0 1.2-.5 1.2-1.2s-.5-1.2-1.2-1.2-1.2.5-1.2 1.2.5 1.2 1.2 1.2zm-5 17.5v-.5c-1.8-.4-1.8-1-1.5-1.7l1-3.5h5.4l1.2 3.5c.2.8.1 1.5-1.1 1.7v.5h5.1v-.5c-1-.3-1.2-.8-1.5-1.7l-4.7-14.2h-2l-4.4 13.7c-.4 1.2-.7 1.6-2 2.2v.5h4.5zm4.6-6.7h-4.7l2.3-7.4 2.4 7.4zm15.4 6.7v-.5c-1.7-.2-1.7-.8-1.7-1.9v-12.9h2.5c.7 0 .8.5 1.8 2.6h.5v-3.6h-12v3.6h.6c1-2 1.1-2.6 1.8-2.6h2.4V194c0 1 0 1.4-1.6 1.6v.5h5.7zm13.7 0v-.5c-1.7-.2-1.7-.8-1.7-1.9v-12.9h2.5c.7 0 .7.5 1.8 2.6h.5v-3.6h-12v3.6h.6c1-2 1-2.6 1.8-2.6h2.4V194c0 1-.1 1.4-1.6 1.6v.5h5.7zm8.5 0v-.5c-1.8-.4-1.8-1-1.6-1.7l1.1-3.5h5.4l1.1 3.5c.3.8.2 1.5-1 1.7v.5h5v-.5c-.9-.3-1.2-.8-1.4-1.7l-4.8-14.2h-2l-4.4 13.7c-.3 1.2-.7 1.6-2 2.2v.5h4.6zm4.5-6.7H876l2.3-7.4 2.4 7.4zM893 196v-.5c-1.6-.2-1.6-.8-1.6-1.9v-4.9h2c1.7 0 2 1.4 2.3 2.2l1.8 5.1h3.6v-.5c-1.1-.2-1.4-.8-1.6-1.2v-.2l-1-2.7a4.6 4.6 0 00-2.9-3c2.2-.5 3.9-2 3.9-4.3 0-3-1.9-4.4-5.4-4.4h-6.7v.5c1.5.2 1.6.7 1.6 1.6v12c0 1-.1 1.5-1.6 1.7v.5h5.6zm.5-8.3h-2.1v-7h2c2.7 0 3.5 1 3.5 3.4 0 2.3-.8 3.6-3.4 3.6zm20.1 8.3l.3-3.6h-.5c-1.2 2-1.4 2.6-2.1 2.6h-5v-6.8h2.5c1.1 0 1.5 0 2 1.7h.4v-4.4h-.5c-.4 1.6-.7 1.7-1.6 1.7h-2.8v-6.5h4.8c.8 0 .9.5 2 2.6h.4v-3.6h-11.2v.5c1.5.2 1.6.7 1.6 1.6v12c0 1-.1 1.5-1.6 1.7v.5h11.3z"/>
  </g>
</svg>
