
<svg width="792px" height="332px" viewBox="0 0 792 332" version="1.1" xmlns="http://www.w3.org/2000/svg" xmlns:xlink="http://www.w3.org/1999/xlink">
    <g id="Page-1" stroke="none" stroke-width="1" fill="none" fill-rule="evenodd">
        <g id="ican-design-logo" transform="translate(-8.000000, -6.000000)">
            <g id="Group" transform="translate(8.000309, 6.752330)">
                <path d="M369.805691,223.15067 L404.033691,223.15067 L404.033691,116.57567 L369.805691,116.57567 L369.805691,223.15067 Z M368.865691,101.39467 L404.979691,101.39467 L404.979691,75.5186704 L368.865691,75.5186704 L368.865691,101.39467 Z" id="Fill-1" fill="#000000"></path>
                <path d="M502.482091,225.97127 C493.189091,225.97127 484.703091,224.86927 477.013091,222.65427 C469.326091,220.43827 462.642091,217.02527 456.947091,212.40827 C451.318091,207.79027 446.953091,201.96927 443.857091,194.95127 C440.755091,187.92727 439.209091,179.70527 439.209091,170.28027 C439.209091,160.34427 440.863091,151.77527 444.185091,144.56527 C447.509091,137.35527 452.144091,131.37927 458.086091,126.63027 C463.839091,122.13827 470.480091,118.85127 478.007091,116.76127 C485.535091,114.67727 493.345091,113.62927 501.441091,113.62927 C508.716091,113.62927 515.418091,114.42627 521.556091,116.00027 C527.687091,117.58127 533.414091,119.63627 538.730091,122.16927 L538.730091,151.27227 L533.898091,151.27227 C532.568091,150.13427 530.976091,148.81127 529.113091,147.29027 C527.257091,145.77527 524.962091,144.28327 522.244091,142.82827 C519.664091,141.43327 516.818091,140.27827 513.728091,139.36127 C510.632091,138.44527 507.035091,137.98427 502.937091,137.98427 C493.836091,137.98427 486.847091,140.88227 481.961091,146.67927 C477.062091,152.47027 474.613091,160.33827 474.613091,170.28027 C474.613091,180.53727 477.128091,188.32827 482.146091,193.64627 C487.158091,198.96927 494.279091,201.62227 503.502091,201.62227 C507.789091,201.62227 511.658091,201.13127 515.101091,200.14927 C518.545091,199.16127 521.394091,197.99927 523.670091,196.67027 C525.814091,195.39527 527.712091,194.06527 529.353091,192.66427 C530.994091,191.26827 532.502091,189.90327 533.898091,188.56827 L538.730091,188.56827 L538.730091,217.71327 C533.347091,220.25227 527.742091,222.25827 521.884091,223.74327 C516.035091,225.22927 509.574091,225.97127 502.482091,225.97127" id="Fill-2" fill="#000000"></path>
                <path d="M625.741891,195.22127 L625.741891,173.03327 C621.124891,173.41727 616.130891,173.93827 610.753891,174.60327 C605.374891,175.26827 601.296891,176.03927 598.512891,176.92627 C595.098891,177.99827 592.493891,179.56727 590.690891,181.61627 C588.887891,183.66927 587.983891,186.37527 587.983891,189.72327 C587.983891,191.93427 588.177891,193.73627 588.548891,195.12527 C588.930891,196.51427 589.882891,197.84427 591.403891,199.10827 C592.852891,200.37127 594.595891,201.29927 596.620891,201.89827 C598.637891,202.50227 601.805891,202.80227 606.104891,202.80227 C609.518891,202.80227 612.979891,202.10827 616.495891,200.71827 C620.005891,199.32827 623.089891,197.49627 625.741891,195.22127 L625.741891,195.22127 Z M625.741891,211.85727 C623.909891,213.25227 621.634891,214.92827 618.915891,216.88727 C616.190891,218.85127 613.637891,220.40327 611.231891,221.53927 C607.878891,223.05527 604.397891,224.16827 600.800891,224.88727 C597.194891,225.61227 593.241891,225.97127 588.942891,225.97127 C578.827891,225.97127 570.354891,222.83927 563.522891,216.57527 C556.688891,210.30527 553.282891,202.29927 553.282891,192.55027 C553.282891,184.75927 555.018891,178.40027 558.497891,173.45927 C561.977891,168.52527 566.905891,164.62627 573.294891,161.77627 C579.618891,158.93127 587.458891,156.90127 596.817891,155.69827 C606.177891,154.50027 615.878891,153.60827 625.938891,153.03927 L625.938891,152.47027 C625.938891,146.59527 623.532891,142.53527 618.729891,140.28927 C613.921891,138.05027 606.841891,136.92427 597.481891,136.92427 C591.852891,136.92427 585.846891,137.93027 579.462891,139.93627 C573.073891,141.94227 568.485891,143.48727 565.708891,144.57127 L562.575891,144.57127 L562.575891,118.83327 C566.175891,117.88127 572.044891,116.76127 580.169891,115.46227 C588.302891,114.16227 596.434891,113.51527 604.596891,113.51527 C624.016891,113.51527 638.042891,116.50427 646.677891,122.48627 C655.311891,128.46927 659.624891,137.85227 659.624891,150.63127 L659.624891,223.15127 L625.741891,223.15127 L625.741891,211.85727 Z" id="Fill-4" fill="#000000"></path>
                <path d="M790.571991,223.15097 L756.335991,223.15097 L756.335991,170.30897 C756.335991,166.00997 756.114991,161.72197 755.676991,157.45197 C755.227991,153.18297 754.467991,150.03897 753.395991,148.01497 C752.120991,145.67297 750.270991,143.96597 747.839991,142.88897 C745.395991,141.81697 741.987991,141.27797 737.616991,141.27797 C734.514991,141.27797 731.358991,141.78697 728.167991,142.79297 C724.962991,143.80497 721.495991,145.42197 717.753991,147.63697 L717.753991,223.15097 L683.522991,223.15097 L683.522991,116.57597 L717.753991,116.57597 L717.753991,128.34297 C723.825991,123.59997 729.651991,119.95897 735.251991,117.42597 C740.839991,114.89897 747.048991,113.62997 753.880991,113.62997 C765.383991,113.62997 774.366991,116.98897 780.852991,123.68997 C787.331991,130.39697 790.571991,140.42697 790.571991,153.77597 L790.571991,223.15097 Z" id="Fill-6" fill="#000000"></path>
                <path d="M171.662291,230.18717 C171.416291,230.14517 170.569291,229.99617 170.569291,229.99617 C157.461291,227.64817 145.295291,222.64117 134.399291,215.11417 C134.399291,215.10817 133.965291,214.80917 133.480291,214.47917 C140.187291,207.74917 159.545291,188.32917 171.575291,176.26217 C171.602291,193.29917 171.644291,220.69617 171.662291,230.18717 M149.589291,154.33317 C137.552291,166.40517 118.201291,185.81917 111.491291,192.55017 C111.350291,192.34617 110.859291,191.64017 110.859291,191.64017 C103.287291,180.75217 98.2392914,168.60217 95.8552914,155.51817 C95.8552914,155.51817 95.7592914,154.99717 95.6552914,154.41617 C105.146291,154.39817 132.546291,154.35617 149.589291,154.33317 M240.606291,63.0271704 C231.932291,71.7351704 183.753291,120.06117 180.585291,123.24117 C176.097291,123.24717 107.895291,123.34917 95.6072914,123.36717 C95.6492914,123.12117 95.8012914,122.27617 95.8012914,122.27617 C99.1432914,103.61717 107.973291,86.6641704 121.342291,73.2561704 C153.008291,41.4871704 202.784291,36.9241704 239.690291,62.3931704 C239.690291,62.3931704 240.127291,62.6921704 240.606291,63.0271704 M204.200291,229.90617 C203.922291,229.94217 203.425291,230.02617 202.712291,230.15117 C202.694291,217.87517 202.583291,149.64417 202.577291,145.15817 C205.745291,141.97917 253.918291,93.6521704 262.599291,84.9451704 C262.745291,85.1551704 263.236291,85.8611704 263.236291,85.8611704 C274.372291,101.88617 279.824291,120.36617 279.824291,138.74517 C279.824291,162.60817 270.629291,186.30417 252.742291,204.25117 C239.379291,217.65317 222.455291,226.53417 203.814291,229.94217 C203.814291,229.94217 204.020291,229.91717 204.200291,229.90617 M274.462291,51.0631704 C251.083291,27.7501704 219.971291,14.9411704 186.864291,14.989036 C153.748291,15.0371704 122.668291,27.9481704 99.3492914,51.3321704 C51.1552914,99.6821704 51.2752914,178.23817 99.6222914,226.44417 C147.975291,274.63917 226.534291,274.51917 274.740291,226.17417 C322.937291,177.81917 322.812291,99.2691704 274.462291,51.0631704" id="Fill-8" fill="#000000"></path>
                <path d="M70.0758914,137.32387 C69.6638914,137.32387 69.2488914,137.23887 68.8578914,137.06387 L1.77589144,107.07987 C0.750891436,106.62187 0.0678914361,105.63087 0.00489143608,104.51087 C-0.0591085639,103.38987 0.508891436,102.32787 1.47589144,101.75787 L57.9478914,68.4508704 L49.0958914,3.40487042 C48.9448914,2.29187042 49.4268914,1.18887042 50.3458914,0.543870416 C51.2648914,-0.100129584 52.4668914,-0.179129584 53.4618914,0.343870416 L118.420891,34.3998704 C119.204891,34.8108704 119.767891,35.5478704 119.957891,36.4128704 L134.733891,103.74587 C135.031891,105.10087 134.360891,106.48387 133.112891,107.08887 L71.4488914,136.99287 C71.0228914,137.21087 70.5518914,137.32387 70.0758914,137.32387" id="Fill-10" fill="#000000"></path>
                <path d="M9.52849144,103.97377 L70.0274914,131.01477 L128.366491,102.72277 L114.396491,39.0647704 L55.8244914,8.35677042 L64.1614914,69.6177704 C64.3234914,70.8147704 63.7534914,71.9927704 62.7124914,72.6057704 L9.52849144,103.97377 Z" id="Fill-12" fill="#ffdfcb"></path>
                <path d="M231.847391,190.32387 C231.465391,190.32387 231.077391,190.25087 230.703391,190.09487 C221.991391,186.49587 212.946391,182.50587 203.821391,178.23687 C147.615391,152.03987 71.3023914,105.86387 47.2913914,78.8788704 C46.4843914,77.9728704 46.3033914,76.6698704 46.8313914,75.5778704 L56.6463914,55.2958704 C57.1763914,54.2018704 58.3083914,53.5258704 59.5243914,53.6078704 C95.8753914,55.7518704 178.995391,87.4858704 233.820391,115.77787 C242.661391,120.35587 251.202391,125.01987 259.209391,129.64287 C260.559391,130.42287 261.087391,132.10587 260.425391,133.51587 L234.564391,188.59787 C234.055391,189.68087 232.977391,190.32387 231.847391,190.32387" id="Fill-14" fill="#000000"></path>
                <path d="M53.1178914,76.3623704 C78.0468914,102.98237 151.710891,147.32937 206.359891,172.80037 C214.486891,176.60237 222.542891,180.17837 230.352891,183.45037 L253.819891,133.46737 C246.588891,129.34037 238.947891,125.18937 231.064891,121.10837 C177.775891,93.6083704 97.7408914,62.8383704 61.1608914,59.7403704 L53.1178914,76.3623704 Z" id="Fill-16" fill="#ffdfcb"></path>
                <path d="M298.698891,285.61877 C280.373891,285.61877 249.766891,233.34477 229.124891,188.57877 C228.781891,187.83677 228.757891,186.98677 229.056891,186.22577 C229.355891,185.46477 229.951891,184.85877 230.707891,184.54877 L286.992891,161.41477 C287.767891,161.09577 288.641891,161.11477 289.401891,161.47077 C290.161891,161.82477 290.738891,162.48177 290.992891,163.28077 C307.375891,214.85877 320.141891,277.67277 302.201891,284.95277 C301.109891,285.39477 299.930891,285.61877 298.698891,285.61877" id="Fill-18" fill="#1A1919"></path>
                <path d="M235.889791,188.90587 C263.678791,248.47587 288.431791,279.61887 298.698791,279.61887 C299.161791,279.61887 299.570791,279.54487 299.948791,279.39187 C303.561791,277.92587 306.494791,268.09687 303.880791,244.91587 C301.568791,224.40887 295.326791,197.26987 286.252791,168.20587 L235.889791,188.90587 Z" id="Fill-20" fill="#ffdfcb"></path>
                <path d="M267.850791,70.8604704 L254.673791,57.7284704 C252.241791,55.3024704 248.298791,55.3084704 245.872791,57.7394704 C245.872791,57.7394704 183.989791,119.82747 180.563791,123.25847 C175.770791,123.28847 104.454791,123.75647 104.454791,123.75647 C102.301791,123.76747 100.307791,124.89347 99.1817914,126.72647 L87.7977914,145.32547 C87.1867914,146.31947 86.8817914,147.45147 86.8817914,148.57747 C86.8817914,149.63147 87.1517914,150.68547 87.6867914,151.63747 C88.7977914,153.60147 90.8817914,154.81747 93.1427914,154.80547 C93.1427914,154.80547 130.659791,154.58447 149.448791,154.47047 C135.719791,168.24247 106.221791,197.83847 106.221791,197.83847 C105.059791,199.00647 104.406791,200.58647 104.406791,202.23347 L104.406791,202.23847 C104.406791,203.89247 105.065791,205.47347 106.233791,206.64147 L119.410791,219.77447 C121.847791,222.20447 125.787791,222.19347 128.210791,219.75547 C128.210791,219.75547 157.861791,190.02347 171.563791,176.27447 C171.584791,196.75447 171.638791,247.23647 171.638791,247.23647 C171.638791,248.88947 172.296791,250.46947 173.464791,251.63747 C174.632791,252.80547 176.219791,253.45747 177.869791,253.451511 L196.472791,253.42247 C199.903791,253.42247 202.684791,250.63747 202.684791,247.19947 C202.684791,247.19947 202.577791,150.06247 202.571791,145.16447 C206.014791,141.70947 267.862791,79.6634704 267.862791,79.6634704 C269.030791,78.4954704 269.683791,76.9144704 269.683791,75.2674704 L269.683791,75.2564704 C269.677791,73.6094704 269.021791,72.0274704 267.850791,70.8604704" id="Fill-22" fill="#000000"></path>
                <path d="M339.792191,278.46547 L333.513191,278.46547 L333.519191,258.96147 L339.798191,258.96147 L339.792191,278.46547 Z M333.352191,256.18247 L339.966191,256.18247 L339.966191,251.43447 L333.352191,251.43447 L333.352191,256.18247 Z" id="Fill-24" fill="#000000"></path>
                <path d="M365.254591,278.47127 L358.975591,278.47127 L358.979591,268.80627 C358.979591,268.01627 358.942591,267.23727 358.858591,266.45227 C358.778591,265.67427 358.643591,265.09927 358.445591,264.72827 C358.212591,264.30327 357.879591,263.99227 357.433591,263.79427 C356.990591,263.59627 356.364591,263.49427 355.571591,263.49427 C355.002591,263.49427 354.430591,263.58427 353.849591,263.77627 C353.266591,263.95527 352.634591,264.25527 351.954591,264.65727 L351.945591,278.47127 L345.666591,278.47127 L345.675591,258.96727 L351.954591,258.96727 L351.954591,261.12927 C353.059591,260.26027 354.128591,259.59027 355.149591,259.13527 C356.173591,258.67427 357.308591,258.44027 358.556591,258.44027 C360.658591,258.44027 362.302591,259.05727 363.484591,260.27927 C364.668591,261.51227 365.263591,263.34527 365.260603,265.78227 L365.254591,278.47127 Z" id="Fill-26" fill="#000000"></path>
                <path d="M383.480691,278.31607 C382.809691,278.49007 382.093691,278.62807 381.342691,278.72307 C380.584691,278.81907 379.668691,278.86707 378.578691,278.86707 C376.144691,278.86707 374.333691,278.37607 373.147691,277.38707 C371.958691,276.41207 371.368691,274.72307 371.368691,272.33907 L371.368691,263.22507 L368.811691,263.22507 L368.814691,258.97307 L371.371691,258.97307 L371.374691,253.39207 L377.653691,253.39207 L377.650691,258.97307 L383.486691,258.97307 L383.483691,263.22507 L377.647691,263.22507 L377.647691,270.13507 C377.647691,270.82507 377.650691,271.41807 377.662691,271.92607 C377.674691,272.43507 377.764691,272.89607 377.938691,273.29707 C378.099691,273.70507 378.387691,274.02207 378.797691,274.26107 C379.207691,274.50207 379.803691,274.61507 380.590691,274.61507 C380.911691,274.61507 381.336691,274.54907 381.863691,274.41807 C382.384691,274.28007 382.752691,274.15407 382.962691,274.03407 L383.483691,274.03407 L383.480691,278.31607 Z" id="Fill-28" fill="#000000"></path>
                <path d="M400.183291,266.23107 C400.154291,264.92607 399.824291,263.94407 399.213291,263.27907 C398.603291,262.62007 397.656291,262.29207 396.369291,262.29207 C395.165291,262.29207 394.177291,262.60207 393.411291,263.22507 C392.638291,263.85407 392.201291,264.85407 392.111291,266.23107 L400.183291,266.23107 Z M406.406325,269.90207 L392.128291,269.89607 C392.218291,271.43507 392.800291,272.60907 393.866291,273.42907 C394.937291,274.24407 396.513291,274.65107 398.590291,274.65107 C399.908291,274.65107 401.189291,274.41207 402.423291,273.93207 C403.662291,273.44707 404.632291,272.93207 405.351291,272.37607 L406.046291,272.37607 L406.046291,277.40007 C404.632291,277.96807 403.297291,278.37607 402.052291,278.63307 C400.800291,278.88407 399.417291,279.01607 397.902291,279.01607 C393.992291,279.01607 390.997291,278.13007 388.913291,276.37007 C386.830291,274.60907 385.788291,272.10007 385.79228,268.84807 C385.79228,265.62107 386.783291,263.07507 388.751291,261.18907 C390.727291,259.30907 393.428291,258.36907 396.866291,258.36907 C400.034291,258.36907 402.417291,259.17007 404.016291,260.78207 C405.615291,262.38707 406.412291,264.69807 406.406325,267.71007 L406.406325,269.90207 Z" id="Fill-30" fill="#000000"></path>
                <path d="M424.969391,264.96157 L424.418391,264.96157 C424.155391,264.87157 423.724391,264.80057 423.136391,264.75257 C422.550391,264.71057 422.052391,264.68657 421.663391,264.68657 C420.771391,264.68657 419.987391,264.74657 419.304391,264.85957 C418.621391,264.96757 417.891391,265.17157 417.107391,265.44657 L417.101391,278.49557 L410.824391,278.48957 L410.830391,258.98457 L417.107391,258.99057 L417.107391,261.84857 C418.478391,260.66857 419.681391,259.88957 420.693391,259.51257 C421.711391,259.12357 422.646391,258.93257 423.495391,258.93257 C423.718391,258.93257 423.969391,258.93857 424.244391,258.94957 C424.520391,258.96157 424.765391,258.97957 424.969391,259.00357 L424.969391,264.96157 Z" id="Fill-32" fill="#000000"></path>
                <path d="M448.089537,278.50157 L441.808491,278.50157 L441.814491,268.83657 C441.814491,268.04557 441.773491,267.26757 441.689491,266.48257 C441.610491,265.70457 441.472491,265.12357 441.275491,264.75257 C441.048491,264.32657 440.712491,264.01557 440.269491,263.81757 C439.819491,263.62057 439.196491,263.52457 438.407491,263.52457 C437.837491,263.52457 437.263491,263.61457 436.683491,263.80057 C436.101491,263.98557 435.466491,264.27857 434.784491,264.68657 L434.778491,278.49557 L428.501491,278.49557 L428.507491,258.99057 L434.784491,258.99057 L434.784491,261.15257 C435.892491,260.28457 436.958491,259.61957 437.982491,259.16457 C439.005491,258.69757 440.144491,258.47057 441.390491,258.47057 C443.491491,258.47057 445.138491,259.08057 446.318491,260.30957 C447.503491,261.53557 448.095491,263.36857 448.089537,265.81257 L448.089537,278.50157 Z" id="Fill-34" fill="#000000"></path>
                <path d="M465.648091,273.39907 L465.648091,269.37007 C464.810091,269.43507 463.900091,269.53107 462.923091,269.65107 C461.947091,269.77007 461.205091,269.91507 460.703091,270.07607 C460.080091,270.26707 459.605091,270.55507 459.277091,270.92607 C458.947091,271.30307 458.785091,271.78907 458.785091,272.39907 C458.785091,272.80607 458.822091,273.12907 458.888091,273.38707 C458.953091,273.63907 459.127091,273.87807 459.402091,274.11207 C459.666091,274.33907 459.990091,274.50707 460.355091,274.61507 C460.720091,274.72907 461.294091,274.78307 462.080091,274.78307 C462.697091,274.78307 463.332091,274.65707 463.966091,274.40607 C464.601091,274.15407 465.164091,273.81907 465.648091,273.39907 L465.648091,273.39907 Z M465.642091,276.44207 C465.306091,276.69307 464.894091,277.00407 464.396091,277.36407 C463.900091,277.72307 463.433091,278.00407 462.996091,278.20807 C462.384091,278.49007 461.750091,278.69307 461.091091,278.83707 C460.433091,278.96807 459.714091,279.03507 458.929091,279.03507 C457.085091,279.03507 455.535091,278.46007 454.289091,277.31007 C453.043091,276.16607 452.419091,274.69907 452.419091,272.92007 C452.419091,271.49507 452.744091,270.33407 453.373091,269.42907 C454.013091,268.52507 454.912091,267.81207 456.080091,267.29207 C457.228091,266.77007 458.660091,266.40507 460.367091,266.18307 C462.080091,265.96107 463.851091,265.80007 465.683091,265.69907 L465.683091,265.59607 C465.683091,264.51207 465.248091,263.75807 464.373091,263.34507 C463.492091,262.93207 462.199091,262.72807 460.492091,262.72807 C459.468091,262.72807 458.367091,262.90807 457.205091,263.26707 C456.037091,263.63807 455.199091,263.91407 454.689091,264.11207 L454.121091,264.11207 L454.121091,259.41107 C454.779091,259.23707 455.851091,259.04007 457.335091,258.79907 C458.822091,258.56607 460.306091,258.44607 461.798091,258.44607 C465.343091,258.44607 467.906091,258.99707 469.480091,260.08707 C471.062091,261.18307 471.845091,262.90207 471.845091,265.24307 L471.839091,278.50707 L465.642091,278.50707 L465.642091,276.44207 Z" id="Fill-36" fill="#000000"></path>
                <path d="M490.068091,278.34627 C489.398091,278.51927 488.679091,278.65727 487.931091,278.75927 C487.177091,278.85527 486.259091,278.90327 485.164091,278.90327 C482.734091,278.90327 480.925091,278.41127 479.732091,277.42327 C478.547091,276.44227 477.955091,274.75827 477.955091,272.37527 L477.955091,263.25527 L475.404091,263.25527 L475.404091,259.00327 L477.961091,259.00327 L477.966091,253.42227 L484.242091,253.42227 L484.242091,259.00927 L490.076091,259.00927 L490.068091,263.26127 L484.236091,263.26127 L484.236091,270.17127 C484.236091,270.85427 484.242091,271.44727 484.248091,271.95627 C484.265091,272.47127 484.355091,272.92627 484.529091,273.33327 C484.685091,273.73527 484.978091,274.05827 485.386091,274.29727 C485.793091,274.53727 486.392091,274.65127 487.177091,274.65127 C487.500091,274.65127 487.925091,274.58527 488.453091,274.44827 C488.972091,274.30927 489.343091,274.18427 489.548091,274.07027 L490.068091,274.07027 L490.068091,278.34627 Z" id="Fill-38" fill="#000000"></path>
                <path d="M500.075891,278.51917 L493.794891,278.51317 L493.800891,259.00917 L500.081891,259.01517 L500.075891,278.51917 Z M500.249891,256.23717 L493.632891,256.23117 L493.632891,251.48217 L500.249891,251.48217 L500.249891,256.23717 Z" id="Fill-40" fill="#000000"></path>
                <path d="M518.208691,273.52497 C518.614691,273.02797 518.921691,272.42297 519.124691,271.72197 C519.327691,271.02797 519.429691,270.05197 519.429691,268.81797 C519.429691,267.66897 519.321691,266.71097 519.118691,265.93197 C518.909691,265.15997 518.620691,264.53697 518.249691,264.07597 C517.878691,263.60197 517.429691,263.26097 516.907691,263.06297 C516.388691,262.86597 515.825691,262.76997 515.220691,262.76997 C514.620691,262.76997 514.081691,262.84797 513.608691,263.00897 C513.142691,263.17697 512.692691,263.49497 512.261691,263.98597 C511.884691,264.43497 511.579691,265.05097 511.345691,265.84197 C511.124691,266.62697 511.009691,267.62097 511.009691,268.81197 C511.009691,269.87897 511.112691,270.79997 511.304691,271.58497 C511.501691,272.36997 511.788691,272.99197 512.171691,273.47097 C512.542691,273.92097 512.985691,274.24997 513.501691,274.45997 C514.022691,274.66897 514.608691,274.77097 515.272691,274.77097 C515.837691,274.77097 516.382691,274.67497 516.895691,274.48297 C517.411691,274.29197 517.849691,273.97397 518.208691,273.52497 M525.903691,268.78297 C525.897691,271.99197 524.968691,274.51897 523.095691,276.36997 C521.226691,278.21397 518.597691,279.13597 515.214691,279.13 C511.829691,279.13 509.208691,278.20797 507.339691,276.36397 C505.470691,274.51297 504.530691,271.98597 504.536663,268.77597 C504.536663,265.54797 505.476691,263.00897 507.356691,261.17097 C509.243691,259.32697 511.866691,258.40497 515.220691,258.40497 C518.626691,258.41097 521.255691,259.33797 523.112691,261.18897 C524.974691,263.04597 525.903691,265.57297 525.903691,268.78297" id="Fill-42" fill="#000000"></path>
                <path d="M549.952791,278.53767 L543.677791,278.53167 L543.677791,268.86567 C543.677791,268.08167 543.639791,267.29767 543.556791,266.51267 C543.479791,265.73367 543.341791,265.15967 543.143791,264.78767 C542.909791,264.35667 542.575791,264.04567 542.132791,263.85367 C541.688791,263.65667 541.059791,263.55467 540.268791,263.55467 C539.700791,263.55467 539.126791,263.64967 538.550791,263.82967 C537.964791,264.01567 537.335791,264.30867 536.651791,264.72267 L536.645791,278.52567 L530.364791,278.52567 L530.370791,259.02067 L536.651791,259.02067 L536.651791,261.18867 C537.753791,260.32067 538.825791,259.65567 539.843791,259.19467 C540.874791,258.73367 542.005791,258.50067 543.251791,258.50067 C545.352791,258.50067 546.999791,259.11067 548.179791,260.34467 C549.364791,261.56667 549.958791,263.39867 549.958791,265.84267 L549.952791,278.53767 Z" id="Fill-44" fill="#000000"></path>
                <path d="M567.517291,273.43517 L567.517291,269.39917 C566.671291,269.47117 565.767291,269.56117 564.792291,269.68017 C563.810291,269.80617 563.068291,269.94417 562.564291,270.10617 C561.941291,270.30317 561.468291,270.58417 561.138291,270.95617 C560.810291,271.33317 560.648291,271.82517 560.648291,272.43517 C560.648291,272.83617 560.683291,273.16517 560.755291,273.41717 C560.822291,273.66817 560.990291,273.91417 561.271291,274.14217 C561.535291,274.37517 561.851291,274.54317 562.222291,274.65117 C562.587291,274.76517 563.158291,274.81317 563.941291,274.81317 C564.564291,274.81317 565.193291,274.68717 565.833291,274.43517 C566.468291,274.19017 567.025291,273.85417 567.517291,273.43517 L567.517291,273.43517 Z M567.511291,276.47117 C567.175291,276.72917 566.761291,277.03517 566.265291,277.39417 C565.767291,277.75217 565.294291,278.03517 564.857291,278.24417 C564.247291,278.51917 563.619291,278.72917 562.958291,278.86717 C562.294291,278.99817 561.576291,279.06417 560.792291,279.06417 C558.947291,279.06417 557.402291,278.49617 556.150291,277.34517 C554.912291,276.19617 554.288291,274.73517 554.288291,272.95117 C554.288291,271.52517 554.605291,270.36317 555.240291,269.45917 C555.874291,268.56117 556.773291,267.84217 557.941291,267.32117 C559.097291,266.80017 560.529291,266.43517 562.234291,266.21317 C563.941291,265.99717 565.714291,265.83617 567.546291,265.73417 L567.546291,265.62617 C567.546291,264.54217 567.109291,263.79417 566.236291,263.38017 C565.355291,262.96117 564.062291,262.75817 562.355291,262.75817 C561.329291,262.75817 560.234291,262.93817 559.066291,263.30317 C557.900291,263.66817 557.066291,263.95017 556.558291,264.14117 L555.982291,264.14117 L555.990291,259.44617 C556.642291,259.27317 557.714291,259.06917 559.199291,258.83017 C560.683291,258.59017 562.175291,258.47617 563.660291,258.47617 C567.204291,258.48317 569.769291,259.02817 571.349291,260.12317 C572.923291,261.21917 573.708291,262.93217 573.708291,265.27317 L573.708291,278.54317 L567.511291,278.54317 L567.511291,276.47117 Z" id="Fill-46" fill="#000000"></path>
                <polygon id="Fill-48" fill="#000000" points="585.739891 278.54357 579.456891 278.54357 579.469891 251.50657 585.745891 251.51257"></polygon>
                <path d="M613.944991,279.08267 C612.237991,279.08267 610.686991,278.87867 609.272991,278.47167 C607.872991,278.06967 606.637991,277.44767 605.596991,276.59767 C604.571991,275.75267 603.770991,274.68667 603.200991,273.39867 C602.637991,272.11767 602.356991,270.60867 602.356991,268.88467 C602.356991,267.06967 602.661991,265.49467 603.266991,264.17767 C603.878991,262.85967 604.721991,261.76967 605.811991,260.90067 C606.872991,260.08067 608.087991,259.47767 609.464991,259.09367 C610.842991,258.70967 612.272991,258.52367 613.758991,258.52367 C615.087991,258.52367 616.315991,258.66867 617.440991,258.95567 C618.561991,259.24267 619.614991,259.61967 620.579991,260.08767 L620.579991,265.41667 L619.698991,265.41667 C619.460991,265.20767 619.165991,264.96767 618.819991,264.68667 C618.483991,264.41067 618.057991,264.14167 617.561991,263.87767 C617.087991,263.62067 616.567991,263.41067 615.997991,263.24867 C615.434991,263.08167 614.776991,262.99767 614.022991,262.99767 C612.350991,262.99767 611.069991,263.52467 610.176991,264.57867 C609.278991,265.63867 608.829991,267.07567 608.829991,268.88467 C608.829991,270.75867 609.284991,272.17767 610.208991,273.15367 C611.130991,274.12367 612.434991,274.60867 614.124991,274.60867 C614.907991,274.60867 615.614991,274.51967 616.249991,274.34567 C616.878991,274.16567 617.399991,273.95667 617.819991,273.71667 C618.214991,273.48267 618.561991,273.24367 618.860991,272.99167 C619.165991,272.74067 619.440991,272.48867 619.692991,272.24967 L620.579991,272.24967 L620.579991,277.57967 C619.596991,278.04067 618.567991,278.40567 617.495991,278.67567 C616.423991,278.95067 615.237991,279.08267 613.944991,279.08267" id="Fill-50" fill="#000000"></path>
                <path d="M636.503591,273.45957 L636.509591,269.42357 C635.669591,269.48857 634.759591,269.57857 633.778591,269.70457 C632.802591,269.82457 632.065591,269.96857 631.556591,270.12957 C630.939591,270.32157 630.460591,270.60857 630.130591,270.98057 C629.808591,271.35157 629.640591,271.84857 629.640591,272.45957 C629.640591,272.86057 629.675591,273.18457 629.741591,273.43557 C629.814591,273.69257 629.987591,273.93257 630.263591,274.15957 C630.526591,274.39357 630.843591,274.56157 631.208591,274.67557 C631.579591,274.78257 632.155591,274.84257 632.933591,274.84257 C633.556591,274.84257 634.185591,274.71057 634.819591,274.45957 C635.460591,274.20757 636.023591,273.87257 636.503591,273.45957 L636.503591,273.45957 Z M636.503591,276.49557 C636.167591,276.75257 635.753591,277.05857 635.257591,277.41757 C634.759591,277.77657 634.292591,278.05857 633.855591,278.26257 C633.239591,278.54357 632.605591,278.75357 631.950591,278.89157 C631.292591,279.02257 630.567591,279.08857 629.782591,279.08857 C627.939591,279.08857 626.394591,278.51357 625.148591,277.36957 C623.903591,276.22057 623.280591,274.75857 623.280591,272.97457 C623.280591,271.54957 623.597591,270.38757 624.232591,269.48257 C624.866591,268.57857 625.765591,267.86557 626.933591,267.35157 C628.089591,266.83057 629.521591,266.45257 631.226591,266.23657 C632.933591,266.01657 634.706591,265.85957 636.538591,265.75257 L636.538591,265.65057 C636.544591,264.56057 636.101591,263.81757 635.228591,263.39857 C634.347591,262.98457 633.060591,262.78157 631.347591,262.77557 C630.321591,262.77557 629.220591,262.96157 628.058591,263.32057 C626.892591,263.69157 626.052591,263.96757 625.550591,264.16557 L624.982591,264.16557 L624.982591,259.47057 C625.640591,259.29757 626.712591,259.09357 628.196591,258.85957 C629.675591,258.61957 631.167591,258.50057 632.651591,258.50057 C636.202591,258.50057 638.767591,259.05157 640.335591,260.14157 C641.915591,261.23657 642.706591,262.95557 642.706591,265.29757 L642.700591,278.56157 L636.503591,278.56157 L636.503591,276.49557 Z" id="Fill-52" fill="#000000"></path>
                <path d="M667.517291,264.75837 L667.511291,278.56737 L661.228291,278.56737 L661.234291,268.83637 C661.234291,267.88437 661.210291,267.08137 661.163291,266.41637 C661.121291,265.74637 660.996291,265.20737 660.787291,264.79437 C660.576291,264.37437 660.259291,264.07537 659.839291,263.87737 C659.419291,263.69237 658.822291,263.59637 658.054291,263.59637 C657.445291,263.59637 656.845291,263.71637 656.271291,263.96737 C655.689291,264.21337 655.167291,264.47737 654.706291,264.75237 L654.701291,278.56737 L648.419291,278.56737 L648.431291,259.06337 L654.706291,259.06337 L654.706291,261.22537 C655.785291,260.38037 656.816291,259.72137 657.796291,259.24237 C658.785291,258.77637 659.869291,258.53537 661.062291,258.53537 C662.349291,258.53537 663.480291,258.82337 664.462291,259.39937 C665.445291,259.97337 666.210291,260.81837 666.769291,261.92637 C668.019291,260.87137 669.236291,260.04537 670.415291,259.44537 C671.595291,258.84237 672.757291,258.54137 673.888291,258.54137 C675.990291,258.54137 677.595291,259.17037 678.685291,260.43437 C679.775291,261.69737 680.326291,263.51237 680.32034,265.88437 L680.32034,278.57937 L674.038291,278.57337 L674.044291,268.83637 C674.044291,267.87837 674.021291,267.07037 673.984291,266.40437 C673.943291,265.74637 673.816291,265.21337 673.607291,264.79437 C673.415291,264.38037 673.103291,264.07537 672.673291,263.88437 C672.242291,263.69237 671.642291,263.59637 670.865291,263.59637 C670.343291,263.59637 669.839291,263.68637 669.337291,263.86537 C668.839291,264.04537 668.236291,264.34537 667.517291,264.75837" id="Fill-54" fill="#000000"></path>
                <path d="M700.003591,268.69887 C700.003591,266.81187 699.687591,265.43487 699.032591,264.57887 C698.386591,263.72787 697.362591,263.30287 695.968591,263.29787 C695.380591,263.29787 694.774591,263.38687 694.148591,263.56687 C693.524591,263.74587 692.931591,264.00387 692.362591,264.33987 L692.362591,274.11787 C692.780591,274.27987 693.224591,274.38187 693.698591,274.42887 C694.171591,274.47087 694.638591,274.495925 695.099591,274.495925 C696.751591,274.50187 697.985591,274.01587 698.788591,273.05287 C699.597591,272.08887 700.003591,270.63887 700.003591,268.69887 M706.478591,268.57287 C706.478591,270.17787 706.226591,271.64487 705.733591,272.96287 C705.243591,274.28587 704.597591,275.37587 703.800591,276.23187 C702.962591,277.13087 702.021591,277.81287 700.962591,278.27987 C699.913591,278.73487 698.782591,278.97387 697.571591,278.97387 C696.464591,278.96887 695.519591,278.84887 694.739591,278.60887 C693.968591,278.37587 693.171591,278.04087 692.362591,277.61487 L692.357591,285.74787 L686.081591,285.74787 L686.087591,259.06887 L692.368591,259.07487 L692.362591,261.10487 C693.325591,260.34487 694.308591,259.72787 695.314591,259.25487 C696.314591,258.78187 697.470591,258.54887 698.782591,258.54887 C701.212591,258.54887 703.105591,259.44587 704.458591,261.22487 C705.806591,263.00987 706.478591,265.45287 706.478591,268.57287" id="Fill-56" fill="#000000"></path>
                <path d="M722.759491,273.48307 L722.759491,269.44707 C721.921491,269.51907 721.011491,269.60907 720.034491,269.73507 C719.058491,269.85407 718.316491,269.99207 717.814491,270.15407 C717.191491,270.35107 716.716491,270.63207 716.388491,271.00407 C716.058491,271.38107 715.896491,271.87307 715.896491,272.48307 C715.896491,272.89007 715.933491,273.21307 716.005491,273.46507 C716.070491,273.72307 716.238491,273.96207 716.513491,274.19007 C716.777491,274.42307 717.101491,274.59107 717.466491,274.69907 C717.831491,274.81307 718.405491,274.86707 719.191491,274.86707 C719.808491,274.86707 720.443491,274.74107 721.077491,274.48307 C721.718491,274.23807 722.275491,273.90307 722.759491,273.48307 L722.759491,273.48307 Z M722.759491,276.51907 C722.417491,276.77707 722.005491,277.08307 721.507491,277.44807 C721.011491,277.80107 720.544491,278.08307 720.107491,278.29207 C719.495491,278.57407 718.861491,278.77707 718.202491,278.91507 C717.544491,279.04607 716.825491,279.11207 716.040491,279.11207 C714.196491,279.11207 712.646491,278.54407 711.400491,277.39407 C710.154491,276.25007 709.536491,274.78307 709.536491,272.99907 C709.536491,271.57307 709.855491,270.41807 710.489491,269.51307 C711.124491,268.60907 712.023491,267.89607 713.191491,267.37607 C714.339491,266.85407 715.771491,266.48307 717.484491,266.26707 C719.191491,266.04507 720.962491,265.88407 722.796491,265.78207 L722.796491,265.68007 C722.796491,264.59007 722.359491,263.84207 721.484491,263.42807 C720.603491,263.01607 719.310491,262.81207 717.603491,262.80607 C716.579491,262.80607 715.484491,262.99207 714.316491,263.35107 C713.148491,263.71607 712.316491,263.99807 711.800491,264.18907 L711.232491,264.18907 L711.232491,259.49507 C711.890491,259.32107 712.962491,259.12407 714.446491,258.88307 C715.933491,258.64407 717.417491,258.52407 718.909491,258.53007 C722.454491,258.53007 725.017491,259.08107 726.591491,260.17007 C728.173491,261.26707 728.956491,262.98507 728.956491,265.32107 L728.950491,278.59107 L722.759491,278.59107 L722.759491,276.51907 Z" id="Fill-58" fill="#000000"></path>
                <path d="M740.982091,278.59727 L734.707091,278.59127 L734.712091,259.08627 L740.988091,259.09327 L740.982091,278.59727 Z M741.156091,256.31527 L734.544091,256.30927 L734.550091,251.55327 L741.162091,251.56627 L741.156091,256.31527 Z" id="Fill-60" fill="#000000"></path>
                <path d="M759.564191,272.44107 L759.564191,263.61507 C759.205191,263.46407 758.767191,263.34507 758.248191,263.25507 C757.726191,263.17107 757.259191,263.12407 756.845191,263.12407 C755.205191,263.12407 753.970191,263.59607 753.150191,264.53707 C752.330191,265.48307 751.923191,266.79507 751.923191,268.48307 C751.923191,270.35707 752.271191,271.66307 752.970191,272.40507 C753.666191,273.14807 754.701191,273.51307 756.074191,273.51307 C756.701191,273.51907 757.312191,273.41807 757.918191,273.21907 C758.509191,273.02807 759.062191,272.76407 759.564191,272.44107 L759.564191,272.44107 Z M765.839191,276.37607 C765.839191,278.20207 765.576191,279.74107 765.056191,280.99307 C764.529191,282.24507 763.798191,283.22607 762.857191,283.93307 C761.918191,284.64607 760.787191,285.16707 759.457191,285.49007 C758.132191,285.80707 756.630191,285.96307 754.953191,285.96307 C753.599191,285.96307 752.257191,285.87907 750.947191,285.71707 C749.628191,285.55607 748.492191,285.35807 747.521191,285.12507 L747.527191,280.23807 L748.294191,280.23807 C749.060191,280.53807 749.988191,280.81307 751.091191,281.06507 C752.193191,281.30407 753.181191,281.43007 754.048191,281.43007 C755.205191,281.43007 756.144191,281.32807 756.875191,281.11307 C757.593191,280.89707 758.150191,280.59707 758.535191,280.20207 C758.894191,279.83107 759.150191,279.35807 759.312191,278.77707 C759.480191,278.19607 759.558191,277.50207 759.558191,276.69307 L759.564191,276.32807 C758.804191,276.93807 757.970191,277.42907 757.054191,277.78307 C756.138191,278.14207 755.121191,278.32207 753.996191,278.32207 C751.257191,278.32207 749.150191,277.50207 747.671191,275.85507 C746.185191,274.21307 745.449191,271.71607 745.449191,268.35107 C745.449191,266.74707 745.677191,265.35707 746.126191,264.18907 C746.582191,263.02207 747.216191,262.00307 748.037191,261.13507 C748.802191,260.32107 749.750191,259.69207 750.863191,259.24307 C751.982191,258.79407 753.126191,258.56607 754.294191,258.56607 C755.355191,258.56607 756.312191,258.69207 757.175191,258.93807 C758.037191,259.18907 758.828191,259.53607 759.529191,259.97307 L759.755191,259.09907 L765.845191,259.09907 L765.839191,276.37607 Z" id="Fill-62" fill="#000000"></path>
                <path d="M791.314191,278.60897 L785.039191,278.60897 L785.039191,268.94397 C785.039191,268.15997 784.998191,267.37597 784.919191,266.59597 C784.841191,265.81197 784.697191,265.23697 784.505191,264.86597 C784.279191,264.44097 783.937191,264.12397 783.488191,263.92497 C783.044191,263.73397 782.427191,263.63197 781.630191,263.63197 C781.068191,263.63197 780.488191,263.72797 779.906191,263.90797 C779.326191,264.09297 778.691191,264.38697 778.007191,264.79497 L778.007191,278.60897 L771.726191,278.60297 L771.732191,259.09897 L778.015191,259.10497 L778.007191,261.26697 C779.123191,260.39897 780.189191,259.73397 781.212191,259.27297 C782.236191,258.80497 783.369191,258.57897 784.613191,258.57897 C786.722191,258.57897 788.363191,259.18897 789.543191,260.42197 C790.728191,261.64397 791.320191,263.47697 791.320191,265.91997 L791.314191,278.60897 Z" id="Fill-64" fill="#000000"></path>
                <path d="M260.883491,322.97717 C260.209491,323.15117 259.496491,323.28917 258.742491,323.38417 C257.993491,323.48017 257.068491,323.53417 255.981491,323.52817 C253.547491,323.52817 251.738491,323.03717 250.550491,322.05517 C249.361491,321.06717 248.768491,319.38417 248.768491,317.00017 L248.774491,307.88017 L246.220491,307.88017 L246.220491,303.62817 L248.774491,303.62817 L248.774491,298.04717 L255.056491,298.04717 L255.056491,303.63417 L260.889491,303.64117 L260.889491,307.89217 L255.056491,307.88617 L255.047491,314.79717 C255.047491,315.48017 255.056491,316.07917 255.068491,316.58717 C255.074491,317.09017 255.173491,317.55117 255.346491,317.95817 C255.505491,318.36617 255.790491,318.68317 256.200491,318.92317 C256.610491,319.16317 257.209491,319.28317 257.993491,319.28317 C258.317491,319.28317 258.739491,319.21017 259.263491,319.07317 C259.793491,318.93517 260.155491,318.80917 260.365491,318.69617 L260.883491,318.69617 L260.883491,322.97717 Z" id="Fill-66" fill="#000000"></path>
                <path d="M276.869291,318.14517 C277.276291,317.64817 277.581291,317.04817 277.782291,316.34817 C277.983291,315.64717 278.088291,314.67717 278.088291,313.43817 C278.088291,312.29317 277.983291,311.33017 277.776291,310.55717 C277.567291,309.77917 277.276291,309.16217 276.908291,308.69517 C276.536291,308.22217 276.087291,307.88017 275.566291,307.68917 C275.046291,307.49117 274.483291,307.39517 273.878291,307.39517 C273.279291,307.38917 272.740291,307.47317 272.273291,307.63517 C271.803291,307.79617 271.350291,308.12017 270.923291,308.60517 C270.539291,309.05417 270.237291,309.67717 270.009291,310.46717 C269.782291,311.25117 269.671291,312.24617 269.671291,313.43817 C269.671291,314.50317 269.767291,315.42617 269.961291,316.21017 C270.162291,316.98917 270.447291,317.61817 270.833291,318.09017 C271.204291,318.54517 271.650291,318.86917 272.162291,319.07917 C272.677291,319.28917 273.267291,319.39017 273.929291,319.39617 C274.497291,319.39617 275.039291,319.30017 275.552291,319.10917 C276.073291,318.92317 276.513291,318.60017 276.869291,318.14517 M284.561291,313.40817 C284.561291,316.61217 283.624291,319.14517 281.752291,320.98917 C279.884291,322.83917 277.255291,323.75517 273.875291,323.75517 C270.492291,323.75517 267.869291,322.83317 265.997291,320.98317 C264.126291,319.13217 263.195291,316.60617 263.195291,313.39617 C263.195291,310.16817 264.140291,307.63517 266.024291,305.79117 C267.901291,303.95217 270.524291,303.03017 273.884291,303.03017 C277.285291,303.03017 279.914291,303.95817 281.776291,305.81517 C283.636291,307.66517 284.561291,310.19817 284.561291,313.40817" id="Fill-68" fill="#000000"></path>
                <path d="M312.994291,318.05527 L312.994291,314.01827 C312.153291,314.08427 311.245291,314.18027 310.266291,314.30027 C309.290291,314.41927 308.548291,314.56327 308.041291,314.72527 C307.422291,314.91627 306.949291,315.20427 306.619291,315.58127 C306.290291,315.95227 306.131291,316.44427 306.131291,317.04827 C306.131291,317.45527 306.164291,317.77927 306.233291,318.03627 C306.299291,318.28827 306.470291,318.53427 306.748291,318.76127 C307.012291,318.98927 307.332291,319.16227 307.700291,319.27027 C308.065291,319.37827 308.638291,319.43227 309.422291,319.43227 C310.042291,319.43227 310.673291,319.30627 311.311291,319.05527 C311.946291,318.80327 312.506291,318.46827 312.994291,318.05527 L312.994291,318.05527 Z M312.988291,321.09727 C312.653291,321.34827 312.239291,321.65427 311.743291,322.01327 C311.245291,322.37227 310.778291,322.65427 310.338291,322.86427 C309.727291,323.14527 309.096291,323.34827 308.437291,323.48627 C307.775291,323.61827 307.056291,323.68427 306.272291,323.68427 C304.428291,323.68427 302.880291,323.10927 301.631291,321.96527 C300.385291,320.81527 299.768291,319.34827 299.768291,317.57027 C299.768291,316.14427 300.083291,314.98327 300.718291,314.07827 C301.355291,313.17427 302.254291,312.46727 303.421291,311.94727 C304.574291,311.42527 306.005291,311.05427 307.715291,310.83227 C309.422291,310.61127 311.194291,310.45527 313.027291,310.34827 L313.027291,310.24527 C313.027291,309.16127 312.590291,308.41327 311.715291,308.00027 C310.835291,307.58027 309.541291,307.37727 307.835291,307.37727 C306.811291,307.37727 305.712291,307.55727 304.547291,307.92227 C303.380291,308.28727 302.547291,308.56927 302.035291,308.76727 L301.463291,308.76727 L301.463291,304.06627 C302.122291,303.89227 303.191291,303.68927 304.679291,303.44927 C306.164291,303.21527 307.652291,303.09627 309.140291,303.09627 C312.688291,303.09627 315.251291,303.64727 316.827291,304.74227 C318.404291,305.83227 319.189291,307.55127 319.189291,309.89227 L319.186291,323.16227 L312.988291,323.15727 L312.988291,321.09727 Z" id="Fill-70" fill="#000000"></path>
                <path d="M338.860991,313.28767 C338.860991,311.55767 338.564991,310.22267 337.977991,309.28767 C337.387991,308.35367 336.339991,307.88067 334.824991,307.88067 C334.234991,307.88067 333.629991,307.97067 333.004991,308.15567 C332.378991,308.32967 331.788991,308.58767 331.219991,308.92267 L331.219991,318.68967 C331.668991,318.85067 332.093991,318.95867 332.497991,319.01867 C332.904991,319.07867 333.387991,319.10867 333.956991,319.10867 C335.609991,319.10867 336.839991,318.62367 337.644991,317.65367 C338.453991,316.68867 338.860991,315.23367 338.860991,313.28767 M345.334991,313.15567 C345.334991,316.22267 344.483991,318.72567 342.785991,320.65367 C341.085991,322.58867 338.968991,323.55867 336.429991,323.552698 C335.342991,323.552698 334.387991,323.43767 333.560991,323.20467 C332.740991,322.97167 331.955991,322.62967 331.216991,322.19267 L330.955991,323.16267 L324.937991,323.16267 L324.946991,296.13167 L331.225991,296.13167 L331.219991,305.70067 C332.183991,304.93967 333.165991,304.31667 334.165991,303.84467 C335.171991,303.37167 336.327991,303.13167 337.638991,303.13167 C340.103991,303.13767 342.004991,304.02367 343.336991,305.79667 C344.666991,307.58067 345.334991,310.02967 345.334991,313.15567" id="Fill-72" fill="#000000"></path>
                <path d="M362.063191,318.17447 C362.470191,317.67747 362.775191,317.07847 362.976191,316.37847 C363.180191,315.67747 363.285191,314.70147 363.285191,313.46747 C363.285191,312.32347 363.180191,311.35447 362.970191,310.58747 C362.764191,309.80947 362.470191,309.18647 362.102191,308.72547 C361.730191,308.25147 361.281191,307.91047 360.760191,307.71947 C360.239191,307.52147 359.680191,307.41947 359.075191,307.41947 C358.473191,307.41947 357.934191,307.50347 357.470191,307.65847 C356.997191,307.82647 356.544191,308.14447 356.119191,308.63547 C355.733191,309.08447 355.431191,309.70647 355.206191,310.49747 C354.976191,311.28147 354.865191,312.27047 354.865191,313.46147 C354.865191,314.52847 354.960191,315.45547 355.155191,316.23447 C355.359191,317.01947 355.643191,317.64847 356.026191,318.12047 C356.401191,318.57547 356.844191,318.89947 357.359191,319.10947 C357.871191,319.31847 358.464191,319.42047 359.123191,319.42047 C359.691191,319.42047 360.233191,319.33047 360.749191,319.13247 C361.270191,318.94647 361.707191,318.62347 362.063191,318.17447 M369.758191,313.43247 C369.758191,316.64147 368.818191,319.16847 366.946191,321.01947 C365.078191,322.86347 362.449191,323.78547 359.072191,323.7795 C355.688191,323.7795 353.063191,322.85747 351.194191,321.01347 C349.323191,319.16247 348.391191,316.63547 348.391191,313.42547 C348.391191,310.19747 349.334191,307.65847 351.218191,305.82047 C353.095191,303.97647 355.718191,303.05447 359.078191,303.05447 C362.482191,303.06047 365.111191,303.98747 366.970191,305.83847 C368.830191,307.69547 369.758191,310.22247 369.758191,313.43247" id="Fill-74" fill="#000000"></path>
                <polygon id="Fill-76" fill="#000000" points="380.498191 323.18127 374.219191 323.18127 374.231191 296.14327 380.510191 296.14327"></polygon>
                <path d="M392.655991,323.18717 L386.375991,323.18117 L386.378991,303.67617 L392.655991,303.68217 L392.655991,323.18717 Z M392.829991,300.90417 L386.216991,300.89817 L386.219991,296.14917 L392.829991,296.14917 L392.829991,300.90417 Z" id="Fill-78" fill="#000000"></path>
                <path d="M415.484091,317.00057 C415.484091,319.01957 414.580091,320.64257 412.771091,321.86957 C410.963091,323.10357 408.490091,323.71357 405.357091,323.71357 C403.615091,323.71357 402.040091,323.55257 400.627091,323.22957 C399.213091,322.90557 398.082091,322.54657 397.225091,322.15057 L397.231091,317.01957 L397.800091,317.01957 C398.111091,317.24057 398.470091,317.47957 398.884091,317.73657 C399.296091,317.99457 399.879091,318.27557 400.632091,318.57557 C401.279091,318.84557 402.015091,319.07257 402.837091,319.25857 C403.663091,319.45557 404.537091,319.54557 405.483091,319.54557 C406.705091,319.54557 407.615091,319.41457 408.202091,319.14557 C408.795091,318.86857 409.094091,318.47457 409.094091,317.94057 C409.094091,317.46857 408.921091,317.12057 408.574091,316.90457 C408.226091,316.68857 407.567091,316.49157 406.591091,316.28857 C406.125091,316.18657 405.496091,316.07257 404.705091,315.95257 C403.908091,315.82657 403.189091,315.68357 402.543091,315.50957 C400.770091,315.04257 399.453091,314.32357 398.597091,313.34857 C397.740091,312.37157 397.315091,311.14957 397.315091,309.69457 C397.315091,307.82057 398.201091,306.26357 399.980091,305.01857 C401.758091,303.77857 404.189091,303.15557 407.267091,303.15557 C408.722091,303.15557 410.125091,303.30557 411.460091,303.59957 C412.795091,303.89757 413.843091,304.20957 414.591091,304.54557 L414.591091,309.46757 L414.058091,309.46757 C413.130091,308.83257 412.070091,308.31757 410.884091,307.92257 C409.699091,307.52157 408.502091,307.32357 407.286091,307.32357 C406.273091,307.32357 405.423091,307.46157 404.741091,307.73657 C404.052091,308.01257 403.705091,308.41357 403.705091,308.91657 C403.705091,309.37757 403.861091,309.73057 404.171091,309.97657 C404.483091,310.21657 405.220091,310.46157 406.376091,310.70057 C407.016091,310.83257 407.705091,310.95257 408.435091,311.07857 C409.171091,311.19757 409.915091,311.35457 410.651091,311.53957 C412.298091,311.96457 413.513091,312.64157 414.304091,313.55757 C415.088091,314.47957 415.484091,315.62957 415.484091,317.00057" id="Fill-80" fill="#000000"></path>
                <path d="M439.216491,323.19887 L432.939491,323.19887 L432.939491,313.52787 C432.939491,312.74287 432.903491,311.95887 432.820491,311.17987 C432.741491,310.39587 432.605491,309.82687 432.405491,309.45587 C432.173491,309.02387 431.843491,308.71287 431.394491,308.51487 C430.950491,308.31787 430.329491,308.22187 429.532491,308.22187 C428.962491,308.22187 428.394491,308.31187 427.814491,308.49787 C427.227491,308.68287 426.592491,308.98187 425.915491,309.38387 L425.909491,323.19287 L419.627491,323.19287 L419.640491,296.15487 L425.915491,296.16187 L425.915491,305.85587 C427.023491,304.98787 428.089491,304.31687 429.112491,303.85587 C430.136491,303.39487 431.269491,303.16787 432.521491,303.16787 C434.622491,303.16787 436.263491,303.77887 437.448491,305.00687 C438.628491,306.23387 439.228491,308.07187 439.222536,310.50987 L439.216491,323.19887 Z" id="Fill-82" fill="#000000"></path>
                <path d="M476.708691,323.21057 L470.433691,323.21057 L470.433691,313.54557 C470.433691,312.76157 470.390691,311.97657 470.313691,311.19157 C470.235691,310.41357 470.091691,309.83257 469.899691,309.46757 C469.665691,309.03657 469.331691,308.72557 468.888691,308.52657 C468.438691,308.32957 467.821691,308.22857 467.024691,308.22857 C466.462691,308.22857 465.882691,308.32357 465.300691,308.50957 C464.720691,308.69457 464.085691,308.98857 463.401691,309.39557 L463.401691,323.20457 L457.120691,323.20457 L457.126691,303.70057 L463.401691,303.70057 L463.401691,305.86257 C464.517691,305.00057 465.575691,304.33557 466.601691,303.86857 C467.630691,303.40657 468.761691,303.17957 470.007691,303.17957 C472.114691,303.17957 473.757691,303.79057 474.937691,305.01857 C476.122691,306.24557 476.714691,308.07757 476.714691,310.52157 L476.708691,323.21057 Z" id="Fill-84" fill="#000000"></path>
                <path d="M501.907891,323.22327 L495.626891,323.21627 L495.626891,321.05527 C494.469891,321.93527 493.415891,322.60027 492.458891,323.06127 C491.499891,323.51627 490.356891,323.74427 489.026891,323.74427 C486.876891,323.74427 485.223891,323.12027 484.061891,321.88727 C482.899891,320.64227 482.319891,318.81527 482.319891,316.39627 L482.325891,303.70627 L488.606891,303.70627 L488.600891,313.37727 C488.594891,314.36027 488.632891,315.17427 488.696891,315.82727 C488.757891,316.48627 488.901891,317.02527 489.134891,317.45527 C489.356891,317.88127 489.690891,318.19327 490.134891,318.39027 C490.577891,318.58727 491.194891,318.69027 491.997891,318.69027 C492.524891,318.69027 493.110891,318.58727 493.757891,318.39027 C494.403891,318.19927 495.032891,317.90527 495.626891,317.52227 L495.632891,303.71227 L501.913891,303.71227 L501.907891,323.22327 Z" id="Fill-86" fill="#000000"></path>
                <path d="M517.968491,323.75547 C516.261491,323.74947 514.710491,323.54647 513.298491,323.14547 C511.896491,322.73747 510.669491,322.11447 509.626491,321.27047 C508.597491,320.42047 507.800491,319.35947 507.226491,318.07247 C506.661491,316.78547 506.380491,315.28147 506.380491,313.55147 C506.380491,311.73647 506.687491,310.16847 507.290491,308.85047 C507.902491,307.52647 508.745491,306.43747 509.843491,305.56847 C510.896491,304.74847 512.113491,304.14447 513.489491,303.76647 C514.866491,303.38347 516.298491,303.19247 517.782491,303.19247 C519.113491,303.19247 520.339491,303.33547 521.466491,303.62247 C522.585491,303.91647 523.634491,304.29347 524.609491,304.75447 L524.609491,310.08447 L523.724491,310.08447 C523.478491,309.87447 523.185491,309.63547 522.843491,309.35947 C522.501491,309.07847 522.089491,308.80947 521.585491,308.54547 C521.113491,308.29347 520.591491,308.08447 520.029491,307.91647 C519.460491,307.74847 518.800491,307.66447 518.046491,307.66447 C516.382491,307.66447 515.101491,308.19747 514.202491,309.25147 C513.304491,310.30647 512.855491,311.74247 512.855491,313.55747 C512.855491,315.43247 513.316491,316.85147 514.232491,317.82047 C515.154491,318.79747 516.460491,319.27647 518.148491,319.28247 C518.933491,319.28247 519.640491,319.19247 520.275491,319.01347 C520.904491,318.83947 521.423491,318.62347 521.843491,318.38447 C522.238491,318.15147 522.585491,317.91047 522.884491,317.65947 C523.191491,317.40747 523.466491,317.16247 523.718491,316.91647 L524.609491,316.91647 L524.603491,322.24647 C523.622491,322.70747 522.591491,323.07247 521.519491,323.34247 C520.448491,323.61747 519.269491,323.75547 517.968491,323.75547" id="Fill-88" fill="#000000"></path>
                <polygon id="Fill-90" fill="#000000" points="534.999691 323.22907 528.718691 323.22907 528.724691 296.19107 535.005691 296.19707"></polygon>
                <path d="M553.851291,310.98307 C553.822291,309.67707 553.497291,308.68907 552.886291,308.03007 C552.277291,307.37207 551.324291,307.03607 550.037291,307.03607 C548.833291,307.03607 547.851291,307.34707 547.078291,307.97007 C546.306291,308.59907 545.869291,309.59907 545.779291,310.98307 L553.851291,310.98307 Z M560.074291,314.65307 L545.790291,314.64707 C545.886291,316.18007 546.468291,317.36607 547.538291,318.17407 C548.605291,318.98907 550.179291,319.40207 552.257291,319.40207 C553.581291,319.40207 554.857291,319.16307 556.097291,318.67707 C557.330291,318.19907 558.300291,317.67707 559.019291,317.12707 L559.714291,317.12707 L559.714291,322.15107 C558.300291,322.71307 556.970291,323.12707 555.720291,323.38407 C554.474291,323.63607 553.083291,323.76107 551.570291,323.76107 C547.660291,323.76107 544.665291,322.88107 542.581291,321.12107 C540.503291,319.36007 539.460291,316.85107 539.460291,313.59307 C539.460291,310.37207 540.449291,307.82107 542.425291,305.94007 C544.396291,304.05407 547.095291,303.12007 550.538291,303.12007 C553.706291,303.12007 556.085291,303.92207 557.683291,305.52707 C559.283291,307.13807 560.080291,309.44407 560.080291,312.46207 L560.074291,314.65307 Z" id="Fill-92" fill="#000000"></path>
                <path d="M576.302391,318.13827 L576.302391,314.10227 C575.468391,314.16827 574.558391,314.26427 573.577391,314.38427 C572.601391,314.50327 571.859391,314.64727 571.355391,314.80927 C570.732391,315.00027 570.259391,315.28727 569.929391,315.66527 C569.607391,316.03627 569.439391,316.52827 569.439391,317.13227 C569.439391,317.53927 569.474391,317.86327 569.540391,318.12027 C569.613391,318.37227 569.786391,318.61227 570.062391,318.84527 C570.325391,319.07327 570.636391,319.24627 571.007391,319.35427 C571.372391,319.46227 571.954391,319.51627 572.732391,319.51627 C573.355391,319.51627 573.978391,319.39027 574.618391,319.13827 C575.259391,318.88727 575.822391,318.55127 576.302391,318.13827 L576.302391,318.13827 Z M576.302391,321.17427 C575.966391,321.43227 575.552391,321.73827 575.056391,322.09727 C574.558391,322.45627 574.091391,322.73827 573.654391,322.94727 C573.038391,323.22927 572.404391,323.43227 571.743391,323.57027 C571.091391,323.70127 570.366391,323.76827 569.581391,323.76827 C567.738391,323.76827 566.193391,323.19327 564.941391,322.04327 C563.702391,320.89927 563.073391,319.43827 563.073391,317.65427 C563.073391,316.23427 563.396391,315.06727 564.031391,314.16227 C564.665391,313.25827 565.564391,312.55127 566.732391,312.03127 C567.888391,311.50927 569.320391,311.13827 571.025391,310.91627 C572.732391,310.70027 574.499391,310.53427 576.337391,310.43127 L576.337391,310.32927 C576.337391,309.24527 575.900391,308.49227 575.019391,308.07727 C574.146391,307.66427 572.859391,307.46127 571.146391,307.46127 C570.114391,307.46127 569.019391,307.64127 567.857391,308.00627 C566.691391,308.37127 565.851391,308.65327 565.349391,308.85027 L564.773391,308.85027 L564.773391,304.15027 C565.433391,303.97627 566.505391,303.77227 567.989391,303.53327 C569.474391,303.29927 570.960391,303.17927 572.450391,303.17927 C575.995391,303.17927 578.558391,303.73127 580.134391,304.82627 C581.708391,305.91627 582.505391,307.63527 582.499425,309.97627 L582.493391,323.24627 L576.302391,323.24127 L576.302391,321.17427 Z" id="Fill-94" fill="#000000"></path>
                <path d="M602.392291,309.71937 L601.841291,309.71937 C601.572291,309.62937 601.148291,309.55737 600.554291,309.50937 C599.968291,309.46737 599.482291,309.44437 599.081291,309.44437 C598.195291,309.43737 597.410291,309.49737 596.728291,309.61137 C596.050291,309.73137 595.314291,309.92237 594.531291,310.20337 L594.531291,323.24637 L588.247291,323.24637 L588.253291,303.74237 L594.537291,303.74237 L594.537291,306.61137 C595.908291,305.43137 597.099291,304.64737 598.117291,304.26337 C599.134291,303.88037 600.070291,303.68937 600.925291,303.68937 C601.142291,303.68937 601.392291,303.69537 601.667291,303.70637 C601.943291,303.72437 602.189291,303.73737 602.398291,303.76037 L602.392291,309.71937 Z" id="Fill-96" fill="#000000"></path>
                <polygon id="Fill-98" fill="#000000" points="649.210591 303.76627 643.155591 323.26427 636.509591 323.25827 632.544591 310.11427 628.622591 323.25827 621.909591 323.25827 615.921591 303.74827 622.489591 303.75427 625.831591 317.19927 629.993591 303.75427 635.532591 303.75427 639.478591 317.19927 642.772591 303.76027"></polygon>
                <path d="M665.894191,311.01817 C665.865191,309.70617 665.540191,308.72517 664.923191,308.06617 C664.312191,307.40117 663.367191,307.07217 662.080191,307.07217 C660.876191,307.07217 659.894191,307.38317 659.121191,308.01217 C658.349191,308.63517 657.912191,309.63517 657.822191,311.01817 L665.894191,311.01817 Z M672.117191,314.68917 L657.833191,314.68317 C657.929191,316.21617 658.509191,317.39617 659.576191,318.21017 C660.648191,319.02517 662.222191,319.43217 664.300191,319.43817 C665.619191,319.43817 666.900191,319.19917 668.134191,318.71317 C669.373191,318.23417 670.343191,317.71317 671.062191,317.16317 L671.757191,317.16317 L671.757191,322.18717 C670.343191,322.75517 669.013191,323.16317 667.761191,323.42017 C666.517191,323.67117 665.126191,323.79717 663.613191,323.79717 C659.701191,323.79717 656.706191,322.91217 654.623191,321.15717 C652.539191,319.39017 651.498191,316.88717 651.503174,313.62917 C651.503174,310.40817 652.492191,307.85717 654.468191,305.97617 C656.437191,304.09617 659.138191,303.15017 662.576191,303.15017 C665.744191,303.15617 668.128191,303.95817 669.726191,305.56917 C671.326191,307.17417 672.123191,309.47917 672.123191,312.49717 L672.117191,314.68917 Z" id="Fill-100" fill="#000000"></path>
                <path d="M688.345391,318.17447 L688.345391,314.13847 C687.505391,314.20447 686.601391,314.30047 685.618391,314.41947 C684.638391,314.53947 683.900391,314.68347 683.398391,314.84547 C682.775391,315.03647 682.302391,315.32347 681.972391,315.69547 C681.644391,316.07247 681.482391,316.56447 681.482391,317.17447 C681.482391,317.57547 681.511391,317.90447 681.583391,318.15647 C681.656391,318.40747 681.829391,318.64847 682.105391,318.88147 C682.368391,319.10947 682.679391,319.28247 683.050391,319.39047 C683.415391,319.49747 683.997391,319.55247 684.769391,319.55247 C685.398391,319.55247 686.021391,319.42647 686.661391,319.17447 C687.302391,318.92347 687.865391,318.58747 688.345391,318.17447 L688.345391,318.17447 Z M688.345391,321.21047 C688.009391,321.46847 687.589391,321.77447 687.093391,322.13247 C686.601391,322.49147 686.134391,322.77447 685.697391,322.98347 C685.081391,323.25847 684.447391,323.46847 683.786391,323.60047 C683.134391,323.73747 682.409391,323.80347 681.624391,323.80347 C679.775391,323.80347 678.230391,323.22947 676.984391,322.08447 C675.745391,320.93547 675.116391,319.47447 675.116391,317.68947 C675.116391,316.26447 675.433391,315.10247 676.074391,314.19747 C676.708391,313.30047 677.607391,312.58747 678.775391,312.06647 C679.925391,311.54547 681.355391,311.17447 683.068391,310.95247 C684.769391,310.73647 686.542391,310.57547 688.380391,310.46747 L688.380391,310.36047 C688.380391,309.28147 687.943391,308.53247 687.062391,308.11947 C686.189391,307.70047 684.894391,307.49047 683.189391,307.49047 C682.157391,307.49047 681.062391,307.67747 679.900391,308.04247 C678.732391,308.40247 677.894391,308.68947 677.386391,308.88047 L676.816391,308.88047 L676.816391,304.18647 C677.476391,304.01247 678.546391,303.80247 680.032391,303.56947 C681.517391,303.33547 683.003391,303.21547 684.493391,303.21547 C688.038391,303.21547 690.601391,303.76647 692.177391,304.86147 C693.751391,305.95247 694.542391,307.67747 694.542391,310.01247 L694.536391,323.28247 L688.345391,323.27747 L688.345391,321.21047 Z" id="Fill-102" fill="#000000"></path>
                <path d="M714.214491,313.40787 C714.214491,311.51487 713.890491,310.13787 713.243491,309.28787 C712.597491,308.43087 711.579491,308.00687 710.177491,308.00687 C709.591491,308.00687 708.980491,308.09087 708.362491,308.26987 C707.734491,308.44987 707.136491,308.70687 706.573491,309.04287 L706.568491,318.82087 C706.985491,318.98287 707.429491,319.08487 707.901491,319.13287 C708.374491,319.17487 708.849491,319.19887 709.304491,319.19887 C710.956491,319.19887 712.191491,318.71987 712.997491,317.76187 C713.806491,316.79787 714.208491,315.34287 714.214491,313.40787 M720.687491,313.27587 C720.681491,314.88687 720.443491,316.34787 719.944491,317.67187 C719.454491,318.98887 718.808491,320.07887 718.005491,320.93487 C717.171491,321.83987 716.226491,322.51587 715.171491,322.98287 C714.118491,323.44387 712.985491,323.67887 711.782491,323.67187 C710.669491,323.67187 709.728491,323.55287 708.950491,323.31887 C708.171491,323.07887 707.380491,322.74987 706.568491,322.31887 L706.568491,330.45087 L700.290491,330.45087 L700.296491,303.77887 L706.573491,303.77887 L706.573491,305.81487 C707.536491,305.04887 708.519491,304.43087 709.519491,303.95887 C710.525491,303.49087 711.681491,303.25187 712.991491,303.25776 C715.423491,303.25776 717.316491,304.14387 718.663491,305.92887 C720.011491,307.71987 720.687491,310.16187 720.687491,313.27587" id="Fill-104" fill="#000000"></path>
                <path d="M737.419591,318.29457 C737.819591,317.79757 738.126591,317.19857 738.329591,316.49757 C738.532591,315.79757 738.634591,314.82657 738.634591,313.58757 C738.634591,312.43857 738.532591,311.47957 738.323591,310.70057 C738.112591,309.92257 737.819591,309.30557 737.454591,308.83857 C737.083591,308.37157 736.640591,308.02957 736.118591,307.83257 C735.593591,307.64157 735.028591,307.54557 734.431591,307.53957 C733.825591,307.53957 733.292591,307.61657 732.819591,307.78457 C732.347591,307.94657 731.903591,308.27057 731.472591,308.75457 C731.089591,309.20357 730.784591,309.82657 730.556591,310.61057 C730.329591,311.40157 730.214591,312.39057 730.214591,313.58757 C730.214591,314.64757 730.315591,315.56957 730.515591,316.35457 C730.706591,317.13257 730.999591,317.76757 731.382591,318.24057 C731.753591,318.69057 732.190591,319.01957 732.712591,319.22857 C733.228591,319.43857 733.814591,319.53957 734.478591,319.53957 C735.042591,319.54557 735.587591,319.44957 736.101591,319.25857 C736.616591,319.06657 737.054591,318.74957 737.419591,318.29457 M745.108591,313.55157 C745.108591,316.76157 744.173591,319.28857 742.300591,321.13957 C740.431591,322.98257 737.808591,323.90557 734.425591,323.90557 C731.040591,323.90557 728.411591,322.97757 726.544591,321.12657 C724.675591,319.28257 723.741591,316.75557 723.741591,313.54557 C723.741591,310.31257 724.681591,307.77857 726.567591,305.94057 C728.448591,304.09657 731.071591,303.17957 734.431591,303.17957 C737.831591,303.17957 740.466591,304.10757 742.323591,305.95857 C744.179591,307.81557 745.108591,310.34157 745.108591,313.55157" id="Fill-106" fill="#000000"></path>
                <path d="M769.163836,323.30037 L762.882791,323.30037 L762.888791,313.63537 C762.888791,312.85137 762.845791,312.06637 762.761791,311.28737 C762.683791,310.50337 762.546791,309.93437 762.349791,309.55737 C762.114791,309.13237 761.786791,308.82137 761.337791,308.61637 C760.893791,308.42537 760.270791,308.32937 759.479791,308.32937 C758.905791,308.32937 758.337791,308.41937 757.755791,308.60537 C757.169791,308.79037 756.534791,309.08437 755.856791,309.48537 L755.850791,323.30037 L749.575791,323.29437 L749.581791,303.79037 L755.856791,303.79637 L755.856791,305.95837 C756.964791,305.09037 758.030791,304.42537 759.054791,303.96437 C760.079791,303.49637 761.216791,303.26937 762.462791,303.26937 C764.563791,303.26937 766.204791,303.88037 767.390791,305.11337 C768.575791,306.34137 769.169791,308.17437 769.163836,310.61637 L769.163836,323.30037 Z" id="Fill-108" fill="#000000"></path>
                <path d="M791.859091,317.12657 C791.859091,319.13257 790.955091,320.76157 789.146091,321.98857 C787.343091,323.22357 784.871091,323.83957 781.734091,323.83957 C779.990091,323.83957 778.421091,323.67157 777.007091,323.34857 C775.595091,323.02457 774.463091,322.66557 773.601091,322.27657 L773.607091,317.13857 L774.175091,317.13857 C774.488091,317.35957 774.853091,317.59957 775.265091,317.85657 C775.679091,318.11457 776.254091,318.40157 777.007091,318.69557 C777.656091,318.95857 778.392091,319.19257 779.218091,319.38457 C780.039091,319.57557 780.920091,319.67157 781.859091,319.67157 C783.080091,319.67157 783.990091,319.53357 784.584091,319.26457 C785.170091,318.99457 785.470091,318.59357 785.470091,318.06157 C785.470091,317.58757 785.296091,317.24057 784.949091,317.02457 C784.601091,316.81457 783.943091,316.60557 782.966091,316.40757 C782.505091,316.30657 781.871091,316.19157 781.080091,316.07257 C780.291091,315.95257 779.566091,315.80357 778.920091,315.62957 C777.146091,315.16257 775.828091,314.44957 774.972091,313.46757 C774.123091,312.48557 773.691091,311.27057 773.691091,309.81457 C773.691091,307.93957 774.578091,306.38357 776.355091,305.13857 C778.134091,303.89757 780.566091,303.27557 783.644091,303.27557 C785.105091,303.27557 786.500091,303.42557 787.841091,303.72457 C789.171091,304.01257 790.218091,304.32957 790.972091,304.66457 L790.972091,309.58757 L790.435091,309.58757 C789.505091,308.95257 788.453091,308.43757 787.261091,308.04257 C786.082091,307.64157 784.877091,307.44257 783.662091,307.44257 C782.650091,307.44257 781.804091,307.58057 781.117091,307.85657 C780.427091,308.13857 780.080091,308.52657 780.080091,309.03657 C780.080091,309.50357 780.236091,309.85157 780.546091,310.09657 C780.859091,310.33557 781.595091,310.58157 782.757091,310.82057 C783.392091,310.95257 784.080091,311.07857 784.812091,311.19757 C785.548091,311.32357 786.291091,311.47357 787.027091,311.65857 C788.673091,312.08457 789.890091,312.76157 790.679091,313.68357 C791.464091,314.59957 791.859091,315.74957 791.859091,317.12657" id="Fill-110" fill="#000000"></path>
            </g>
        </g>
    </g>
</svg>
