<svg width="321px" height="73px" viewBox="0 0 321 73" version="1.1" xmlns="http://www.w3.org/2000/svg" xmlns:xlink="http://www.w3.org/1999/xlink">
    <g id="Page-1" stroke="none" stroke-width="1" fill="none" fill-rule="evenodd">
        <g id="Artboard" transform="translate(-99.000000, -137.000000)" fill="#000000" fill-rule="nonzero">
            <g id="Group" transform="translate(95.000000, 126.000000)">
                <path d="M4.66308594,48 L4.66308594,11.8671875 L11.7675781,11.8671875 L21.7773438,39.8212891 L32.0800781,11.8671875 L38.4277344,11.8671875 L38.4277344,48 L33.6425781,48 L33.6425781,18.6054688 L23.6816406,45.5830078 L18.7255859,45.5830078 L9.05761719,18.5322266 L9.05761719,48 L4.66308594,48 Z M61.5478516,44.6308594 C58.6669778,47.2838674 55.8919404,48.6103516 53.2226562,48.6103516 C51.0253796,48.6103516 49.2024812,47.9226957 47.7539062,46.5473633 C46.3053313,45.1720309 45.5810547,43.4345808 45.5810547,41.3349609 C45.5810547,38.437811 46.7976766,36.2120846 49.230957,34.6577148 C51.6642374,33.1033451 55.1513445,32.3261719 59.6923828,32.3261719 L60.8398438,32.3261719 L60.8398438,29.1279297 C60.8398438,26.0517424 59.2610835,24.5136719 56.1035156,24.5136719 C53.5644404,24.5136719 50.8219548,25.2949141 47.8759766,26.8574219 L47.8759766,22.8779297 C51.114925,21.5595637 54.1503765,20.9003906 56.9824219,20.9003906 C59.9446763,20.9003906 62.129713,21.5677017 63.5375977,22.9023438 C64.9454823,24.2369858 65.6494141,26.3121604 65.6494141,29.1279297 L65.6494141,41.1396484 C65.6494141,43.8903132 66.4957598,45.265625 68.1884766,45.265625 C68.4000662,45.265625 68.7093079,45.2330732 69.1162109,45.1679688 L69.4580078,47.8291016 C68.3675076,48.3499375 67.1630925,48.6103516 65.8447266,48.6103516 C63.5986216,48.6103516 62.1663442,47.2838674 61.5478516,44.6308594 Z M60.8398438,42.0185547 L60.8398438,35.1582031 L59.2285156,35.109375 C56.5917837,35.109375 54.4596436,35.6098583 52.8320312,36.6108398 C51.2044189,37.6118214 50.390625,38.9260986 50.390625,40.5537109 C50.390625,41.7093157 50.797522,42.6858684 51.6113281,43.4833984 C52.4251343,44.2809285 53.4179629,44.6796875 54.5898438,44.6796875 C56.5918069,44.6796875 58.6751194,43.7926521 60.8398438,42.0185547 Z M75.4882812,48 L75.4882812,21.4863281 L80.2978516,21.4863281 L80.2978516,26.4667969 C82.8369268,22.7558408 85.9456196,20.9003906 89.6240234,20.9003906 C91.9189568,20.9003906 93.7499932,21.6287362 95.1171875,23.0854492 C96.4843818,24.5421622 97.1679688,26.4993367 97.1679688,28.9570312 L97.1679688,48 L92.3583984,48 L92.3583984,30.5195312 C92.3583984,28.5501204 92.0695016,27.1463258 91.4916992,26.3081055 C90.9138969,25.4698851 89.957689,25.0507812 88.6230469,25.0507812 C85.6770686,25.0507812 82.9020313,26.9794729 80.2978516,30.8369141 L80.2978516,48 L75.4882812,48 Z M113.549805,48.6103516 C111.352528,48.6103516 108.683284,48.0976614 105.541992,47.0722656 L105.541992,42.6533203 C108.683284,44.2158281 111.417632,44.9970703 113.745117,44.9970703 C115.128588,44.9970703 116.276037,44.6227251 117.1875,43.8740234 C118.098963,43.1253218 118.554688,42.1894587 118.554688,41.0664062 C118.554688,39.4225178 117.277031,38.0634819 114.72168,36.9892578 L111.914062,35.7929688 C107.763651,34.0676997 105.688477,31.5856282 105.688477,28.3466797 C105.688477,26.0354702 106.506339,24.2166407 108.14209,22.8901367 C109.77784,21.5636327 112.019843,20.9003906 114.868164,20.9003906 C116.349291,20.9003906 118.180328,21.1038391 120.361328,21.5107422 L121.362305,21.7060547 L121.362305,25.7099609 C118.676744,24.9124309 116.544604,24.5136719 114.96582,24.5136719 C111.873357,24.5136719 110.327148,25.6367075 110.327148,27.8828125 C110.327148,29.3313875 111.499012,30.5520784 113.842773,31.5449219 L116.162109,32.5214844 C118.782565,33.6282607 120.638015,34.7960551 121.728516,36.0249023 C122.819016,37.2537496 123.364258,38.7877512 123.364258,40.6269531 C123.364258,42.9544387 122.444671,44.8668545 120.605469,46.3642578 C118.766267,47.8616611 116.414402,48.6103516 113.549805,48.6103516 Z M142.358398,48.6103516 C138.777651,48.6103516 135.807303,47.2838674 133.447266,44.6308594 C131.087228,41.9778513 129.907227,38.6331582 129.907227,34.5966797 C129.907227,30.2835071 131.075021,26.9225381 133.410645,24.5136719 C135.746268,22.1048057 139.005513,20.9003906 143.188477,20.9003906 C145.255544,20.9003906 147.566719,21.1852185 150.12207,21.7548828 L150.12207,25.7832031 C147.403958,24.9856731 145.190438,24.5869141 143.481445,24.5869141 C141.023751,24.5869141 139.0503,25.5105702 137.561035,27.3579102 C136.07177,29.2052501 135.327148,31.6669768 135.327148,34.7431641 C135.327148,37.7216946 136.092115,40.1305247 137.62207,41.9697266 C139.152026,43.8089285 141.153959,44.7285156 143.62793,44.7285156 C145.825206,44.7285156 148.087553,44.1669978 150.415039,43.0439453 L150.415039,47.1943359 C147.3063,48.1383511 144.62078,48.6103516 142.358398,48.6103516 Z M177.050781,47.1455078 C173.828109,48.1220752 171.069347,48.6103516 168.774414,48.6103516 C164.868145,48.6103516 161.682141,47.3123502 159.216309,44.7163086 C156.750476,42.120267 155.517578,38.755229 155.517578,34.6210938 C155.517578,30.6008914 156.603993,27.3050259 158.776855,24.7333984 C160.949718,22.161771 163.728824,20.8759766 167.114258,20.8759766 C170.320654,20.8759766 172.798657,22.0152881 174.54834,24.2939453 C176.298023,26.5726025 177.172852,29.8115024 177.172852,34.0107422 L177.148438,35.5 L160.424805,35.5 C161.124678,41.7988596 164.208957,44.9482422 169.677734,44.9482422 C171.679698,44.9482422 174.137355,44.4111382 177.050781,43.3369141 L177.050781,47.1455078 Z M160.644531,31.8867188 L172.338867,31.8867188 C172.338867,26.9550535 170.499693,24.4892578 166.821289,24.4892578 C163.126609,24.4892578 161.06771,26.9550535 160.644531,31.8867188 Z M185.473633,48 L185.473633,21.4863281 L190.283203,21.4863281 L190.283203,26.4667969 C192.822278,22.7558408 195.930971,20.9003906 199.609375,20.9003906 C201.904308,20.9003906 203.735345,21.6287362 205.102539,23.0854492 C206.469733,24.5421622 207.15332,26.4993367 207.15332,28.9570312 L207.15332,48 L202.34375,48 L202.34375,30.5195312 C202.34375,28.5501204 202.054853,27.1463258 201.477051,26.3081055 C200.899248,25.4698851 199.943041,25.0507812 198.608398,25.0507812 C195.66242,25.0507812 192.887383,26.9794729 190.283203,30.8369141 L190.283203,48 L185.473633,48 Z M224.462891,48.6103516 C222.021472,48.6103516 220.117194,47.9104888 218.75,46.5107422 C217.382806,45.1109956 216.699219,43.1660281 216.699219,40.6757812 L216.699219,25.0996094 L213.378906,25.0996094 L213.378906,21.4863281 L216.699219,21.4863281 L216.699219,16.6767578 L221.508789,16.2128906 L221.508789,21.4863281 L228.442383,21.4863281 L228.442383,25.0996094 L221.508789,25.0996094 L221.508789,39.796875 C221.508789,43.2636892 223.00617,44.9970703 226.000977,44.9970703 C226.635745,44.9970703 227.40885,44.8912771 228.320312,44.6796875 L228.320312,48 C226.839185,48.4069031 225.553391,48.6103516 224.462891,48.6103516 Z M235.205078,48 L235.205078,21.4863281 L240.014648,21.4863281 L240.014648,26.4667969 C241.918955,22.7558408 244.685854,20.9003906 248.31543,20.9003906 C248.803713,20.9003906 249.316404,20.9410803 249.853516,21.0224609 L249.853516,25.5146484 C249.023433,25.2379543 248.291019,25.0996094 247.65625,25.0996094 C244.612615,25.0996094 242.06544,26.9062319 240.014648,30.5195312 L240.014648,48 L235.205078,48 Z M272.241211,48 L272.241211,43.0195312 C269.68586,46.7467634 266.585305,48.6103516 262.939453,48.6103516 C260.628244,48.6103516 258.789069,47.882006 257.421875,46.425293 C256.054681,44.96858 255.371094,43.0032676 255.371094,40.5292969 L255.371094,21.4863281 L260.180664,21.4863281 L260.180664,38.9667969 C260.180664,40.9524839 260.469561,42.3644164 261.047363,43.2026367 C261.625166,44.0408571 262.589511,44.4599609 263.94043,44.4599609 C266.870132,44.4599609 269.637031,42.5312693 272.241211,38.6738281 L272.241211,21.4863281 L277.050781,21.4863281 L277.050781,48 L272.241211,48 Z M286.694336,48 L286.694336,21.4863281 L291.503906,21.4863281 L291.503906,26.4667969 C293.847668,22.7558408 296.858706,20.9003906 300.537109,20.9003906 C304.085304,20.9003906 306.502272,22.7558408 307.788086,26.4667969 C310.066743,22.7395647 313.028953,20.8759766 316.674805,20.8759766 C319.018566,20.8759766 320.833327,21.5636324 322.119141,22.9389648 C323.404954,24.3142972 324.047852,26.2389199 324.047852,28.7128906 L324.047852,48 L319.213867,48 L319.213867,29.4697266 C319.213867,26.4423677 318.01759,24.9287109 315.625,24.9287109 C313.134753,24.9287109 310.522475,26.6946438 307.788086,30.2265625 L307.788086,48 L302.954102,48 L302.954102,29.4697266 C302.954102,26.4260916 301.733411,24.9042969 299.291992,24.9042969 C296.86685,24.9042969 294.270847,26.6783677 291.503906,30.2265625 L291.503906,48 L286.694336,48 Z" id="Manscentrum"></path>
                <path d="M41.331543,83 L41.331543,64.9335938 L43.7363281,64.9335938 L43.7363281,73.8203125 L51.0483398,64.9335938 L53.6240234,64.9335938 L46.5439453,73.5517578 L54.8813477,83 L51.6342773,83 L43.7363281,73.8447266 L43.7363281,83 L41.331543,83 Z M57.7255859,83 L57.7255859,69.7431641 L60.1303711,69.7431641 L60.1303711,72.2333984 C61.0825243,70.3779204 62.465974,69.4501953 64.2807617,69.4501953 C64.5249036,69.4501953 64.7812487,69.4705402 65.0498047,69.5112305 L65.0498047,71.7573242 C64.6347635,71.6189772 64.2685563,71.5498047 63.9511719,71.5498047 C62.4293544,71.5498047 61.1557668,72.453116 60.1303711,74.2597656 L60.1303711,83 L57.7255859,83 Z M67.9550781,83 L67.9550781,69.7431641 L70.3598633,69.7431641 L70.3598633,83 L67.9550781,83 Z M67.9550781,67.3383789 L67.9550781,64.9335938 L70.3598633,64.9335938 L70.3598633,67.3383789 L67.9550781,67.3383789 Z M78.6972656,83.3051758 C77.5986273,83.3051758 76.2640052,83.0488307 74.6933594,82.5361328 L74.6933594,80.3266602 C76.2640052,81.1079141 77.6311791,81.4985352 78.7949219,81.4985352 C79.4866571,81.4985352 80.0603818,81.3113625 80.5161133,80.9370117 C80.9718447,80.5626609 81.199707,80.0947294 81.199707,79.5332031 C81.199707,78.7112589 80.5608788,78.031741 79.2832031,77.4946289 L77.8793945,76.8964844 C75.8041888,76.0338499 74.7666016,74.7928141 74.7666016,73.1733398 C74.7666016,72.0177351 75.175533,71.1083204 75.9934082,70.4450684 C76.8112834,69.7818163 77.9322845,69.4501953 79.3564453,69.4501953 C80.0970089,69.4501953 81.0125271,69.5519196 82.1030273,69.7553711 L82.6035156,69.8530273 L82.6035156,71.8549805 C81.2607355,71.4562155 80.1946654,71.2568359 79.4052734,71.2568359 C77.8590417,71.2568359 77.0859375,71.8183538 77.0859375,72.9414062 C77.0859375,73.6656937 77.6718691,74.2760392 78.84375,74.7724609 L80.003418,75.2607422 C81.3136459,75.8141304 82.241371,76.3980275 82.7866211,77.0124512 C83.3318712,77.6268748 83.6044922,78.3938756 83.6044922,79.3134766 C83.6044922,80.4772194 83.1446986,81.4334272 82.2250977,82.1821289 C81.3054967,82.9308306 80.1295645,83.3051758 78.6972656,83.3051758 Z M93.1015625,83.3051758 C91.311189,83.3051758 89.826015,82.6419337 88.6459961,81.3154297 C87.4659772,79.9889257 86.8759766,78.3165791 86.8759766,76.2983398 C86.8759766,74.1417535 87.4598737,72.461269 88.6276855,71.2568359 C89.7954974,70.0524028 91.4251198,69.4501953 93.5166016,69.4501953 C94.5501354,69.4501953 95.7057228,69.5926093 96.9833984,69.8774414 L96.9833984,71.8916016 C95.6243422,71.4928365 94.5175824,71.293457 93.6630859,71.293457 C92.4342386,71.293457 91.4475135,71.7552851 90.7028809,72.6789551 C89.9582482,73.6026251 89.5859375,74.8334884 89.5859375,76.371582 C89.5859375,77.8608473 89.9684207,79.0652623 90.7333984,79.9848633 C91.4983762,80.9044642 92.4993428,81.3642578 93.7363281,81.3642578 C94.8349664,81.3642578 95.96614,81.0834989 97.1298828,80.5219727 L97.1298828,82.597168 C95.5755131,83.0691755 94.2327531,83.3051758 93.1015625,83.3051758 Z M110.447754,82.5727539 C108.836418,83.0610376 107.457037,83.3051758 106.30957,83.3051758 C104.356436,83.3051758 102.763434,82.6561751 101.530518,81.3581543 C100.297601,80.0601335 99.6811523,78.3776145 99.6811523,76.3105469 C99.6811523,74.3004457 100.22436,72.6525129 101.310791,71.3666992 C102.397222,70.0808855 103.786775,69.4379883 105.479492,69.4379883 C107.08269,69.4379883 108.321692,70.007644 109.196533,71.1469727 C110.071375,72.2863013 110.508789,73.9057512 110.508789,76.0053711 L110.496582,76.75 L102.134766,76.75 C102.484702,79.8994298 104.026842,81.4741211 106.76123,81.4741211 C107.762212,81.4741211 108.991041,81.2055691 110.447754,80.668457 L110.447754,82.5727539 Z M102.244629,74.9433594 L108.091797,74.9433594 C108.091797,72.4775267 107.17221,71.2446289 105.333008,71.2446289 C103.485668,71.2446289 102.456219,72.4775267 102.244629,74.9433594 Z M114.65918,83 L114.65918,69.7431641 L117.063965,69.7431641 L117.063965,72.2333984 C118.333502,70.3779204 119.887849,69.4501953 121.727051,69.4501953 C122.874517,69.4501953 123.790036,69.8143681 124.473633,70.5427246 C125.15723,71.2710811 125.499023,72.2496683 125.499023,73.4785156 L125.499023,83 L123.094238,83 L123.094238,74.2597656 C123.094238,73.2750602 122.94979,72.5731629 122.660889,72.1540527 C122.371987,71.7349426 121.893884,71.5253906 121.226562,71.5253906 C119.753573,71.5253906 118.366055,72.4897365 117.063965,74.418457 L117.063965,83 L114.65918,83 Z M134.153809,83.3051758 C132.933099,83.3051758 131.98096,82.9552444 131.297363,82.2553711 C130.613766,81.5554978 130.271973,80.583014 130.271973,79.3378906 L130.271973,71.5498047 L128.611816,71.5498047 L128.611816,69.7431641 L130.271973,69.7431641 L130.271973,67.3383789 L132.676758,67.1064453 L132.676758,69.7431641 L136.143555,69.7431641 L136.143555,71.5498047 L132.676758,71.5498047 L132.676758,78.8984375 C132.676758,80.6318446 133.425448,81.4985352 134.922852,81.4985352 C135.240236,81.4985352 135.626788,81.4456385 136.08252,81.3398438 L136.08252,83 C135.341956,83.2034515 134.699059,83.3051758 134.153809,83.3051758 Z M139.524902,83 L139.524902,69.7431641 L141.929688,69.7431641 L141.929688,72.2333984 C142.881841,70.3779204 144.26529,69.4501953 146.080078,69.4501953 C146.32422,69.4501953 146.580565,69.4705402 146.849121,69.5112305 L146.849121,71.7573242 C146.43408,71.6189772 146.067873,71.5498047 145.750488,71.5498047 C144.228671,71.5498047 142.955083,72.453116 141.929688,74.2597656 L141.929688,83 L139.524902,83 Z M158.042969,83 L158.042969,80.5097656 C156.765293,82.3733817 155.215016,83.3051758 153.39209,83.3051758 C152.236485,83.3051758 151.316898,82.941003 150.633301,82.2126465 C149.949704,81.48429 149.60791,80.5016338 149.60791,79.2646484 L149.60791,69.7431641 L152.012695,69.7431641 L152.012695,78.4833984 C152.012695,79.4762419 152.157144,80.1822082 152.446045,80.6013184 C152.734946,81.0204285 153.217119,81.2299805 153.892578,81.2299805 C155.357429,81.2299805 156.740879,80.2656346 158.042969,78.3369141 L158.042969,69.7431641 L160.447754,69.7431641 L160.447754,83 L158.042969,83 Z M165.269531,83 L165.269531,69.7431641 L167.674316,69.7431641 L167.674316,72.2333984 C168.846197,70.3779204 170.351716,69.4501953 172.190918,69.4501953 C173.965015,69.4501953 175.173499,70.3779204 175.816406,72.2333984 C176.955735,70.3697823 178.43684,69.4379883 180.259766,69.4379883 C181.431646,69.4379883 182.339027,69.7818162 182.981934,70.4694824 C183.62484,71.1571486 183.946289,72.11946 183.946289,73.3564453 L183.946289,83 L181.529297,83 L181.529297,73.7348633 C181.529297,72.2211838 180.931158,71.4643555 179.734863,71.4643555 C178.48974,71.4643555 177.183601,72.3473219 175.816406,74.1132812 L175.816406,83 L173.399414,83 L173.399414,73.7348633 C173.399414,72.2130458 172.789069,71.4521484 171.568359,71.4521484 C170.355788,71.4521484 169.057787,72.3391838 167.674316,74.1132812 L167.674316,83 L165.269531,83 Z M199.388184,71.5498047 L199.388184,83 L196.971191,83 L196.971191,71.5498047 L195.091309,71.5498047 L195.091309,69.7431641 L196.971191,69.7431641 L196.971191,68.15625 C196.971191,64.9986821 198.411607,63.4199219 201.29248,63.4199219 C202.098149,63.4199219 203.013667,63.5541979 204.039062,63.8227539 L204.039062,65.7270508 C202.9567,65.3933903 202.09001,65.2265625 201.438965,65.2265625 C200.649573,65.2265625 200.110434,65.4157696 199.821533,65.7941895 C199.532632,66.1726093 199.388184,66.8745066 199.388184,67.8999023 L199.388184,69.7431641 L202.696289,69.7431641 L202.696289,71.5498047 L199.388184,71.5498047 Z M210.899414,83.3051758 C209.003246,83.3051758 207.489589,82.67652 206.358398,81.4191895 C205.227208,80.1618589 204.661621,78.47934 204.661621,76.371582 C204.661621,74.2394099 205.229242,72.552822 206.364502,71.3117676 C207.499762,70.0707132 209.039867,69.4501953 210.984863,69.4501953 C212.92986,69.4501953 214.469965,70.0707132 215.605225,71.3117676 C216.740484,72.552822 217.308105,74.231272 217.308105,76.347168 C217.308105,78.5118923 216.73845,80.2127217 215.599121,81.449707 C214.459792,82.6866924 212.893239,83.3051758 210.899414,83.3051758 Z M210.936035,81.4985352 C213.483248,81.4985352 214.756836,79.7814299 214.756836,76.347168 C214.756836,72.9535963 213.499524,71.2568359 210.984863,71.2568359 C208.47834,71.2568359 207.225098,72.9617343 207.225098,76.371582 C207.225098,79.7895679 208.462064,81.4985352 210.936035,81.4985352 Z M207.518066,67.3383789 L207.518066,65.2265625 L209.629883,65.2265625 L209.629883,67.3383789 L207.518066,67.3383789 Z M212.339844,67.3383789 L212.339844,65.2265625 L214.45166,65.2265625 L214.45166,67.3383789 L212.339844,67.3383789 Z M221.067871,83 L221.067871,69.7431641 L223.472656,69.7431641 L223.472656,72.2333984 C224.424809,70.3779204 225.808259,69.4501953 227.623047,69.4501953 C227.867189,69.4501953 228.123534,69.4705402 228.39209,69.5112305 L228.39209,71.7573242 C227.977049,71.6189772 227.610841,71.5498047 227.293457,71.5498047 C225.77164,71.5498047 224.498052,72.453116 223.472656,74.2597656 L223.472656,83 L221.067871,83 Z M239.20752,83 L239.20752,69.7431641 L241.612305,69.7431641 L241.612305,72.2333984 C242.784186,70.3779204 244.289704,69.4501953 246.128906,69.4501953 C247.903004,69.4501953 249.111488,70.3779204 249.754395,72.2333984 C250.893723,70.3697823 252.374828,69.4379883 254.197754,69.4379883 C255.369635,69.4379883 256.277015,69.7818162 256.919922,70.4694824 C257.562829,71.1571486 257.884277,72.11946 257.884277,73.3564453 L257.884277,83 L255.467285,83 L255.467285,73.7348633 C255.467285,72.2211838 254.869147,71.4643555 253.672852,71.4643555 C252.427728,71.4643555 251.121589,72.3473219 249.754395,74.1132812 L249.754395,83 L247.337402,83 L247.337402,73.7348633 C247.337402,72.2130458 246.727057,71.4521484 245.506348,71.4521484 C244.293776,71.4521484 242.995775,72.3391838 241.612305,74.1132812 L241.612305,83 L239.20752,83 Z M269.383301,81.3154297 C267.942864,82.6419337 266.555345,83.3051758 265.220703,83.3051758 C264.122065,83.3051758 263.210616,82.9613478 262.486328,82.2736816 C261.762041,81.5860154 261.399902,80.7172904 261.399902,79.6674805 C261.399902,78.2189055 262.008213,77.1060423 263.224854,76.3288574 C264.441494,75.5516725 266.185047,75.1630859 268.455566,75.1630859 L269.029297,75.1630859 L269.029297,73.5639648 C269.029297,72.0258712 268.239917,71.2568359 266.661133,71.2568359 C265.391595,71.2568359 264.020352,71.647457 262.547363,72.4287109 L262.547363,70.4389648 C264.166838,69.7797819 265.684563,69.4501953 267.100586,69.4501953 C268.581713,69.4501953 269.674232,69.7838508 270.378174,70.4511719 C271.082116,71.1184929 271.434082,72.1560802 271.434082,73.5639648 L271.434082,79.5698242 C271.434082,80.9451566 271.857255,81.6328125 272.703613,81.6328125 C272.809408,81.6328125 272.964029,81.6165366 273.16748,81.5839844 L273.338379,82.9145508 C272.793129,83.1749688 272.190921,83.3051758 271.531738,83.3051758 C270.408686,83.3051758 269.692547,82.6419337 269.383301,81.3154297 Z M269.029297,80.0092773 L269.029297,76.5791016 L268.223633,76.5546875 C266.905267,76.5546875 265.839197,76.8049291 265.025391,77.3054199 C264.211584,77.8059107 263.804688,78.4630493 263.804688,79.2768555 C263.804688,79.8546578 264.008136,80.3429342 264.415039,80.7416992 C264.821942,81.1404642 265.318356,81.3398438 265.904297,81.3398438 C266.905278,81.3398438 267.946935,80.896326 269.029297,80.0092773 Z M263.658203,67.3383789 L263.658203,65.2265625 L265.77002,65.2265625 L265.77002,67.3383789 L263.658203,67.3383789 Z M268.47998,67.3383789 L268.47998,65.2265625 L270.591797,65.2265625 L270.591797,67.3383789 L268.47998,67.3383789 Z M276.353516,83 L276.353516,69.7431641 L278.758301,69.7431641 L278.758301,72.2333984 C280.027838,70.3779204 281.582185,69.4501953 283.421387,69.4501953 C284.568853,69.4501953 285.484372,69.8143681 286.167969,70.5427246 C286.851566,71.2710811 287.193359,72.2496683 287.193359,73.4785156 L287.193359,83 L284.788574,83 L284.788574,74.2597656 C284.788574,73.2750602 284.644126,72.5731629 284.355225,72.1540527 C284.066323,71.7349426 283.588219,71.5253906 282.920898,71.5253906 C281.447909,71.5253906 280.060391,72.4897365 278.758301,74.418457 L278.758301,83 L276.353516,83 Z" id="Kriscentrumförmän"></path>
            </g>
        </g>
    </g>
</svg>
