<svg viewBox="0 0 298 54" version="1.1" xmlns="http://www.w3.org/2000/svg" xmlns:xlink="http://www.w3.org/1999/xlink">
    <!-- Generator: Sketch 43.2 (39069) - http://www.bohemiancoding.com/sketch -->
    <title>logo</title>
    <desc>Created with Sketch.</desc>
    <defs>
        <polygon id="path-1" points="0.598 53.94 54.273 53.94 54.273 0.326 27.4355 0.326 0.598 0.326"></polygon>
        <polygon id="path-3" points="0.06 0.0422413069 0.06 34.312928 287.193 34.312928 287.193 0.0422413069"></polygon>
        <polygon id="path-5" points="0.06 0.0422413069 0.06 34.312928 287.193 34.312928 287.193 0.0422413069"></polygon>
    </defs>
    <g id="Page-1" stroke="none" stroke-width="1" fill="none" fill-rule="evenodd">
        <g id="logo">
            <g id="Group-3" transform="translate(243.000000, 0.000000)">
                <g id="Fill-1-Clipped">
                    <mask id="mask-2" fill="#fff">
                        <use xlink:href="#path-1"></use>
                    </mask>
                    <g id="path-1"></g>
                    <path fill="#000" d="M27.436,0.326 C12.639,0.326 0.598,12.361 0.598,27.16 C0.598,41.959 12.639,54 27.436,54 C42.234,54 54.273,41.959 54.273,27.16 C54.273,12.361 42.234,0.326 27.436,0.326 L27.436,0.326 Z M53.92,27.16 C53.92,41.764 42.037,53.643 27.436,53.643 C12.834,53.643 0.955,41.764 0.955,27.16 C0.955,12.559 12.834,0.678 27.436,0.678 C42.037,0.678 53.92,12.559 53.92,27.16 L53.92,27.16 Z" id="Fill-1" fill-rule="nonzero" mask="url(#mask-2)"></path>
                </g>
            </g>
            <path fill="#000" d="M270.436,1.488 C256.279,1.488 244.764,13.004 244.764,27.16 C244.764,41.316 256.279,52.836 270.436,52.836 C284.59,52.836 296.111,41.316 296.111,27.16 C296.111,13.004 284.59,1.488 270.436,1.488 L270.436,1.488 Z M295.75,27.16 C295.75,41.121 284.395,52.48 270.436,52.48 C256.477,52.48 245.119,41.121 245.119,27.16 C245.119,13.199 256.477,1.842 270.436,1.842 C284.395,1.842 295.75,13.199 295.75,27.16 L295.75,27.16 Z" id="Fill-4" fill-rule="nonzero"></path>
            <path fill="#000" d="M270.436,2.664 C256.928,2.664 245.939,13.654 245.939,27.16 C245.939,40.668 256.928,51.658 270.436,51.658 C283.943,51.658 294.93,40.668 294.93,27.16 C294.93,13.654 283.943,2.664 270.436,2.664 L270.436,2.664 Z M294.219,27.16 C294.219,40.275 283.551,50.947 270.436,50.947 C257.318,50.947 246.65,40.275 246.65,27.16 C246.65,14.045 257.318,3.377 270.436,3.377 C283.551,3.377 294.219,14.045 294.219,27.16 L294.219,27.16 Z" id="Fill-5" fill-rule="nonzero"></path>
            <path fill="#000" d="M283.008,39.775 L282.85,38.922 C284.531,37.146 285.834,35.014 286.641,32.647 C287.152,32.021 287.6,31.287 287.938,30.443 C287.26,34.053 285.508,37.281 283.008,39.775 L283.008,39.775 Z M252.973,30.705 C253.316,31.461 253.752,32.127 254.244,32.699 C255.059,35.072 256.381,37.211 258.082,38.984 L257.926,39.83 C255.453,37.389 253.688,34.236 252.973,30.705 L252.973,30.705 Z M257.92,14.494 L258.078,15.342 C256.373,17.123 255.051,19.27 254.238,21.654 C253.748,22.229 253.311,22.899 252.967,23.658 C253.676,20.111 255.441,16.943 257.92,14.494 L257.92,14.494 Z M258.674,18.568 C257.787,18.92 256.248,19.67 254.895,20.965 C255.664,19.039 256.773,17.289 258.162,15.791 L258.674,18.568 L258.674,18.568 Z M263.92,11.748 C263.178,12.623 262.498,13.729 261.979,15.172 L259.416,14.572 C260.75,13.406 262.268,12.451 263.92,11.748 L263.92,11.748 Z M258.967,14.471 L258.156,14.279 C260.348,12.187 263.072,10.656 266.105,9.895 C265.572,10.211 265.037,10.605 264.518,11.105 C262.453,11.871 260.57,13.018 258.967,14.471 L258.967,14.471 Z M281.486,14.582 C280.33,14.852 278.961,15.172 278.961,15.172 C278.438,13.723 277.744,12.613 276.986,11.738 C278.639,12.445 280.156,13.41 281.486,14.582 L281.486,14.582 Z M282.771,15.836 C284.146,17.338 285.254,19.084 286.012,21.006 C284.684,19.674 283.145,18.92 282.266,18.568 L282.771,15.836 L282.771,15.836 Z M281.918,14.482 C280.322,13.039 278.459,11.891 276.404,11.125 C275.879,10.617 275.326,10.217 274.779,9.898 C277.811,10.662 280.537,12.197 282.73,14.291 C282.523,14.342 282.24,14.408 281.918,14.482 L281.918,14.482 Z M281.74,35.223 L281.457,35.326 C281.457,35.328 281.514,35.621 281.514,35.621 L282.16,39.111 L282.094,39.176 L278.824,38.418 L278.508,38.344 L278.404,38.65 C276.248,45.108 270.521,44.955 270.521,44.955 C270.521,44.955 264.723,45.207 262.533,38.65 L262.432,38.344 L262.115,38.418 L258.807,39.186 C258.795,39.174 258.783,39.166 258.771,39.152 L259.426,35.621 L259.479,35.326 L259.197,35.223 C257.316,34.531 252.936,32.359 252.936,27.176 C252.936,21.842 257.73,19.666 259.197,19.127 L259.479,19.023 C259.479,19.021 259.426,18.729 259.426,18.729 L258.768,15.168 C258.771,15.164 258.775,15.158 258.781,15.156 L262.117,15.932 L262.432,16.004 L262.533,15.697 C264.695,9.221 270.42,9.395 270.42,9.395 C270.42,9.395 276.215,9.145 278.404,15.697 L278.508,16.004 L278.82,15.932 L282.117,15.164 C282.135,15.182 282.15,15.197 282.164,15.211 L281.514,18.727 L281.457,19.021 C281.457,19.023 281.742,19.127 281.742,19.127 C283.17,19.652 287.834,21.785 287.834,27.176 C287.834,32.561 283.17,34.697 281.74,35.223 L281.74,35.223 Z M282.266,35.781 C283.133,35.434 284.641,34.693 285.957,33.393 C285.199,35.277 284.117,36.992 282.762,38.467 L282.266,35.781 L282.266,35.781 Z M277.068,42.525 C277.793,41.662 278.453,40.578 278.961,39.18 L281.445,39.758 C280.146,40.893 278.674,41.826 277.068,42.525 L277.068,42.525 Z M281.887,39.859 L282.707,40.049 C280.549,42.104 277.881,43.617 274.912,44.387 C275.438,44.066 275.965,43.67 276.477,43.172 C278.488,42.408 280.318,41.275 281.887,39.859 L281.887,39.859 Z M259.436,39.77 L261.979,39.18 C262.494,40.604 263.172,41.699 263.912,42.566 C262.27,41.869 260.762,40.926 259.436,39.77 L259.436,39.77 Z M258.164,38.539 C256.783,37.049 255.682,35.309 254.912,33.397 C256.26,34.684 257.791,35.43 258.674,35.781 L258.164,38.539 L258.164,38.539 Z M258.994,39.871 C260.594,41.309 262.461,42.451 264.512,43.211 C265.033,43.711 265.572,44.108 266.105,44.426 C263.084,43.668 260.367,42.145 258.18,40.063 L258.994,39.871 L258.994,39.871 Z M287.945,23.924 C287.609,23.084 287.168,22.354 286.66,21.73 C285.863,19.342 284.547,17.191 282.854,15.402 L283.012,14.549 C285.518,17.051 287.275,20.297 287.945,23.924 L287.945,23.924 Z M270.438,8.629 C260.219,8.629 251.906,16.941 251.906,27.16 C251.906,37.375 260.219,45.69 270.438,45.69 C280.652,45.69 288.965,37.375 288.965,27.16 C288.965,16.941 280.652,8.629 270.438,8.629 L270.438,8.629 Z" id="Fill-6" fill-rule="nonzero"></path>
            <path fill="#000" d="M250.775,28.115 C250.775,28.318 251.162,28.775 250.871,28.775 C250.676,28.775 250.5,28.44 249.451,28.42 C248.186,28.399 248.238,28.971 247.852,28.848 C247.521,28.74 247.932,28.484 247.932,28.15 C247.932,27.82 247.721,27.697 247.721,27.131 C247.721,26.566 247.973,25.902 248.83,25.902 C249.689,25.902 249.756,26.627 250.432,26.627 C250.5,26.627 250.621,26.555 250.621,26.406 C250.621,26.149 250.342,26.258 250.342,25.965 C250.342,25.67 250.871,25.652 250.945,26 C251.049,26.479 250.881,26.971 250.363,26.971 C249.752,26.971 249.313,26.652 248.625,26.652 C248.256,26.652 248.01,26.873 248.01,27.146 C248.01,27.521 248.699,27.863 249.398,27.863 C250.277,27.863 250.686,27.486 250.832,27.486 C251.15,27.486 250.775,27.856 250.775,28.115" id="Fill-7" fill-rule="nonzero"></path>
            <path fill="#000" d="M258.502,11.625 C258.742,11.727 258.17,11.723 257.955,11.877 C257.789,11.994 257.623,12.549 257.453,12.311 C257.342,12.148 257.527,11.803 256.916,10.947 C256.273,10.045 255.848,10.203 255.678,9.832 C255.568,9.59 255.982,9.742 256.252,9.553 C256.361,9.475 256.504,9.039 256.629,9.047 C256.811,9.057 256.783,9.682 257.117,10.17 C257.375,10.543 257.453,10.332 257.51,10.061 C257.563,9.787 257.496,9.297 257.387,9.018 C257.318,8.84 257.092,8.727 257.234,8.625 C257.379,8.523 257.504,8.576 257.611,8.498 C257.787,8.371 257.857,8.104 257.953,8.141 C258.053,8.174 258.021,8.324 257.941,8.613 C257.861,8.904 257.67,10.006 257.773,10.123 C257.957,10.338 259.244,10.555 259.627,10.648 C259.977,10.732 259.828,10.846 259.543,10.881 C259.422,10.896 259.334,10.973 259.24,11.039 C259.146,11.107 259.17,11.225 259.025,11.215 C258.768,11.203 258.971,11.018 258.387,10.732 C258.164,10.623 257.873,10.412 257.645,10.576 C257.504,10.674 257.639,10.902 257.852,11.16 C258.133,11.51 258.291,11.533 258.502,11.625" id="Fill-8" fill-rule="nonzero"></path>
            <path fill="#000" d="M250.436,23.33 C250.67,23.377 250.82,23.604 250.777,23.84 C250.732,24.072 250.504,24.227 250.27,24.18 L248.703,23.875 C248.467,23.832 248.318,23.602 248.361,23.367 C248.406,23.137 248.633,22.983 248.869,23.025 L250.436,23.33 L250.436,23.33 Z M248.895,22.385 C248.549,22.467 248.047,22.729 247.938,23.289 C247.828,23.848 248.199,24.277 248.488,24.477 C248.881,24.746 248.928,25.084 249.1,25.117 C249.287,25.152 249.338,24.93 249.844,24.889 C250.637,24.822 251.039,24.324 251.117,23.902 C251.199,23.486 251.02,22.873 250.303,22.518 C249.852,22.291 249.885,22.065 249.699,22.027 C249.525,21.992 249.363,22.285 248.895,22.385 L248.895,22.385 Z" id="Fill-9" fill-rule="nonzero"></path>
            <path fill="#000" d="M250.287,20.102 C250.209,20.322 250.078,20.377 249.941,20.326 C249.805,20.273 249.691,20.277 249.475,20.199 C249.254,20.117 249.164,19.973 249.221,19.82 C249.322,19.539 249.551,19.332 249.881,19.453 C250.277,19.594 250.367,19.889 250.287,20.102 L250.287,20.102 Z M252.326,19.377 C252.172,19.438 252.061,19.447 251.648,19.297 C251.234,19.148 250.908,19.543 250.781,19.5 C250.656,19.453 250.732,18.926 250.193,18.73 C249.613,18.52 249.232,18.932 249.023,19.504 C248.846,19.996 248.961,20.125 248.895,20.303 C248.783,20.617 248.416,20.67 248.691,20.887 C249,21.143 249.268,20.676 250.307,21.055 C251.289,21.41 251.332,21.793 251.518,21.861 C251.789,21.961 251.602,21.477 251.67,21.287 C251.76,21.043 252.139,20.918 251.908,20.834 C251.766,20.785 251.416,20.936 251.002,20.787 C250.789,20.709 250.404,20.496 250.504,20.229 C250.648,19.83 250.986,19.863 251.172,19.93 C251.354,19.998 251.799,20.186 251.936,20.344 C252.109,20.539 252.166,20.443 252.172,20.246 C252.172,20.113 252.061,20.098 252.123,19.924 C252.186,19.752 252.328,19.729 252.441,19.598 C252.576,19.439 252.48,19.314 252.326,19.377 L252.326,19.377 Z" id="Fill-10" fill-rule="nonzero"></path>
            <path fill="#000" d="M252.854,16.656 C253.074,16.762 253.164,17.027 253.059,17.244 C252.953,17.461 252.693,17.555 252.473,17.449 L251.01,16.742 C250.793,16.641 250.699,16.375 250.807,16.158 C250.91,15.939 251.172,15.848 251.391,15.953 L252.854,16.656 L252.854,16.656 Z M251.613,15.453 C251.268,15.437 250.662,15.531 250.42,16.033 C250.322,16.238 250.393,16.625 250.332,16.758 C250.242,16.941 249.787,17.012 249.904,17.244 C250.02,17.477 250.457,17.094 251.387,17.541 C252.316,17.99 252.461,18.67 252.693,18.621 C252.928,18.572 252.707,18.193 252.814,17.969 C252.902,17.787 253.262,17.621 253.346,17.447 C253.525,17.07 253.506,16.443 252.918,15.924 C252.547,15.6 252.637,15.393 252.469,15.311 C252.314,15.234 252.084,15.471 251.613,15.453 L251.613,15.453 Z" id="Fill-11" fill-rule="nonzero"></path>
            <path fill="#000" d="M254.459,15.479 C254.33,15.664 254.473,15.979 254.332,15.969 C254.195,15.963 254.004,15.32 253.1,14.686 C252.348,14.152 251.756,14.291 251.74,14.082 C251.725,13.871 251.99,13.938 252.111,13.766 C252.23,13.592 252.162,13.352 252.227,13.313 C252.451,13.186 252.754,14 253.439,14.521 C254.213,15.109 254.814,15.057 254.832,15.271 C254.846,15.43 254.578,15.307 254.459,15.479" id="Fill-12" fill-rule="nonzero"></path>
            <path fill="#000" d="M254.502,10.994 C254.629,10.85 254.635,10.557 254.742,10.572 C254.848,10.588 254.861,10.859 255.107,11.15 C255.26,11.328 255.277,11.477 255.203,11.516 C254.973,11.629 254.568,10.832 253.854,11.629 C253.664,11.838 253.764,12.104 253.854,12.184 C254.303,12.592 255.461,11.219 256.406,12.068 C256.982,12.586 256.709,13.219 256.412,13.551 C256.113,13.881 255.82,13.877 255.701,14.006 C255.584,14.141 255.664,14.354 255.566,14.385 C255.465,14.412 255.324,14.029 255.092,13.797 C254.861,13.568 254.414,13.387 254.574,13.313 C254.779,13.217 255.742,14.006 256.313,13.402 C256.668,13.027 256.432,12.797 256.283,12.654 C255.795,12.197 254.455,13.5 253.604,12.729 C253.27,12.434 253.35,11.926 253.732,11.5 C254.023,11.176 254.383,11.127 254.502,10.994" id="Fill-13" fill-rule="nonzero"></path>
            <path fill="#000" d="M288.672,13.531 C288.795,13.68 289.084,13.729 289.055,13.83 C289.023,13.932 288.736,13.877 288.428,14.107 C288.279,14.219 288.148,14.275 288.092,14.143 C287.992,13.906 288.82,13.617 288.143,12.797 C287.963,12.578 287.682,12.641 287.592,12.713 C287.125,13.1 288.311,14.445 287.33,15.26 C286.736,15.75 286.146,15.389 285.863,15.047 C285.578,14.705 285.629,14.412 285.516,14.275 C285.4,14.139 285.182,14.186 285.164,14.084 C285.148,13.98 285.553,13.898 285.809,13.701 C286.068,13.506 286.32,13.092 286.367,13.26 C286.432,13.477 285.512,14.316 286.023,14.969 C286.342,15.373 286.604,15.174 286.77,15.047 C287.293,14.633 286.203,13.115 287.09,12.381 C287.432,12.102 287.922,12.254 288.285,12.699 C288.563,13.029 288.559,13.395 288.672,13.531" id="Fill-14" fill-rule="nonzero"></path>
            <path fill="#000" d="M261.242,7.525 C261.363,7.773 261.363,7.859 261.279,7.945 C261.197,8.029 260.879,8.154 260.773,8.209 C260.619,8.283 260.459,8.283 260.375,8.113 C260.291,7.943 259.859,7.156 260.443,6.871 C260.951,6.623 261.117,7.279 261.242,7.525 L261.242,7.525 Z M261.863,7.752 C261.686,7.324 261.531,6.854 261.529,6.518 C261.525,6.18 261.531,6.031 261.305,6.193 C260.809,6.549 259.164,7.236 259.043,7.297 C258.832,7.398 258.84,7.51 258.898,7.627 C258.953,7.742 258.979,7.76 259.063,7.93 C259.197,8.205 259.262,8.141 259.334,7.992 C259.408,7.842 259.553,7.387 259.748,7.291 C259.943,7.195 259.943,7.467 259.973,7.617 C260.035,7.965 260.652,9.039 260.779,9.299 C260.906,9.561 260.873,9.723 260.756,9.779 C260.637,9.836 260.543,9.754 260.514,9.697 C260.484,9.637 260.381,9.51 260.213,9.59 C260.041,9.674 260.107,9.902 260.156,10.006 C260.209,10.111 260.414,10.332 260.713,10.189 C261.014,10.041 261.031,9.529 260.967,9.289 C260.887,8.998 260.801,8.951 260.695,8.73 C260.586,8.51 260.676,8.465 260.768,8.42 C260.857,8.377 261.055,8.283 261.25,8.184 C261.441,8.09 261.523,8.133 261.711,8.443 C262.113,9.094 261.777,9.385 261.982,9.451 C262.205,9.529 262.223,9.162 262.393,9.078 C262.521,9.018 262.863,9.15 262.951,8.996 C263.037,8.844 262.258,8.688 261.863,7.752 L261.863,7.752 Z" id="Fill-15" fill-rule="nonzero"></path>
            <path fill="#000" d="M279.684,9.691 C279.688,9.455 279.943,8.637 280.039,8.451 C280.223,8.078 280.748,7.229 281.15,7.424 C281.398,7.549 281.385,8.133 281.207,8.488 C281.029,8.85 280.607,9.418 280.471,9.699 C280.334,9.979 280.426,10.33 280.666,10.445 C280.867,10.545 281.143,10.553 281.225,10.381 C281.311,10.207 281.289,10.082 281.156,10.018 C280.971,9.924 280.979,10.143 280.818,10.064 C280.658,9.986 280.744,9.814 280.805,9.695 C280.859,9.576 281.34,9.299 281.514,9.111 C281.854,8.748 282.049,8.834 282.131,8.664 C282.209,8.508 282.031,8.299 281.936,7.842 C281.902,7.674 281.758,7.352 281.477,7.221 C280.773,6.875 280.604,7.355 280.354,7.232 C280.096,7.109 280.371,6.682 279.664,6.34 C279.389,6.201 279.049,6.285 278.896,6.361 C278.477,6.566 278.199,6.557 278.127,6.713 C278.045,6.881 278.229,6.984 278.154,7.475 C278.115,7.729 278.195,8.277 278.137,8.397 C278.076,8.516 277.994,8.691 277.834,8.613 C277.674,8.535 277.852,8.404 277.662,8.318 C277.531,8.252 277.42,8.316 277.34,8.484 C277.25,8.658 277.428,8.871 277.627,8.967 C277.867,9.082 278.199,8.941 278.336,8.662 C278.477,8.379 278.658,7.697 278.836,7.336 C279.01,6.975 279.453,6.6 279.713,6.725 C280.107,6.92 279.768,7.855 279.586,8.23 C279.494,8.414 279.014,9.125 278.83,9.277 C278.469,9.578 279.023,9.387 279.236,9.496 C279.447,9.598 279.664,10.164 279.684,9.691" id="Fill-16" fill-rule="nonzero"></path>
            <path fill="#000" d="M283.818,12.678 C283.807,12.816 284.076,13.201 284.086,12.871 C284.096,12.408 284.438,11.898 284.834,11.467 C284.975,11.313 285.619,10.754 285.834,10.648 C286.264,10.453 285.656,10.475 285.479,10.318 C285.301,10.164 285.26,9.578 285.123,10.027 C285.053,10.258 284.59,10.979 284.453,11.135 C284.18,11.449 283.451,12.133 283.115,11.838 C282.904,11.65 283.074,11.096 283.336,10.795 C283.6,10.49 284.158,10.053 284.359,9.818 C284.568,9.582 284.568,9.221 284.365,9.047 C284.199,8.897 283.936,8.818 283.809,8.965 C283.684,9.107 283.67,9.236 283.781,9.332 C283.939,9.471 283.986,9.256 284.123,9.373 C284.258,9.492 284.131,9.633 284.039,9.734 C283.951,9.836 283.418,9.979 283.205,10.113 C282.775,10.375 282.607,10.242 282.488,10.385 C282.371,10.516 282.488,10.764 282.463,11.23 C282.457,11.398 282.508,11.748 282.74,11.949 C283.332,12.467 283.578,12.096 283.789,12.279 C283.877,12.359 283.828,12.531 283.818,12.678" id="Fill-17" fill-rule="nonzero"></path>
            <path fill="#000" d="M290.564,16.307 C290.281,15.814 289.654,15.6 289.301,15.637 C288.826,15.684 288.576,15.461 288.422,15.547 C288.258,15.645 288.367,15.85 288.006,16.205 C287.441,16.766 287.463,17.41 287.67,17.779 C287.793,17.992 288.199,18.391 288.285,18.533 C288.334,18.621 288.217,19.176 288.475,18.895 C288.742,18.604 289.199,18.48 289.141,18.375 C289.033,18.188 288.381,18.467 288.068,17.914 C287.758,17.359 288.215,16.996 288.48,16.859 C288.699,16.742 288.879,16.801 289.078,17.15 C289.344,17.627 289.176,17.824 289.291,18.033 C289.375,18.18 290.037,18.119 289.93,17.932 C289.865,17.813 289.705,17.773 289.527,17.537 C289.303,17.25 288.861,16.689 289.275,16.453 C289.598,16.273 290.199,16.348 290.451,16.797 C290.709,17.244 290.264,17.689 290.34,17.863 C290.416,18.041 290.662,17.705 290.992,17.791 C291.188,17.84 291.18,17.746 291.021,17.559 C290.771,17.254 291.021,17.117 290.564,16.307" id="Fill-18" fill-rule="nonzero"></path>
            <path fill="#000" d="M292.297,20.373 C292.145,19.826 291.586,19.465 291.236,19.418 C290.76,19.352 290.572,19.076 290.402,19.123 C290.223,19.174 290.271,19.398 289.84,19.66 C289.156,20.068 289.023,20.697 289.135,21.104 C289.199,21.342 289.502,21.824 289.549,21.988 C289.572,22.084 289.328,22.594 289.646,22.383 C289.973,22.164 290.451,22.158 290.418,22.037 C290.361,21.832 289.658,21.945 289.49,21.334 C289.318,20.723 289.852,20.479 290.141,20.41 C290.379,20.352 290.543,20.451 290.652,20.834 C290.797,21.363 290.58,21.514 290.645,21.744 C290.691,21.908 291.348,22.004 291.291,21.799 C291.254,21.666 291.109,21.592 290.992,21.318 C290.848,20.986 290.555,20.334 291.012,20.209 C291.367,20.109 291.934,20.322 292.07,20.82 C292.207,21.318 291.672,21.646 291.699,21.832 C291.736,22.02 292.053,21.758 292.359,21.92 C292.535,22.014 292.545,21.92 292.441,21.697 C292.266,21.342 292.545,21.273 292.297,20.373" id="Fill-19" fill-rule="nonzero"></path>
            <path fill="#000" d="M291.99,23.703 C291.813,23.574 291.469,23.287 291.348,23.287 C291.229,23.287 291.084,23.551 290.816,23.721 C290.553,23.896 289.971,24.467 289.971,25.1 C289.971,26.119 290.678,26.457 290.775,26.6 C290.881,26.74 291.002,26.822 291.094,26.822 C291.188,26.822 291.309,26.66 291.49,26.576 C291.674,26.496 292.01,26.045 292.01,25.59 C292.01,25.129 291.699,24.895 291.449,24.895 C291.189,24.895 291.064,25.045 291.064,25.227 C291.064,25.502 291.283,25.467 291.406,25.414 C291.551,25.356 291.723,25.457 291.723,25.59 C291.723,25.815 291.613,25.998 291.113,25.998 C290.775,25.998 290.328,25.611 290.328,25.264 C290.328,24.762 290.951,24.406 291.482,24.406 C292.012,24.406 292.93,25.283 292.93,26.641 C292.93,26.893 293.285,26.793 293.285,26.609 C293.285,26.313 293.223,23.795 293.213,23.672 C293.203,23.551 293.102,23.477 292.959,23.445 C292.816,23.418 292.469,23.352 292.469,23.506 C292.469,23.66 292.93,23.805 292.93,24.44 C292.93,24.705 292.684,24.654 292.602,24.498 C292.484,24.283 292.164,23.824 291.99,23.703" id="Fill-20" fill-rule="nonzero"></path>
            <path fill="#000" d="M269.867,5.818 C269.27,5.818 269.096,5.451 268.787,5.451 C268.439,5.451 268.631,5.789 268.631,6.105 C268.631,6.428 268.439,6.764 268.787,6.764 C269.096,6.764 269.27,6.393 269.867,6.393 C269.914,6.393 269.963,6.465 269.963,6.514 C269.963,7.113 269.592,7.32 269.592,7.625 C269.592,7.973 269.93,7.779 270.25,7.779 C270.57,7.779 270.906,7.973 270.906,7.625 C270.906,7.32 270.537,7.113 270.537,6.514 C270.537,6.434 270.625,6.393 270.691,6.393 C271.289,6.393 271.467,6.764 271.768,6.764 C272.121,6.764 271.932,6.428 271.932,6.105 C271.932,5.789 272.121,5.451 271.768,5.451 C271.467,5.451 271.289,5.818 270.691,5.818 C270.637,5.818 270.537,5.789 270.537,5.703 C270.537,5.102 270.906,4.895 270.906,4.59 C270.906,4.238 270.57,4.428 270.25,4.428 C269.93,4.428 269.592,4.238 269.592,4.59 C269.592,4.895 269.963,5.102 269.963,5.703 C269.963,5.748 269.936,5.818 269.867,5.818" id="Fill-21" fill-rule="nonzero"></path>
            <path fill="#000" d="M250.801,36.041 C250.268,36.313 249.945,36.068 249.676,36.207 C249.361,36.365 249.686,36.58 249.834,36.859 C249.979,37.145 249.963,37.535 250.273,37.375 C250.545,37.233 250.533,36.826 251.068,36.553 C251.105,36.531 251.18,36.572 251.201,36.619 C251.477,37.146 251.242,37.504 251.379,37.771 C251.539,38.084 251.754,37.758 252.039,37.611 C252.322,37.467 252.711,37.484 252.547,37.172 C252.41,36.9 251.988,36.885 251.715,36.352 C251.682,36.283 251.736,36.207 251.797,36.178 C252.33,35.904 252.652,36.15 252.926,36.014 C253.236,35.852 252.914,35.641 252.766,35.358 C252.619,35.07 252.637,34.688 252.322,34.846 C252.053,34.984 252.064,35.391 251.535,35.666 C251.48,35.693 251.385,35.709 251.344,35.629 C251.072,35.1 251.303,34.744 251.166,34.473 C251.002,34.16 250.793,34.484 250.508,34.633 C250.223,34.777 249.836,34.764 249.996,35.072 C250.135,35.348 250.557,35.361 250.828,35.893 C250.854,35.937 250.861,36.012 250.801,36.041" id="Fill-22" fill-rule="nonzero"></path>
            <path fill="#000" d="M290.078,36.041 C290.611,36.313 290.936,36.068 291.205,36.207 C291.518,36.365 291.195,36.58 291.047,36.859 C290.898,37.145 290.918,37.535 290.607,37.375 C290.336,37.233 290.348,36.826 289.814,36.553 C289.773,36.531 289.705,36.572 289.68,36.619 C289.404,37.146 289.639,37.504 289.502,37.771 C289.342,38.084 289.129,37.758 288.844,37.611 C288.559,37.467 288.174,37.484 288.328,37.172 C288.469,36.9 288.895,36.885 289.164,36.352 C289.199,36.283 289.141,36.207 289.088,36.178 C288.549,35.904 288.229,36.15 287.955,36.014 C287.645,35.852 287.967,35.641 288.115,35.358 C288.262,35.07 288.244,34.688 288.557,34.846 C288.824,34.984 288.816,35.391 289.346,35.666 C289.396,35.693 289.496,35.709 289.535,35.629 C289.811,35.1 289.578,34.744 289.715,34.473 C289.875,34.16 290.088,34.484 290.369,34.633 C290.658,34.777 291.043,34.764 290.885,35.072 C290.746,35.348 290.324,35.361 290.047,35.893 C290.027,35.937 290.021,36.012 290.078,36.041" id="Fill-23" fill-rule="nonzero"></path>
            <path fill="#000" d="M270.486,49.924 C270.621,50.147 270.156,49.815 269.9,49.815 C269.695,49.815 269.242,50.16 269.242,49.875 C269.242,49.678 269.592,49.508 269.592,48.467 C269.592,47.363 269.162,47.244 269.236,46.848 C269.285,46.596 269.535,46.957 269.861,46.957 C269.994,46.957 270.359,46.686 270.459,46.766 C270.596,46.879 270.217,47.363 270.209,47.955 C270.197,48.402 270.383,48.275 270.582,48.086 C270.785,47.902 271.018,47.465 271.088,47.176 C271.137,46.994 271.018,46.774 271.189,46.774 C271.361,46.774 271.432,46.887 271.564,46.887 C271.779,46.887 271.994,46.709 272.047,46.793 C272.107,46.881 271.998,46.981 271.766,47.172 C271.535,47.358 270.744,48.137 270.76,48.297 C270.785,48.572 271.699,49.486 271.955,49.783 C272.189,50.055 272.008,50.061 271.756,49.924 C271.646,49.865 271.533,49.881 271.416,49.881 C271.303,49.881 271.188,50.049 271.125,49.986 C270.943,49.805 271.213,49.699 270.902,49.135 C270.789,48.924 270.674,48.582 270.398,48.582 C270.227,48.582 270.209,48.84 270.227,49.176 C270.252,49.619 270.367,49.73 270.486,49.924" id="Fill-24" fill-rule="nonzero"></path>
            <path fill="#000" d="M263.529,48.106 C263.447,48.326 263.199,48.436 262.979,48.357 C262.754,48.274 262.645,48.027 262.729,47.807 L263.279,46.32 C263.359,46.1 263.605,45.988 263.826,46.068 C264.047,46.15 264.162,46.399 264.08,46.617 L263.529,48.106 L263.529,48.106 Z M264.701,46.748 C264.682,46.399 264.504,45.863 263.975,45.668 C263.449,45.473 262.965,45.762 262.721,46.016 C262.396,46.358 262.061,46.346 261.998,46.512 C261.936,46.686 262.145,46.775 262.105,47.277 C262.037,48.063 262.465,48.535 262.855,48.682 C263.258,48.83 263.883,48.746 264.348,48.108 C264.639,47.699 264.859,47.774 264.924,47.596 C264.984,47.43 264.723,47.219 264.701,46.748 L264.701,46.748 Z" id="Fill-25" fill-rule="nonzero"></path>
            <path fill="#000" d="M267.395,46.527 C266.84,46.447 266.428,46.828 266.24,47.127 C265.99,47.527 265.66,47.586 265.635,47.762 C265.607,47.947 265.832,47.988 265.896,48.486 C265.99,49.274 266.504,49.647 266.924,49.707 C267.336,49.77 268.006,49.541 268.125,49.17 C268.182,49.004 268.061,49.082 267.955,49.199 C267.824,49.346 267.617,49.508 267.295,49.455 C266.867,49.393 266.604,48.652 266.697,48.021 C266.791,47.393 267.264,46.828 267.578,46.875 C267.895,46.924 268.125,47.602 268.213,47.68 C268.301,47.764 268.438,47.762 268.328,47.379 C268.256,47.125 268.396,46.896 268.344,46.813 C268.256,46.664 268.27,46.926 268.064,46.893 C267.924,46.869 267.746,46.582 267.395,46.527" id="Fill-26" fill-rule="nonzero"></path>
            <path fill="#000" d="M278.639,47.631 C278.725,47.852 278.619,48.1 278.395,48.188 C278.178,48.275 277.932,48.168 277.84,47.947 L277.258,46.475 C277.168,46.258 277.275,46.008 277.494,45.92 C277.713,45.834 277.967,45.939 278.053,46.16 L278.639,47.631 L278.639,47.631 Z M278.598,45.84 C278.348,45.592 277.859,45.315 277.334,45.524 C276.814,45.732 276.646,46.27 276.637,46.623 C276.621,47.096 276.369,47.309 276.434,47.473 C276.502,47.65 276.719,47.568 277.023,47.971 C277.5,48.598 278.135,48.664 278.525,48.51 C278.918,48.352 279.33,47.871 279.244,47.086 C279.189,46.588 279.402,46.494 279.33,46.316 C279.266,46.152 278.932,46.174 278.598,45.84 L278.598,45.84 Z" id="Fill-27" fill-rule="nonzero"></path>
            <path fill="#000" d="M257.814,42.424 C257.961,42.545 258.254,42.539 258.24,42.647 C258.23,42.75 257.953,42.766 257.682,43.029 C257.553,43.154 257.49,43.215 257.385,43.063 C257.242,42.848 257.908,42.5 257.166,41.801 C256.961,41.609 256.686,41.731 256.613,41.822 C256.225,42.283 257.629,43.381 256.818,44.35 C256.328,44.936 255.689,44.693 255.35,44.408 C255.012,44.127 255.008,43.834 254.871,43.719 C254.738,43.606 254.527,43.695 254.494,43.596 C254.463,43.5 254.838,43.346 255.057,43.109 C255.275,42.869 255.441,42.424 255.521,42.576 C255.623,42.775 254.877,43.758 255.494,44.303 C255.879,44.645 256.1,44.4 256.232,44.244 C256.668,43.748 255.33,42.467 256.063,41.59 C256.35,41.252 256.85,41.314 257.285,41.68 C257.615,41.953 257.68,42.309 257.814,42.424" id="Fill-28" fill-rule="nonzero"></path>
            <path fill="#000" d="M285.973,43.512 C285.756,43.426 285.098,42.889 284.957,42.74 C284.674,42.434 284.082,41.645 284.406,41.344 C284.611,41.154 285.143,41.383 285.41,41.674 C285.68,41.963 286.053,42.561 286.264,42.787 C286.473,43.012 286.83,43.055 287.025,42.875 C287.186,42.725 287.297,42.471 287.166,42.332 C287.033,42.191 286.912,42.168 286.803,42.268 C286.65,42.408 286.857,42.479 286.729,42.598 C286.6,42.717 286.467,42.576 286.381,42.479 C286.287,42.383 286.205,41.84 286.094,41.611 C285.885,41.168 286.031,41.014 285.904,40.879 C285.783,40.752 285.529,40.844 285.07,40.768 C284.906,40.74 284.563,40.752 284.334,40.965 C283.766,41.492 284.146,41.824 283.943,42.012 C283.74,42.203 283.441,41.793 282.871,42.322 C282.641,42.533 282.6,42.877 282.615,43.045 C282.654,43.504 282.545,43.756 282.662,43.883 C282.791,44.016 282.953,43.883 283.383,44.129 C283.596,44.256 284.131,44.379 284.225,44.477 C284.313,44.574 284.443,44.717 284.313,44.834 C284.184,44.955 284.131,44.744 283.98,44.883 C283.873,44.982 283.893,45.109 284.018,45.248 C284.146,45.391 284.4,45.303 284.568,45.154 C284.762,44.975 284.746,44.611 284.537,44.387 C284.332,44.158 283.766,43.744 283.494,43.451 C283.223,43.16 283.037,42.611 283.24,42.424 C283.566,42.123 284.307,42.775 284.59,43.076 C284.729,43.227 285.213,43.932 285.285,44.154 C285.434,44.596 285.457,44.016 285.629,43.857 C285.805,43.695 286.406,43.697 285.973,43.512" id="Fill-29" fill-rule="nonzero"></path>
            <path fill="#000" d="M258.613,44.4 C258.412,44.486 257.992,44.623 257.926,44.725 C257.865,44.828 258.014,45.086 258.021,45.404 C258.029,45.713 258.209,46.506 258.746,46.83 C259.607,47.363 260.256,46.943 260.43,46.93 C260.602,46.92 260.734,46.856 260.785,46.779 C260.83,46.705 260.797,46.623 260.785,46.486 C260.768,46.289 260.646,45.705 260.26,45.465 C259.873,45.227 259.516,45.365 259.383,45.58 C259.252,45.793 259.307,45.979 259.465,46.074 C259.695,46.217 259.779,46.012 259.799,45.883 C259.824,45.732 260,45.637 260.111,45.707 C260.303,45.822 260.355,45.996 260.096,46.418 C259.918,46.703 259.361,46.799 259.068,46.615 C258.645,46.358 258.666,45.645 258.943,45.195 C259.217,44.748 260.438,44.43 261.582,45.137 C261.797,45.272 261.896,44.914 261.74,44.818 C261.49,44.664 259.334,43.408 259.223,43.352 C259.115,43.297 259.002,43.346 258.902,43.451 C258.803,43.555 258.584,43.84 258.707,43.918 C258.842,44 259.188,43.662 259.721,43.99 C259.945,44.129 259.777,44.348 259.602,44.336 C259.361,44.316 258.807,44.316 258.613,44.4" id="Fill-30" fill-rule="nonzero"></path>
            <path fill="#000" d="M273.795,49.49 C273.631,49.523 273.521,49.781 273.404,49.699 C273.219,49.576 273.541,49.231 273.338,48.147 C273.129,47.037 272.732,46.746 272.84,46.633 C272.943,46.523 273.289,46.791 273.422,46.766 C273.551,46.74 273.773,46.393 273.889,46.475 C274.01,46.555 273.752,47.371 273.807,47.68 C273.865,47.988 274.109,48.012 274.391,47.959 C274.684,47.904 274.938,47.822 274.883,47.527 C274.762,46.879 274.408,46.445 274.465,46.363 C274.559,46.229 274.777,46.453 274.953,46.418 C275.131,46.385 275.363,46.076 275.475,46.152 C275.59,46.229 275.371,47.096 275.494,47.754 C275.701,48.852 276.104,49.109 275.994,49.275 C275.885,49.436 275.674,49.139 275.508,49.172 C275.344,49.203 275.145,49.553 275.041,49.481 C274.846,49.346 275.203,49.113 275.037,48.234 C274.99,47.981 274.725,48.012 274.449,48.063 C274.098,48.129 273.92,48.275 273.973,48.547 C274.076,49.109 274.391,49.402 274.275,49.572 C274.16,49.744 274.057,49.443 273.795,49.49" id="Fill-31" fill-rule="nonzero"></path>
            <path fill="#000" d="M281.373,46.943 C281.156,47.084 281.051,47.531 280.867,47.5 C280.691,47.465 280.658,46.342 280.369,45.873 C279.912,45.154 279.291,44.916 279.322,44.736 C279.354,44.557 279.783,44.596 279.896,44.527 C280.172,44.354 280.193,44.039 280.371,44.078 C280.551,44.121 280.59,45.152 280.947,45.746 C281.346,46.399 281.654,46.568 282.063,46.305 C282.73,45.891 282.246,45.633 281.74,44.824 C281.594,44.596 281.592,44.186 281.83,44.037 C282,43.928 282.176,43.977 282.252,44.102 C282.334,44.227 282.33,44.379 282.162,44.397 C282.012,44.41 281.885,44.467 282.006,44.684 C282.313,45.219 283.045,45.66 283.17,45.744 C283.354,45.869 283.348,45.977 283.217,46.008 C283.182,46.018 282.912,46.031 282.822,46.082 C282.736,46.135 282.645,46.455 282.275,46.686 C281.797,46.988 281.543,46.834 281.373,46.943" id="Fill-32" fill-rule="nonzero"></path>
            <path fill="#000" d="M270.43,19.209 L269.045,19.928 L270.43,18.191 L271.814,19.928 L270.43,19.209 L270.43,19.209 Z M269.707,17.055 L270.295,15.748 L270.295,17.799 L268.385,17.232 L269.707,17.055 L269.707,17.055 Z M271.152,17.055 L272.475,17.232 L270.563,17.799 L270.563,15.748 L271.152,17.055 L271.152,17.055 Z M268.246,17.473 L270.199,18.049 L268.861,19.727 L269.242,18.412 L268.246,17.473 L268.246,17.473 Z M271.998,19.73 L270.656,18.049 L272.611,17.473 L271.615,18.412 L271.998,19.73 L271.998,19.73 Z M273.4,17.092 L271.334,16.809 L270.43,14.803 L269.523,16.809 L267.459,17.092 L268.941,18.492 L268.33,20.598 L270.43,19.51 L272.527,20.598 L271.918,18.492 L273.4,17.092 L273.4,17.092 Z" id="Fill-33" fill-rule="nonzero"></path>
            <path fill="#000" d="M261.914,27.191 C261.764,27.191 261.434,27.508 261.434,27.268 C261.434,27.108 261.678,26.969 261.693,26.113 C261.709,25.086 261.295,25.129 261.387,24.815 C261.459,24.543 261.648,24.881 261.889,24.881 C262.127,24.881 262.219,24.705 262.625,24.705 C263.039,24.705 263.521,24.912 263.521,25.609 C263.521,26.309 262.994,26.365 262.994,26.916 C262.994,26.969 263.047,27.066 263.154,27.066 C263.338,27.066 263.26,26.836 263.473,26.836 C263.684,26.836 263.701,27.27 263.445,27.332 C263.104,27.418 262.742,27.277 262.742,26.859 C262.742,26.359 262.973,26 262.973,25.441 C262.973,25.145 262.816,24.943 262.619,24.943 C262.344,24.943 262.094,25.506 262.094,26.072 C262.094,26.791 262.371,27.117 262.371,27.236 C262.371,27.502 262.105,27.191 261.914,27.191" id="Fill-34" fill-rule="nonzero"></path>
            <path fill="#000" d="M264.5,27.191 C264.35,27.191 264.02,27.508 264.02,27.268 C264.02,27.108 264.266,26.969 264.275,26.113 C264.291,25.086 263.879,25.129 263.967,24.815 C264.045,24.543 264.23,24.881 264.471,24.881 C264.713,24.881 264.805,24.705 265.211,24.705 C265.619,24.705 266.102,24.912 266.102,25.609 C266.102,26.309 265.572,26.365 265.572,26.916 C265.572,26.969 265.627,27.066 265.732,27.066 C265.924,27.066 265.842,26.836 266.059,26.836 C266.271,26.836 266.283,27.27 266.029,27.332 C265.686,27.418 265.326,27.277 265.326,26.859 C265.326,26.359 265.559,26 265.559,25.441 C265.559,25.145 265.395,24.943 265.205,24.943 C264.928,24.943 264.68,25.506 264.68,26.072 C264.68,26.791 264.953,27.117 264.953,27.236 C264.953,27.502 264.684,27.191 264.5,27.191" id="Fill-35" fill-rule="nonzero"></path>
            <path fill="#000" d="M268.551,26.674 C268.551,26.869 268.412,27.024 268.242,27.021 C268.07,27.021 267.934,26.869 267.934,26.674 L267.936,25.389 C267.938,25.197 268.074,25.043 268.244,25.043 C268.414,25.043 268.551,25.197 268.551,25.389 L268.551,26.674 L268.551,26.674 Z M268.938,25.379 C268.842,25.127 268.598,24.725 268.207,24.725 C268.049,24.725 267.818,24.912 267.719,24.912 C267.574,24.912 267.389,24.611 267.277,24.774 C267.166,24.934 267.545,25.117 267.541,25.93 C267.541,26.746 267.154,27.084 267.256,27.233 C267.361,27.381 267.533,27.096 267.709,27.096 C267.848,27.096 268.064,27.295 268.201,27.295 C268.496,27.295 268.889,27.066 269.033,26.473 C269.127,26.094 269.287,26.086 269.287,25.938 C269.287,25.801 269.07,25.719 268.938,25.379 L268.938,25.379 Z" id="Fill-36" fill-rule="nonzero"></path>
            <path fill="#000" d="M271.676,24.873 C271.303,24.873 270.928,25.248 270.84,25.486 C270.717,25.807 270.51,25.883 270.51,26.016 C270.51,26.152 270.658,26.16 270.748,26.516 C270.887,27.082 271.398,27.295 271.676,27.295 C272.076,27.295 272.385,26.762 272.467,26.699 C272.549,26.637 272.627,26.637 272.627,26.52 C272.627,26.41 272.596,26.346 272.529,26.279 C272.467,26.215 272.223,25.832 271.934,25.832 C271.641,25.832 271.561,25.957 271.561,26.106 C271.561,26.25 271.578,26.414 271.676,26.41 C271.934,26.391 271.818,26.215 271.949,26.215 C272.076,26.215 272.143,26.379 272.143,26.475 C272.143,26.572 271.982,27.121 271.676,27.121 C271.365,27.121 271.27,26.313 271.27,26.053 C271.27,25.795 271.467,25.146 271.771,25.146 C272.242,25.146 272.398,25.984 272.578,25.873 C272.773,25.762 272.596,25.584 272.578,25.344 C272.568,25.193 272.789,24.891 272.695,24.826 C272.596,24.762 272.371,24.988 272.189,24.988 C272.012,24.988 272.016,24.873 271.676,24.873" id="Fill-37" fill-rule="nonzero"></path>
            <path fill="#000" d="M269.854,27.146 C269.695,27.146 269.574,27.381 269.52,27.289 C269.469,27.195 269.758,26.783 269.758,25.914 C269.758,25.186 269.436,24.869 269.553,24.764 C269.666,24.66 269.734,24.858 269.883,24.858 C270.031,24.858 270.141,24.701 270.188,24.725 C270.35,24.815 270.01,25.379 269.988,26.053 C269.963,26.82 270.238,27.184 270.123,27.291 C270.037,27.371 269.998,27.146 269.854,27.146" id="Fill-38" fill-rule="nonzero"></path>
            <path fill="#000" d="M275.863,24.764 C275.973,24.652 276.074,24.858 276.217,24.858 C276.361,24.858 276.561,24.701 276.611,24.725 C276.773,24.815 276.484,25.281 276.467,25.957 C276.439,26.721 276.84,27.143 276.725,27.248 C276.637,27.328 276.523,27.158 276.373,27.146 C275.998,27.121 275.852,27.879 275.479,27.879 C275.203,27.879 275.156,27.717 275.156,27.623 C275.156,27.521 275.203,27.381 275.336,27.381 C275.463,27.381 275.445,27.541 275.563,27.541 C275.914,27.541 275.998,26.424 275.998,26.004 C275.998,25.408 275.732,24.895 275.863,24.764" id="Fill-39" fill-rule="nonzero"></path>
            <path fill="#000" d="M274.979,24.881 C275.113,24.883 275.262,24.738 275.309,24.807 C275.348,24.875 275.23,25.027 275.17,25.314 C275.119,25.59 275.164,25.582 275.041,25.543 C274.867,25.481 275.094,24.838 274.352,24.826 C274.16,24.822 274.061,25.018 274.061,25.109 C274.053,25.578 275.301,25.555 275.287,26.549 C275.277,27.15 274.822,27.316 274.516,27.311 C274.205,27.305 274.076,27.131 273.951,27.127 C273.826,27.125 273.754,27.283 273.691,27.236 C273.631,27.197 273.766,26.918 273.779,26.664 C273.795,26.41 273.691,26.053 273.799,26.109 C273.941,26.178 273.973,27.15 274.547,27.176 C274.904,27.191 274.916,26.938 274.924,26.774 C274.938,26.256 273.646,26.135 273.662,25.242 C273.668,24.895 273.965,24.684 274.365,24.69 C274.664,24.693 274.855,24.881 274.979,24.881" id="Fill-40" fill-rule="nonzero"></path>
            <path fill="#000" d="M257.51,27.244 C257.607,27.422 257.275,27.158 257.09,27.158 C256.947,27.158 256.625,27.438 256.625,27.203 C256.625,27.049 256.871,26.912 256.871,26.08 C256.871,25.195 256.568,25.102 256.617,24.789 C256.656,24.582 256.83,24.869 257.066,24.869 C257.16,24.869 257.422,24.656 257.49,24.715 C257.588,24.807 257.318,25.197 257.311,25.668 C257.307,26.025 257.436,25.928 257.578,25.779 C257.723,25.627 257.889,25.279 257.938,25.045 C257.975,24.902 257.889,24.723 258.012,24.723 C258.135,24.723 258.188,24.815 258.277,24.815 C258.432,24.815 258.584,24.676 258.623,24.74 C258.666,24.807 258.588,24.891 258.424,25.043 C258.258,25.193 257.695,25.815 257.705,25.943 C257.723,26.162 258.377,26.895 258.559,27.131 C258.725,27.346 258.594,27.354 258.412,27.244 C258.336,27.199 258.232,27.152 258.174,27.209 C258.113,27.27 258.066,27.367 257.988,27.295 C257.848,27.168 258.029,27.07 257.807,26.617 C257.727,26.445 257.645,26.17 257.449,26.17 C257.324,26.17 257.311,26.381 257.324,26.645 C257.344,27 257.426,27.088 257.51,27.244" id="Fill-41" fill-rule="nonzero"></path>
            <path fill="#000" d="M280.188,27.096 C279.998,27.096 279.764,27.363 279.668,27.266 C279.57,27.16 279.982,26.379 279.982,25.93 C279.982,25.238 279.693,24.807 279.789,24.701 C279.875,24.588 280.119,24.805 280.217,24.805 C280.449,24.805 280.586,24.596 280.678,24.701 C280.773,24.807 280.396,25.531 280.389,26.098 C280.381,26.717 280.508,26.961 280.854,26.961 C281.424,26.961 281.229,26.576 281.229,25.801 C281.229,25.584 281.381,25.299 281.584,25.299 C281.732,25.299 281.82,25.412 281.82,25.531 C281.82,25.65 281.762,25.756 281.646,25.691 C281.555,25.637 281.455,25.623 281.449,25.82 C281.428,26.324 281.701,26.943 281.746,27.055 C281.813,27.217 281.77,27.289 281.676,27.252 C281.65,27.24 281.48,27.135 281.406,27.135 C281.334,27.135 281.156,27.312 280.836,27.312 C280.43,27.312 280.334,27.096 280.188,27.096" id="Fill-42" fill-rule="nonzero"></path>
            <path fill="#000" d="M282.631,24.918 C282.443,24.918 282.205,24.648 282.109,24.752 C282.012,24.854 282.428,25.635 282.428,26.084 C282.428,26.775 282.135,27.203 282.225,27.312 C282.316,27.426 282.559,27.209 282.658,27.209 C282.896,27.209 283.027,27.418 283.121,27.311 C283.215,27.207 282.838,26.483 282.832,25.916 C282.822,25.297 282.943,25.053 283.293,25.053 C283.865,25.053 283.666,25.434 283.666,26.211 C283.666,26.43 283.824,26.711 284.025,26.711 C284.172,26.711 284.258,26.602 284.258,26.483 C284.258,26.365 284.203,26.258 284.094,26.32 C283.996,26.377 283.898,26.391 283.887,26.195 C283.869,25.691 284.143,25.072 284.189,24.963 C284.252,24.797 284.209,24.723 284.117,24.76 C284.094,24.77 283.918,24.881 283.848,24.881 C283.771,24.881 283.596,24.701 283.277,24.701 C282.871,24.701 282.775,24.918 282.631,24.918" id="Fill-43" fill-rule="nonzero"></path>
            <path fill="#000" d="M260.416,25.619 C260.416,25.836 260.387,25.899 260.307,25.93 C260.23,25.963 259.992,25.943 259.908,25.943 C259.787,25.943 259.686,25.883 259.682,25.736 C259.682,25.586 259.65,24.875 260.109,24.875 C260.508,24.875 260.416,25.4 260.416,25.619 L260.416,25.619 Z M260.738,25.992 C260.756,25.627 260.805,25.242 260.906,24.998 C261.006,24.76 261.059,24.656 260.861,24.691 C260.441,24.774 259.184,24.693 259.092,24.697 C258.924,24.697 258.898,24.777 258.898,24.881 C258.898,24.984 258.906,25.004 258.906,25.154 C258.908,25.395 258.969,25.373 259.061,25.289 C259.154,25.211 259.387,24.934 259.537,24.934 C259.691,24.934 259.609,25.129 259.58,25.242 C259.512,25.514 259.574,26.49 259.574,26.721 C259.574,26.949 259.504,27.055 259.41,27.055 C259.32,27.055 259.283,26.961 259.283,26.912 C259.283,26.859 259.258,26.733 259.123,26.733 C258.992,26.733 258.961,26.918 258.961,27.008 C258.961,27.1 259.025,27.328 259.262,27.328 C259.494,27.328 259.662,26.969 259.695,26.779 C259.736,26.543 259.695,26.479 259.695,26.285 C259.693,26.094 259.768,26.094 259.838,26.094 C259.908,26.094 260.063,26.094 260.215,26.09 C260.367,26.09 260.406,26.149 260.43,26.434 C260.484,27.033 260.184,27.125 260.289,27.244 C260.408,27.377 260.531,27.121 260.666,27.121 C260.768,27.121 260.943,27.336 261.043,27.256 C261.148,27.176 260.701,26.795 260.738,25.992 L260.738,25.992 Z" id="Fill-44" fill-rule="nonzero"></path>
            <path fill="#000" d="M260.574,24.045 C260.361,24.045 260.473,24.121 260.473,24.318 C260.473,24.512 260.729,24.512 260.729,24.348 C260.729,24.186 260.883,24.045 260.574,24.045" id="Fill-45" fill-rule="nonzero"></path>
            <path fill="#000" d="M259.889,24.045 C259.68,24.045 259.785,24.121 259.785,24.318 C259.785,24.512 260.045,24.512 260.045,24.348 C260.045,24.186 260.201,24.045 259.889,24.045" id="Fill-46" fill-rule="nonzero"></path>
            <path fill="#000" d="M278.686,24.045 C278.473,24.045 278.58,24.121 278.58,24.318 C278.58,24.512 278.84,24.512 278.84,24.348 C278.84,24.186 278.992,24.045 278.686,24.045" id="Fill-47" fill-rule="nonzero"></path>
            <path fill="#000" d="M278,24.045 C277.785,24.045 277.896,24.121 277.896,24.318 C277.896,24.512 278.154,24.512 278.154,24.348 C278.154,24.186 278.307,24.045 278,24.045" id="Fill-48" fill-rule="nonzero"></path>
            <path fill="#000" d="M278.584,25.619 C278.584,25.836 278.563,25.899 278.484,25.93 C278.406,25.963 278.164,25.943 278.08,25.943 C277.963,25.943 277.855,25.883 277.855,25.736 C277.855,25.586 277.822,24.875 278.281,24.875 C278.68,24.875 278.584,25.4 278.584,25.619 L278.584,25.619 Z M278.914,25.992 C278.932,25.627 278.977,25.242 279.084,24.998 C279.18,24.76 279.23,24.656 279.035,24.691 C278.613,24.774 277.357,24.693 277.264,24.697 C277.102,24.697 277.068,24.777 277.068,24.881 C277.068,24.984 277.082,25.004 277.082,25.154 C277.082,25.395 277.143,25.373 277.238,25.289 C277.326,25.211 277.557,24.934 277.715,24.934 C277.867,24.934 277.781,25.129 277.756,25.242 C277.689,25.514 277.75,26.49 277.75,26.721 C277.75,26.949 277.676,27.055 277.582,27.055 C277.494,27.055 277.461,26.961 277.455,26.912 C277.455,26.859 277.434,26.733 277.301,26.733 C277.168,26.733 277.133,26.918 277.133,27.008 C277.133,27.1 277.199,27.328 277.434,27.328 C277.666,27.328 277.836,26.969 277.871,26.779 C277.912,26.543 277.871,26.479 277.871,26.285 C277.871,26.094 277.938,26.094 278.012,26.094 C278.084,26.094 278.236,26.094 278.389,26.09 C278.541,26.09 278.58,26.149 278.605,26.434 C278.656,27.033 278.355,27.125 278.463,27.244 C278.58,27.377 278.707,27.121 278.84,27.121 C278.939,27.121 279.117,27.336 279.217,27.256 C279.32,27.176 278.873,26.795 278.914,25.992 L278.914,25.992 Z" id="Fill-49" fill-rule="nonzero"></path>
            <path fill="#000" d="M282.813,25.602 C282.813,25.957 283.684,26.072 283.699,25.731 L283.666,26.211 C283.666,26.018 282.744,25.762 282.844,26.361 L282.813,25.602" id="Fill-50" fill-rule="nonzero"></path>
            <path fill="#000" d="M267.17,41.619 C267.041,41.586 266.836,42.055 266.969,42.09 C267.104,42.121 267.305,41.65 267.17,41.619" id="Fill-51" fill-rule="nonzero"></path>
            <path fill="#000" d="M268.34,41.623 C268.145,41.582 267.938,42.195 268.035,42.23 C268.141,42.264 268.508,41.658 268.34,41.623" id="Fill-52" fill-rule="nonzero"></path>
            <path fill="#000" d="M269.248,42.145 C269.348,42.242 269.213,42.883 269.014,42.816 C268.811,42.75 269.146,42.043 269.248,42.145" id="Fill-53" fill-rule="nonzero"></path>
            <path fill="#000" d="M270.629,41.826 C270.438,41.76 270.09,42.461 270.295,42.533 C270.494,42.598 270.832,41.895 270.629,41.826" id="Fill-54" fill-rule="nonzero"></path>
            <path fill="#000" d="M271.516,42.631 C271.754,42.631 271.816,42.461 271.986,42.492 C272.152,42.527 272.457,42.125 272.555,42.057 C272.66,41.992 272.221,42.225 272.053,42.158 C271.889,42.092 272.287,41.758 272.121,41.824 C271.953,41.891 271.281,42.631 271.516,42.631" id="Fill-55" fill-rule="nonzero"></path>
            <path fill="#000" d="M273.137,42.598 C273.338,42.432 273.311,42.492 273.609,42.322 C273.914,42.156 273.41,42.221 273.609,41.955 C273.814,41.684 273.848,41.586 273.609,41.752 C273.373,41.922 273.105,42.256 273.277,42.189 C273.443,42.121 273.236,42.33 273.137,42.598" id="Fill-56" fill-rule="nonzero"></path>
            <path fill="#000" d="M270.43,11.746 C270.355,11.746 270.295,11.805 270.295,11.879 L270.295,14.328 C270.295,14.404 270.355,14.463 270.43,14.463 C270.504,14.463 270.563,14.404 270.563,14.328 L270.563,11.879 C270.563,11.805 270.504,11.746 270.43,11.746" id="Fill-57" fill-rule="nonzero"></path>
            <path fill="#000" d="M268.859,11.926 C268.785,11.943 268.744,12.018 268.762,12.088 L269.363,14.465 C269.381,14.537 269.453,14.58 269.527,14.564 C269.598,14.545 269.639,14.471 269.621,14.402 L269.02,12.023 C269,11.951 268.928,11.908 268.859,11.926" id="Fill-58" fill-rule="nonzero"></path>
            <path fill="#000" d="M267.404,12.678 C267.367,12.615 267.285,12.594 267.223,12.629 C267.158,12.668 267.139,12.75 267.176,12.812 L268.42,14.926 C268.457,14.988 268.537,15.012 268.602,14.975 C268.666,14.936 268.686,14.854 268.648,14.791 L267.404,12.678" id="Fill-59" fill-rule="nonzero"></path>
            <path fill="#000" d="M266.074,13.707 C266.02,13.656 265.934,13.658 265.885,13.711 C265.832,13.766 265.838,13.848 265.889,13.898 L267.662,15.596 C267.715,15.646 267.801,15.645 267.852,15.59 C267.902,15.539 267.898,15.453 267.846,15.402 L266.074,13.707" id="Fill-60" fill-rule="nonzero"></path>
            <path fill="#000" d="M265.055,15 C264.988,14.967 264.908,14.99 264.873,15.057 C264.838,15.121 264.861,15.201 264.928,15.238 L267.086,16.398 C267.15,16.434 267.23,16.408 267.268,16.344 C267.301,16.279 267.277,16.199 267.213,16.164 L265.055,15" id="Fill-61" fill-rule="nonzero"></path>
            <path fill="#000" d="M264.398,16.742 L266.775,17.332 C266.846,17.35 266.918,17.307 266.938,17.232 C266.953,17.162 266.912,17.09 266.84,17.072 L264.461,16.484 C264.391,16.467 264.316,16.512 264.301,16.58 C264.283,16.652 264.326,16.725 264.398,16.742" id="Fill-62" fill-rule="nonzero"></path>
            <path fill="#000" d="M261.756,18.219 L266.684,18.207 C266.756,18.207 266.816,18.146 266.816,18.074 C266.816,18 266.756,17.939 266.684,17.939 L261.756,17.953 C261.682,17.953 261.623,18.014 261.623,18.086 C261.623,18.162 261.684,18.219 261.756,18.219" id="Fill-63" fill-rule="nonzero"></path>
            <path fill="#000" d="M266.785,18.975 L257.613,21.57 C257.543,21.59 257.502,21.664 257.521,21.738 C257.543,21.807 257.615,21.848 257.686,21.828 L266.857,19.23 C266.93,19.211 266.969,19.137 266.949,19.064 C266.932,18.994 266.857,18.953 266.785,18.975" id="Fill-64" fill-rule="nonzero"></path>
            <path fill="#000" d="M272.002,11.926 C271.934,11.908 271.861,11.951 271.842,12.023 L271.24,14.402 C271.221,14.471 271.264,14.545 271.336,14.564 C271.406,14.58 271.479,14.537 271.496,14.465 L272.098,12.088 C272.117,12.018 272.076,11.943 272.002,11.926" id="Fill-65" fill-rule="nonzero"></path>
            <path fill="#000" d="M273.637,12.629 C273.574,12.594 273.492,12.615 273.455,12.678 L272.207,14.791 C272.172,14.854 272.195,14.936 272.258,14.975 C272.32,15.012 272.4,14.988 272.439,14.926 L273.684,12.812 C273.721,12.75 273.697,12.668 273.637,12.629" id="Fill-66" fill-rule="nonzero"></path>
            <path fill="#000" d="M274.975,13.711 C274.928,13.658 274.842,13.656 274.789,13.707 L273.012,15.402 C272.959,15.453 272.959,15.539 273.008,15.59 C273.059,15.645 273.145,15.646 273.195,15.596 L274.971,13.898 C275.025,13.852 275.025,13.766 274.975,13.711" id="Fill-67" fill-rule="nonzero"></path>
            <path fill="#000" d="M275.986,15.057 C275.951,14.99 275.869,14.967 275.807,15 L273.646,16.164 C273.584,16.199 273.559,16.279 273.596,16.344 C273.629,16.408 273.711,16.434 273.773,16.398 L275.932,15.238 C275.996,15.201 276.021,15.121 275.986,15.057" id="Fill-68" fill-rule="nonzero"></path>
            <path fill="#000" d="M273.924,17.232 C273.941,17.307 274.014,17.35 274.086,17.332 L276.461,16.742 C276.535,16.725 276.576,16.652 276.561,16.58 C276.541,16.512 276.469,16.467 276.398,16.484 L274.021,17.072 C273.951,17.09 273.906,17.162 273.924,17.232" id="Fill-69" fill-rule="nonzero"></path>
            <path fill="#000" d="M274.043,18.074 C274.043,18.146 274.102,18.207 274.176,18.207 L279.105,18.219 C279.18,18.219 279.238,18.162 279.238,18.086 C279.238,18.014 279.18,17.953 279.105,17.953 L274.176,17.939 C274.104,17.939 274.043,18 274.043,18.074" id="Fill-70" fill-rule="nonzero"></path>
            <path fill="#000" d="M283.248,21.57 L274.076,18.975 C274.006,18.953 273.932,18.994 273.91,19.064 C273.891,19.137 273.932,19.211 274.002,19.23 L283.174,21.828 C283.248,21.848 283.322,21.807 283.342,21.738 C283.361,21.664 283.318,21.59 283.248,21.57" id="Fill-71" fill-rule="nonzero"></path>
            <g id="Group-75" transform="translate(0.000000, 10.000000)">
                <g id="Fill-72-Clipped">
                    <mask id="mask-4" fill="#fff">
                        <use xlink:href="#path-3"></use>
                    </mask>
                    <g id="path-3"></g>
                    <path fill="#000" d="M280.551,24.592 L280.396,24.637 L280.426,24.795 L281.014,27.983 L278.014,27.287 L277.852,27.248 L277.805,27.41 L277.678,27.828 C277.301,29.094 276.795,30.088 276.229,30.887 C275.98,30.025 275.631,28.729 275.631,28.475 C275.631,28.35 275.844,27.861 276.004,27.504 C276.309,26.805 276.623,26.082 276.623,25.627 C276.623,25.268 275.85,22.279 275.008,19.217 L276.352,19.217 L278.791,23.836 C278.824,23.9 278.906,23.924 278.973,23.891 C279.035,23.856 279.061,23.775 279.029,23.709 L276.654,19.217 L279.723,19.217 L282.064,22.088 C282.111,22.145 282.193,22.152 282.252,22.107 C282.309,22.061 282.316,21.975 282.271,21.92 L280.066,19.217 L282.32,19.217 L282.613,20.447 C282.615,20.465 282.631,20.473 282.641,20.486 C282.672,20.578 282.727,20.664 282.813,20.74 C283.191,21.076 284.082,21.172 284.623,21.035 C285.459,20.828 285.855,20.338 285.805,19.58 L285.805,19.576 L285.559,16.686 L286.102,16.983 C286.164,17.018 286.246,16.994 286.281,16.93 C286.316,16.863 286.295,16.785 286.229,16.75 L285.533,16.371 L285.371,14.422 C285.281,13.389 284.348,13.113 283.861,13.113 L279.557,13.113 L273.678,9.912 C273.615,9.873 273.533,9.898 273.5,9.965 C273.463,10.029 273.488,10.109 273.551,10.145 L279.004,13.113 L275.084,13.113 L273.117,10.699 C273.07,10.643 272.984,10.635 272.93,10.682 C272.871,10.727 272.863,10.813 272.91,10.867 L274.744,13.113 L273.426,13.113 L272.432,11.232 C272.398,11.168 272.316,11.141 272.254,11.176 C272.186,11.211 272.16,11.291 272.197,11.357 L272.512,11.953 C272.088,11.684 271.521,11.418 271.373,11.35 C271.33,11.326 270.807,11.051 270.434,11.051 C270.061,11.051 269.539,11.326 269.48,11.359 C269.342,11.42 268.77,11.691 268.344,11.959 L268.662,11.357 C268.695,11.291 268.67,11.211 268.605,11.176 C268.543,11.141 268.461,11.168 268.424,11.232 L267.432,13.113 L266.117,13.113 L267.953,10.867 C267.998,10.813 267.99,10.727 267.934,10.682 C267.877,10.635 267.793,10.643 267.746,10.699 L265.773,13.113 L261.857,13.113 L267.307,10.145 C267.371,10.109 267.398,10.029 267.361,9.965 C267.324,9.898 267.246,9.873 267.18,9.912 L261.301,13.113 L257.002,13.113 C256.516,13.113 255.576,13.389 255.488,14.422 L255.326,16.369 L254.664,16.728 C254.602,16.766 254.576,16.846 254.611,16.91 C254.648,16.975 254.727,16.998 254.793,16.963 L255.301,16.686 L255.059,19.576 C255.059,19.578 255.057,19.58 255.057,19.582 C255.008,20.34 255.404,20.83 256.238,21.035 C256.777,21.172 257.666,21.076 258.047,20.74 C258.133,20.668 258.189,20.578 258.221,20.486 C258.23,20.473 258.246,20.465 258.25,20.447 L258.543,19.217 L260.793,19.217 L258.59,21.92 C258.543,21.975 258.553,22.061 258.609,22.107 C258.666,22.152 258.75,22.145 258.797,22.088 L261.137,19.217 L264.207,19.217 L261.834,23.709 C261.801,23.775 261.824,23.856 261.891,23.891 C261.955,23.924 262.037,23.9 262.068,23.836 L264.51,19.217 L265.863,19.217 C265.025,22.277 264.252,25.268 264.252,25.627 C264.252,26.082 264.566,26.805 264.867,27.502 C265.021,27.861 265.232,28.35 265.236,28.475 C265.236,28.729 264.932,30.016 264.713,30.879 C264.145,30.082 263.637,29.09 263.26,27.828 L263.133,27.41 L263.084,27.252 L262.922,27.287 L259.926,27.983 L260.516,24.795 L260.545,24.637 L260.387,24.592 L259.977,24.479 C259.729,24.41 253.932,22.768 253.932,17.176 C253.932,11.699 259.357,10.043 259.977,9.871 L260.389,9.754 L260.545,9.711 L260.516,9.553 L259.926,6.365 L262.922,7.063 L263.084,7.102 L263.133,6.939 L263.26,6.518 C265.096,0.357 269.896,0.377 270.441,0.398 C271.004,0.379 275.848,0.389 277.678,6.518 L277.805,6.939 L277.852,7.102 L278.014,7.063 L281.014,6.365 L280.426,9.553 L280.396,9.711 L280.551,9.754 L280.963,9.871 C281.203,9.938 286.838,11.553 286.838,17.176 C286.838,22.816 281.203,24.412 280.963,24.477 C280.963,24.479 280.551,24.592 280.551,24.592 L280.551,24.592 Z M270.07,18.758 L270.797,18.758 C270.91,19.043 271.018,19.453 270.877,19.678 C270.803,19.793 270.658,19.852 270.434,19.852 C270.209,19.852 270.063,19.791 269.988,19.674 C269.844,19.443 269.969,19.006 270.07,18.758 L270.07,18.758 Z M271.92,27.766 C271.729,27.537 271.66,27.219 271.656,26.865 C271.756,26.812 271.865,26.783 271.986,26.783 C272.445,26.783 272.672,27.082 272.768,27.26 C272.91,27.531 272.939,27.867 272.855,28.152 C272.424,28.115 272.111,27.99 271.92,27.766 L271.92,27.766 Z M270.873,27.803 C271.016,27.562 271.158,27.336 271.316,27.152 C271.352,27.471 271.451,27.764 271.65,27.998 C271.881,28.266 272.221,28.43 272.672,28.492 C272.445,28.77 272.088,28.899 271.619,28.848 C271.188,28.805 270.92,28.463 270.76,27.983 C270.797,27.922 270.834,27.863 270.873,27.803 L270.873,27.803 Z M270.545,25.4 C270.701,25.471 270.861,25.529 271.051,25.545 C271.182,25.553 271.311,25.551 271.434,25.537 C271.43,25.561 271.428,25.58 271.424,25.606 C271.369,25.953 271.314,26.318 271.301,26.672 C271.031,26.883 270.824,27.199 270.637,27.508 C270.518,26.865 270.518,26.088 270.545,25.4 L270.545,25.4 Z M271.611,24.016 C271.588,24.303 271.551,24.641 271.502,25.061 C271.498,25.094 271.492,25.133 271.488,25.166 C271.355,25.19 271.221,25.199 271.076,25.19 C270.916,25.176 270.766,25.121 270.623,25.045 C270.684,24.969 270.74,24.891 270.797,24.811 C271.031,24.484 271.266,24.182 271.611,24.016 L271.611,24.016 Z M270.594,24.486 C270.607,24.256 270.621,24.049 270.623,23.887 C270.629,23.586 270.615,23.332 270.586,23.102 C270.695,23.031 270.801,22.953 270.9,22.877 C271.115,22.709 271.33,22.557 271.605,22.463 C271.631,22.58 271.646,22.688 271.654,22.768 C271.672,22.975 271.672,23.23 271.645,23.613 C271.158,23.768 270.855,24.129 270.594,24.486 L270.594,24.486 Z M272.148,22.01 C272.035,22.01 271.941,22.027 271.842,22.043 C271.697,21.709 271.412,21.322 270.848,20.981 C271.037,20.951 271.242,20.93 271.482,20.93 C272.316,20.93 272.703,21.285 272.83,22.238 C272.627,22.104 272.4,22.01 272.148,22.01 L272.148,22.01 Z M272.723,24.074 C272.615,24.367 272.461,24.615 272.262,24.803 C272.143,24.912 272.004,24.992 271.861,25.055 C271.914,24.592 271.951,24.223 271.979,23.918 C272.043,23.906 272.094,23.885 272.168,23.885 C272.412,23.885 272.586,23.969 272.723,24.074 L272.723,24.074 Z M272.168,23.529 C272.109,23.529 272.061,23.539 272.008,23.545 C272.027,23.191 272.027,22.945 272.008,22.736 C272,22.648 271.986,22.529 271.955,22.387 C272.02,22.381 272.076,22.365 272.148,22.365 C272.402,22.365 272.65,22.51 272.871,22.721 C272.875,22.838 272.881,22.947 272.881,23.076 C272.881,23.303 272.855,23.512 272.814,23.711 C272.627,23.6 272.412,23.529 272.168,23.529 L272.168,23.529 Z M270.131,22 C269.977,21.853 269.785,21.752 269.555,21.693 C269.711,21.465 269.955,21.258 270.33,21.117 C270.996,21.432 271.332,21.799 271.488,22.125 C271.158,22.238 270.906,22.422 270.684,22.594 C270.629,22.637 270.574,22.676 270.521,22.717 C270.441,22.404 270.314,22.17 270.131,22 L270.131,22 Z M269.498,25.785 C269.775,25.756 269.996,25.647 270.184,25.502 C270.152,26.322 270.172,27.227 270.369,27.937 C270.168,28.244 269.959,28.482 269.701,28.482 C269.439,28.482 269.281,28.348 269.1,28.123 C269.148,28.082 269.201,28.045 269.242,27.998 C269.717,27.447 269.621,26.58 269.498,25.785 L269.498,25.785 Z M270.082,25.125 C269.908,25.293 269.711,25.41 269.445,25.436 C269.426,25.307 269.404,25.176 269.391,25.061 C269.371,24.891 269.354,24.732 269.338,24.586 C269.514,24.701 269.68,24.818 269.836,24.937 C269.918,25.002 269.998,25.065 270.082,25.125 L270.082,25.125 Z M269.756,23.367 C269.945,23.367 270.104,23.324 270.252,23.27 C270.268,23.449 270.273,23.65 270.268,23.879 C270.266,24.053 270.25,24.283 270.234,24.549 C270.23,24.623 270.225,24.705 270.219,24.785 C270.164,24.742 270.111,24.701 270.053,24.656 C269.832,24.488 269.582,24.307 269.293,24.15 C269.262,23.82 269.238,23.555 269.232,23.338 C269.391,23.354 269.563,23.367 269.756,23.367 L269.756,23.367 Z M269.236,22.768 L269.242,22.703 C269.256,22.541 269.281,22.285 269.383,22.021 C269.592,22.061 269.76,22.137 269.887,22.256 C270.037,22.399 270.141,22.617 270.199,22.91 C270.066,22.971 269.926,23.014 269.756,23.014 C269.561,23.014 269.389,23 269.229,22.981 C269.229,22.904 269.232,22.83 269.236,22.768 L269.236,22.768 Z M268.703,21.641 C268.453,21.66 268.236,21.715 268.043,21.797 C268.07,21.51 268.16,21.078 268.445,20.85 C268.641,20.697 268.906,20.66 269.238,20.74 C269.482,20.797 269.689,20.863 269.887,20.934 C269.586,21.108 269.354,21.34 269.188,21.637 C269.039,21.627 268.879,21.627 268.703,21.641 L268.703,21.641 Z M267.857,24.141 C268.303,24.141 268.656,24.238 268.957,24.377 C268.979,24.592 269.006,24.828 269.039,25.1 C269.051,25.199 269.066,25.307 269.084,25.416 C269,25.4 268.92,25.385 268.828,25.358 C267.914,25.09 267.607,24.641 267.5,24.231 C267.598,24.17 267.715,24.141 267.857,24.141 L267.857,24.141 Z M268.051,22.186 C268.225,22.086 268.445,22.016 268.73,21.996 C268.838,21.986 268.938,21.986 269.033,21.988 C268.961,22.197 268.906,22.422 268.889,22.676 L268.885,22.736 C268.879,22.793 268.873,22.854 268.873,22.918 C268.385,22.795 268.109,22.551 268.051,22.186 L268.051,22.186 Z M268.873,23.277 C268.879,23.471 268.895,23.703 268.92,23.988 C268.617,23.875 268.281,23.785 267.857,23.785 C267.705,23.785 267.572,23.82 267.445,23.871 C267.441,23.789 267.439,23.707 267.439,23.635 C267.439,23.227 267.496,22.781 267.75,22.457 C267.871,22.809 268.191,23.129 268.873,23.277 L268.873,23.277 Z M273.082,27.094 C272.855,26.67 272.457,26.426 271.986,26.426 C271.873,26.426 271.771,26.445 271.674,26.479 C271.697,26.205 271.732,25.928 271.773,25.66 C271.785,25.59 271.793,25.529 271.805,25.461 C272.063,25.381 272.299,25.25 272.5,25.061 C272.701,24.875 272.855,24.633 272.977,24.361 C273.012,24.43 273.041,24.494 273.063,24.553 C273.234,25.039 273.121,25.633 272.818,25.873 C272.74,25.936 272.73,26.047 272.789,26.123 C272.854,26.199 272.965,26.213 273.041,26.152 C273.467,25.815 273.621,25.074 273.396,24.436 C273.332,24.246 273.229,24.096 273.113,23.961 C273.182,23.711 273.223,23.443 273.229,23.156 C273.322,23.291 273.406,23.436 273.473,23.574 C273.518,23.66 273.625,23.699 273.713,23.654 C273.801,23.609 273.836,23.504 273.793,23.416 C273.711,23.246 273.51,22.889 273.223,22.574 C273.146,21.357 272.768,20.576 271.482,20.576 C271.051,20.576 270.678,20.629 270.352,20.73 C270.063,20.606 269.727,20.49 269.32,20.395 C268.879,20.289 268.508,20.35 268.225,20.57 C267.734,20.965 267.678,21.711 267.674,22.021 C267.285,22.354 267.086,22.889 267.086,23.635 C267.086,23.762 267.086,23.922 267.107,24.1 C267.045,24.172 266.99,24.256 266.947,24.35 C266.662,24.98 266.904,26.068 267.477,26.723 C267.541,26.797 267.654,26.805 267.729,26.738 C267.803,26.674 267.809,26.561 267.746,26.486 C267.674,26.408 267.625,26.309 267.568,26.217 C267.678,26.24 267.797,26.256 267.932,26.248 C268.029,26.24 268.105,26.156 268.096,26.059 C268.09,25.961 268.006,25.887 267.908,25.893 C267.637,25.912 267.408,25.803 267.348,25.772 C267.188,25.348 267.143,24.908 267.254,24.586 C267.439,25.006 267.842,25.438 268.727,25.699 C268.873,25.742 269.01,25.77 269.135,25.783 C269.25,26.52 269.354,27.32 268.971,27.766 C268.947,27.797 268.91,27.82 268.879,27.846 C268.602,27.49 268.24,27.106 267.49,27.106 C267.391,27.106 267.313,27.186 267.313,27.283 C267.313,27.383 267.391,27.461 267.49,27.461 C268.059,27.461 268.33,27.727 268.574,28.035 C268.359,28.121 268.092,28.172 267.758,28.172 C267.322,28.172 266.977,28.016 266.73,27.713 C266.219,27.082 266.178,25.869 266.357,25.012 C266.443,24.611 267.045,21.539 267.404,19.705 L267.59,18.758 L269.689,18.758 C269.584,19.061 269.48,19.529 269.686,19.863 C269.826,20.088 270.078,20.203 270.434,20.203 C270.785,20.203 271.037,20.092 271.178,19.867 C271.385,19.539 271.289,19.074 271.182,18.758 L273.303,18.758 L274.531,25.006 C274.609,25.389 274.68,26.973 274.043,27.746 C273.824,28.014 273.551,28.145 273.211,28.164 C273.291,27.811 273.256,27.424 273.082,27.094 L273.082,27.094 Z M282.832,19.832 L282.619,18.941 C282.76,18.873 283.082,18.758 283.607,18.764 C283.766,18.768 283.916,18.775 284.047,18.799 L284.131,19.365 C283.41,19.428 283.029,19.629 282.832,19.832 L282.832,19.832 Z M284.26,19.889 C284.41,19.877 284.52,19.75 284.512,19.605 C284.512,19.598 284.506,19.598 284.506,19.59 C284.508,19.576 284.52,19.565 284.516,19.549 L284.416,18.891 C285.082,19.119 285.248,19.561 285.271,19.641 C285.295,19.996 285.203,20.342 284.494,20.518 C283.953,20.654 283.199,20.457 283.137,20.309 C283.15,20.215 283.385,19.941 284.26,19.889 L284.26,19.889 Z M271.471,13.113 L269.385,13.113 C269.646,12.82 270.023,12.646 270.434,12.646 C270.836,12.646 271.209,12.824 271.471,13.113 L271.471,13.113 Z M272.697,13.113 L271.9,13.113 C271.58,12.615 271.039,12.293 270.434,12.293 C269.82,12.293 269.283,12.611 268.961,13.113 L268.17,13.113 C268.254,12.857 268.314,12.684 268.348,12.615 C268.518,12.434 269.242,12.053 269.717,11.834 C269.908,11.732 270.252,11.582 270.434,11.582 C270.615,11.582 270.959,11.732 271.137,11.828 C271.627,12.053 272.357,12.436 272.52,12.615 C272.553,12.688 272.615,12.859 272.697,13.113 L272.697,13.113 Z M256.732,19.365 L256.814,18.797 L256.82,18.797 C256.82,18.797 256.822,18.797 256.822,18.795 C256.951,18.775 257.098,18.768 257.252,18.764 C257.775,18.758 258.098,18.869 258.242,18.941 L258.031,19.83 C257.834,19.627 257.453,19.428 256.732,19.365 L256.732,19.365 Z M256.354,19.588 C256.354,19.594 256.346,19.598 256.346,19.605 C256.338,19.75 256.451,19.877 256.596,19.889 C257.48,19.941 257.713,20.215 257.725,20.309 C257.666,20.455 256.912,20.656 256.367,20.52 C255.66,20.346 255.57,20 255.588,19.645 C255.607,19.576 255.766,19.119 256.443,18.889 L256.346,19.549 C256.344,19.565 256.354,19.576 256.354,19.588 L256.354,19.588 Z M257.324,18.225 C256.52,18.225 256.004,18.447 255.664,18.705 L256.021,14.467 C256.088,13.678 256.91,13.649 257.004,13.646 L283.861,13.646 C283.955,13.649 284.771,13.678 284.838,14.467 L285.195,18.705 C284.857,18.447 284.34,18.225 283.531,18.225 L257.324,18.225 L257.324,18.225 Z M265.357,27.291 C265.102,26.701 264.785,25.971 264.785,25.627 C264.793,25.307 265.664,21.975 266.549,18.758 L267.227,18.758 L267.055,19.637 C266.697,21.469 266.094,24.539 266.01,24.939 C265.857,25.662 265.781,27.109 266.455,27.937 C266.771,28.328 267.213,28.525 267.758,28.525 C268.186,28.525 268.525,28.451 268.801,28.32 C269.016,28.594 269.266,28.84 269.701,28.84 C270.043,28.84 270.293,28.621 270.51,28.34 C270.723,28.814 271.059,29.149 271.584,29.201 C272.221,29.268 272.73,29.064 273.023,28.629 C273.045,28.598 273.057,28.557 273.074,28.522 C273.096,28.522 273.113,28.525 273.137,28.525 C273.621,28.525 274.018,28.34 274.316,27.973 C275.037,27.094 274.982,25.443 274.881,24.941 C274.881,24.943 274.217,21.549 274.217,21.549 L273.668,18.758 L274.324,18.758 C275.209,21.975 276.084,25.307 276.092,25.627 C276.092,25.971 275.77,26.701 275.516,27.289 C275.244,27.9 275.098,28.254 275.098,28.475 C275.098,28.801 275.418,29.998 275.623,30.709 C274.787,30.469 272.924,30.029 270.473,30.029 C268.008,30.029 266.133,30.473 265.305,30.715 C265.48,30.006 265.77,28.797 265.77,28.475 C265.77,28.254 265.621,27.9 265.357,27.291 L265.357,27.291 Z M270.498,33.951 L270.492,33.951 L270.477,33.951 C270.066,33.965 267.227,33.955 265.063,31.348 C265.295,31.268 267.438,30.562 270.473,30.562 C273.525,30.562 275.674,31.275 275.885,31.348 C273.729,33.971 270.906,33.969 270.498,33.951 L270.498,33.951 Z M287.193,17.176 C287.193,11.285 281.309,9.598 281.059,9.529 C281.059,9.529 280.922,9.49 280.805,9.457 L281.461,5.895 C281.461,5.898 278.096,6.68 278.096,6.68 L278.018,6.418 C276.113,0.029 271.018,0.022 270.455,0.045 C269.887,0.022 264.834,-0.002 262.918,6.418 L262.842,6.68 L259.479,5.898 C259.479,5.895 260.137,9.457 260.137,9.457 L259.881,9.529 C259.236,9.707 253.576,11.438 253.576,17.176 C253.576,23.035 259.625,24.75 259.883,24.82 C259.881,24.82 260.02,24.859 260.137,24.893 L259.479,28.451 L262.842,27.672 L262.918,27.93 C264.818,34.305 269.914,34.324 270.492,34.311 C271.055,34.33 276.109,34.332 278.018,27.93 L278.096,27.672 L281.461,28.451 L280.805,24.893 L281.059,24.82 C281.305,24.752 287.193,23.088 287.193,17.176 L287.193,17.176 Z" id="Fill-72" fill-rule="nonzero" mask="url(#mask-4)"></path>
                </g>
                <g id="Fill-74-Clipped">
                    <mask id="mask-6" fill="#fff">
                        <use xlink:href="#path-5"></use>
                    </mask>
                    <g id="path-3"></g>
                    <path fill="#000" d="M2.617,13.887 C2.607,14.088 2.622,23.02 2.622,23.02 C2.646,23.943 2.789,25.537 3.062,26.129 C3.26,26.566 3.704,26.83 3.913,26.83 C4.029,26.83 4.116,26.908 4.116,27 C4.116,27.18 3.979,27.182 3.699,27.162 C2.472,27.07 2.23,27.086 2.021,27.086 C1.562,27.086 1.254,27.166 0.411,27.166 C0.199,27.166 0,27.139 0,27.006 C0,26.916 0.092,26.84 0.206,26.84 C0.426,26.84 0.802,26.615 0.959,26.436 C1.419,25.91 1.562,24.184 1.562,23.641 C1.562,23.641 1.543,21.203 1.592,18.363 C1.647,15.016 1.632,11.641 1.579,10.611 C1.524,9.828 1.543,9.516 1.729,9.516 C1.914,9.516 2.727,10.586 2.959,10.814 C3.306,11.209 6.149,14.369 9.819,18.092 C11.974,20.277 14.953,23.002 15.044,23.115 C15.155,23.256 15.222,23.268 15.211,23.084 C15.214,22.953 15.249,18.207 15.249,18.207 L15.13,12.602 C15.11,11.373 14.625,10.445 14.173,10.328 C13.756,10.234 13.879,10.242 13.692,10.242 C13.533,10.242 13.508,10.141 13.508,10.049 C13.508,9.914 13.691,9.875 13.97,9.898 C15,9.98 15.337,9.992 15.59,9.992 C15.844,9.992 16.186,10.029 17.151,9.898 C17.401,9.863 17.57,9.918 17.57,10.057 C17.57,10.186 17.509,10.26 17.438,10.26 C17.323,10.26 16.928,10.49 16.849,10.645 C16.396,11.553 16.371,12.229 16.371,13.484 L16.295,20.988 L16.29,25.984 C16.349,27.508 16.405,27.578 16.244,27.578 C16.061,27.578 15.747,27.047 14.568,25.781 C14.335,25.529 11.118,22.055 8.574,19.498 C5.837,16.748 3.701,14.707 2.702,13.811 C2.672,13.783 2.628,13.785 2.617,13.887" id="Fill-74" fill-rule="nonzero" mask="url(#mask-6)"></path>
                </g>
            </g>
            <path fill="#000" d="M42.866,30.467 C42.866,32.703 42.832,34.234 42.717,35.207 C42.676,35.494 42.618,35.713 42.534,35.937 C42.463,36.123 42.223,36.547 41.988,36.676 C41.807,36.777 41.625,36.82 41.346,36.82 C41.206,36.82 41.161,36.904 41.161,37 C41.161,37.107 41.277,37.199 41.532,37.182 C42.425,37.119 43.098,37.068 43.786,37.068 C44.672,37.068 45.166,37.119 46.116,37.174 C46.373,37.189 46.487,37.115 46.487,37 C46.487,36.899 46.441,36.82 46.305,36.82 C46.122,36.822 45.897,36.756 45.665,36.627 C45.441,36.502 45.154,36.096 45.07,35.795 C44.977,35.451 44.957,34.961 44.969,35.084 C44.855,34.111 44.829,32.76 44.829,30.531 C44.829,30.531 44.824,29.697 44.832,29.555 C44.832,29.422 44.885,29.395 45.015,29.395 L45.98,29.395 C46.169,29.395 46.243,29.44 46.313,29.516 C46.617,29.867 48.633,32.654 49.56,33.963 C50.833,35.758 51.367,36.734 51.611,37.182 C52.18,37.162 52.883,37.17 53.441,37.182 C53.96,37.189 54.406,37.231 54.406,37.231 C54.844,37.26 55.286,37.233 55.286,37.102 C55.286,37.008 55.26,36.941 55.078,36.941 C54.882,36.941 54.553,36.809 54.354,36.69 C54.049,36.506 53.657,36.158 53.338,35.73 C52.978,35.248 52.83,35.082 52.261,34.309 C51.097,32.727 49.417,30.268 48.483,29.109 C50.616,28.342 52.058,26.963 52.058,24.561 C52.058,22.91 51.105,21.818 50.148,21.131 C49.187,20.441 47.894,19.879 46.454,19.879 C45.733,19.879 44.089,19.973 43.834,19.973 C43.717,19.973 42.615,19.973 41.544,19.871 C41.29,19.848 41.173,19.9 41.173,20.037 C41.173,20.166 41.27,20.213 41.361,20.213 C41.57,20.213 41.78,20.23 41.947,20.32 C42.356,20.539 42.797,21.025 42.797,22.063 C42.797,22.807 42.866,22.799 42.866,26.408 L42.866,30.467 L42.866,30.467 Z M44.847,21.381 C44.847,20.896 44.878,20.844 45.033,20.791 C45.05,20.789 45.253,20.738 45.502,20.738 C45.856,20.742 46.15,20.771 46.454,20.801 C48.105,20.959 49.886,22.344 49.886,24.785 C49.886,27.574 47.861,28.752 45.056,28.752 C44.863,28.752 44.836,28.723 44.836,28.551 C44.836,28.49 44.847,21.381 44.847,21.381 L44.847,21.381 Z" id="Fill-76" fill-rule="nonzero"></path>
            <path fill="#000" d="M80.262,30.268 C80.262,32.49 80.186,32.563 80.248,33.561 C80.277,34.061 80.248,34.334 80.341,35.063 C80.406,35.592 80.507,36.637 81.689,36.766 C81.827,36.783 81.898,36.844 81.898,36.967 C81.898,37.08 81.781,37.158 81.526,37.141 C80.206,37.061 79.913,37.027 79.292,37.027 C78.714,37.027 78.094,37.057 76.883,37.133 C76.634,37.148 76.512,37.061 76.512,36.967 C76.512,36.856 76.542,36.781 76.683,36.766 C77.76,36.658 78.065,36.027 78.155,35.088 C78.251,34.115 78.324,32.49 78.324,30.266 L78.324,26.193 C78.324,22.584 78.269,22.33 78.269,21.984 C78.269,21.359 78.061,20.437 77.302,20.295 C77.124,20.262 77.08,20.281 76.837,20.281 C76.744,20.281 76.652,20.211 76.652,20.084 C76.652,19.982 76.765,19.914 77.017,19.914 C77.784,19.914 78.501,20.033 79.314,20.033 C80.013,20.033 80.749,19.918 81.445,19.918 C81.7,19.918 81.933,19.926 81.933,20.096 C81.933,20.221 81.84,20.273 81.748,20.273 C81.547,20.273 81.564,20.248 81.323,20.336 C81.028,20.441 80.65,20.873 80.512,21.479 C80.45,21.742 80.398,21.98 80.392,22.19 C80.364,22.762 80.262,23.539 80.262,26.193 L80.262,30.268" id="Fill-77" fill-rule="nonzero"></path>
            <path fill="#000" d="M122.453,29.037 L122.622,29.52 C122.692,29.717 122.713,29.777 122.498,29.777 L118.314,29.777 C118.17,29.777 118.149,29.733 118.188,29.592 C118.226,29.473 118.403,29.096 118.445,28.988 L119.528,26.119 L120.301,24.035 C120.417,23.69 120.471,23.658 120.64,24.18 C120.64,24.18 122.453,29.029 122.453,29.037 L122.453,29.037 Z M129.078,36.836 C128.765,36.836 128.588,36.789 128.367,36.68 C127.882,36.449 127.279,35.896 126.528,34.076 C124.998,30.358 121.741,21.229 121.394,20.352 C121.115,19.637 121.136,19.516 120.974,19.516 C120.836,19.516 120.648,20.301 120.392,20.979 C119.976,22.061 117.337,29.135 117.337,29.135 L115.185,34.502 C114.981,35.033 114.239,36.352 113.777,36.654 C113.621,36.756 113.438,36.848 113.139,36.848 C112.97,36.848 112.93,36.938 112.93,37.039 C112.93,37.203 113.07,37.229 113.371,37.199 C114.386,37.098 114.76,37.094 115.016,37.094 C115.271,37.094 115.99,37.047 116.781,37.178 C116.987,37.209 117.129,37.148 117.129,36.994 C117.129,36.902 117.045,36.852 116.865,36.814 L116.599,36.684 C116.234,36.418 116.112,36.104 116.112,35.748 C116.112,35.33 116.261,34.988 116.468,34.41 L117.692,30.734 C117.741,30.619 117.783,30.551 117.939,30.551 L122.783,30.551 C122.957,30.539 122.985,30.598 123.033,30.69 C123.033,30.69 124.186,33.846 124.429,34.516 C124.673,35.184 124.703,35.76 124.703,35.76 C124.796,36.449 124.475,36.859 123.919,36.859 C123.822,36.859 123.755,36.904 123.755,37.051 C123.755,37.158 124.01,37.203 124.449,37.172 C125.02,37.129 126.012,37.098 126.733,37.098 C127.952,37.098 128.567,37.186 128.788,37.199 C129.084,37.217 129.251,37.148 129.251,37.025 C129.251,36.912 129.172,36.836 129.078,36.836 L129.078,36.836 Z" id="Fill-78" fill-rule="nonzero"></path>
            <path fill="#000" d="M85.314,36.027 C85.152,35.91 85.243,35.693 85.377,35.143 C85.602,34.209 85.544,34.065 85.62,33.467 C85.652,33.211 85.716,33.082 85.792,33.092 C85.868,33.104 85.914,33.162 85.937,33.35 C86.054,34.289 86.301,35.231 87.362,36.045 C87.991,36.527 88.758,36.652 89.458,36.652 C91.594,36.652 92.985,35.227 92.985,33.463 C92.985,31.853 92.331,31.16 90.319,29.502 L89.007,28.52 C86.557,26.77 85.586,25.697 85.586,23.658 C85.586,21.369 87.155,19.695 90.197,19.695 C91.099,19.695 91.54,19.799 92.226,19.988 C92.634,20.096 93.122,20.322 93.397,20.523 C93.498,20.602 93.51,20.674 93.499,20.818 C93.463,21.504 93.463,21.883 93.52,22.6 C93.549,22.975 93.49,23.104 93.368,23.104 C93.227,23.104 93.178,22.984 93.14,22.799 C93.011,22.184 92.906,21.963 92.69,21.699 C91.94,20.781 91.1,20.479 89.725,20.479 C88.069,20.479 87.077,21.475 87.077,22.92 C87.077,24.361 88.945,25.885 90.095,26.672 L90.976,27.268 C93.649,29.23 94.734,30.123 94.734,32.6 C94.734,34.887 93.089,37.482 89.499,37.482 C87.328,37.482 86.393,36.797 85.314,36.027" id="Fill-79" fill-rule="nonzero"></path>
            <path fill="#000" d="M20.466,28.424 C20.466,32.512 23.078,37.451 29.577,37.451 C34.913,37.451 38.357,33.625 38.357,28.176 C38.357,22.984 34.262,19.684 29.329,19.684 C23.966,19.684 20.466,23.549 20.466,28.424 L20.466,28.424 Z M28.917,20.508 C37.489,20.508 39.559,36.545 30.359,36.545 C20.767,36.545 19.608,20.508 28.917,20.508 L28.917,20.508 Z" id="Fill-80" fill-rule="nonzero"></path>
            <path fill="#000" d="M65.089,36.381 C63.143,36.381 61.784,36.252 61.242,35.459 C61.019,35.148 60.868,34.381 60.851,33.963 C60.828,33.524 60.668,31.393 60.668,28.936 L60.668,26.065 C60.668,24.281 60.668,22.08 60.69,21.289 C60.69,21.033 60.769,20.906 60.922,20.838 C61.107,20.744 61.969,20.803 62.433,20.803 C65.441,20.803 67.978,21.123 70.017,23.275 C71.451,24.783 71.883,27.32 71.883,28.988 C71.883,33.066 69.594,36.381 65.089,36.381 L65.089,36.381 Z M71.722,22.922 C69.296,20.414 66.444,19.973 62.839,19.973 C61.452,19.973 60.711,19.988 59.998,19.988 C59.351,19.957 58.497,19.994 57.726,19.914 C57.442,19.887 57.216,19.9 57.216,20.039 C57.216,20.139 57.308,20.223 57.4,20.223 C57.656,20.223 57.859,20.314 57.98,20.387 C58.525,20.711 58.502,21.162 58.561,21.613 C58.659,22.387 58.69,22.82 58.69,26.434 L58.731,30.494 C58.731,32.713 58.583,34.445 58.468,35.416 C58.395,35.943 58.224,36.232 57.994,36.471 C57.842,36.631 57.618,36.84 57.384,36.84 C57.245,36.84 57.122,36.916 57.122,37.045 C57.122,37.189 57.316,37.227 57.569,37.199 C58.716,37.082 59.264,37.102 59.782,37.102 C60.522,37.102 62.966,37.219 64.952,37.219 C68.646,37.219 74.105,35.238 74.105,28.691 C74.105,26.623 73.24,24.504 71.722,22.922 L71.722,22.922 Z" id="Fill-81" fill-rule="nonzero"></path>
            <path fill="#000" d="M154.291,21.9 L154.533,24.039 L155.129,29.697 L155.637,34.166 C155.73,34.998 155.738,36.268 156.742,36.674 C156.982,36.77 156.996,36.773 157.318,36.826 C157.459,36.85 157.504,36.895 157.504,37.01 C157.504,37.17 157.391,37.203 157.17,37.178 C156.527,37.106 155.922,37.065 155.066,37.065 C154.301,37.065 153.371,37.065 152.406,37.156 C152.234,37.172 152.07,37.129 152.07,36.986 C152.07,36.875 152.146,36.826 152.262,36.816 C152.203,36.822 152.406,36.824 152.801,36.715 C153.156,36.615 153.396,36.258 153.471,35.756 C153.549,35.217 153.543,35.033 153.531,34.004 C153.52,32.621 153.18,29.535 153.18,29.535 C153.18,29.535 152.686,25.184 152.68,24.961 C152.672,24.738 152.588,24.717 152.527,24.85 C152.426,25.078 147.379,35.774 147.379,35.774 C146.894,36.791 146.776,37.434 146.566,37.434 C146.404,37.434 146.213,36.646 145.776,35.815 C145.173,34.682 143.576,30.928 143.459,30.697 C143.252,30.281 140.876,25.365 140.834,25.246 C140.771,25.084 140.7,25.113 140.68,25.358 C140.657,25.613 139.747,33.836 139.747,33.836 C139.734,34.01 139.744,34.34 139.726,34.83 C139.696,35.656 139.813,36.484 140.378,36.744 C140.599,36.844 140.715,36.824 140.852,36.824 C140.974,36.824 141.037,36.904 141.037,37.02 C141.037,37.115 140.907,37.191 140.628,37.166 C139.858,37.094 139.574,37.068 138.832,37.068 C138.265,37.068 137.592,37.106 136.89,37.156 C136.657,37.172 136.494,37.107 136.494,36.984 C136.494,36.885 136.602,36.816 136.721,36.816 C136.904,36.816 137.076,36.773 137.297,36.691 C137.938,36.461 138.43,35.268 138.508,34.506 L138.838,32.397 L139.988,22.592 L140.232,20.4 C140.276,20.148 140.255,19.4 140.395,19.4 C140.531,19.4 140.55,19.525 140.664,19.779 L144.995,29.367 C144.995,29.367 147.053,33.51 147.087,33.613 C147.165,33.752 147.225,33.697 147.311,33.531 C147.491,33.238 152.568,22.393 153.598,20.119 C153.781,19.709 153.887,19.33 153.963,19.334 C154.102,19.336 154.082,19.539 154.129,19.98 L154.291,21.9" id="Fill-82" fill-rule="nonzero"></path>
            <path fill="#000" d="M195.408,26.367 C195.408,22.736 195.408,22.424 195.363,21.68 C195.316,20.941 195.15,20.412 194.631,20.299 C194.447,20.252 194.307,20.219 194.098,20.219 C193.967,20.219 193.883,20.158 193.883,20.045 C193.883,19.883 193.953,19.863 194.254,19.863 C195.248,19.863 196.449,19.9 196.691,19.906 C197.537,19.926 199.844,19.916 201.338,19.875 C201.779,19.863 202.604,19.871 202.719,19.871 C202.787,19.871 202.801,19.963 202.811,20.078 C202.84,20.471 202.84,20.826 202.869,21.26 C202.889,21.629 202.949,21.863 202.971,22.191 C202.977,22.311 203.008,22.59 202.82,22.6 C202.674,22.608 202.6,22.52 202.541,22.211 C202.48,21.916 202.379,21.711 202.172,21.436 C201.857,21.021 201.248,20.93 200.684,20.865 C200.291,20.818 197.811,20.797 197.557,20.797 C197.461,20.797 197.461,21.172 197.461,21.334 L197.398,27.223 C197.398,27.412 197.434,27.459 197.58,27.459 C197.881,27.459 200.01,27.483 200.545,27.438 C201.166,27.385 201.793,27.031 201.865,26.293 C201.887,26.051 201.975,25.986 202.064,25.986 C202.135,25.986 202.244,26.033 202.244,26.174 C202.244,26.313 202.152,27.131 202.152,27.887 C202.152,28.641 202.234,29.375 202.234,29.537 C202.234,29.727 202.16,29.807 202.053,29.807 C201.916,29.807 201.867,29.639 201.834,29.496 C201.67,28.787 201.533,28.432 200.199,28.293 C199.57,28.225 197.973,28.233 197.58,28.233 C197.434,28.233 197.414,28.275 197.414,28.395 L197.414,30.457 C197.414,31.25 197.414,33.6 197.438,34.09 C197.477,35.045 197.477,36.232 200.061,36.232 C200.664,36.232 201.709,36.238 202.338,35.803 C202.787,35.496 202.883,35.152 203.145,34.742 C203.283,34.522 203.373,34.379 203.486,34.379 C203.652,34.379 203.617,34.609 203.555,34.844 C203.404,35.355 203.297,35.777 203.135,36.52 C203.104,36.652 203.094,36.885 203.059,37.057 C203.021,37.172 202.971,37.17 202.68,37.172 C202.031,37.178 200.643,37.061 200.24,37.061 L196.447,37.061 C195.459,37.061 194.832,37.158 194.133,37.178 C193.875,37.178 193.74,37.145 193.74,36.992 C193.74,36.924 193.787,36.809 193.928,36.809 C194.137,36.809 194.168,36.807 194.377,36.758 C194.6,36.715 194.846,36.594 194.969,36.354 C195.17,35.977 195.199,35.791 195.256,35.377 C195.373,34.399 195.408,32.684 195.408,30.457 L195.408,26.367" id="Fill-83" fill-rule="nonzero"></path>
            <path fill="#000" d="M209.016,26.367 C209.016,22.736 209.016,22.424 208.967,21.68 C208.924,20.941 208.756,20.412 208.238,20.299 C208.049,20.252 207.916,20.219 207.703,20.219 C207.57,20.219 207.49,20.158 207.49,20.045 C207.49,19.883 207.561,19.863 207.859,19.863 C208.855,19.863 210.057,19.9 210.295,19.906 C211.143,19.926 213.449,19.916 214.943,19.875 C215.387,19.863 216.207,19.871 216.326,19.871 C216.395,19.871 216.41,19.963 216.416,20.078 C216.447,20.471 216.447,20.826 216.475,21.26 C216.496,21.629 216.555,21.863 216.574,22.191 C216.584,22.311 216.615,22.59 216.426,22.6 C216.283,22.608 216.207,22.52 216.145,22.211 C216.086,21.916 215.984,21.711 215.779,21.436 C215.465,21.021 214.855,20.93 214.291,20.865 C213.898,20.818 211.418,20.797 211.16,20.797 C211.066,20.797 211.066,21.172 211.066,21.334 L211.006,27.223 C211.006,27.412 211.041,27.459 211.184,27.459 C211.488,27.459 213.617,27.483 214.152,27.438 C214.771,27.385 215.398,27.031 215.471,26.293 C215.496,26.051 215.58,25.986 215.672,25.986 C215.738,25.986 215.852,26.033 215.852,26.174 C215.852,26.313 215.76,27.131 215.76,27.887 C215.76,28.641 215.84,29.375 215.84,29.537 C215.84,29.727 215.764,29.807 215.658,29.807 C215.525,29.807 215.473,29.639 215.439,29.496 C215.275,28.787 215.141,28.432 213.805,28.293 C213.178,28.225 211.58,28.233 211.184,28.233 C211.041,28.233 211.021,28.275 211.021,28.395 L211.021,30.457 C211.021,31.25 211.021,33.6 211.045,34.09 C211.084,35.045 211.084,36.232 213.666,36.232 C214.271,36.232 215.313,36.238 215.945,35.803 C216.395,35.496 216.49,35.152 216.75,34.742 C216.889,34.522 216.977,34.379 217.092,34.379 C217.26,34.379 217.225,34.609 217.156,34.844 C217.012,35.355 216.906,35.777 216.74,36.52 C216.711,36.652 216.701,36.885 216.664,37.057 C216.627,37.172 216.574,37.17 216.287,37.172 C215.635,37.178 214.246,37.061 213.848,37.061 L210.051,37.061 C209.064,37.061 208.438,37.158 207.738,37.178 C207.484,37.178 207.348,37.145 207.348,36.992 C207.348,36.924 207.393,36.809 207.533,36.809 C207.74,36.809 207.773,36.807 207.984,36.758 C208.205,36.715 208.451,36.594 208.576,36.354 C208.775,35.977 208.805,35.791 208.861,35.377 C208.977,34.399 209.016,32.684 209.016,30.457 L209.016,26.367" id="Fill-84" fill-rule="nonzero"></path>
            <path fill="#000" d="M227.77,30.358 C227.77,32.578 227.832,34.158 227.947,35.133 C228.016,35.803 228.01,35.918 228.293,36.365 C228.484,36.668 228.896,36.799 229.266,36.834 C229.402,36.848 229.449,36.93 229.449,37.02 C229.449,37.094 229.334,37.191 229.08,37.178 C227.781,37.098 227.619,37.08 226.908,37.08 C226.279,37.08 225.633,37.09 224.623,37.174 C224.367,37.195 224.188,37.152 224.188,37.014 C224.188,36.9 224.26,36.842 224.439,36.83 C224.875,36.799 225.299,36.524 225.455,36.121 C225.539,35.9 225.592,35.684 225.67,35.133 C225.785,34.16 225.771,32.58 225.771,30.358 L225.764,20.973 L223.094,21.018 C222.531,21.027 221.908,21.133 221.365,21.27 C221.111,21.33 220.908,21.406 220.787,21.518 C220.584,21.711 220.436,21.852 220.297,22.174 C220.229,22.359 220.111,22.406 220.016,22.406 C219.949,22.406 219.813,22.33 219.854,22.199 C219.928,21.955 220.346,20.5 220.408,20.297 C220.49,20.033 220.541,19.82 220.574,19.518 C220.594,19.336 220.77,19.32 220.891,19.414 C220.969,19.477 221.063,19.568 221.162,19.633 C221.34,19.74 221.541,19.711 221.771,19.732 C221.967,19.75 222.293,19.77 222.504,19.773 C223.029,19.785 223.406,19.795 223.604,19.795 L230.9,19.795 C231.506,19.795 231.482,19.795 232.373,19.779 C232.871,19.77 233.266,19.531 233.357,19.5 C233.551,19.439 233.701,19.541 233.619,19.709 C233.561,19.83 233.502,19.988 233.482,20.053 C233.322,20.6 233.096,21.791 233.018,22.402 C232.994,22.609 232.951,22.705 232.809,22.705 C232.662,22.705 232.586,22.635 232.564,22.311 L232.539,22.057 C232.311,21.195 231.488,21.049 230.025,21.018 L227.771,20.973 L227.77,30.358" id="Fill-85" fill-rule="nonzero"></path>
            <path fill="#000" d="M177.365,36.934 C176.863,36.943 176.447,36.867 176.109,36.461 C175.908,36.219 175.736,35.883 175.678,35.385 C175.586,34.608 175.594,34.266 175.563,33.77 C175.502,32.777 175.543,32.701 175.543,30.49 L175.543,26.291 C175.543,23.65 175.646,22.975 175.67,22.402 C175.678,22.199 175.752,21.818 175.813,21.555 C175.926,21.057 176.229,20.434 176.621,20.322 C176.889,20.244 176.83,20.242 176.99,20.242 C177.084,20.242 177.229,20.205 177.229,20.053 C177.229,19.951 177.094,19.883 176.84,19.904 C176.082,19.965 175.283,20.006 174.627,20.006 C173.887,20.006 173.08,19.975 172.338,19.9 C172.086,19.875 171.973,19.963 171.973,20.053 C171.973,20.154 172.1,20.242 172.191,20.242 C172.354,20.242 172.361,20.234 172.617,20.281 C173.266,20.402 173.582,21.539 173.582,22.059 C173.582,22.402 173.615,22.701 173.615,26.291 L173.605,31.166 C173.623,33.15 173.078,33.899 172.068,34.844 C171.254,35.604 170.061,36.393 168.33,36.481 C167.342,36.531 166.066,36.291 165.02,35.428 C163.629,34.289 163.258,33.389 163.258,29.953 L163.361,26.568 C163.361,22.979 163.404,22.762 163.404,22.023 C163.404,21.08 163.668,20.68 164.07,20.406 C164.193,20.32 164.496,20.262 164.645,20.262 C164.738,20.262 164.822,20.205 164.822,20.078 C164.822,19.943 164.719,19.881 164.465,19.9 C163.729,19.953 163.043,19.994 162.352,19.994 C161.77,19.994 161.16,19.943 160.129,19.9 C159.877,19.889 159.643,19.938 159.643,20.064 C159.643,20.188 159.727,20.252 159.836,20.262 C160.029,20.283 160.18,20.305 160.361,20.354 C160.988,20.59 161.33,21.078 161.383,21.922 C161.426,22.66 161.35,22.979 161.35,26.568 L161.35,30.076 C161.35,33.363 161.773,34.584 162.855,35.774 C163.953,36.979 165.473,37.59 167.824,37.59 C170.307,37.59 172.471,35.963 173.5,34.518 C173.453,35.211 173.303,36.826 173.264,37.307 C174.129,37.231 174.699,37.246 175.164,37.246 C175.586,37.246 175.867,37.231 177.18,37.311 C177.432,37.328 177.551,37.248 177.551,37.133 C177.551,37.014 177.502,36.934 177.365,36.934" id="Fill-86" fill-rule="nonzero"></path>
            <path fill="#000" d="M181,36.072 C180.838,35.957 180.928,35.742 181.063,35.191 C181.287,34.258 181.229,34.115 181.305,33.516 C181.338,33.258 181.449,33.129 181.527,33.141 C181.604,33.15 181.695,33.213 181.721,33.398 C181.836,34.336 181.986,35.279 183.047,36.092 C183.674,36.578 184.443,36.701 185.143,36.701 C187.279,36.701 188.672,35.275 188.672,33.51 C188.672,31.898 188.018,31.205 186.004,29.549 L184.691,28.566 C182.242,26.815 181.271,25.746 181.271,23.705 C181.271,21.416 182.838,19.744 185.883,19.744 C186.785,19.744 187.225,19.846 187.912,20.033 C188.32,20.145 188.807,20.371 189.08,20.572 C189.184,20.65 189.193,20.721 189.186,20.863 C189.148,21.551 189.148,21.93 189.203,22.649 C189.23,23.021 189.176,23.15 189.053,23.15 C188.914,23.15 188.861,23.031 188.822,22.85 C188.695,22.233 188.592,22.012 188.375,21.744 C187.627,20.83 186.785,20.523 185.41,20.523 C183.754,20.523 182.764,21.523 182.764,22.965 C182.764,24.408 184.629,25.934 185.779,26.721 L186.662,27.315 C189.332,29.277 190.42,30.172 190.42,32.65 C190.42,35.152 188.773,37.529 185.184,37.529 C183.014,37.529 182.078,36.844 181,36.072" id="Fill-87" fill-rule="nonzero"></path>
            <path fill="#000" d="M99.453,26.822 C99.453,23.209 99.379,22.559 99.333,21.818 C99.292,21.109 99.005,20.59 98.548,20.346 C98.319,20.221 98.133,20.256 98.03,20.256 C97.937,20.256 97.843,20.172 97.843,20.082 C97.843,19.947 97.96,19.875 98.214,19.893 C99.265,19.955 99.942,20.014 100.443,20.014 C101.106,20.014 101.944,19.943 102.677,19.889 C102.931,19.871 103.048,19.947 103.048,20.082 C103.048,20.172 102.953,20.266 102.862,20.266 C102.699,20.266 102.75,20.242 102.474,20.285 C102.039,20.352 101.55,21.201 101.512,21.85 C101.466,22.592 101.334,23.209 101.334,26.822 L101.334,28.076 C101.334,28.215 101.385,28.256 101.499,28.135 C102.229,27.365 106.046,23.473 106.845,22.608 C107.493,21.936 107.632,21.453 107.632,21.061 C107.632,20.623 107.545,20.299 106.887,20.279 C106.762,20.273 106.641,20.217 106.641,20.078 C106.641,19.965 106.757,19.904 106.92,19.908 C107.505,19.918 108.463,19.998 109.263,20.01 C109.994,20.02 110.814,19.947 111.412,19.908 C111.668,19.889 111.759,19.959 111.759,20.07 C111.759,20.186 111.69,20.279 111.505,20.279 C111.086,20.279 110.462,20.66 109.947,21.061 C109.127,21.695 109.183,21.762 108.142,22.758 C107.562,23.315 103.956,27.014 103.367,27.582 C103.218,27.727 103.26,27.795 103.429,28.031 C104.28,29.211 109.105,34.996 110.264,36.242 C110.688,36.705 111.196,36.836 111.513,36.895 C111.645,36.92 111.813,36.945 111.813,37.08 C111.813,37.189 111.703,37.268 111.175,37.211 C110.649,37.156 109.891,37.137 109.891,37.137 C109.146,37.086 109.146,37.115 108.174,37.189 C107.722,37.225 107.783,36.904 107.687,36.703 C107.606,36.531 107.497,36.391 107.433,36.291 C106.884,35.455 106.824,35.342 106.642,35.094 C105.054,32.926 103.211,30.789 101.944,29.268 C101.902,29.215 101.844,29.172 101.753,29.082 C101.64,28.969 101.615,28.994 101.519,29.092 C101.438,29.172 101.334,29.268 101.334,29.268 L101.352,30.74 C101.352,32.963 101.408,34.309 101.525,35.279 C101.559,35.596 101.809,36.514 102.296,36.717 C102.504,36.803 102.681,36.824 102.888,36.82 C103.027,36.82 103.058,36.92 103.058,37.012 C103.058,37.127 102.956,37.187 102.702,37.18 C101.565,37.146 101.223,37.068 100.539,37.068 C99.757,37.068 99.021,37.15 98.2,37.184 C97.945,37.195 97.83,37.123 97.83,37.031 C97.83,36.92 97.875,36.824 98.013,36.824 C98.224,36.824 98.322,36.848 98.519,36.77 C99.06,36.559 99.219,35.871 99.278,35.455 C99.394,34.483 99.418,32.981 99.462,30.74 L99.453,26.822" id="Fill-88" fill-rule="nonzero"></path>
        </g>
    </g>
</svg>
