<svg viewBox="0 0 489 28" version="1.1" xmlns="http://www.w3.org/2000/svg" xmlns:xlink="http://www.w3.org/1999/xlink">
  <g stroke="none" stroke-width="1" fill="none" fill-rule="evenodd">
    <path fill="currentColor" d="M39.565,7.76 C39.953,6.695 40.152,5.814 40.162,5.115 C40.172,4.416 39.953,3.767 39.505,3.168 C39.138,2.591 38.662,2.147 38.077,1.838 C37.492,1.527 36.696,1.304 35.691,1.171 C34.684,1.039 33.434,0.955 31.937,0.921 C30.44,0.889 28.117,0.872 24.967,0.872 C21.818,0.872 19.481,0.889 17.96,0.921 C16.44,0.955 15.117,1.039 13.993,1.171 C12.868,1.304 11.895,1.527 11.072,1.838 C10.249,2.147 9.443,2.591 8.657,3.168 C7.775,3.767 7.082,4.416 6.584,5.115 C6.086,5.814 5.643,6.695 5.256,7.76 L0.616,20.505 C0.228,21.57 0.024,22.47 0.002,23.201 C-0.022,23.932 0.191,24.599 0.64,25.198 C1.036,25.752 1.524,26.179 2.103,26.478 C2.681,26.779 3.489,27.001 4.523,27.145 C5.557,27.29 6.843,27.383 8.38,27.427 C9.916,27.472 12.183,27.494 15.178,27.494 C18.173,27.494 20.465,27.472 22.057,27.427 C23.648,27.383 25.008,27.29 26.138,27.145 C27.265,27.001 28.245,26.779 29.075,26.478 C29.905,26.179 30.709,25.752 31.488,25.198 C32.371,24.599 33.068,23.932 33.578,23.201 C34.089,22.47 34.538,21.57 34.925,20.505 C35.845,17.976 36.932,14.993 38.184,11.554 L39.565,7.76 Z M31.932,8.891 L28.08,19.473 C27.927,19.897 27.593,20.245 27.083,20.522 C26.571,20.8 25.884,20.937 25.018,20.937 L10.21,20.937 C9.278,20.937 8.684,20.834 8.428,20.623 C8.173,20.412 8.144,20.029 8.346,19.473 L12.198,8.891 C12.375,8.404 12.7,8.015 13.171,7.728 C13.642,7.438 14.311,7.294 15.174,7.294 L30.083,7.294 C31.015,7.294 31.612,7.406 31.876,7.627 C32.139,7.85 32.158,8.27 31.932,8.891 L31.932,8.891 Z M50.406,12.352 L52.161,7.527 L71.428,7.527 L73.767,1.105 L53.819,1.105 C46.342,1.105 44.102,7.268 44.102,7.268 L36.825,27.261 L44.978,27.261 L48.201,18.41 L66.437,18.41 L68.641,12.352 L50.406,12.352 Z M83.509,7.527 L102.777,7.527 L105.115,1.105 L85.167,1.105 C77.689,1.105 75.451,7.268 75.451,7.268 L68.173,27.261 L76.327,27.261 L79.548,18.41 L97.785,18.41 L99.989,12.352 L81.752,12.352 L83.509,7.527 Z M109.607,1.105 L100.086,27.261 L108.24,27.261 L117.759,1.105 L109.607,1.105 Z M123.56,20.505 C123.298,20.218 123.257,19.828 123.434,19.34 L124.085,17.277 L126.339,11.088 L127.225,8.925 C127.371,8.525 127.681,8.192 128.155,7.927 C128.628,7.661 129.252,7.527 130.03,7.527 L151.627,7.527 L153.966,1.105 L131.468,1.105 C128.586,1.105 126.228,1.715 124.397,2.935 C122.567,4.156 121.215,5.964 120.344,8.36 C120.318,8.427 119.862,9.68 118.975,12.119 L117.473,16.247 C116.585,18.687 116.124,19.951 116.092,20.039 C115.228,22.414 115.267,24.211 116.209,25.431 C117.151,26.65 119.065,27.261 121.949,27.261 L144.445,27.261 L146.746,20.937 L125.15,20.937 C124.351,20.937 123.82,20.794 123.56,20.505 L123.56,20.505 Z M185.205,7.161 L187.409,1.105 L158.725,1.105 L149.204,27.261 L177.889,27.261 L180.106,21.17 L159.573,21.17 L161.148,16.845 L180.416,16.845 L182.341,11.554 L163.073,11.554 L164.672,7.161 L185.205,7.161 L185.205,7.161 Z"></path>
    <path fill="currentColor" d="M227.078,5.297 C227.09,4.255 226.821,3.43 226.267,2.818 C225.712,2.209 224.872,1.77 223.749,1.505 C222.625,1.238 221.144,1.105 219.304,1.105 L205.582,1.105 C197.636,1.105 195.362,7.268 195.362,7.268 L188.085,27.261 L196.238,27.261 L203.385,7.627 L216.331,7.627 C217.128,7.627 217.737,7.877 218.154,8.376 C218.571,8.876 218.637,9.513 218.355,10.289 C218.032,11.177 217.475,11.854 216.685,12.32 C215.894,12.786 215.088,13.019 214.268,13.019 L204.031,13.019 L202.283,17.82 L206.113,17.82 L213.111,27.261 L222.161,27.261 L214.858,17.976 L214.907,17.844 C216.46,17.844 217.809,17.689 218.953,17.378 C220.098,17.066 221.101,16.578 221.965,15.913 C222.829,15.248 223.603,14.372 224.287,13.284 C224.971,12.197 225.605,10.855 226.185,9.258 C226.767,7.661 227.064,6.341 227.078,5.297 L227.078,5.297 Z M240.726,7.161 L261.258,7.161 L263.462,1.105 L234.777,1.105 L225.256,27.261 L253.943,27.261 L256.159,21.17 L235.626,21.17 L237.201,16.845 L256.469,16.845 L258.394,11.554 L239.126,11.554 L240.726,7.161 Z M269.301,2.935 C267.471,4.154 266.119,5.964 265.248,8.359 C265.224,8.425 264.766,9.678 263.879,12.119 L262.377,16.247 C261.489,18.687 261.028,19.951 260.996,20.039 C260.132,22.414 260.171,24.211 261.113,25.431 C262.057,26.65 263.971,27.261 266.853,27.261 L289.349,27.261 L291.65,20.937 L270.054,20.937 C269.255,20.937 268.724,20.794 268.464,20.505 C268.202,20.218 268.161,19.828 268.338,19.34 L268.989,17.277 L271.243,11.088 L272.131,8.925 C272.275,8.525 272.585,8.192 273.059,7.927 C273.532,7.661 274.158,7.527 274.935,7.527 L296.531,7.527 L298.87,1.105 L276.374,1.105 C273.49,1.105 271.132,1.715 269.301,2.935 L269.301,2.935 Z M327.64,1.105 L315.257,11.721 L310.602,1.105 L300.817,1.105 L308.78,18.175 L305.474,27.261 L313.661,27.261 L316.966,18.175 L337.422,1.105 L327.64,1.105 Z M339.045,20.505 C338.783,20.218 338.741,19.828 338.919,19.34 L339.569,17.277 L341.822,11.088 L342.71,8.925 C342.855,8.525 343.164,8.192 343.639,7.927 C344.113,7.661 344.737,7.527 345.515,7.527 L367.112,7.527 L369.449,1.105 L346.954,1.105 C344.069,1.105 341.712,1.715 339.882,2.935 C338.05,4.154 336.7,5.964 335.827,8.359 C335.803,8.425 335.348,9.678 334.458,12.119 L332.958,16.247 C332.069,18.687 331.608,19.951 331.577,20.039 C330.711,22.414 330.75,24.211 331.694,25.431 C332.637,26.65 334.55,27.261 337.434,27.261 L359.93,27.261 L362.231,20.937 L340.634,20.937 C339.834,20.937 339.305,20.794 339.045,20.505 L339.045,20.505 Z M382.06,1.105 L373.909,1.105 L364.388,27.261 L390.212,27.261 L392.513,20.937 L374.842,20.937 L382.06,1.105 Z M403.16,1.105 L393.639,27.261 L401.792,27.261 L411.312,1.105 L403.16,1.105 Z M445.146,1.105 L437.962,20.839 L437.95,20.505 L429.306,1.105 L415.994,1.105 L406.51,27.16 L414.198,27.16 L421.392,7.394 L421.407,7.627 L430.137,27.16 L443.349,27.16 L452.832,1.105 L445.146,1.105 Z M461.878,8.891 C462.016,8.515 462.32,8.192 462.795,7.927 C463.269,7.661 463.928,7.527 464.771,7.527 L488.298,7.527 C488.298,7.527 490.657,1.105 482.932,1.105 L466.21,1.105 C463.304,1.105 460.917,1.715 459.055,2.935 C457.191,4.154 455.827,5.952 454.963,8.326 C452.929,13.917 451.466,17.932 450.578,20.373 C450.174,21.482 449.963,22.397 449.946,23.118 C449.927,23.839 450.145,24.487 450.601,25.065 C450.954,25.62 451.408,26.046 451.965,26.346 C452.521,26.645 453.295,26.868 454.284,27.011 C455.274,27.155 456.516,27.249 458.009,27.295 C459.501,27.339 461.69,27.361 464.574,27.361 C467.458,27.361 469.668,27.339 471.203,27.295 C472.739,27.249 474.059,27.155 475.166,27.011 C476.273,26.868 477.231,26.645 478.037,26.346 C478.845,26.046 479.639,25.62 480.418,25.065 C481.235,24.466 481.891,23.807 482.386,23.084 C482.883,22.364 483.328,21.459 483.723,20.373 C484.61,17.932 485.697,14.947 486.981,11.422 L470.01,11.422 L468.217,16.345 L478.1,16.345 L477.01,19.34 C476.848,19.786 476.529,20.145 476.051,20.422 C475.573,20.699 474.901,20.839 474.035,20.839 L459.926,20.839 C458.972,20.839 458.368,20.745 458.115,20.556 C457.863,20.368 457.849,19.961 458.075,19.34 L461.878,8.891 L461.878,8.891 Z"></path>
  </g>
</svg>
