
<svg width="983px" height="115px" viewBox="0 0 983 115" version="1.1" xmlns="http://www.w3.org/2000/svg" xmlns:xlink="http://www.w3.org/1999/xlink">
    <g id="Page-1" stroke="none" stroke-width="1" fill="none" fill-rule="evenodd">
        <g id="Artboard" transform="translate(-27.000000, -105.000000)">
            <g id="Group" transform="translate(27.800000, 107.275000)">
                <g id="Layer_1" transform="translate(873.200000, 0.725000)">
                    <ellipse id="Oval" stroke="#000000" stroke-width="5" cx="82.9076839" cy="86.3619565" rx="22.9005251" ry="22.8668478"></ellipse>
                    <polygon id="Rectangle-path" fill="currentColor" fill-rule="nonzero" points="69.0509643 66.8326955 65.4896225 70.3867889 57.0801288 61.9849106 60.6414706 58.4308171"></polygon>
                    <polygon id="Shape" fill="currentColor" fill-rule="nonzero" points="55.879676 57.2322826 67.8538067 57.2322826 55.879676 69.1888043"></polygon>
                    <ellipse id="Oval" stroke="#000000" stroke-width="5" cx="23.6991996" cy="23.0665217" rx="22.9005251" ry="22.8668478"></ellipse>
                    <polygon id="Rectangle-path" fill="currentColor" fill-rule="nonzero" points="37.5570525 42.5958435 41.1183942 39.0417501 49.5278879 47.4436284 45.9665462 50.9977219"></polygon>
                    <polygon id="Shape" fill="currentColor" fill-rule="nonzero" points="50.7272075 52.1961957 38.7530768 52.1961957 50.7272075 40.2396739"></polygon>
                    <ellipse id="Oval" stroke="#000000" stroke-width="5" cx="23.6991996" cy="86.3619565" rx="22.9005251" ry="22.8668478"></ellipse>
                    <polygon id="Rectangle-path" fill="currentColor" fill-rule="nonzero" points="45.9640377 58.4252603 49.5253795 61.9793538 41.1158858 70.3812321 37.554544 66.8271387"></polygon>
                    <polygon id="Shape" fill="currentColor" fill-rule="nonzero" points="50.7272075 57.2322826 38.7530768 57.2322826 50.7272075 69.1888043"></polygon>
                    <ellipse id="Oval" stroke="#000000" stroke-width="5" cx="82.9076839" cy="23.0665217" rx="22.9005251" ry="22.8668478"></ellipse>
                    <polygon id="Rectangle-path" fill="currentColor" fill-rule="nonzero" points="60.6440988 51.0020811 57.082757 47.4479877 65.4922507 39.0461093 69.0535925 42.6002028"></polygon>
                    <polygon id="Shape" fill="currentColor" fill-rule="nonzero" points="55.879676 52.1961957 67.8538067 52.1961957 55.879676 40.2396739"></polygon>
                </g>
                <path d="M43.4,89.8158917 C42.7,81.8556144 39.8,74.8903717 33.9,72.236946 C41.1,70.2468766 46.9,64.1661092 46.9,54.1052032 C46.9,41.9436684 40.1,35.7523416 29.9,34.3150693 C26.7,33.8728317 24,33.8728317 20.5,33.8728317 L0.2,33.8728317 L0.2,110.158823 L6.4,110.158823 L6.4,75.6642876 L20.5,75.6642876 C22.1,75.6642876 24.1,75.6642876 25.9,75.774847 C33.3,76.2170846 36.3,82.5189708 37.2,90.5898075 C38.2,100.540154 39.4,105.294209 41.1,110.158823 L48,110.158823 C45.6,105.847006 44.4,100.319035 43.4,89.8158917 L43.4,89.8158917 Z M6.4,69.9151984 L6.4,39.6219209 L20.5,39.6219209 C23.8,39.6219209 26,39.7324803 28.4,40.0641585 C35.9,41.280312 40.2,45.7026883 40.2,54.6580002 C40.2,63.6133122 35.2,69.0307231 27.6,69.6940796 C25.3,69.9151984 23.6,69.9151984 20.6,69.9151984 L6.4,69.9151984 Z M66.5,110.158823 L66.5,33.8728317 L60.3,33.8728317 L60.3,110.158823 L66.5,110.158823 Z M100.6,71.0207925 L133.5,33.8728317 L126.1,33.8728317 L90.1,74.3375747 L90.1,33.8728317 L83.9,33.8728317 L83.9,110.158823 L90.1,110.158823 L90.1,82.297852 L95.9,75.5537282 L123.4,110.158823 L132.2,110.158823 L100.6,71.0207925 Z M163.1,32.325 C150.9,32.325 140.7,40.5063961 140.7,52.8890497 C140.7,65.1611439 148.5,70.2468766 161.6,74.0058965 C174.5,77.5437975 179.7,81.745055 179.7,91.5848422 C179.7,100.429595 172.4,106.178684 163.3,106.178684 C153.4,106.178684 145.8,100.097917 144.1,89.1525352 L137.5,89.1525352 C139,103.856936 149.1,111.706654 163.1,111.706654 C176.3,111.706654 186.3,103.083021 186.3,90.4792481 C186.3,77.8754757 178.9,71.6841489 164.1,67.4828914 C152.3,64.1661092 147.4,60.7387676 147.4,51.4517774 C147.4,42.385906 154.7,37.8529704 162.6,37.8529704 C171.7,37.8529704 177.7,43.9337377 178.9,54.326322 L185.4,54.326322 C184.1,41.9436684 176.9,32.325 163.1,32.325 L163.1,32.325 Z M217,71.0207925 L249.9,33.8728317 L242.5,33.8728317 L206.5,74.3375747 L206.5,33.8728317 L200.3,33.8728317 L200.3,110.158823 L206.5,110.158823 L206.5,82.297852 L212.3,75.5537282 L239.8,110.158823 L248.6,110.158823 L217,71.0207925 Z M302.3,89.8158917 C301.6,81.8556144 298.7,74.8903717 292.8,72.236946 C300,70.2468766 305.8,64.1661092 305.8,54.1052032 C305.8,41.9436684 299,35.7523416 288.8,34.3150693 C285.6,33.8728317 282.9,33.8728317 279.4,33.8728317 L259.1,33.8728317 L259.1,110.158823 L265.3,110.158823 L265.3,75.6642876 L279.4,75.6642876 C281,75.6642876 283,75.6642876 284.8,75.774847 C292.2,76.2170846 295.2,82.5189708 296.1,90.5898075 C297.1,100.540154 298.3,105.294209 300,110.158823 L306.9,110.158823 C304.5,105.847006 303.3,100.319035 302.3,89.8158917 L302.3,89.8158917 Z M265.3,69.9151984 L265.3,39.6219209 L279.4,39.6219209 C282.7,39.6219209 284.9,39.7324803 287.3,40.0641585 C294.8,41.280312 299.1,45.7026883 299.1,54.6580002 C299.1,63.6133122 294.1,69.0307231 286.5,69.6940796 C284.2,69.9151984 282.5,69.9151984 279.5,69.9151984 L265.3,69.9151984 Z M325.4,110.158823 L325.4,33.8728317 L319.2,33.8728317 L319.2,110.158823 L325.4,110.158823 Z M363.2,32.325 C351,32.325 340.8,40.5063961 340.8,52.8890497 C340.8,65.1611439 348.6,70.2468766 361.7,74.0058965 C374.6,77.5437975 379.8,81.745055 379.8,91.5848422 C379.8,100.429595 372.5,106.178684 363.4,106.178684 C353.5,106.178684 345.9,100.097917 344.2,89.1525352 L337.6,89.1525352 C339.1,103.856936 349.2,111.706654 363.2,111.706654 C376.4,111.706654 386.4,103.083021 386.4,90.4792481 C386.4,77.8754757 379,71.6841489 364.2,67.4828914 C352.4,64.1661092 347.5,60.7387676 347.5,51.4517774 C347.5,42.385906 354.8,37.8529704 362.7,37.8529704 C371.8,37.8529704 377.8,43.9337377 379,54.326322 L385.5,54.326322 C384.2,41.9436684 377,32.325 363.2,32.325 L363.2,32.325 Z M427.5,32.325 C408.6,32.325 395.4,48.9089111 395.4,72.3475054 C395.4,95.5649808 407.2,111.706654 426.1,111.706654 C443.7,111.706654 452.7,99.987357 454.5,85.9463124 L454.6,84.8407184 L448.4,84.8407184 L448.2,85.9463124 C446.1,97.6656096 439.3,106.178684 426.5,106.178684 C412.5,106.178684 402.3,93.2432333 402.3,72.0158271 C402.3,51.2306586 413,37.8529704 427.2,37.8529704 C439.5,37.8529704 446.4,46.0343665 448.5,57.6431042 L448.7,58.7486983 L454.9,58.7486983 L454.8,57.6431042 C453,43.1598219 444.1,32.325 427.5,32.325 L427.5,32.325 Z M514.2,104.520293 L475.7,104.520293 L475.7,74.8903717 L510.6,74.8903717 L510.6,69.1412826 L475.7,69.1412826 L475.7,39.5113615 L513.2,39.5113615 L513.2,33.8728317 L469.5,33.8728317 L469.5,110.158823 L514.2,110.158823 L514.2,104.520293 Z M578.4,110.158823 L578.3,33.8728317 L572.2,33.8728317 L572.2,73.2319806 C572.2,82.7400896 572.3,94.0171491 572.5,103.525258 L536.5,33.8728317 L527.1,33.8728317 L527.1,110.158823 L533.3,110.158823 L533.3,70.7996737 C533.3,61.2915647 533.2,49.9039457 533,40.5063961 L568.9,110.158823 L578.4,110.158823 Z M646.1,39.5113615 L646.1,33.8728317 L589.3,33.8728317 L589.3,39.5113615 L614.6,39.5113615 L614.6,110.158823 L620.8,110.158823 L620.8,39.5113615 L646.1,39.5113615 Z M699.1,89.8158917 C698.4,81.8556144 695.5,74.8903717 689.6,72.236946 C696.8,70.2468766 702.6,64.1661092 702.6,54.1052032 C702.6,41.9436684 695.8,35.7523416 685.6,34.3150693 C682.4,33.8728317 679.7,33.8728317 676.2,33.8728317 L655.9,33.8728317 L655.9,110.158823 L662.1,110.158823 L662.1,75.6642876 L676.2,75.6642876 C677.8,75.6642876 679.8,75.6642876 681.6,75.774847 C689,76.2170846 692,82.5189708 692.9,90.5898075 C693.9,100.540154 695.1,105.294209 696.8,110.158823 L703.7,110.158823 C701.3,105.847006 700.1,100.319035 699.1,89.8158917 L699.1,89.8158917 Z M662.1,69.9151984 L662.1,39.6219209 L676.2,39.6219209 C679.5,39.6219209 681.7,39.7324803 684.1,40.0641585 C691.6,41.280312 695.9,45.7026883 695.9,54.6580002 C695.9,63.6133122 690.9,69.0307231 683.3,69.6940796 C681,69.9151984 679.3,69.9151984 676.3,69.9151984 L662.1,69.9151984 Z M764.4,33.8728317 L758.2,33.8728317 L758.2,82.5189708 C758.2,84.9512778 758.1,87.1624659 757.9,89.2630946 C757.1,98.8817631 751.4,106.178684 739.9,106.178684 C728.3,106.178684 722.6,98.8817631 721.8,89.2630946 C721.6,87.1624659 721.6,84.9512778 721.6,82.5189708 L721.6,33.8728317 L715.4,33.8728317 L715.4,82.850649 C715.4,85.0618372 715.4,87.2730253 715.6,89.9264511 C716.5,102.309105 724.1,111.706654 739.9,111.706654 C755.6,111.706654 763.3,102.309105 764.1,89.9264511 C764.3,87.2730253 764.4,85.0618372 764.4,82.850649 L764.4,33.8728317 Z M847.6,33.8728317 L837.7,33.8728317 L814.5,104.409733 L791.2,33.8728317 L781.1,33.8728317 L781.1,110.158823 L787.3,110.158823 L787.3,69.0307231 C787.3,59.5226141 787.3,48.9089111 787.1,40.0641585 C789.7,48.7983517 793.2,59.5226141 796.3,68.8096043 L810.4,110.158823 L818.2,110.158823 L832.2,68.9201637 C835.4,59.5226141 838.9,48.7983517 841.6,39.9535991 C841.4,48.7983517 841.4,59.4120547 841.4,69.0307231 L841.4,110.158823 L847.6,110.158823 L847.6,33.8728317 Z" id="RIKSKRISCENTRUM" fill="currentColor" fill-rule="nonzero"></path>
                <path d="M6.55,3.125 C3.375,3.125 0.8,5 0.8,7.975 C0.8,10.825 2.925,12.05 5.975,12.75 C9,13.45 10.2,14.4 10.2,16.5 C10.2,18.3 8.6,19.375 6.625,19.375 C4.375,19.375 2.8,18.1 2.3,15.825 L0,15.825 C0.375,19.15 2.775,21.075 6.575,21.075 C9.9,21.075 12.5,19.125 12.5,16.1 C12.5,13.175 10.6,11.625 6.8,10.75 C4.175,10.15 3.1,9.35 3.1,7.475 C3.1,5.675 4.55,4.825 6.375,4.825 C8.55,4.825 9.825,6.075 10.025,8.25 L12.325,8.25 C12,5.3 10.125,3.125 6.55,3.125 L6.55,3.125 Z M29.1749998,20.725 L35.3749998,3.475 L33.0749998,3.475 L27.7749998,19.1 L22.6499998,3.475 L20.3249998,3.475 L26.2749998,20.725 L29.1749998,20.725 Z M55.2499996,18.975 L45.9249996,18.975 L45.9249996,12.975 L54.2499996,12.975 L54.2499996,11.225 L45.9249996,11.225 L45.9249996,5.225 L54.9999996,5.225 L54.9999996,3.475 L43.7749996,3.475 L43.7749996,20.725 L55.2499996,20.725 L55.2499996,18.975 Z M75.9999994,16.2 C75.8499994,14.475 75.1749994,12.9 73.7749994,12.25 C75.3749994,11.75 76.8499994,10.45 76.8499994,8.175 C76.8499994,5.275 75.0499994,3.9 72.5499994,3.575 C71.7749994,3.475 71.1749994,3.475 70.2999994,3.475 L64.6499994,3.475 L64.6499994,20.725 L66.7999994,20.725 L66.7999994,13.3 L70.0499994,13.3 C70.4499994,13.3 70.8749994,13.3 71.2749994,13.325 C72.9749994,13.45 73.6499994,14.625 73.8499994,16.4 C74.0749994,18.525 74.2999994,19.625 74.7749994,20.725 L77.1499994,20.725 C76.4499994,19.8 76.1999994,18.45 75.9999994,16.2 L75.9999994,16.2 Z M66.7999994,11.55 L66.7999994,5.225 L70.2999994,5.225 C71.0749994,5.225 71.5499994,5.25 72.0249994,5.325 C73.6249994,5.575 74.5499994,6.45 74.5499994,8.375 C74.5499994,10.325 73.3749994,11.35 71.7749994,11.5 C71.2999994,11.55 70.8749994,11.55 70.0999994,11.55 L66.7999994,11.55 Z M88.4749992,20.725 L88.4749992,3.475 L86.3249992,3.475 L86.3249992,20.725 L88.4749992,20.725 Z M106.599999,12.4 L106.599999,14.15 L110.624999,14.15 C110.624999,17.225 108.549999,19.375 105.749999,19.375 C102.349999,19.375 100.199999,16.325 100.199999,12.075 C100.199999,7.9 102.374999,4.825 105.899999,4.825 C108.774999,4.825 110.299999,6.5 110.799999,8.975 L110.849999,9.225 L112.999999,9.225 L112.974999,8.975 C112.624999,5.6 110.324999,3.125 105.949999,3.125 C101.049999,3.125 97.799999,6.925 97.799999,12.175 C97.799999,17.225 100.599999,21.075 105.624999,21.075 C107.599999,21.075 109.124999,20.425 110.099999,19.325 L110.874999,17.725 L110.874999,20.725 L112.774999,20.725 L112.774999,12.4 L106.599999,12.4 Z M134.549999,18.975 L125.224999,18.975 L125.224999,12.975 L133.549999,12.975 L133.549999,11.225 L125.224999,11.225 L125.224999,5.225 L134.299999,5.225 L134.299999,3.475 L123.074999,3.475 L123.074999,20.725 L134.549999,20.725 L134.549999,18.975 Z M149.299999,3.125 C146.124999,3.125 143.549999,5 143.549999,7.975 C143.549999,10.825 145.674999,12.05 148.724999,12.75 C151.749999,13.45 152.949999,14.4 152.949999,16.5 C152.949999,18.3 151.349999,19.375 149.374999,19.375 C147.124999,19.375 145.549999,18.1 145.049999,15.825 L142.749999,15.825 C143.124999,19.15 145.524999,21.075 149.324999,21.075 C152.649999,21.075 155.249999,19.125 155.249999,16.1 C155.249999,13.175 153.349999,11.625 149.549999,10.75 C146.924999,10.15 145.849999,9.35 145.849999,7.475 C145.849999,5.675 147.299999,4.825 149.124999,4.825 C151.299999,4.825 152.574999,6.075 152.774999,8.25 L155.074999,8.25 C154.749999,5.3 152.874999,3.125 149.299999,3.125 L149.299999,3.125 Z M183.974998,3.575 C183.199998,3.475 182.599998,3.475 181.724998,3.475 L176.374998,3.475 L176.374998,20.725 L178.524998,20.725 L178.524998,13.675 L181.724998,13.675 C182.599998,13.675 183.199998,13.675 183.974998,13.575 C186.474998,13.25 188.449998,11.5 188.449998,8.575 C188.449998,5.65 186.724998,3.925 183.974998,3.575 L183.974998,3.575 Z M183.849998,11.75 C183.374998,11.85 182.699998,11.875 181.924998,11.875 L178.524998,11.875 L178.524998,5.275 L181.924998,5.275 C182.699998,5.275 183.374998,5.3 183.849998,5.4 C185.074998,5.675 186.149998,6.575 186.149998,8.575 C186.149998,10.575 185.074998,11.475 183.849998,11.75 L183.849998,11.75 Z M208.874998,16.2 C208.724998,14.475 208.049998,12.9 206.649998,12.25 C208.249998,11.75 209.724998,10.45 209.724998,8.175 C209.724998,5.275 207.924998,3.9 205.424998,3.575 C204.649998,3.475 204.049998,3.475 203.174998,3.475 L197.524998,3.475 L197.524998,20.725 L199.674998,20.725 L199.674998,13.3 L202.924998,13.3 C203.324998,13.3 203.749998,13.3 204.149998,13.325 C205.849998,13.45 206.524998,14.625 206.724998,16.4 C206.949998,18.525 207.174998,19.625 207.649998,20.725 L210.024998,20.725 C209.324998,19.8 209.074998,18.45 208.874998,16.2 L208.874998,16.2 Z M199.674998,11.55 L199.674998,5.225 L203.174998,5.225 C203.949998,5.225 204.424998,5.25 204.899998,5.325 C206.499998,5.575 207.424998,6.45 207.424998,8.375 C207.424998,10.325 206.249998,11.35 204.649998,11.5 C204.174998,11.55 203.749998,11.55 202.974998,11.55 L199.674998,11.55 Z M226.024998,3.125 C220.774998,3.125 217.874998,6.825 217.874998,12.1 C217.874998,17.35 220.774998,21.075 226.024998,21.075 C231.274998,21.075 234.174998,17.35 234.174998,12.1 C234.174998,6.825 231.274998,3.125 226.024998,3.125 L226.024998,3.125 Z M226.024998,19.375 C222.399998,19.375 220.274998,16.575 220.274998,12.1 C220.274998,7.6 222.399998,4.825 226.024998,4.825 C229.649998,4.825 231.774998,7.6 231.774998,12.1 C231.774998,16.575 229.649998,19.375 226.024998,19.375 L226.024998,19.375 Z M245.974998,5.225 L255.049998,5.225 L255.049998,3.475 L243.824998,3.475 L243.824998,20.725 L245.974998,20.725 L245.974998,12.975 L254.049998,12.975 L254.049998,11.225 L245.974998,11.225 L245.974998,5.225 Z M275.674998,18.975 L266.349998,18.975 L266.349998,12.975 L274.674998,12.975 L274.674998,11.225 L266.349998,11.225 L266.349998,5.225 L275.424998,5.225 L275.424998,3.475 L264.199998,3.475 L264.199998,20.725 L275.674998,20.725 L275.674998,18.975 Z M290.424997,3.125 C287.249997,3.125 284.674997,5 284.674997,7.975 C284.674997,10.825 286.799997,12.05 289.849997,12.75 C292.874997,13.45 294.074997,14.4 294.074997,16.5 C294.074997,18.3 292.474997,19.375 290.499997,19.375 C288.249997,19.375 286.674997,18.1 286.174997,15.825 L283.874997,15.825 C284.249997,19.15 286.649997,21.075 290.449997,21.075 C293.774997,21.075 296.374997,19.125 296.374997,16.1 C296.374997,13.175 294.474997,11.625 290.674997,10.75 C288.049997,10.15 286.974997,9.35 286.974997,7.475 C286.974997,5.675 288.424997,4.825 290.249997,4.825 C292.424997,4.825 293.699997,6.075 293.899997,8.25 L296.199997,8.25 C295.874997,5.3 293.999997,3.125 290.424997,3.125 L290.424997,3.125 Z M311.249997,3.125 C308.074997,3.125 305.499997,5 305.499997,7.975 C305.499997,10.825 307.624997,12.05 310.674997,12.75 C313.699997,13.45 314.899997,14.4 314.899997,16.5 C314.899997,18.3 313.299997,19.375 311.324997,19.375 C309.074997,19.375 307.499997,18.1 306.999997,15.825 L304.699997,15.825 C305.074997,19.15 307.474997,21.075 311.274997,21.075 C314.599997,21.075 317.199997,19.125 317.199997,16.1 C317.199997,13.175 315.299997,11.625 311.499997,10.75 C308.874997,10.15 307.799997,9.35 307.799997,7.475 C307.799997,5.675 309.249997,4.825 311.074997,4.825 C313.249997,4.825 314.524997,6.075 314.724997,8.25 L317.024997,8.25 C316.699997,5.3 314.824997,3.125 311.249997,3.125 L311.249997,3.125 Z M328.874997,20.725 L328.874997,3.475 L326.724997,3.475 L326.724997,20.725 L328.874997,20.725 Z M346.349997,3.125 C341.099997,3.125 338.199997,6.825 338.199997,12.1 C338.199997,17.35 341.099997,21.075 346.349997,21.075 C351.599997,21.075 354.499997,17.35 354.499997,12.1 C354.499997,6.825 351.599997,3.125 346.349997,3.125 L346.349997,3.125 Z M346.349997,19.375 C342.724997,19.375 340.599997,16.575 340.599997,12.1 C340.599997,7.6 342.724997,4.825 346.349997,4.825 C349.974997,4.825 352.099997,7.6 352.099997,12.1 C352.099997,16.575 349.974997,19.375 346.349997,19.375 L346.349997,19.375 Z M377.649997,20.725 L377.599997,3.475 L375.499997,3.475 L375.499997,12.1 C375.499997,14.125 375.524997,16.6 375.574997,18.625 L367.449997,3.475 L364.149997,3.475 L364.149997,20.725 L366.299997,20.725 L366.299997,12.1 C366.299997,10.075 366.274997,7.6 366.224997,5.575 L374.349997,20.725 L377.649997,20.725 Z M399.774996,18.975 L390.449996,18.975 L390.449996,12.975 L398.774996,12.975 L398.774996,11.225 L390.449996,11.225 L390.449996,5.225 L399.524996,5.225 L399.524996,3.475 L388.299996,3.475 L388.299996,20.725 L399.774996,20.725 L399.774996,18.975 Z M420.649996,18.975 L411.324996,18.975 L411.324996,3.475 L409.174996,3.475 L409.174996,20.725 L420.649996,20.725 L420.649996,18.975 Z M441.224996,18.975 L431.899996,18.975 L431.899996,3.475 L429.749996,3.475 L429.749996,20.725 L441.224996,20.725 L441.224996,18.975 Z M459.224996,14.625 L461.274996,20.725 L463.599996,20.725 L457.649996,3.475 L454.749996,3.475 L448.549996,20.725 L450.849996,20.725 L452.874996,14.625 L459.224996,14.625 Z M453.474996,12.875 L456.149996,5.175 L458.649996,12.875 L453.474996,12.875 Z M489.474995,11.9 L497.299995,3.475 L494.774995,3.475 L486.249995,12.65 L486.249995,3.475 L484.099995,3.475 L484.099995,20.725 L486.249995,20.725 L486.249995,15.125 L487.899995,13.35 L493.824995,20.725 L496.849995,20.725 L489.474995,11.9 Z M516.874995,16.2 C516.724995,14.475 516.049995,12.9 514.649995,12.25 C516.249995,11.75 517.724995,10.45 517.724995,8.175 C517.724995,5.275 515.924995,3.9 513.424995,3.575 C512.649995,3.475 512.049995,3.475 511.174995,3.475 L505.524995,3.475 L505.524995,20.725 L507.674995,20.725 L507.674995,13.3 L510.924995,13.3 C511.324995,13.3 511.749995,13.3 512.149995,13.325 C513.849995,13.45 514.524995,14.625 514.724995,16.4 C514.949995,18.525 515.174995,19.625 515.649995,20.725 L518.024995,20.725 C517.324995,19.8 517.074995,18.45 516.874995,16.2 L516.874995,16.2 Z M507.674995,11.55 L507.674995,5.225 L511.174995,5.225 C511.949995,5.225 512.424995,5.25 512.899995,5.325 C514.499995,5.575 515.424995,6.45 515.424995,8.375 C515.424995,10.325 514.249995,11.35 512.649995,11.5 C512.174995,11.55 511.749995,11.55 510.974995,11.55 L507.674995,11.55 Z M529.349995,20.725 L529.349995,3.475 L527.199995,3.475 L527.199995,20.725 L529.349995,20.725 Z M545.349995,3.125 C542.174995,3.125 539.599995,5 539.599995,7.975 C539.599995,10.825 541.724995,12.05 544.774995,12.75 C547.799995,13.45 548.999995,14.4 548.999995,16.5 C548.999995,18.3 547.399995,19.375 545.424995,19.375 C543.174995,19.375 541.599995,18.1 541.099995,15.825 L538.799995,15.825 C539.174995,19.15 541.574995,21.075 545.374995,21.075 C548.699995,21.075 551.299995,19.125 551.299995,16.1 C551.299995,13.175 549.399995,11.625 545.599995,10.75 C542.974995,10.15 541.899995,9.35 541.899995,7.475 C541.899995,5.675 543.349995,4.825 545.174995,4.825 C547.349995,4.825 548.624995,6.075 548.824995,8.25 L551.124995,8.25 C550.799995,5.3 548.924995,3.125 545.349995,3.125 L545.349995,3.125 Z M567.649995,3.125 C562.749995,3.125 559.499995,6.925 559.499995,12.175 C559.499995,17.225 562.299995,21.075 567.324995,21.075 C571.874995,21.075 574.199995,18.35 574.524995,15.225 L574.549995,14.975 L572.399995,14.975 L572.349995,15.225 C571.849995,17.7 570.324995,19.375 567.449995,19.375 C564.049995,19.375 561.899995,16.325 561.899995,12.075 C561.899995,7.9 564.074995,4.825 567.599995,4.825 C570.474995,4.825 571.999995,6.5 572.499995,8.975 L572.549995,9.225 L574.699995,9.225 L574.674995,8.975 C574.324995,5.6 572.024995,3.125 567.649995,3.125 L567.649995,3.125 Z M595.974994,18.975 L586.649994,18.975 L586.649994,12.975 L594.974994,12.975 L594.974994,11.225 L586.649994,11.225 L586.649994,5.225 L595.724994,5.225 L595.724994,3.475 L584.499994,3.475 L584.499994,20.725 L595.974994,20.725 L595.974994,18.975 Z M618.874994,20.725 L618.824994,3.475 L616.724994,3.475 L616.724994,12.1 C616.724994,14.125 616.749994,16.6 616.799994,18.625 L608.674994,3.475 L605.374994,3.475 L605.374994,20.725 L607.524994,20.725 L607.524994,12.1 C607.524994,10.075 607.499994,7.6 607.449994,5.575 L615.574994,20.725 L618.874994,20.725 Z M642.324994,5.225 L642.324994,3.475 L627.874994,3.475 L627.874994,5.225 L634.024994,5.225 L634.024994,20.725 L636.174994,20.725 L636.174994,5.225 L642.324994,5.225 Z M662.374994,16.2 C662.224994,14.475 661.549994,12.9 660.149994,12.25 C661.749994,11.75 663.224994,10.45 663.224994,8.175 C663.224994,5.275 661.424994,3.9 658.924994,3.575 C658.149994,3.475 657.549994,3.475 656.674994,3.475 L651.024994,3.475 L651.024994,20.725 L653.174994,20.725 L653.174994,13.3 L656.424994,13.3 C656.824994,13.3 657.249994,13.3 657.649994,13.325 C659.349994,13.45 660.024994,14.625 660.224994,16.4 C660.449994,18.525 660.674994,19.625 661.149994,20.725 L663.524994,20.725 C662.824994,19.8 662.574994,18.45 662.374994,16.2 L662.374994,16.2 Z M653.174994,11.55 L653.174994,5.225 L656.674994,5.225 C657.449994,5.225 657.924994,5.25 658.399994,5.325 C659.999994,5.575 660.924994,6.45 660.924994,8.375 C660.924994,10.325 659.749994,11.35 658.149994,11.5 C657.674994,11.55 657.249994,11.55 656.474994,11.55 L653.174994,11.55 Z M681.599994,14.625 L683.649994,20.725 L685.974994,20.725 L680.024994,3.475 L677.124994,3.475 L670.924994,20.725 L673.224994,20.725 L675.249994,14.625 L681.599994,14.625 Z M675.849994,12.875 L678.524994,5.175 L681.024994,12.875 L675.849994,12.875 Z M708.624993,5.225 L717.699993,5.225 L717.699993,3.475 L706.474993,3.475 L706.474993,20.725 L708.624993,20.725 L708.624993,12.975 L716.699993,12.975 L716.699993,11.225 L708.624993,11.225 L708.624993,5.225 Z M731.924993,2.3 C732.549993,2.3 733.074993,1.775 733.074993,1.15 C733.074993,0.525 732.549993,-7.10542736e-15 731.924993,-7.10542736e-15 C731.299993,-7.10542736e-15 730.774993,0.525 730.774993,1.15 C730.774993,1.775 731.299993,2.3 731.924993,2.3 L731.924993,2.3 Z M735.424993,2.3 C736.049993,2.3 736.574993,1.775 736.574993,1.15 C736.574993,0.525 736.049993,-7.10542736e-15 735.424993,-7.10542736e-15 C734.799993,-7.10542736e-15 734.274993,0.525 734.274993,1.15 C734.274993,1.775 734.799993,2.3 735.424993,2.3 L735.424993,2.3 Z M733.674993,3.125 C728.424993,3.125 725.524993,6.825 725.524993,12.1 C725.524993,17.35 728.424993,21.075 733.674993,21.075 C738.924993,21.075 741.824993,17.35 741.824993,12.1 C741.824993,6.825 738.924993,3.125 733.674993,3.125 L733.674993,3.125 Z M733.674993,19.375 C730.049993,19.375 727.924993,16.575 727.924993,12.1 C727.924993,7.6 730.049993,4.825 733.674993,4.825 C737.299993,4.825 739.424993,7.6 739.424993,12.1 C739.424993,16.575 737.299993,19.375 733.674993,19.375 L733.674993,19.375 Z M762.824993,16.2 C762.674993,14.475 761.999993,12.9 760.599993,12.25 C762.199993,11.75 763.674993,10.45 763.674993,8.175 C763.674993,5.275 761.874993,3.9 759.374993,3.575 C758.599993,3.475 757.999993,3.475 757.124993,3.475 L751.474993,3.475 L751.474993,20.725 L753.624993,20.725 L753.624993,13.3 L756.874993,13.3 C757.274993,13.3 757.699993,13.3 758.099993,13.325 C759.799993,13.45 760.474993,14.625 760.674993,16.4 C760.899993,18.525 761.124993,19.625 761.599993,20.725 L763.974993,20.725 C763.274993,19.8 763.024993,18.45 762.824993,16.2 L762.824993,16.2 Z M753.624993,11.55 L753.624993,5.225 L757.124993,5.225 C757.899993,5.225 758.374993,5.25 758.849993,5.325 C760.449993,5.575 761.374993,6.45 761.374993,8.375 C761.374993,10.325 760.199993,11.35 758.599993,11.5 C758.124993,11.55 757.699993,11.55 756.924993,11.55 L753.624993,11.55 Z M801.949993,3.475 L798.474993,3.475 L793.399993,18.9 L788.299993,3.475 L784.749993,3.475 L784.749993,20.725 L786.899993,20.725 L786.899993,11.85 C786.899993,9.725 786.899993,7.35 786.849993,5.475 C787.399993,7.325 788.199993,9.725 788.899993,11.775 L791.999993,20.725 L794.699993,20.725 L797.749993,11.825 C798.474993,9.725 799.274993,7.3 799.849993,5.425 C799.799993,7.3 799.799993,9.7 799.799993,11.85 L799.799993,20.725 L801.949993,20.725 L801.949993,3.475 Z M816.724992,2.3 C817.349992,2.3 817.874992,1.775 817.874992,1.15 C817.874992,0.525 817.349992,-7.10542736e-15 816.724992,-7.10542736e-15 C816.099992,-7.10542736e-15 815.574992,0.525 815.574992,1.15 C815.574992,1.775 816.099992,2.3 816.724992,2.3 L816.724992,2.3 Z M820.224992,2.3 C820.849992,2.3 821.374992,1.775 821.374992,1.15 C821.374992,0.525 820.849992,-7.10542736e-15 820.224992,-7.10542736e-15 C819.599992,-7.10542736e-15 819.074992,0.525 819.074992,1.15 C819.074992,1.775 819.599992,2.3 820.224992,2.3 L820.224992,2.3 Z M821.499992,14.625 L823.549992,20.725 L825.874992,20.725 L819.924992,3.475 L817.024992,3.475 L810.824992,20.725 L813.124992,20.725 L815.149992,14.625 L821.499992,14.625 Z M815.749992,12.875 L818.424992,5.175 L820.924992,12.875 L815.749992,12.875 Z M848.274992,20.725 L848.224992,3.475 L846.124992,3.475 L846.124992,12.1 C846.124992,14.125 846.149992,16.6 846.199992,18.625 L838.074992,3.475 L834.774992,3.475 L834.774992,20.725 L836.924992,20.725 L836.924992,12.1 C836.924992,10.075 836.899992,7.6 836.849992,5.575 L844.974992,20.725 L848.274992,20.725 Z" id="SVERIGES-PROFESSIONE" fill="currentColor" fill-rule="nonzero"></path>
                <polygon id="Path" fill="currentColor" fill-rule="nonzero" points="217 71.0207925 249.9 33.8728317 242.5 33.8728317 206.5 74.3375747 206.5 33.8728317 200.3 33.8728317 200.3 110.158823 206.5 110.158823 206.5 82.297852 212.3 75.5537282 239.8 110.158823 248.6 110.158823"></polygon>
                <g id="Path" transform="translate(259.100000, 33.872832)" fill-rule="nonzero">
                    <path d="M43.2,55.94306 C44.2,66.4462033 45.4,71.9741743 47.8,76.2859913 L40.9,76.2859913 C39.2,71.4213773 38,66.6673223 37,56.7169758 C36.1,48.6461391 33.1,42.3442529 25.7,41.9020153 C23.9,41.7914559 21.9,41.7914559 20.3,41.7914559 L6.2,41.7914559 L6.2,76.2859913 L0,76.2859913 L0,-1.42108547e-14 L20.3,-1.42108547e-14 C23.8,-1.42108547e-14 26.5,-1.42108547e-14 29.7,0.4422376 C39.9,1.8795099 46.7,8.0708367 46.7,20.2323715 C46.7,30.2932775 40.9,36.3740449 33.7,38.3641143 C39.6,41.01754 42.5,47.9827827 43.2,55.94306 Z" id="Path-2"></path>
                </g>
                <polygon id="Path" fill="currentColor" fill-rule="nonzero" points="325.4 110.158823 325.4 33.8728317 319.2 33.8728317 319.2 110.158823"></polygon>
                <path d="M363.2,32.325 C351,32.325 340.8,40.5063961 340.8,52.8890497 C340.8,65.1611439 348.6,70.2468766 361.7,74.0058965 C374.6,77.5437975 379.8,81.745055 379.8,91.5848422 C379.8,100.429595 372.5,106.178684 363.4,106.178684 C353.5,106.178684 345.9,100.097917 344.2,89.1525352 L337.6,89.1525352 C339.1,103.856936 349.2,111.706654 363.2,111.706654 C376.4,111.706654 386.4,103.083021 386.4,90.4792481 C386.4,77.8754757 379,71.6841489 364.2,67.4828914 C352.4,64.1661092 347.5,60.7387676 347.5,51.4517774 C347.5,42.385906 354.8,37.8529704 362.7,37.8529704 C371.8,37.8529704 377.8,43.9337377 379,54.326322 L385.5,54.326322 C384.2,41.9436684 377,32.325 363.2,32.325 L363.2,32.325 Z" id="Path" fill="currentColor" fill-rule="nonzero"></path>
            </g>
        </g>
    </g>
</svg>
