<svg viewBox="0 0 127 79" version="1.1" xmlns="http://www.w3.org/2000/svg" xmlns:xlink="http://www.w3.org/1999/xlink">
  <g transform="translate(0.000000, 71.130900)">
    <path d="M2.2998,1.2852 L1.8418,1.5562 C1.7568,1.4082 1.6748,1.3112 1.5978,1.2662 C1.5168,1.2142 1.4128,1.1882 1.2848,1.1882 C1.1288,1.1882 0.9988,1.2332 0.8958,1.3212 C0.7928,1.4092 0.7408,1.5182 0.7408,1.6512 C0.7408,1.8342 0.8768,1.9812 1.1478,2.0932 L1.5208,2.2452 C1.8238,2.3682 2.0458,2.5162 2.1868,2.6942 C2.3258,2.8712 2.3968,3.0882 2.3968,3.3452 C2.3968,3.6882 2.2818,3.9732 2.0528,4.1982 C1.8218,4.4232 1.5358,4.5362 1.1938,4.5362 C0.8688,4.5362 0.6008,4.4402 0.3898,4.2472 C0.1808,4.0542 0.0518,3.7842 -0.0002,3.4352 L0.5708,3.3092 C0.5968,3.5282 0.6428,3.6812 0.7068,3.7642 C0.8228,3.9262 0.9928,4.0072 1.2158,4.0072 C1.3908,4.0072 1.5368,3.9482 1.6538,3.8302 C1.7698,3.7122 1.8278,3.5632 1.8278,3.3822 C1.8278,3.3092 1.8178,3.2432 1.7978,3.1822 C1.7768,3.1222 1.7458,3.0672 1.7028,3.0162 C1.6598,2.9662 1.6048,2.9172 1.5368,2.8742 C1.4698,2.8292 1.3888,2.7862 1.2948,2.7462 L0.9348,2.5972 C0.4228,2.3802 0.1668,2.0632 0.1668,1.6472 C0.1668,1.3672 0.2748,1.1332 0.4888,0.9442 C0.7038,0.7532 0.9708,0.6592 1.2898,0.6592 C1.7208,0.6592 2.0578,0.8682 2.2998,1.2852" fill="currentColor"></path>
  </g>
  <polygon fill="currentColor" points="3.3799 71.8623 4.4139 74.4523 5.4619 71.8623 6.0789 71.8623 4.4009 75.8813 2.7629 71.8623"></polygon>
  <polygon fill="currentColor" points="8.7305 72.3926 7.2315 72.3926 7.2315 73.2896 8.6875 73.2896 8.6875 73.8196 7.2315 73.8196 7.2315 75.0696 8.7305 75.0696 8.7305 75.6006 6.6675 75.6006 6.6675 71.8626 8.7305 71.8626"></polygon>
  <polygon fill="currentColor" points="9.5952 75.6006 9.5952 71.6086 12.3212 74.4596 12.3212 71.8626 12.8852 71.8626 12.8852 75.8276 10.1592 72.9836 10.1592 75.6006"></polygon>
  <path d="M16.0181,72.4161 L15.5611,72.6871 C15.4751,72.5391 15.3931,72.4421 15.3161,72.3971 C15.2351,72.3451 15.1321,72.3191 15.0041,72.3191 C14.8481,72.3191 14.7171,72.3641 14.6141,72.4521 C14.5111,72.5401 14.4591,72.6491 14.4591,72.7821 C14.4591,72.9651 14.5951,73.1121 14.8661,73.2241 L15.2391,73.3761 C15.5421,73.4991 15.7641,73.6471 15.9051,73.8251 C16.0451,74.0021 16.1151,74.2191 16.1151,74.4761 C16.1151,74.8191 16.0001,75.1041 15.7711,75.3291 C15.5401,75.5541 15.2541,75.6671 14.9121,75.6671 C14.5881,75.6671 14.3201,75.5711 14.1081,75.3781 C13.9001,75.1851 13.7701,74.9151 13.7181,74.5661 L14.2901,74.4401 C14.3161,74.6591 14.3611,74.8121 14.4251,74.8951 C14.5411,75.0571 14.7111,75.1381 14.9341,75.1381 C15.1091,75.1381 15.2561,75.0791 15.3721,74.9611 C15.4881,74.8431 15.5461,74.6941 15.5461,74.5131 C15.5461,74.4401 15.5361,74.3741 15.5161,74.3131 C15.4961,74.2531 15.4641,74.1981 15.4221,74.1471 C15.3791,74.0971 15.3241,74.0481 15.2561,74.0051 C15.1881,73.9601 15.1071,73.9171 15.0141,73.8771 L14.6531,73.7281 C14.1421,73.5111 13.8861,73.1941 13.8861,72.7781 C13.8861,72.4981 13.9931,72.2641 14.2071,72.0751 C14.4221,71.8841 14.6891,71.7901 15.0091,71.7901 C15.4391,71.7901 15.7761,71.9991 16.0181,72.4161" fill="currentColor"></path>
  <polygon fill="currentColor" points="17.4834 73.3536 18.9384 71.8626 19.6914 71.8626 18.0014 73.5536 19.7004 75.6006 18.9454 75.6006 17.5994 73.9366 17.4834 74.0526 17.4834 75.6006 16.9194 75.6006 16.9194 71.8626 17.4834 71.8626"></polygon>
  <path d="M22.2944,74.1612 L21.7394,72.8912 L21.1584,74.1612 L22.2944,74.1612 Z M22.5234,74.6922 L20.9234,74.6922 L20.5074,75.6002 L19.8994,75.6002 L21.7494,71.6282 L23.5334,75.6002 L22.9164,75.6002 L22.5234,74.6922 Z" fill="currentColor"></path>
  <path d="M28.6006,72.4161 L28.1426,72.6871 C28.0576,72.5391 27.9766,72.4421 27.8986,72.3971 C27.8176,72.3451 27.7136,72.3191 27.5866,72.3191 C27.4296,72.3191 27.2996,72.3641 27.1966,72.4521 C27.0936,72.5401 27.0416,72.6491 27.0416,72.7821 C27.0416,72.9651 27.1776,73.1121 27.4486,73.2241 L27.8216,73.3761 C28.1246,73.4991 28.3466,73.6471 28.4866,73.8251 C28.6266,74.0021 28.6976,74.2191 28.6976,74.4761 C28.6976,74.8191 28.5826,75.1041 28.3536,75.3291 C28.1226,75.5541 27.8366,75.6671 27.4946,75.6671 C27.1696,75.6671 26.9026,75.5711 26.6906,75.3781 C26.4826,75.1851 26.3516,74.9151 26.3006,74.5661 L26.8716,74.4401 C26.8976,74.6591 26.9436,74.8121 27.0076,74.8951 C27.1236,75.0571 27.2936,75.1381 27.5156,75.1381 C27.6916,75.1381 27.8386,75.0791 27.9546,74.9611 C28.0706,74.8431 28.1286,74.6941 28.1286,74.5131 C28.1286,74.4401 28.1186,74.3741 28.0986,74.3131 C28.0786,74.2531 28.0466,74.1981 28.0036,74.1471 C27.9616,74.0971 27.9056,74.0481 27.8386,74.0051 C27.7706,73.9601 27.6896,73.9171 27.5956,73.8771 L27.2356,73.7281 C26.7236,73.5111 26.4676,73.1941 26.4676,72.7781 C26.4676,72.4981 26.5756,72.2641 26.7896,72.0751 C27.0046,71.8841 27.2716,71.7901 27.5916,71.7901 C28.0216,71.7901 28.3586,71.9991 28.6006,72.4161" fill="currentColor"></path>
  <path d="M31.085,71.1358 C31.085,71.0418 31.119,70.9618 31.187,70.8938 C31.254,70.8258 31.336,70.7918 31.431,70.7918 C31.526,70.7918 31.608,70.8258 31.675,70.8938 C31.744,70.9618 31.777,71.0438 31.777,71.1398 C31.777,71.2358 31.744,71.3178 31.675,71.3848 C31.608,71.4518 31.526,71.4878 31.431,71.4878 C31.335,71.4878 31.252,71.4518 31.184,71.3848 C31.118,71.3138 31.085,71.2318 31.085,71.1358 Z M31.429,74.1608 L30.875,72.8918 L30.293,74.1608 L31.429,74.1608 Z M29.998,71.1358 C29.998,71.0418 30.032,70.9618 30.1,70.8938 C30.168,70.8258 30.248,70.7918 30.342,70.7918 C30.439,70.7918 30.52,70.8258 30.586,70.8938 C30.654,70.9618 30.688,71.0438 30.688,71.1398 C30.688,71.2358 30.654,71.3178 30.586,71.3848 C30.52,71.4518 30.439,71.4878 30.344,71.4878 C30.248,71.4878 30.165,71.4518 30.097,71.3848 C30.031,71.3138 29.998,71.2318 29.998,71.1358 Z M31.659,74.6928 L30.059,74.6928 L29.642,75.6008 L29.035,75.6008 L30.884,71.6278 L32.668,75.6008 L32.051,75.6008 L31.659,74.6928 Z" fill="currentColor"></path>
  <polygon fill="currentColor" points="33.8232 71.8623 33.8232 75.0693 34.9222 75.0693 34.9222 75.6003 33.2592 75.6003 33.2592 71.8623"></polygon>
  <polygon fill="currentColor" points="36.1455 71.8623 36.1455 75.0693 37.2455 75.0693 37.2455 75.6003 35.5815 75.6003 35.5815 71.8623"></polygon>
  <path d="M40.0313,72.4161 L39.5743,72.6871 C39.4893,72.5391 39.4063,72.4421 39.3293,72.3971 C39.2483,72.3451 39.1453,72.3191 39.0173,72.3191 C38.8613,72.3191 38.7313,72.3641 38.6273,72.4521 C38.5243,72.5401 38.4723,72.6491 38.4723,72.7821 C38.4723,72.9651 38.6083,73.1121 38.8793,73.2241 L39.2523,73.3761 C39.5553,73.4991 39.7773,73.6471 39.9183,73.8251 C40.0583,74.0021 40.1283,74.2191 40.1283,74.4761 C40.1283,74.8191 40.0143,75.1041 39.7843,75.3291 C39.5533,75.5541 39.2673,75.6671 38.9253,75.6671 C38.6013,75.6671 38.3333,75.5711 38.1213,75.3781 C37.9133,75.1851 37.7833,74.9151 37.7323,74.5661 L38.3033,74.4401 C38.3293,74.6591 38.3743,74.8121 38.4383,74.8951 C38.5543,75.0571 38.7243,75.1381 38.9473,75.1381 C39.1233,75.1381 39.2693,75.0791 39.3853,74.9611 C39.5013,74.8431 39.5593,74.6941 39.5593,74.5131 C39.5593,74.4401 39.5493,74.3741 39.5293,74.3131 C39.5093,74.2531 39.4773,74.1981 39.4353,74.1471 C39.3923,74.0971 39.3373,74.0481 39.2693,74.0051 C39.2013,73.9601 39.1203,73.9171 39.0273,73.8771 L38.6663,73.7281 C38.1553,73.5111 37.8993,73.1941 37.8993,72.7781 C37.8993,72.4981 38.0063,72.2641 38.2203,72.0751 C38.4353,71.8841 38.7023,71.7901 39.0223,71.7901 C39.4533,71.7901 39.7893,71.9991 40.0313,72.4161" fill="currentColor"></path>
  <polygon fill="currentColor" points="41.4966 73.3536 42.9516 71.8626 43.7046 71.8626 42.0146 73.5536 43.7146 75.6006 42.9586 75.6006 41.6126 73.9366 41.4966 74.0526 41.4966 75.6006 40.9336 75.6006 40.9336 71.8626 41.4966 71.8626"></polygon>
  <path d="M46.3076,74.1612 L45.7526,72.8912 L45.1716,74.1612 L46.3076,74.1612 Z M46.5366,74.6922 L44.9366,74.6922 L44.5206,75.6002 L43.9126,75.6002 L45.7626,71.6282 L47.5466,75.6002 L46.9296,75.6002 L46.5366,74.6922 Z" fill="currentColor"></path>
  <path d="M48.7017,73.5586 L48.9127,73.5586 C49.4307,73.5586 49.6897,73.3606 49.6897,72.9606 C49.6897,72.5756 49.4227,72.3816 48.8887,72.3816 L48.7017,72.3816 L48.7017,73.5586 Z M48.7017,74.0816 L48.7017,75.6006 L48.1387,75.6006 L48.1387,71.8626 L48.7767,71.8626 C49.0907,71.8626 49.3267,71.8836 49.4867,71.9266 C49.6477,71.9706 49.7897,72.0536 49.9127,72.1746 C50.1277,72.3836 50.2337,72.6496 50.2337,72.9676 C50.2337,73.3116 50.1197,73.5806 49.8907,73.7826 C49.6617,73.9816 49.3517,74.0816 48.9637,74.0816 L48.7017,74.0816 Z" fill="currentColor"></path>
  <polygon fill="currentColor" points="53.0024 72.3926 51.5034 72.3926 51.5034 73.2896 52.9584 73.2896 52.9584 73.8196 51.5034 73.8196 51.5034 75.0696 53.0024 75.0696 53.0024 75.6006 50.9394 75.6006 50.9394 71.8626 53.0024 71.8626"></polygon>
  <polygon fill="currentColor" points="54.8979 72.3926 54.8979 75.6006 54.3349 75.6006 54.3349 72.3926 53.4749 72.3926 53.4749 71.8626 55.7539 71.8626 55.7539 72.3926"></polygon>
  <polygon fill="currentColor" points="67.6987 72.3926 66.3967 72.3926 66.3967 73.2896 67.6537 73.2896 67.6537 73.8196 66.3967 73.8196 66.3967 75.6006 65.8327 75.6006 65.8327 71.8626 67.6987 71.8626"></polygon>
  <path d="M70.4536,71.1358 C70.4536,71.0418 70.4866,70.9618 70.5536,70.8938 C70.6216,70.8258 70.7036,70.7918 70.7976,70.7918 C70.8926,70.7918 70.9746,70.8258 71.0436,70.8938 C71.1106,70.9618 71.1446,71.0438 71.1446,71.1398 C71.1446,71.2358 71.1106,71.3178 71.0436,71.3848 C70.9746,71.4518 70.8926,71.4878 70.7976,71.4878 C70.7016,71.4878 70.6196,71.4518 70.5516,71.3848 C70.4846,71.3138 70.4536,71.2318 70.4536,71.1358 M69.3656,71.1358 C69.3656,71.0418 69.3996,70.9618 69.4676,70.8938 C69.5356,70.8258 69.6156,70.7918 69.7096,70.7918 C69.8076,70.7918 69.8876,70.8258 69.9536,70.8938 C70.0216,70.9618 70.0556,71.0438 70.0556,71.1398 C70.0556,71.2358 70.0216,71.3178 69.9536,71.3848 C69.8876,71.4518 69.8076,71.4878 69.7116,71.4878 C69.6146,71.4878 69.5326,71.4518 69.4646,71.3848 C69.3986,71.3138 69.3656,71.2318 69.3656,71.1358 M68.8646,73.7198 C68.8646,74.1328 69.0036,74.4718 69.2806,74.7388 C69.5576,75.0048 69.8756,75.1378 70.2366,75.1378 C70.6296,75.1378 70.9596,75.0018 71.2296,74.7318 C71.4986,74.4568 71.6336,74.1228 71.6336,73.7298 C71.6336,73.3308 71.5006,72.9968 71.2336,72.7278 C70.9696,72.4578 70.6416,72.3228 70.2506,72.3228 C69.8626,72.3228 69.5336,72.4578 69.2666,72.7278 C68.9986,72.9958 68.8646,73.3268 68.8646,73.7198 M68.2956,73.7138 C68.2956,73.1878 68.4886,72.7358 68.8736,72.3588 C69.2586,71.9808 69.7206,71.7918 70.2586,71.7918 C70.7916,71.7918 71.2466,71.9828 71.6296,72.3628 C72.0116,72.7428 72.2026,73.2018 72.2026,73.7358 C72.2026,74.2728 72.0106,74.7298 71.6276,75.1038 C71.2406,75.4798 70.7746,75.6668 70.2286,75.6668 C69.7466,75.6668 69.3136,75.5008 68.9306,75.1668 C68.5066,74.7968 68.2956,74.3138 68.2956,73.7138" fill="currentColor"></path>
  <path d="M73.6001,73.5791 L73.7801,73.5791 C74.3131,73.5791 74.5801,73.3741 74.5801,72.9661 C74.5801,72.5831 74.3211,72.3921 73.8011,72.3921 L73.6001,72.3921 L73.6001,73.5791 Z M74.3021,74.0071 L75.4591,75.6001 L74.7681,75.6001 L73.7021,74.0691 L73.6001,74.0691 L73.6001,75.6001 L73.0361,75.6001 L73.0361,71.8621 L73.6961,71.8621 C74.1901,71.8621 74.5471,71.9551 74.7661,72.1411 C75.0081,72.3471 75.1291,72.6201 75.1291,72.9581 C75.1291,73.2241 75.0531,73.4501 74.9021,73.6411 C74.7501,73.8321 74.5511,73.9541 74.3021,74.0071 Z" fill="currentColor"></path>
  <polygon fill="currentColor" points="80.3745 72.3926 79.0705 72.3926 79.0705 73.2896 80.3285 73.2896 80.3285 73.8196 79.0705 73.8196 79.0705 75.6006 78.5085 75.6006 78.5085 71.8626 80.3745 71.8626"></polygon>
  <polygon fill="currentColor" mask="url(#symbol-ssfp-mask-4)" points="81.151 75.6009 81.716 75.6009 81.716 71.8629 81.151 71.8629"></polygon>
  <polygon fill="currentColor" mask="url(#symbol-ssfp-mask-4)" points="83.3013 71.8623 83.3013 75.0693 84.4013 75.0693 84.4013 75.6003 82.7383 75.6003 82.7383 71.8623"></polygon>
  <path d="M85.2896,73.7198 C85.2896,74.1328 85.4286,74.4718 85.7056,74.7388 C85.9826,75.0048 86.3016,75.1378 86.6626,75.1378 C87.0556,75.1378 87.3856,75.0018 87.6546,74.7318 C87.9246,74.4568 88.0596,74.1228 88.0596,73.7298 C88.0596,73.3308 87.9266,72.9968 87.6606,72.7278 C87.3946,72.4578 87.0666,72.3228 86.6776,72.3228 C86.2876,72.3228 85.9596,72.4578 85.6916,72.7278 C85.4246,72.9958 85.2896,73.3268 85.2896,73.7198 M84.7216,73.7138 C84.7216,73.1878 84.9146,72.7358 85.2996,72.3588 C85.6846,71.9808 86.1446,71.7918 86.6846,71.7918 C87.2176,71.7918 87.6746,71.9828 88.0546,72.3628 C88.4366,72.7428 88.6276,73.2018 88.6276,73.7358 C88.6276,74.2728 88.4356,74.7298 88.0516,75.1038 C87.6666,75.4798 87.2006,75.6668 86.6556,75.6668 C86.1726,75.6668 85.7386,75.5008 85.3546,75.1668 C84.9326,74.7968 84.7216,74.3138 84.7216,73.7138" fill="currentColor" mask="url(#symbol-ssfp-mask-4)"></path>
  <path d="M91.5747,72.4161 L91.1177,72.6871 C91.0317,72.5391 90.9497,72.4421 90.8737,72.3971 C90.7917,72.3451 90.6877,72.3191 90.5607,72.3191 C90.4037,72.3191 90.2737,72.3641 90.1707,72.4521 C90.0667,72.5401 90.0157,72.6491 90.0157,72.7821 C90.0157,72.9651 90.1517,73.1121 90.4227,73.2241 L90.7957,73.3761 C91.0977,73.4991 91.3207,73.6471 91.4617,73.8251 C91.6017,74.0021 91.6727,74.2191 91.6727,74.4761 C91.6727,74.8191 91.5567,75.1041 91.3287,75.3291 C91.0967,75.5541 90.8107,75.6671 90.4697,75.6671 C90.1437,75.6671 89.8777,75.5711 89.6647,75.3781 C89.4557,75.1851 89.3267,74.9151 89.2747,74.5661 L89.8457,74.4401 C89.8717,74.6591 89.9167,74.8121 89.9817,74.8951 C90.0977,75.0571 90.2677,75.1381 90.4907,75.1381 C90.6667,75.1381 90.8117,75.0791 90.9287,74.9611 C91.0457,74.8431 91.1017,74.6941 91.1017,74.5131 C91.1017,74.4401 91.0927,74.3741 91.0727,74.3131 C91.0527,74.2531 91.0197,74.1981 90.9767,74.1471 C90.9347,74.0971 90.8797,74.0481 90.8117,74.0051 C90.7447,73.9601 90.6647,73.9171 90.5707,73.8771 L90.2097,73.7281 C89.6977,73.5111 89.4417,73.1941 89.4417,72.7781 C89.4417,72.4981 89.5497,72.2641 89.7637,72.0751 C89.9787,71.8841 90.2457,71.7901 90.5647,71.7901 C90.9967,71.7901 91.3327,71.9991 91.5747,72.4161" fill="currentColor" mask="url(#symbol-ssfp-mask-4)"></path>
  <path d="M92.8579,73.7198 C92.8579,74.1328 92.9979,74.4718 93.2749,74.7388 C93.5509,75.0048 93.8699,75.1378 94.2309,75.1378 C94.6239,75.1378 94.9539,75.0018 95.2229,74.7318 C95.4929,74.4568 95.6279,74.1228 95.6279,73.7298 C95.6279,73.3308 95.4949,72.9968 95.2279,72.7278 C94.9629,72.4578 94.6359,72.3228 94.2449,72.3228 C93.8559,72.3228 93.5279,72.4578 93.2599,72.7278 C92.9929,72.9958 92.8579,73.3268 92.8579,73.7198 M92.2899,73.7138 C92.2899,73.1878 92.4819,72.7358 92.8679,72.3588 C93.2529,71.9808 93.7139,71.7918 94.2529,71.7918 C94.7859,71.7918 95.2419,71.9828 95.6239,72.3628 C96.0049,72.7428 96.1969,73.2018 96.1969,73.7358 C96.1969,74.2728 96.0039,74.7298 95.6209,75.1038 C95.2349,75.4798 94.7689,75.6668 94.2229,75.6668 C93.7409,75.6668 93.3069,75.5008 92.9239,75.1668 C92.5009,74.7968 92.2899,74.3138 92.2899,73.7138" fill="currentColor" mask="url(#symbol-ssfp-mask-4)"></path>
  <polygon fill="currentColor" mask="url(#symbol-ssfp-mask-4)" points="98.897 72.3926 97.594 72.3926 97.594 73.2896 98.85 73.2896 98.85 73.8196 97.594 73.8196 97.594 75.6006 97.03 75.6006 97.03 71.8626 98.897 71.8626"></polygon>
  <polygon fill="currentColor" mask="url(#symbol-ssfp-mask-4)" points="99.675 75.6009 100.237 75.6009 100.237 71.8629 99.675 71.8629"></polygon>
  <path d="M103.3735,72.4161 L102.9165,72.6871 C102.8305,72.5391 102.7485,72.4421 102.6715,72.3971 C102.5925,72.3451 102.4865,72.3191 102.3595,72.3191 C102.2015,72.3191 102.0725,72.3641 101.9695,72.4521 C101.8655,72.5401 101.8135,72.6491 101.8135,72.7821 C101.8135,72.9651 101.9495,73.1121 102.2215,73.2241 L102.5935,73.3761 C102.8975,73.4991 103.1195,73.6471 103.2605,73.8251 C103.3995,74.0021 103.4695,74.2191 103.4695,74.4761 C103.4695,74.8191 103.3555,75.1041 103.1275,75.3291 C102.8945,75.5541 102.6085,75.6671 102.2685,75.6671 C101.9435,75.6671 101.6755,75.5711 101.4635,75.3781 C101.2565,75.1851 101.1255,74.9151 101.0735,74.5661 L101.6445,74.4401 C101.6705,74.6591 101.7155,74.8121 101.7795,74.8951 C101.8965,75.0571 102.0665,75.1381 102.2885,75.1381 C102.4635,75.1381 102.6115,75.0791 102.7275,74.9611 C102.8435,74.8431 102.9005,74.6941 102.9005,74.5131 C102.9005,74.4401 102.8915,74.3741 102.8715,74.3131 C102.8515,74.2531 102.8195,74.1981 102.7775,74.1471 C102.7335,74.0971 102.6785,74.0481 102.6115,74.0051 C102.5435,73.9601 102.4625,73.9171 102.3685,73.8771 L102.0085,73.7281 C101.4965,73.5111 101.2405,73.1941 101.2405,72.7781 C101.2405,72.4981 101.3485,72.2641 101.5615,72.0751 C101.7775,71.8841 102.0435,71.7901 102.3635,71.7901 C102.7955,71.7901 103.1315,71.9991 103.3735,72.4161" fill="currentColor" mask="url(#symbol-ssfp-mask-4)"></path>
  <polygon fill="currentColor" mask="url(#symbol-ssfp-mask-4)" points="104.8384 73.3536 106.2934 71.8626 107.0464 71.8626 105.3574 73.5536 107.0564 75.6006 106.3004 75.6006 104.9554 73.9366 104.8384 74.0526 104.8384 75.6006 104.2744 75.6006 104.2744 71.8626 104.8384 71.8626"></polygon>
  <path d="M110.6108,73.5586 L110.8208,73.5586 C111.3388,73.5586 111.5978,73.3606 111.5978,72.9606 C111.5978,72.5756 111.3308,72.3816 110.7978,72.3816 L110.6108,72.3816 L110.6108,73.5586 Z M110.6108,74.0816 L110.6108,75.6006 L110.0468,75.6006 L110.0468,71.8626 L110.6858,71.8626 C110.9988,71.8626 111.2348,71.8836 111.3938,71.9266 C111.5558,71.9706 111.6978,72.0536 111.8208,72.1746 C112.0358,72.3836 112.1418,72.6496 112.1418,72.9676 C112.1418,73.3116 112.0278,73.5806 111.7978,73.7826 C111.5708,73.9816 111.2598,74.0816 110.8718,74.0816 L110.6108,74.0816 Z" fill="currentColor" mask="url(#symbol-ssfp-mask-4)"></path>
  <path d="M113.4116,73.5791 L113.5916,73.5791 C114.1246,73.5791 114.3906,73.3741 114.3906,72.9661 C114.3906,72.5831 114.1326,72.3921 113.6116,72.3921 L113.4116,72.3921 L113.4116,73.5791 Z M114.1136,74.0071 L115.2716,75.6001 L114.5806,75.6001 L113.5126,74.0691 L113.4116,74.0691 L113.4116,75.6001 L112.8486,75.6001 L112.8486,71.8621 L113.5086,71.8621 C114.0026,71.8621 114.3596,71.9551 114.5786,72.1411 C114.8196,72.3471 114.9416,72.6201 114.9416,72.9581 C114.9416,73.2241 114.8656,73.4501 114.7146,73.6411 C114.5626,73.8321 114.3626,73.9541 114.1136,74.0071 Z" fill="currentColor" mask="url(#symbol-ssfp-mask-4)"></path>
  <path d="M117.9224,74.1612 L117.3674,72.8912 L116.7864,74.1612 L117.9224,74.1612 Z M118.1524,74.6922 L116.5514,74.6922 L116.1354,75.6002 L115.5274,75.6002 L117.3774,71.6282 L119.1624,75.6002 L118.5444,75.6002 L118.1524,74.6922 Z" fill="currentColor" mask="url(#symbol-ssfp-mask-4)"></path>
  <polygon fill="currentColor" mask="url(#symbol-ssfp-mask-4)" points="120.5356 73.6455 119.5066 71.8625 120.1466 71.8625 120.8616 73.1275 121.6116 71.8625 122.2586 71.8625 121.1816 73.6455 122.3106 75.6005 121.6806 75.6005 120.8516 74.1685 120.0006 75.6005 119.3596 75.6005"></polygon>
  <polygon fill="currentColor" mask="url(#symbol-ssfp-mask-4)" points="122.939 75.6009 123.503 75.6009 123.503 71.8629 122.939 71.8629"></polygon>
  <path d="M126.6392,72.4161 L126.1822,72.6871 C126.0962,72.5391 126.0142,72.4421 125.9362,72.3971 C125.8562,72.3451 125.7522,72.3191 125.6242,72.3191 C125.4692,72.3191 125.3372,72.3641 125.2352,72.4521 C125.1312,72.5401 125.0782,72.6491 125.0782,72.7821 C125.0782,72.9651 125.2152,73.1121 125.4862,73.2241 L125.8592,73.3761 C126.1622,73.4991 126.3852,73.6471 126.5262,73.8251 C126.6642,74.0021 126.7352,74.2191 126.7352,74.4761 C126.7352,74.8191 126.6212,75.1041 126.3912,75.3291 C126.1602,75.5541 125.8752,75.6671 125.5322,75.6671 C125.2082,75.6671 124.9402,75.5711 124.7292,75.3781 C124.5212,75.1851 124.3892,74.9151 124.3392,74.5661 L124.9102,74.4401 C124.9362,74.6591 124.9812,74.8121 125.0452,74.8951 C125.1622,75.0571 125.3312,75.1381 125.5532,75.1381 C125.7312,75.1381 125.8752,75.0791 125.9932,74.9611 C126.1082,74.8431 126.1662,74.6941 126.1662,74.5131 C126.1662,74.4401 126.1572,74.3741 126.1352,74.3131 C126.1162,74.2531 126.0842,74.1981 126.0412,74.1471 C125.9992,74.0971 125.9442,74.0481 125.8752,74.0051 C125.8082,73.9601 125.7272,73.9171 125.6332,73.8771 L125.2742,73.7281 C124.7622,73.5111 124.5052,73.1941 124.5052,72.7781 C124.5052,72.4981 124.6142,72.2641 124.8282,72.0751 C125.0422,71.8841 125.3112,71.7901 125.6282,71.7901 C126.0602,71.7901 126.3972,71.9991 126.6392,72.4161" fill="currentColor" mask="url(#symbol-ssfp-mask-4)"></path>
  <path d="M20.1797,53.7149 C18.2057,52.8809 17.2457,52.0359 17.2457,51.1339 C17.2457,50.6179 17.4267,50.1889 17.7837,49.8569 C18.1377,49.5269 18.5687,49.3609 19.0647,49.3609 C20.0337,49.3609 20.8547,49.9859 21.5097,51.2179 L25.1997,49.2549 C23.9247,46.6639 21.9857,45.3519 19.4337,45.3519 C17.6587,45.3519 16.1287,45.9389 14.8867,47.0969 C13.6777,48.2509 13.0637,49.7349 13.0637,51.5049 C13.0637,52.8379 13.4207,53.9409 14.1227,54.7809 C14.6807,55.4499 15.6647,56.1339 17.0487,56.8109 C17.5537,57.0559 18.0507,57.2939 18.5417,57.5249 C19.0337,57.7569 19.5257,57.9949 20.0187,58.2409 C21.3597,59.0339 22.0327,59.9059 22.0327,60.8419 C22.0327,62.4439 21.1117,63.2899 19.3677,63.2899 C18.4977,63.2899 17.7387,62.9949 17.1137,62.4149 C16.8087,62.1399 16.3927,61.5439 15.8437,60.5949 L12.0187,62.3679 C13.4617,65.6109 15.9047,67.2549 19.2817,67.2549 C21.2877,67.2549 23.0227,66.6159 24.4387,65.3569 C25.8897,64.0329 26.6267,62.3629 26.6267,60.3959 C26.6267,58.8679 26.1927,57.6399 25.3367,56.7429 C24.4637,55.8289 22.7287,54.8109 20.1797,53.7149" fill="currentColor" mask="url(#symbol-ssfp-mask-4)"></path>
  <path d="M35.9644,53.7149 C33.9904,52.8809 33.0304,52.0359 33.0304,51.1339 C33.0304,50.6179 33.2114,50.1889 33.5684,49.8569 C33.9224,49.5269 34.3534,49.3609 34.8504,49.3609 C35.8184,49.3609 36.6404,49.9859 37.2944,51.2179 L40.9844,49.2549 C39.7094,46.6639 37.7704,45.3519 35.2184,45.3519 C33.4434,45.3519 31.9134,45.9389 30.6714,47.0969 C29.4624,48.2509 28.8484,49.7349 28.8484,51.5049 C28.8484,52.8379 29.2054,53.9409 29.9074,54.7809 C30.4654,55.4499 31.4494,56.1339 32.8344,56.8109 C33.3384,57.0559 33.8364,57.2939 34.3264,57.5249 C34.8184,57.7569 35.3104,57.9949 35.8034,58.2409 C37.1444,59.0339 37.8174,59.9059 37.8174,60.8419 C37.8174,62.4439 36.8964,63.2899 35.1524,63.2899 C34.2824,63.2899 33.5244,62.9949 32.8974,62.4149 C32.5934,62.1399 32.1774,61.5439 31.6284,60.5949 L27.8024,62.3679 C29.2464,65.6109 31.6894,67.2549 35.0664,67.2549 C37.0734,67.2549 38.8084,66.6159 40.2234,65.3569 C41.6744,64.0329 42.4114,62.3629 42.4114,60.3959 C42.4114,58.8679 41.9774,57.6399 41.1214,56.7429 C40.2494,55.8289 38.5134,54.8109 35.9644,53.7149" fill="currentColor" mask="url(#symbol-ssfp-mask-4)"></path>
  <path d="M47.561,32.0874 C46.67,33.1454 46.219,34.9974 46.219,37.5964 L46.219,45.9364 L44.486,45.9364 L44.486,50.0964 L46.219,50.0964 L46.219,66.6484 L50.726,66.6484 L50.726,50.0964 L56.034,50.0964 L56.034,45.9364 L50.726,45.9364 L50.726,38.7874 C50.726,37.0074 50.881,35.8304 51.202,35.1904 C51.539,34.5024 52.188,34.1514 53.131,34.1514 C53.836,34.1514 54.741,34.4284 55.818,34.9744 L56.034,35.0874 L56.034,30.5594 C54.803,30.0964 53.768,29.8614 52.957,29.8614 C50.603,29.8614 48.788,30.6104 47.561,32.0874" fill="currentColor" mask="url(#symbol-ssfp-mask-4)"></path>
  <path d="M72.856,61.3174 C71.727,62.6264 70.271,63.2904 68.53,63.2904 C66.688,63.2904 65.181,62.6334 64.049,61.3384 C62.911,60.0224 62.335,58.3324 62.335,56.3134 C62.335,54.2534 62.912,52.5614 64.051,51.2884 C65.198,50.0084 66.711,49.3604 68.551,49.3604 C70.293,49.3604 71.756,50.0314 72.903,51.3564 C74.026,52.6574 74.595,54.3624 74.595,56.4224 C74.595,58.3704 74.01,60.0164 72.856,61.3174 M76.379,48.4934 C74.547,46.4074 72.184,45.3514 69.354,45.3514 C66.977,45.3514 64.822,46.3014 62.948,48.1754 L62.616,48.5074 L62.616,45.9364 L58.13,45.9364 L58.13,78.1304 L62.616,78.1304 L62.616,64.0064 L62.95,64.3444 C64.852,66.2764 67.035,67.2544 69.44,67.2544 C72.229,67.2544 74.571,66.2194 76.401,64.1784 C78.252,62.1164 79.19,59.5004 79.19,56.4014 C79.19,53.2294 78.245,50.5694 76.379,48.4934" fill="currentColor" mask="url(#symbol-ssfp-mask-4)"></path>
  <path d="M106.6831,27.771 C107.6841,27.801 107.7971,29.925 107.4871,30.516 C107.0241,31.399 105.5071,31.919 104.6031,32.067 C103.6861,32.217 102.4541,32.021 101.5621,31.748 C101.2071,31.639 99.3101,30.551 100.0791,29.904 C98.7271,31.04 97.5241,31.592 95.6621,31.125 C94.2291,30.764 91.3751,29.479 91.5831,27.676 C89.0691,30.832 82.2041,25.413 87.0121,22.997 C85.4091,23.804 84.1801,22.349 84.0731,20.99 C83.9861,19.889 83.9721,18.695 84.6511,17.771 C86.5741,15.158 90.2461,15.326 91.5791,18.302 C92.8581,13.595 102.4341,16.404 99.4671,20.738 C101.8661,19.43 105.4401,20.392 107.2411,22.332 C108.2481,23.42 109.5001,27.855 106.6831,27.771 M93.5061,34.859 C92.7501,34.859 92.1361,34.247 92.1361,33.489 C92.1361,32.732 92.7501,32.119 93.5061,32.119 C94.2641,32.119 94.8771,32.732 94.8771,33.489 C94.8771,34.247 94.2641,34.859 93.5061,34.859 M88.9541,36.23 C88.4301,36.23 88.0061,35.807 88.0061,35.284 C88.0061,34.762 88.4301,34.338 88.9541,34.338 C89.4751,34.338 89.8991,34.762 89.8991,35.284 C89.8991,35.807 89.4751,36.23 88.9541,36.23 M85.6391,36.357 C85.3421,36.357 85.1031,36.117 85.1031,35.82 C85.1031,35.524 85.3421,35.284 85.6391,35.284 C85.9361,35.284 86.1761,35.524 86.1761,35.82 C86.1761,36.117 85.9361,36.357 85.6391,36.357 M114.0671,21.825 C112.9651,19.131 111.1271,17.411 109.0121,15.855 C108.0101,15.118 106.9461,14.417 105.8671,13.667 C102.7781,11.517 100.3281,10.9 96.4961,10.586 C91.9741,10.215 87.5081,10.645 83.4051,12.711 C79.0871,14.885 75.1371,19.525 74.6701,24.459 C74.2391,29.027 75.6621,34.421 79.4571,37.35 C81.2631,38.744 84.0261,39.032 83.8621,41.626 C83.7161,43.952 82.1741,45.812 80.6591,47.464 C82.5631,47.686 84.5861,46.952 86.1381,45.882 C86.5671,45.585 90.0921,41.299 89.2671,41.13 C91.8901,41.667 94.6431,41.774 97.3601,41.774 C99.2251,41.774 101.0871,41.592 102.8731,41.138 C104.4591,40.735 105.9861,40.12 107.4041,39.23 C110.0201,37.589 112.5301,35.806 113.7451,32.921 C115.2271,29.409 115.5261,25.396 114.0671,21.825" fill="currentColor" mask="url(#symbol-ssfp-mask-4)"></path>
  <path d="M64.563,15.2564 C63.245,15.9704 61.396,15.9904 59.948,15.8264 C59.143,15.7354 56.121,15.1144 56.491,13.6984 C56.036,15.4414 54.044,16.0624 52.481,16.4334 C50.95,16.7984 49.524,16.1814 49.096,15.6704 C48.704,15.2024 48.028,14.4224 48.053,13.8024 C48.053,13.8054 46.61,13.9714 46.474,13.9594 C45.919,13.9084 45.36,13.6444 44.914,13.3204 C44.27,12.8554 43.668,11.9124 43.702,11.1234 C43.749,10.0484 43.95,9.4234 44.586,8.5484 C45.494,7.3004 47.17,7.2244 48.527,7.6604 C48.771,6.3894 49.682,5.4594 50.733,4.7774 C51.754,4.1134 53.174,3.4414 54.398,3.3254 C55.348,3.2354 56.342,3.3674 57.106,3.9834 C58.044,4.7394 58.256,5.4254 58.399,6.6414 C59.199,5.2494 61.526,5.3514 61.84,5.3634 C65.149,5.4854 68.318,8.0554 64.929,10.3894 C66.797,11.1254 66.026,14.4634 64.563,15.2564 M60.401,22.6164 C60.311,22.8304 60.073,22.9344 59.866,22.8484 C59.66,22.7624 59.565,22.5194 59.653,22.3054 C59.743,22.0904 59.983,21.9874 60.188,22.0734 C60.395,22.1594 60.49,22.4024 60.401,22.6164 M58.54,21.3864 C58.383,21.7644 57.961,21.9464 57.596,21.7964 C57.233,21.6444 57.065,21.2154 57.223,20.8384 C57.38,20.4614 57.801,20.2784 58.167,20.4294 C58.53,20.5804 58.698,21.0084 58.54,21.3864 M56.205,18.8924 C55.977,19.4394 55.365,19.7054 54.838,19.4854 C54.311,19.2664 54.069,18.6454 54.296,18.0984 C54.524,17.5514 55.135,17.2864 55.663,17.5064 C56.19,17.7254 56.432,18.3464 56.205,18.8924 M64.94,1.8114 C61.631,0.1444 58.028,-0.2016 54.38,0.0964 C51.292,0.3494 49.335,0.1044 45.419,2.9374 C43.705,4.1774 41.098,6.9884 40.209,9.1614 C39.032,12.0414 39.274,15.2784 40.468,18.1104 C41.45,20.4384 43.474,21.8764 45.584,23.1984 C46.728,23.9174 47.959,24.4134 49.237,24.7384 C50.678,25.1054 52.178,25.2524 53.684,25.2514 C55.875,25.2514 58.095,25.1644 60.211,24.7324 C59.545,24.8684 62.389,28.3254 62.735,28.5644 C63.986,29.4274 65.62,30.0194 67.155,29.8404 C65.932,28.5074 64.689,27.0084 64.571,25.1314 C64.439,23.0394 66.667,22.8074 68.124,21.6834 C71.184,19.3204 72.333,14.9704 71.984,11.2854 C71.608,7.3074 68.42,3.5634 64.94,1.8114" fill="currentColor" mask="url(#symbol-ssfp-mask-4)"></path>
  <path d="M99.4673,20.7378 C102.4343,16.4048 92.8583,13.5948 91.5793,18.3018 C90.2453,15.3258 86.5733,15.1578 84.6513,17.7708 C83.9723,18.6948 83.9863,19.8888 84.0723,20.9898 C84.1803,22.3488 85.4083,23.8038 87.0123,22.9968 C82.2043,25.4128 89.0693,30.8318 91.5833,27.6758 C91.3753,29.4788 94.2293,30.7638 95.6613,31.1248 C97.5243,31.5918 98.7273,31.0398 100.0783,29.9048 C99.3103,30.5508 101.2073,31.6388 101.5623,31.7478 C102.4543,32.0208 103.6863,32.2168 104.6033,32.0668 C105.5073,31.9198 107.0243,31.3998 107.4873,30.5158 C107.7973,29.9258 107.6843,27.8008 106.6833,27.7708 C109.5003,27.8548 108.2483,23.4208 107.2403,22.3318 C105.4403,20.3918 101.8653,19.4298 99.4673,20.7378" fill="transparent" mask="url(#symbol-ssfp-mask-4)"></path>
  <path d="M93.5063,32.1192 C92.7503,32.1192 92.1363,32.7322 92.1363,33.4892 C92.1363,34.2462 92.7503,34.8592 93.5063,34.8592 C94.2643,34.8592 94.8773,34.2462 94.8773,33.4892 C94.8773,32.7322 94.2643,32.1192 93.5063,32.1192" fill="transparent" mask="url(#symbol-ssfp-mask-4)"></path>
  <path d="M88.9536,34.3384 C88.4306,34.3384 88.0066,34.7614 88.0066,35.2834 C88.0066,35.8064 88.4306,36.2304 88.9536,36.2304 C89.4746,36.2304 89.8986,35.8064 89.8986,35.2834 C89.8986,34.7614 89.4746,34.3384 88.9536,34.3384" fill="transparent" mask="url(#symbol-ssfp-mask-4)"></path>
  <path d="M85.6392,35.2837 C85.3422,35.2837 85.1032,35.5247 85.1032,35.8207 C85.1032,36.1167 85.3422,36.3567 85.6392,36.3567 C85.9362,36.3567 86.1762,36.1167 86.1762,35.8207 C86.1762,35.5247 85.9362,35.2837 85.6392,35.2837" fill="transparent" mask="url(#symbol-ssfp-mask-4)"></path>
  <path d="M55.6626,17.5059 C55.1356,17.2859 54.5236,17.5519 54.2966,18.0979 C54.0686,18.6449 54.3106,19.2659 54.8386,19.4859 C55.3646,19.7049 55.9766,19.4399 56.2046,18.8929 C56.4326,18.3459 56.1896,17.7249 55.6626,17.5059" fill="transparent" mask="url(#symbol-ssfp-mask-4)"></path>
  <path d="M58.1665,20.4292 C57.8015,20.2782 57.3805,20.4612 57.2235,20.8382 C57.0645,21.2162 57.2325,21.6442 57.5965,21.7962 C57.9615,21.9472 58.3835,21.7642 58.5395,21.3872 C58.6975,21.0092 58.5295,20.5802 58.1665,20.4292" fill="transparent" mask="url(#symbol-ssfp-mask-4)"></path>
  <path d="M60.188,22.0733 C59.983,21.9873 59.743,22.0913 59.653,22.3053 C59.565,22.5193 59.66,22.7623 59.866,22.8483 C60.073,22.9343 60.311,22.8303 60.401,22.6163 C60.49,22.4023 60.395,22.1593 60.188,22.0733" fill="transparent" mask="url(#symbol-ssfp-mask-4)"></path>
  <path d="M64.563,15.2564 C63.245,15.9704 61.396,15.9904 59.948,15.8264 C59.143,15.7354 56.121,15.1144 56.491,13.6984 C56.036,15.4414 54.044,16.0624 52.481,16.4334 C50.95,16.7984 49.524,16.1814 49.096,15.6704 C48.704,15.2024 48.028,14.4224 48.053,13.8024 C48.053,13.8054 46.61,13.9714 46.474,13.9594 C45.918,13.9084 45.36,13.6444 44.914,13.3204 C44.27,12.8554 43.668,11.9124 43.702,11.1234 C43.749,10.0484 43.95,9.4234 44.586,8.5484 C45.495,7.3004 47.17,7.2244 48.527,7.6604 C48.771,6.3894 49.682,5.4594 50.733,4.7774 C51.754,4.1134 53.174,3.4414 54.398,3.3254 C55.348,3.2354 56.342,3.3674 57.106,3.9834 C58.044,4.7394 58.256,5.4254 58.399,6.6414 C59.199,5.2494 61.526,5.3514 61.84,5.3634 C65.149,5.4854 68.318,8.0554 64.929,10.3894 C66.797,11.1254 66.026,14.4634 64.563,15.2564" fill="transparent" mask="url(#symbol-ssfp-mask-4)"></path>
</svg>
