<svg version="1.1" id="Layer_1" xmlns="http://www.w3.org/2000/svg" xmlns:xlink="http://www.w3.org/1999/xlink" x="0px" y="0px"
	 viewBox="0 0 75 43" enable-background="new 0 0 75 43" xml:space="preserve">
<g>
	<defs>
		<polygon id="SVGID_1_" points="9.065,42.582 0,32.405 0,10.201 9.065,0 65.935,0 75,10.201 75,32.405 65.935,42.582 		"/>
	</defs>
	<clipPath id="SVGID_2_">
		<use xlink:href="#SVGID_1_"  overflow="visible"/>
	</clipPath>
	<g clip-path="url(#SVGID_2_)">
		<defs>
			<rect id="SVGID_3_" x="-352.891" y="-148.196" width="779.88" height="551.103"/>
		</defs>
		<clipPath id="SVGID_4_">
			<use xlink:href="#SVGID_3_"  overflow="visible"/>
		</clipPath>
		<rect x="-4.631" y="-4.631" clip-path="url(#SVGID_4_)" fill="currentColor" width="84.262" height="51.844"/>
	</g>
</g>
<g>
	<defs>
		<path id="SVGID_5_" d="M71.008,30.847l-6.853,7.718h-53.31l-6.853-7.718V11.735l6.853-7.718h53.31l6.853,7.718V30.847z
			 M65.045,1.972H9.931l-7.983,8.984V31.65l7.983,8.96h55.114l7.983-8.96V10.956L65.045,1.972z"/>
	</defs>
	<clipPath id="SVGID_6_">
		<use xlink:href="#SVGID_5_"  overflow="visible"/>
	</clipPath>
	<g clip-path="url(#SVGID_6_)">
		<defs>
			<rect id="SVGID_7_" x="-352.891" y="-148.196" width="779.88" height="551.103"/>
		</defs>
		<clipPath id="SVGID_8_">
			<use xlink:href="#SVGID_7_"  overflow="visible"/>
		</clipPath>
		<rect x="-2.683" y="-2.659" clip-path="url(#SVGID_8_)" fill="#ffdfcb" width="80.343" height="47.9"/>
	</g>
</g>
<g>
	<defs>
		<path id="SVGID_9_" d="M31.813,18.382c-1.395,0-2.357-0.73-2.501-1.753h-0.769l0.12,2.337h0.601
			c0.024-0.268,0.12-0.414,0.289-0.414c0.168,0,0.842,0.609,2.381,0.609c1.371,0,2.91-0.609,2.91-2.216
			c0-1.85-1.659-2.167-3.03-2.216c-0.601-0.049-1.9-0.049-1.9-0.901c0-0.536,0.601-0.901,1.611-0.901c1.25,0,2.26,0.657,2.429,1.631
			h0.721l-0.12-2.216h-0.649c0,0.17-0.048,0.341-0.168,0.341c-0.361,0-0.89-0.536-2.381-0.536c-1.25,0-2.789,0.657-2.789,2.167
			c0,1.753,1.611,1.923,2.837,2.045c0.649,0.049,2.14-0.049,2.14,0.901C33.52,17.797,32.991,18.382,31.813,18.382z"/>
	</defs>
	<clipPath id="SVGID_10_">
		<use xlink:href="#SVGID_9_"  overflow="visible"/>
	</clipPath>
	<g clip-path="url(#SVGID_10_)">
		<defs>
			<rect id="SVGID_11_" x="-352.891" y="-148.196" width="779.88" height="551.103"/>
		</defs>
		<clipPath id="SVGID_12_">
			<use xlink:href="#SVGID_11_"  overflow="visible"/>
		</clipPath>
		<rect x="23.912" y="7.518" clip-path="url(#SVGID_12_)" fill="#ffdfcb" width="15.562" height="16.274"/>
	</g>
</g>
<g>
	<defs>
		<path id="SVGID_13_" d="M54.994,18.211h-0.481c-0.361,0-0.529-0.049-0.529-0.487v-4.261c0-0.122,0.072-0.122,0.12,0l1.948,5.527
			h1.13l2.02-5.527c0.048-0.122,0.12-0.122,0.12,0v4.261c0,0.414-0.168,0.487-0.481,0.487h-0.529v0.779h4.04v-0.779
			c-0.553-0.073-1.323-0.122-1.323-0.852v-3.408c0-0.73,0.577-0.706,1.298-0.828v-0.779h-3.655l-1.659,4.626l-1.539-4.626h-3.679
			v0.779c0.529,0.122,1.298,0.049,1.298,0.779v3.482c0,0.73-0.721,0.779-1.298,0.852v0.755h3.198V18.211z"/>
	</defs>
	<clipPath id="SVGID_14_">
		<use xlink:href="#SVGID_13_"  overflow="visible"/>
	</clipPath>
	<g clip-path="url(#SVGID_14_)">
		<defs>
			<rect id="SVGID_15_" x="-352.891" y="-148.196" width="779.88" height="551.103"/>
		</defs>
		<clipPath id="SVGID_16_">
			<use xlink:href="#SVGID_15_"  overflow="visible"/>
		</clipPath>
		<rect x="47.164" y="7.713" clip-path="url(#SVGID_16_)" fill="#ffdfcb" width="19.818" height="15.909"/>
	</g>
</g>
<g>
	<defs>
		<path id="SVGID_17_" d="M13.538,28.924h-1.154c-0.192,0-0.289-0.049-0.289-0.219v-1.972h1.491c0.601,0,1.371,0.122,1.371,1.023
			C14.957,28.68,14.283,28.924,13.538,28.924z M12.095,24.176c0-0.17,0-0.292,0.24-0.292h1.25c0.649,0,1.058,0.341,1.058,0.949
			c0,0.779-0.601,1.071-1.178,1.071h-1.371V24.176z M14.885,26.27c0.721-0.122,1.491-0.609,1.491-1.436
			c0-1.193-0.938-1.729-2.068-1.729H9.089v0.755c0.745,0.122,1.298,0.17,1.298,0.779v3.53c0,0.243,0,0.706-1.298,0.803v0.779h4.737
			c1.298,0,2.91-0.17,2.91-1.85C16.736,26.805,15.895,26.319,14.885,26.27z"/>
	</defs>
	<clipPath id="SVGID_18_">
		<use xlink:href="#SVGID_17_"  overflow="visible"/>
	</clipPath>
	<g clip-path="url(#SVGID_18_)">
		<defs>
			<rect id="SVGID_19_" x="-352.891" y="-148.196" width="779.88" height="551.103"/>
		</defs>
		<clipPath id="SVGID_20_">
			<use xlink:href="#SVGID_19_"  overflow="visible"/>
		</clipPath>
		<rect x="4.458" y="18.474" clip-path="url(#SVGID_20_)" fill="#ffdfcb" width="16.909" height="15.909"/>
	</g>
</g>
<g>
	<defs>
		<path id="SVGID_21_" d="M50.545,16.653h-0.77c-0.168,0.779-0.361,1.509-1.491,1.509h-1.25c-0.289,0-0.289-0.049-0.289-0.17v-1.923
			h0.842c0.721,0,0.721,0.73,0.721,1.071h0.769v-3.019h-0.769c0,0.244,0,1.071-0.649,1.071h-0.89v-1.85
			c0-0.17,0.048-0.244,0.289-0.244h1.25c1.13,0,1.299,0.609,1.419,1.436h0.769l-0.12-2.216H43.74v0.779
			c0.553,0.073,1.299,0.122,1.299,0.779v3.481c0,0.657-0.481,0.73-1.299,0.852v0.779h6.709L50.545,16.653z"/>
	</defs>
	<clipPath id="SVGID_22_">
		<use xlink:href="#SVGID_21_"  overflow="visible"/>
	</clipPath>
	<g clip-path="url(#SVGID_22_)">
		<defs>
			<rect id="SVGID_23_" x="-352.891" y="-148.196" width="779.88" height="551.103"/>
		</defs>
		<clipPath id="SVGID_24_">
			<use xlink:href="#SVGID_23_"  overflow="visible"/>
		</clipPath>
		<rect x="39.109" y="7.688" clip-path="url(#SVGID_24_)" fill="#ffdfcb" width="16.067" height="15.933"/>
	</g>
</g>
<g>
	<defs>
		<path id="SVGID_25_" d="M16.039,18.382c-1.395,0-2.357-0.73-2.501-1.753h-0.769l0.12,2.337h0.601
			c0.024-0.268,0.12-0.414,0.289-0.414c0.168,0,0.842,0.609,2.381,0.609c1.371,0,2.91-0.609,2.91-2.216
			c0-1.85-1.659-2.167-3.03-2.216c-0.601-0.049-1.9-0.049-1.9-0.901c0-0.536,0.601-0.901,1.611-0.901c1.25,0,2.26,0.657,2.429,1.631
			H18.9l-0.12-2.216h-0.649c0,0.17-0.048,0.341-0.168,0.341c-0.361,0-0.89-0.536-2.381-0.536c-1.25,0-2.789,0.657-2.789,2.167
			c0,1.753,1.611,1.923,2.837,2.045c0.649,0.049,2.14-0.049,2.14,0.901C17.77,17.797,17.217,18.382,16.039,18.382z"/>
	</defs>
	<clipPath id="SVGID_26_">
		<use xlink:href="#SVGID_25_"  overflow="visible"/>
	</clipPath>
	<g clip-path="url(#SVGID_26_)">
		<defs>
			<rect id="SVGID_27_" x="-352.891" y="-148.196" width="779.88" height="551.103"/>
		</defs>
		<clipPath id="SVGID_28_">
			<use xlink:href="#SVGID_27_"  overflow="visible"/>
		</clipPath>
		<rect x="8.137" y="7.518" clip-path="url(#SVGID_28_)" fill="#ffdfcb" width="15.562" height="16.274"/>
	</g>
</g>
<g>
	<defs>
		<path id="SVGID_29_" d="M66.223,23.08h-6.877l-0.12,2.216h0.697c0.144-0.779,0.361-1.436,1.491-1.436h0.505v4.261
			c0,0.657-0.385,0.73-1.274,0.852v0.779h4.28v-0.779c-0.842-0.122-1.274-0.17-1.274-0.852V23.86h0.481
			c0.745,0,1.298,0.195,1.515,1.436h0.697L66.223,23.08z"/>
	</defs>
	<clipPath id="SVGID_30_">
		<use xlink:href="#SVGID_29_"  overflow="visible"/>
	</clipPath>
	<g clip-path="url(#SVGID_30_)">
		<defs>
			<rect id="SVGID_31_" x="-352.891" y="-148.196" width="779.88" height="551.103"/>
		</defs>
		<clipPath id="SVGID_32_">
			<use xlink:href="#SVGID_31_"  overflow="visible"/>
		</clipPath>
		<rect x="54.595" y="18.449" clip-path="url(#SVGID_32_)" fill="#ffdfcb" width="16.38" height="15.933"/>
	</g>
</g>
<g>
	<defs>
		<path id="SVGID_33_" d="M21.69,29.094c-1.178,0-2.14-0.852-2.14-2.654c0-1.802,0.938-2.776,2.14-2.776
			c1.25,0,2.188,1.023,2.188,2.776C23.902,28.315,22.94,29.094,21.69,29.094z M21.69,22.886c-2.26,0-3.968,1.266-3.968,3.555
			c0,2.41,1.779,3.506,3.968,3.506c2.26,0,4.04-1.096,4.04-3.506C25.729,24.152,23.95,22.886,21.69,22.886z"/>
	</defs>
	<clipPath id="SVGID_34_">
		<use xlink:href="#SVGID_33_"  overflow="visible"/>
	</clipPath>
	<g clip-path="url(#SVGID_34_)">
		<defs>
			<rect id="SVGID_35_" x="-352.891" y="-148.196" width="779.88" height="551.103"/>
		</defs>
		<clipPath id="SVGID_36_">
			<use xlink:href="#SVGID_35_"  overflow="visible"/>
		</clipPath>
		<rect x="13.091" y="18.255" clip-path="url(#SVGID_36_)" fill="#ffdfcb" width="17.27" height="16.323"/>
	</g>
</g>
<g>
	<defs>
		<path id="SVGID_37_" d="M46.914,27.268h0.409c0.409,0,0.77,0.122,0.77,0.657c0,0.536-0.625,1.144-1.539,1.144
			c-1.25,0-2.381-0.852-2.381-2.654c0-1.753,1.058-2.776,2.308-2.776c1.13,0,2.02,0.487,2.188,1.631h0.769v-2.216H48.67
			c0,0.268-0.096,0.365-0.168,0.365c-0.289,0-1.01-0.536-2.381-0.536c-1.9,0-3.799,1.315-3.799,3.555
			c0,2.337,2.02,3.506,3.799,3.506c1.659,0,2.188-0.633,2.453-0.633c0.192,0,0.265,0.219,0.265,0.463h0.721v-1.68
			c0-0.657,0.481-0.779,1.058-0.779v-0.852H46.89v0.803H46.914z"/>
	</defs>
	<clipPath id="SVGID_38_">
		<use xlink:href="#SVGID_37_"  overflow="visible"/>
	</clipPath>
	<g clip-path="url(#SVGID_38_)">
		<defs>
			<rect id="SVGID_39_" x="-352.891" y="-148.196" width="779.88" height="551.103"/>
		</defs>
		<clipPath id="SVGID_40_">
			<use xlink:href="#SVGID_39_"  overflow="visible"/>
		</clipPath>
		<rect x="37.69" y="18.255" clip-path="url(#SVGID_40_)" fill="#ffdfcb" width="17.558" height="16.323"/>
	</g>
</g>
<g>
	<defs>
		<path id="SVGID_41_" d="M55.835,28.899h-1.25c-0.24,0-0.289-0.073-0.289-0.219v-1.875h0.842c0.721,0,0.721,0.73,0.721,1.071h0.769
			v-2.995h-0.769c0,0.243,0,1.071-0.649,1.071h-0.89v-1.85c0-0.17,0.048-0.243,0.289-0.243h1.25c1.13,0,1.298,0.609,1.419,1.436
			h0.77l-0.12-2.216h-6.637v0.779c0.553,0.073,1.298,0.122,1.298,0.779v3.482c0,0.657-0.481,0.73-1.298,0.852v0.779h6.661
			l0.12-2.337h-0.77C57.134,28.193,56.941,28.899,55.835,28.899z"/>
	</defs>
	<clipPath id="SVGID_42_">
		<use xlink:href="#SVGID_41_"  overflow="visible"/>
	</clipPath>
	<g clip-path="url(#SVGID_42_)">
		<defs>
			<rect id="SVGID_43_" x="-352.891" y="-148.196" width="779.88" height="551.103"/>
		</defs>
		<clipPath id="SVGID_44_">
			<use xlink:href="#SVGID_43_"  overflow="visible"/>
		</clipPath>
		<rect x="46.659" y="18.449" clip-path="url(#SVGID_44_)" fill="#ffdfcb" width="16.043" height="15.933"/>
	</g>
</g>
<g>
	<defs>
		<path id="SVGID_45_" d="M42.826,12.319h-6.877l-0.12,2.216h0.697c0.144-0.779,0.337-1.436,1.491-1.436h0.505v4.261
			c0,0.657-0.385,0.73-1.274,0.852v0.779h4.28v-0.779c-0.842-0.122-1.274-0.17-1.274-0.852v-4.261h0.481
			c0.746,0,1.299,0.195,1.515,1.436h0.697L42.826,12.319z"/>
	</defs>
	<clipPath id="SVGID_46_">
		<use xlink:href="#SVGID_45_"  overflow="visible"/>
	</clipPath>
	<g clip-path="url(#SVGID_46_)">
		<defs>
			<rect id="SVGID_47_" x="-352.891" y="-148.196" width="779.88" height="551.103"/>
		</defs>
		<clipPath id="SVGID_48_">
			<use xlink:href="#SVGID_47_"  overflow="visible"/>
		</clipPath>
		<rect x="31.198" y="7.688" clip-path="url(#SVGID_48_)" fill="#ffdfcb" width="16.38" height="15.933"/>
	</g>
</g>
<g>
	<defs>
		<path id="SVGID_49_" d="M24.671,17.359v-1.193l1.9-2.532c0.289-0.365,0.553-0.487,1.178-0.487v-0.852h-3.03v0.852
			c0.818,0,0.962,0.146,0.601,0.657c0,0-0.842,1.071-0.962,1.217c-0.048,0.073-0.12,0.097-0.168,0
			c-0.409-0.56-0.938-1.266-0.938-1.266c-0.457-0.56,0.048-0.609,0.601-0.609v-0.852H19.79v0.852c0.721,0,0.962,0.122,1.178,0.414
			l1.948,2.581v1.193c0,0.706-0.481,0.73-1.25,0.852v0.803h4.256v-0.779C25.224,18.065,24.671,18.065,24.671,17.359z"/>
	</defs>
	<clipPath id="SVGID_50_">
		<use xlink:href="#SVGID_49_"  overflow="visible"/>
	</clipPath>
	<g clip-path="url(#SVGID_50_)">
		<defs>
			<rect id="SVGID_51_" x="-352.891" y="-148.196" width="779.88" height="551.103"/>
		</defs>
		<clipPath id="SVGID_52_">
			<use xlink:href="#SVGID_51_"  overflow="visible"/>
		</clipPath>
		<rect x="15.159" y="7.664" clip-path="url(#SVGID_52_)" fill="#ffdfcb" width="17.222" height="15.958"/>
	</g>
</g>
<g>
	<defs>
		<path id="SVGID_53_" d="M30.683,28.899h-0.962c-0.241,0-0.289-0.049-0.289-0.17v-4.017c0-0.487,0.289-0.73,1.298-0.852V23.08
			h-4.352v0.779c0.721,0.073,1.298,0.219,1.298,0.779v3.482c0,0.657-0.481,0.73-1.298,0.852v0.779h6.372l0.12-2.337H32.15
			C31.933,28.291,31.813,28.899,30.683,28.899z"/>
	</defs>
	<clipPath id="SVGID_54_">
		<use xlink:href="#SVGID_53_"  overflow="visible"/>
	</clipPath>
	<g clip-path="url(#SVGID_54_)">
		<defs>
			<rect id="SVGID_55_" x="-352.891" y="-148.196" width="779.88" height="551.103"/>
		</defs>
		<clipPath id="SVGID_56_">
			<use xlink:href="#SVGID_55_"  overflow="visible"/>
		</clipPath>
		<rect x="21.748" y="18.449" clip-path="url(#SVGID_56_)" fill="#ffdfcb" width="15.755" height="15.933"/>
	</g>
</g>
<g>
	<defs>
		<path id="SVGID_57_" d="M36.478,27.171l1.034-2.678c0.048-0.17,0.168-0.17,0.24,0l1.034,2.678H36.478z M40.975,28.291l-2.212-5.21
			h-1.563l-2.26,5.21c-0.168,0.39-0.289,0.56-1.298,0.657v0.779h3.078v-0.755h-0.529c-0.289,0-0.361-0.122-0.289-0.292l0.289-0.73
			h3.006l0.265,0.73c0.024,0.097,0.072,0.316-0.265,0.316h-0.577v0.779h3.631v-0.852C41.335,28.899,41.095,28.534,40.975,28.291z"/>
	</defs>
	<clipPath id="SVGID_58_">
		<use xlink:href="#SVGID_57_"  overflow="visible"/>
	</clipPath>
	<g clip-path="url(#SVGID_58_)">
		<defs>
			<rect id="SVGID_59_" x="-352.891" y="-148.196" width="779.88" height="551.103"/>
		</defs>
		<clipPath id="SVGID_60_">
			<use xlink:href="#SVGID_59_"  overflow="visible"/>
		</clipPath>
		<rect x="29.009" y="18.449" clip-path="url(#SVGID_60_)" fill="#ffdfcb" width="17.871" height="15.957"/>
	</g>
</g>
</svg>
