<?xml version="1.0" encoding="UTF-8"?>
<svg width="1200px" height="900px" viewBox="0 0 1200 900" version="1.1" xmlns="http://www.w3.org/2000/svg" xmlns:xlink="http://www.w3.org/1999/xlink">
    <title>Artboard Copy 10</title>
    <g id="Artboard-Copy-10" stroke="none" stroke-width="1" fill="none" fill-rule="evenodd">
        <rect fill="#FFFFFF" x="0" y="0" width="1200" height="900"></rect>
        <g id="Group" transform="translate(-31.000000, -130.000000)" fill-rule="nonzero">
            <rect id="Rectangle" fill="#E5A29A" x="0" y="0" width="373" height="1160"></rect>
            <rect id="Rectangle" fill="#C9DAA4" x="389" y="0" width="432" height="1160"></rect>
            <rect id="Rectangle" fill="#478B9E" x="837" y="0" width="394" height="1160"></rect>
        </g>
        <g id="WWF-Foreground" transform="translate(125.000000, 218.000000)">
            <rect id="Rectangle" fill-opacity="0.5" fill="#000000" fill-rule="nonzero" x="28" y="30" width="922" height="435"></rect>
            <rect id="Rectangle" fill="#FFFFFF" fill-rule="nonzero" x="0" y="0" width="922" height="435"></rect>
            <path d="M165.341331,322 C163.406511,321.993105 161.675058,323.238597 161.011699,325.114479 L152.221236,348.269739 L151.43403,350.910251 L150.581224,348.269739 L143.758775,325.791533 C143.776882,325.713649 143.776882,325.632448 143.758775,325.554564 L143.758775,325.554564 C143.124777,323.626834 141.368799,322.332317 139.396343,322.338556 L128.244262,322.338556 C125.749088,322.447465 123.7812,324.568102 123.78343,327.145642 C123.884379,327.984292 124.060058,328.811545 124.308234,329.616891 L125.751444,334.322419 L120.339405,348.269739 L119.486599,350.876398 L118.764994,348.269739 L111.975345,325.757681 C111.967886,325.678878 111.967886,325.599514 111.975345,325.520712 L111.975345,325.520712 C111.332899,323.599475 109.582157,322.308819 107.612913,322.304703 L96.4608323,322.304703 C93.9730869,322.430496 92.0144338,324.541182 92,327.111789 C92.0659537,327.959543 92.2538836,328.792431 92.557604,329.583038 L108.957723,380.362117 C109.453946,382.453453 111.245337,383.943012 113.330838,383.998405 C115.416339,384.053798 117.279594,382.66131 117.879387,380.599086 L129.457871,350.436313 L130.310677,347.728095 L131.032282,350.40246 L140.872354,380.362117 C141.374559,382.499309 143.235259,383.999188 145.365986,383.984358 C147.420591,383.993519 149.241814,382.621502 149.859619,380.599086 L169.539761,329.041394 C169.823049,328.390966 169.979101,327.689205 169.998964,326.976378 C170.025303,325.677657 169.54832,324.421798 168.67387,323.48751 C167.799419,322.553222 166.599833,322.017786 165.341331,322" id="Path" fill="#000000" fill-rule="nonzero"></path>
            <path d="M249.159982,323 C247.187444,322.994429 245.417197,324.215395 244.71371,326.066679 L235.821165,348.866632 L234.958456,351.466627 L234.294833,348.833299 L227.326794,326.700011 C227.345112,326.623322 227.345112,326.543368 227.326794,326.466679 L227.326794,326.466679 C226.652074,324.564503 224.857453,323.295831 222.847341,323.300018 L211.665298,323.300018 C209.146571,323.407706 207.165685,325.500858 207.185844,328.033342 C207.239443,328.866735 207.418441,329.687157 207.716743,330.46667 L209.176713,335.099994 L203.668644,348.866632 L202.772753,351.433294 L202.109131,348.833299 L195.207454,326.666678 C195.199909,326.589085 195.199909,326.510938 195.207454,326.433345 L195.207454,326.433345 C194.566094,324.535195 192.789725,323.260542 190.794363,323.266685 L179.512777,323.266685 C176.980981,323.356858 174.980584,325.455083 175,328 C175.085937,328.828516 175.264018,329.644733 175.53104,330.433337 L192.320695,380.433233 C192.828733,382.537631 194.711041,384.014495 196.866511,384 C198.917002,383.969591 200.71958,382.628226 201.345964,380.666566 L213.058906,350.966628 L213.888434,348.299967 L214.618419,350.933295 L224.57276,380.433233 C225.109473,382.523658 226.98618,383.9844 229.135166,383.9844 C231.284153,383.9844 233.160859,382.523658 233.697572,380.433233 L253.606254,329.666672 C254.236842,328.210171 254.10385,326.533825 253.25158,325.196047 C252.39931,323.858269 250.939738,323.034827 249.359069,323" id="Path" fill="#000000" fill-rule="nonzero"></path>
            <path d="M301.692767,323.133919 L263.036409,323.133919 C261.960212,323.133882 260.928565,323.572335 260.170666,324.351866 C259.412767,325.131398 258.991384,326.187449 259,327.285401 L259,327.285401 L259,379.68112 L259,379.68112 C259.103346,382.060177 260.998148,383.94941 263.331746,384 L274.292037,384 C276.662032,383.928575 278.556742,381.965988 278.590835,379.547201 L278.590835,355.073546 L294.342152,355.073546 C296.680065,355.073546 298.575318,353.139917 298.575318,350.754665 C298.575318,348.369413 296.680065,346.435785 294.342152,346.435785 L278.590835,346.435785 L278.590835,332.273875 L301.922473,332.273875 C304.285105,332.016747 306.058546,329.952258 305.998521,327.528886 C305.938496,325.105514 304.065112,323.135048 301.692767,323" id="Path" fill="#000000" fill-rule="nonzero"></path>
            <path d="M242.438285,157.416862 C249.612924,165.458811 250.380444,189.284337 268.367099,179.807517 C279.179114,174.101404 279.012262,150.042294 264.596242,141.366332 C252.916596,134.458931 246.542846,143.768906 242.304803,155.181133 C241.898399,155.870974 241.898399,156.72702 242.304803,157.416862" id="Path" fill="#000000" fill-rule="nonzero"></path>
            <path d="M214.207019,154.233491 C206.739777,160.490836 201.618439,177.656706 187.93951,171.800903 C176.870811,166.112407 175.813502,143.893815 194.878097,133.654523 C208.094454,127.464102 214.933918,139.711098 215,152.727713 C214.898263,153.301482 214.620835,153.828285 214.207019,154.233491" id="Path" fill="#000000" fill-rule="nonzero"></path>
            <path d="M233.005399,195.868211 C240.480121,195.092769 238.796625,188.147502 233.005399,186.394328 C227.080035,184.78061 220.9642,183.975417 214.823642,184.000572 C205.160375,184.202861 205.396065,191.586421 210.412883,192.833872 C214.219843,193.588301 217.613701,195.725805 219.94147,198.835121 C222.938093,204.634081 221.591296,197.081947 232.904389,195.868211" id="Path" fill="#000000" fill-rule="nonzero"></path>
            <path d="M268.618974,75.0593716 C277.746306,59.6279547 293.588745,62.6146806 301.542563,70.3137961 C310.278723,78.6766285 311.68042,88.3337088 308.322866,95.1368066 C303.759201,104.229728 292.02406,115.313799 284.526609,104.594772 C280.642579,99.5810385 275.738409,95.4827504 270.151062,92.5814967 C264.185699,90.0261868 263.044783,84.5505227 268.618974,75.0593716" id="Path" fill="#000000" fill-rule="nonzero"></path>
            <path d="M234.087887,212.621485 C230.053554,223.323787 209.154389,219.667721 208.493023,209.297789 C208.493023,208.865708 209.022116,208.965419 209.286662,209.031893 C217.18742,211.027487 225.282876,212.14211 233.426521,212.355589 C233.657999,212.355589 234.154023,212.355589 234.087887,212.754433 M305.019389,141.959701 C304.192682,139.23427 302.836882,139.367218 302.86995,141.627332 C303.630521,169.845513 286.897961,200.024676 251.051924,200.224098 C241.892005,200.224098 244.636674,215.014546 227.904115,207.569467 C215.867254,199.426411 208.955979,215.513101 200.39129,198.196643 C199.247761,194.222857 196.041062,191.190892 192.02501,190.286246 C156.641929,181.47845 145.365639,132.520404 176.549046,93.0016543 C182.699749,96.6909572 184.981462,97.2559856 191.562054,91.2068583 C195.232701,87.9413553 199.39605,85.2825175 203.896529,83.329698 C211.369965,80.4380822 215.437366,77.2473337 208.955979,62.8557287 C200.622768,44.2097923 183.592593,49.5609434 175.88768,55.9092033 C167.091512,63.2213353 160.940808,74.9539833 172.250167,88.813797 C140.570736,110.284875 135.114466,136.708261 135.875037,159.641766 C136.635608,184.037697 130.418768,181.977005 138.15675,206.805016 C138.851184,208.998656 137.330042,208.932182 136.172652,208.234206 C103.104352,186.962549 85.2805387,122.117234 136.767881,86.3874986 C137.925272,85.3239158 137.462315,83.9612003 133.229573,86.3874986 C88.6535053,110.085453 84.5530362,155.9857 91.927267,186.896075 C95.5647799,201.885946 90.0423739,204.644614 95.8293263,224.320896 C108.891305,265.268835 120.200663,268.592531 136.371062,269.822299 C165.438097,269.822299 145.72939,253.702372 146.787576,233.261639 C146.787576,232.098345 148.209513,231.50008 149.03622,233.959615 C165.041277,270.021721 176.350636,302.85984 218.479649,299.80204 C242.817918,296.478343 229.326052,284.446563 227.837978,277.566511 C209.91496,217.739977 253.399774,203.747216 241.065298,261.978375 C232.963565,295.215339 258.624565,291.891642 276.712925,280.026046 C295.098899,267.894555 318.445119,186.663417 305.019389,141.959701" id="Shape" fill="#000000" fill-rule="nonzero"></path>
            <path d="M132.070722,275.000251 C128.016651,274.971625 124.346478,277.393606 122.778479,281.132291 C121.210479,284.870975 122.054985,289.186417 124.916621,292.058245 C127.778257,294.930072 132.090661,295.789904 135.834882,294.235192 C139.579103,292.68048 142.014101,289.018924 141.999939,284.964767 C141.980644,279.483267 137.552105,275.038956 132.070722,275.000251 M140.409798,284.964767 C140.438436,288.343901 138.424943,291.406261 135.311221,292.719291 C132.197498,294.032322 128.599183,293.336413 126.199549,290.957109 C123.799914,288.577804 123.07341,284.985532 124.35989,281.86074 C125.64637,278.735948 128.691475,276.696339 132.070722,276.696339 C136.648809,276.696339 140.371001,280.386832 140.409798,284.964767" id="Shape" fill="#000000" fill-rule="nonzero"></path>
            <path d="M134.782373,286.862909 C134.64803,288.090506 133.544481,288.978035 132.315076,288.847232 C131.509933,288.806109 130.7549,288.444312 130.21892,287.842794 C129.682939,287.241275 129.410753,286.450249 129.463264,285.64671 C129.361694,284.832372 129.616684,284.013843 130.162905,283.400833 C130.709126,282.787822 131.493502,282.439894 132.315076,282.446189 C133.427279,282.384243 134.424961,283.124893 134.686244,284.206476 L135.935914,284.206476 C135.798968,282.321609 134.171872,280.896008 132.283033,281.005955 C131.088514,280.962777 129.933766,281.438194 129.116659,282.309569 C128.299553,283.180945 127.900099,284.362954 128.021337,285.550695 C127.958973,286.720647 128.385827,287.863928 129.199925,288.707412 C130.014024,289.550897 131.142251,290.018828 132.315076,289.999419 C134.176382,290.015294 135.75728,288.642213 136,286.798898 L134.782373,286.862909 Z" id="Path" fill="#000000" fill-rule="nonzero"></path>
            <path d="M297.533765,298.00006 C293.688417,297.986484 290.214118,300.292377 288.733109,303.841119 C287.2521,307.389861 288.056526,311.481419 290.770781,314.205341 C293.485036,316.929262 297.5737,317.748221 301.127671,316.279824 C304.681642,314.811426 306.999941,311.345332 306.999941,307.499949 C307.008836,304.98354 306.015471,302.567127 304.239258,300.784588 C302.463045,299.00205 300.050182,298.00006 297.533765,298.00006 M305.450339,307.499949 C305.46389,310.7216 303.531899,313.632981 300.558076,314.872155 C297.584254,316.111328 294.156581,315.433286 291.878515,313.155214 C289.60045,310.877142 288.922409,307.44946 290.161579,304.475629 C291.400749,301.501798 294.312122,299.569802 297.533765,299.583353 C301.898261,299.601879 305.431813,303.13544 305.450339,307.499949" id="Shape" fill="#000000" fill-rule="nonzero"></path>
            <path d="M294.365,306.924812 L294.365,304.116541 L296.255,304.116541 C297.235,304.116541 298.285,304.353383 298.285,305.469925 C298.285,306.586466 297.235,306.924812 296.01,306.924812 L294.365,306.924812 Z M294.365,308.109023 L295.975,308.109023 L298.46,312 L300,312 L297.34,308.007519 C297.999112,308.008121 298.629842,307.748272 299.085885,307.288246 C299.541929,306.82822 299.783657,306.207992 299.755,305.571429 C299.755,303.778195 298.705,303 296.5,303 L293,303 L293,311.932331 L294.47,311.932331 L294.365,308.109023 Z" id="Shape" fill="#000000" fill-rule="nonzero"></path>
            <polygon id="Path" fill="#000000" fill-rule="nonzero" points="568.423707 326 568.423707 152.398592 533.50819 326 505.230603 326 470.348276 152.398592 470.348276 326 443 326 443 100 488.2375 100 520.298707 264.155741 552.393103 100 597 100 597 326"></polygon>
            <path d="M695.576849,326 L687.427275,272.971697 L648.692054,272.971697 L640.872422,326 L609,326 L648.065164,100 L687.130327,100 L729,326 L695.576849,326 Z M667.135826,147.029476 L653.047292,241.221 L682.115205,241.221 L667.135826,147.029476 Z" id="Shape" fill="#000000" fill-rule="nonzero"></path>
            <polygon id="Path" fill="#000000" fill-rule="nonzero" points="788.115538 131.0547 788.115538 326 756.884462 326 756.884462 131.0547 714 131.0547 714 100 831 100 831 131.0547"></polygon>
            <line x1="378.5" y1="392" x2="378.5" y2="38" id="Path" stroke="#000000" stroke-width="0.71"></line>
        </g>
    </g>
</svg>