<svg xmlns="http://www.w3.org/2000/svg" width="50" height="50" viewBox="0 0 50 50"><path fill-rule="evenodd" clip-rule="evenodd" fill="#181616" d="M25 0C11.194 0 0 11.476 0 25.634c0 11.325 7.163 20.932 17.098 24.32 1.25.236 1.707-.554 1.707-1.233 0-.602-.022-2.22-.034-4.36-6.95 1.55-8.42-3.43-8.42-3.43-1.132-2.96-2.77-3.75-2.77-3.75-2.27-1.59.17-1.56.17-1.56 2.51.18 3.83 2.64 3.83 2.64 2.23 3.92 5.85 2.79 7.275 2.13.228-1.653.874-2.78 1.588-3.43-5.55-.64-11.386-2.84-11.386-12.662 0-2.798.975-5.087 2.574-6.878-.256-.65-1.114-3.256.246-6.785 0 0 2.1-.688 6.874 2.63 1.992-.57 4.13-.854 6.26-.864 2.12.01 4.26.295 6.256.864 4.774-3.316 6.87-2.63 6.87-2.63 1.364 3.53.505 6.14.25 6.787 1.6 1.79 2.567 4.08 2.567 6.877 0 9.847-5.846 12.014-11.414 12.65.895.79 1.693 2.353 1.693 4.745 0 3.428-.03 6.19-.03 7.03 0 .69.45 1.485 1.72 1.235 9.923-3.4 17.077-13 17.077-24.322C50 11.477 38.81 0 25 0z"/></svg>