<svg xmlns="http://www.w3.org/2000/svg" width="50" height="50" viewBox="0 0 50 50"><path fill-rule="evenodd" clip-rule="evenodd" fill="#181616" d="M25 0C11.194 0 0 11.476 0 25.634c0 11.325 7.163 20.932 17.098 24.32 1.25.236 1.707-.554 1.707-1.233 0-.6-.022-2.22-.034-4.36-6.95 1.55-8.42-3.43-8.42-3.43-1.13-2.96-2.77-3.75-2.77-3.75-2.27-1.59.17-1.56.17-1.56 2.51.18 3.83 2.64 3.83 2.64 2.23 3.92 5.85 2.79 7.28 2.13.23-1.65.875-2.78 1.59-3.43-5.55-.64-11.387-2.84-11.387-12.66 0-2.8.975-5.083 2.574-6.88-.256-.65-1.114-3.25.246-6.78 0 0 2.1-.69 6.872 2.63 1.992-.57 4.13-.853 6.26-.863 2.12.01 4.26.295 6.256.864 4.774-3.316 6.87-2.63 6.87-2.63 1.364 3.53.505 6.14.25 6.787 1.6 1.79 2.567 4.08 2.567 6.877 0 9.848-5.846 12.015-11.414 12.65.896.79 1.694 2.354 1.694 4.746 0 3.426-.03 6.19-.03 7.03 0 .69.45 1.483 1.72 1.233C42.847 46.56 50 36.96 50 25.64 50 11.478 38.81 0 25 0z"/></svg>