<svg xmlns="http://www.w3.org/2000/svg" width="50" height="50" viewBox="0 0 50 50"><path fill="#3AAAE1" d="M50 9.493c-1.84.816-3.816 1.367-5.892 1.615 2.118-1.27 3.744-3.28 4.51-5.675-1.98 1.176-4.177 2.03-6.514 2.49-1.87-1.995-4.537-3.24-7.487-3.24-5.665 0-10.258 4.593-10.258 10.258 0 .81.09 1.59.26 2.34-8.52-.43-16.08-4.51-21.14-10.72-.89 1.52-1.39 3.28-1.39 5.16 0 3.56 1.81 6.7 4.56 8.54-1.68-.05-3.268-.51-4.65-1.28v.13c0 4.97 3.536 9.118 8.23 10.06-.86.235-1.77.36-2.704.36-.66 0-1.304-.063-1.93-.183 1.306 4.076 5.094 7.04 9.583 7.125-3.51 2.75-7.933 4.39-12.74 4.39-.826 0-1.643-.047-2.445-.143 4.534 2.91 9.93 4.61 15.72 4.61 18.87 0 29.187-15.63 29.187-29.186 0-.44-.01-.883-.03-1.323 2.006-1.447 3.745-3.254 5.12-5.31z"/></svg>