<svg xmlns="http://www.w3.org/2000/svg" width="135" height="40" viewBox="0 0 135 40"><path fill="#fff" d="M134.032 35.268c0 2.116-1.714 3.83-3.834 3.83H4.728c-2.118 0-3.838-1.714-3.838-3.83V4.725C.89 2.61 2.61.89 4.73.89h125.467c2.12 0 3.834 1.72 3.834 3.835l.01 30.543z"/><path d="M134.032 35.268c0 2.116-1.714 3.83-3.834 3.83H4.728c-2.118 0-3.838-1.714-3.838-3.83V4.725C.89 2.61 2.61.89 4.73.89h125.467c2.12 0 3.834 1.72 3.834 3.835l.01 30.543z"/><path fill="#fff" d="M30.128 19.784c-.03-3.223 2.64-4.79 2.76-4.864-1.51-2.203-3.852-2.504-4.675-2.528-1.967-.207-3.875 1.177-4.877 1.177-1.022 0-2.565-1.16-4.228-1.13-2.14.03-4.142 1.27-5.24 3.192-2.266 3.923-.576 9.69 1.595 12.86 1.086 1.553 2.355 3.286 4.016 3.225 1.62-.065 2.23-1.035 4.19-1.035 1.94 0 2.51 1.037 4.2.998 1.742-.025 2.84-1.56 3.89-3.126 1.253-1.776 1.76-3.53 1.78-3.62-.04-.015-3.388-1.293-3.42-5.155zm-3.2-9.478c.874-1.093 1.472-2.58 1.306-4.09-1.265.057-2.847.876-3.758 1.945-.806.95-1.526 2.49-1.34 3.94 1.42.11 2.88-.71 3.792-1.79z"/><linearGradient id="a" gradientUnits="userSpaceOnUse" x1="366.459" y1="450.097" x2="366.459" y2="414.051" gradientTransform="translate(-267.5 -410)"><stop offset="0" stop-color="#1A1A1A" stop-opacity=".1"/><stop offset=".123" stop-color="#212121" stop-opacity=".151"/><stop offset=".308" stop-color="#353535" stop-opacity=".227"/><stop offset=".532" stop-color="#575757" stop-opacity=".318"/><stop offset=".783" stop-color="#858585" stop-opacity=".421"/><stop offset="1" stop-color="#B3B3B3" stop-opacity=".51"/></linearGradient><path fill="url(#a)" d="M130.198 0H62.993l26.323 39.99h40.882c2.604 0 4.73-2.118 4.73-4.725V4.725c0-2.605-2.125-4.725-4.73-4.725z"/><path d="M53.665 31.504h-2.27l-1.245-3.908h-4.324l-1.185 3.908h-2.21l4.29-13.308h2.65l4.306 13.308zm-3.89-5.55L48.65 22.48c-.12-.355-.343-1.19-.67-2.507h-.04c-.133.566-.344 1.402-.633 2.507L46.2 25.955h3.575zm14.888.634c0 1.633-.443 2.922-1.33 3.87-.794.842-1.78 1.263-2.958 1.263-1.27 0-2.185-.45-2.74-1.36v5.04h-2.132V25.068c0-1.025-.027-2.076-.08-3.154H57.3l.118 1.52h.04c.71-1.145 1.79-1.72 3.238-1.72 1.132 0 2.077.448 2.833 1.343.75.9 1.13 2.08 1.13 3.54zm-2.172.078c0-.934-.21-1.704-.63-2.31-.46-.632-1.08-.948-1.85-.948-.523 0-1 .176-1.43.523-.43.35-.71.81-.84 1.38-.063.268-.1.48-.1.65v1.6c0 .7.218 1.288.646 1.77.428.48.984.72 1.668.72.804 0 1.43-.31 1.876-.926.447-.62.67-1.435.67-2.45zm13.21-.078c0 1.633-.44 2.922-1.33 3.87-.79.842-1.78 1.263-2.96 1.263-1.27 0-2.18-.45-2.74-1.36v5.04h-2.13V25.068c0-1.025-.02-2.076-.08-3.154h1.88l.12 1.52h.04c.71-1.145 1.79-1.72 3.24-1.72 1.13 0 2.078.448 2.836 1.343.754.9 1.134 2.08 1.134 3.54zm-2.17.078c0-.934-.21-1.704-.63-2.31-.46-.632-1.08-.948-1.85-.948-.525 0-1.003.176-1.432.523-.427.35-.706.81-.837 1.38-.066.268-.102.48-.102.65v1.6c0 .7.216 1.288.643 1.77.428.48.983.72 1.67.72.804 0 1.43-.31 1.875-.926.45-.62.673-1.435.673-2.45zm14.51 1.104c0 1.134-.39 2.055-1.18 2.766-.86.776-2.07 1.165-3.62 1.165-1.433 0-2.58-.27-3.446-.82l.493-1.774c.933.553 1.96.83 3.08.83.8 0 1.427-.183 1.873-.544.446-.362.672-.846.672-1.45 0-.54-.187-.994-.554-1.363-.37-.368-.98-.71-1.834-1.026-2.33-.87-3.495-2.14-3.495-3.81 0-1.092.41-1.985 1.23-2.685.823-.698 1.913-1.047 3.27-1.047 1.21 0 2.22.21 3.02.633l-.534 1.74c-.756-.408-1.606-.61-2.56-.61-.75 0-1.342.183-1.764.55-.354.33-.535.73-.535 1.21 0 .524.205.96.613 1.302.355.317 1 .66 1.936 1.03 1.147.46 1.988 1 2.527 1.617.543.617.813 1.388.813 2.307zm7.07-4.262h-2.35v4.66c0 1.184.418 1.775 1.248 1.775.38 0 .698-.032.948-.1l.06 1.62c-.42.156-.973.235-1.657.235-.847 0-1.5-.258-1.98-.77-.474-.515-.71-1.376-.71-2.588v-4.837h-1.4v-1.6h1.4v-1.757l2.093-.632v2.39h2.35v1.604zm10.58 3.12c0 1.474-.42 2.685-1.26 3.632-.88.975-2.054 1.46-3.515 1.46-1.41 0-2.53-.466-3.37-1.4-.834-.934-1.252-2.11-1.252-3.532 0-1.487.433-2.705 1.293-3.652.86-.947 2.022-1.422 3.483-1.422 1.407 0 2.54.47 3.395 1.402.82.905 1.224 2.075 1.224 3.51zm-2.21.048c0-.88-.19-1.633-.57-2.264-.45-.762-1.09-1.143-1.92-1.143-.85 0-1.51.38-1.95 1.14-.38.63-.57 1.4-.57 2.3 0 .88.19 1.632.57 2.26.46.764 1.106 1.145 1.94 1.145.814 0 1.453-.39 1.916-1.16.39-.65.59-1.408.59-2.29zm9.14-2.893c-.21-.04-.43-.06-.67-.06-.75 0-1.33.282-1.74.85-.35.5-.53 1.133-.53 1.896v5.03h-2.13v-6.57c0-1.11-.02-2.12-.06-3.02h1.857l.08 1.83h.06c.226-.63.58-1.14 1.065-1.52.476-.347.988-.518 1.54-.518.198 0 .376.01.534.035v2.035zm9.54 2.47c0 .38-.023.703-.08.966h-6.394c.025.94.336 1.67.93 2.17.54.44 1.237.67 2.093.67.946 0 1.81-.15 2.587-.46l.336 1.48c-.91.394-1.98.59-3.22.59-1.49 0-2.655-.437-3.505-1.31-.848-.876-1.273-2.053-1.273-3.525 0-1.445.39-2.65 1.184-3.61.827-1.027 1.946-1.54 3.354-1.54 1.38 0 2.43.513 3.14 1.54.56.81.845 1.82.845 3.016zm-2.03-.554c.014-.64-.126-1.18-.415-1.64-.37-.6-.94-.89-1.7-.89-.696 0-1.264.28-1.696.86-.355.46-.566 1.014-.63 1.66h4.44zM48.75 13.43h-1.12l-.61-1.92h-2.126l-.583 1.92h-1.08l2.11-6.54h1.3l2.12 6.54zm-1.91-2.73l-.555-1.708c-.058-.175-.165-.582-.33-1.232h-.02c-.068.28-.165.69-.31 1.233L45.08 10.7h1.756zm7.176-1.99l-1.786 4.72h-1.02l-1.73-4.712h1.126l.806 2.494c.136.42.252.82.34 1.2h.028c.078-.34.194-.735.34-1.19l.795-2.494h1.098zm3.802 4.717l-.078-.544h-.03c-.32.436-.786.65-1.378.65-.843 0-1.445-.593-1.445-1.39 0-1.163 1.01-1.765 2.756-1.765v-.08c0-.623-.33-.934-.98-.934-.465 0-.873.117-1.23.35l-.214-.69c.435-.27.98-.407 1.62-.407 1.23 0 1.853.65 1.853 1.95v1.737c0 .476.02.845.07 1.126h-.944zm-.146-2.35c-1.17 0-1.75.282-1.75.95 0 .496.3.738.72.738.53 0 1.03-.41 1.03-.96v-.73zm3.35-3.144c-.35 0-.62-.273-.62-.63s.28-.623.64-.623.65.263.64.62c0 .38-.27.633-.66.633zm.54 5.492h-1.04V8.71h1.05v4.716zm2.91 0h-1.04V6.55h1.05v6.88zm4.456 0l-.078-.55h-.03c-.32.437-.785.65-1.377.65-.842 0-1.444-.592-1.444-1.39 0-1.162 1.01-1.764 2.757-1.764v-.08c0-.622-.33-.933-.98-.933-.466 0-.874.117-1.232.35l-.21-.69c.436-.272.98-.408 1.62-.408 1.23 0 1.854.65 1.854 1.95v1.74c0 .475.02.844.065 1.125h-.94zm-.146-2.35c-1.166 0-1.748.28-1.748.95 0 .49.3.733.717.733.535 0 1.03-.406 1.03-.96v-.727zm5.265 2.45c-.67 0-1.16-.282-1.48-.835h-.023l-.06.728h-.893c.03-.378.04-.806.04-1.27V6.54h1.05V9.4h.02c.31-.523.814-.785 1.504-.785 1.136 0 1.932.972 1.932 2.388 0 1.464-.887 2.532-2.09 2.532zm-.21-4.096c-.605 0-1.157.522-1.157 1.25v.825c0 .65.496 1.186 1.137 1.186.785 0 1.253-.64 1.253-1.66 0-.95-.485-1.6-1.232-1.6zm4.895 3.99h-1.04V6.55h1.046v6.88zm5.706-2.11H81.29c.02.893.61 1.397 1.485 1.397.466 0 .893-.08 1.27-.224l.163.73c-.444.192-.97.29-1.58.29-1.475 0-2.35-.933-2.35-2.378 0-1.447.896-2.534 2.23-2.534 1.205 0 1.964.894 1.964 2.243.005.184-.004.35-.034.475zm-.96-.747c0-.73-.37-1.244-1.04-1.244-.603 0-1.076.522-1.146 1.24h2.187zm7.312 2.96c-1.38 0-2.27-1.03-2.27-2.428 0-1.456.91-2.494 2.35-2.494 1.354 0 2.27.98 2.27 2.417 0 1.474-.944 2.503-2.35 2.503zm.04-4.156c-.76 0-1.244.708-1.244 1.698 0 .97.496 1.68 1.233 1.68s1.23-.758 1.23-1.7c0-.96-.484-1.678-1.22-1.678zm7.942 4.047h-1.04v-2.7c0-.836-.32-1.254-.95-1.254-.622 0-1.05.535-1.05 1.156v2.806h-1.047V10.06c0-.418-.012-.865-.04-1.35h.923l.05.73h.028c.28-.506.854-.827 1.494-.827.988 0 1.64.756 1.64 1.988v2.83zm6.857-3.93h-1.154v2.29c0 .583.204.874.61.874.186 0 .342-.02.467-.05l.03.797c-.202.08-.475.118-.812.118-.826 0-1.32-.456-1.32-1.65V9.5h-.686v-.787h.688V7.85l1.028-.31v1.174h1.155V9.5zm5.55 3.93h-1.05v-2.68c0-.846-.32-1.27-.95-1.27-.544 0-1.048.366-1.048 1.113v2.842h-1.05V6.54h1.05v2.84h.02c.33-.515.807-.768 1.418-.768 1 0 1.61.775 1.61 2.008v2.805zm5.354-2.106h-3.146c.02.893.61 1.397 1.482 1.397.468 0 .894-.077 1.27-.222l.165.73c-.445.192-.97.29-1.582.29-1.473 0-2.35-.933-2.35-2.378 0-1.446.898-2.533 2.235-2.533 1.203 0 1.96.892 1.96 2.24.006.185-.004.35-.033.476zm-.962-.747c0-.73-.368-1.242-1.038-1.242-.603 0-1.077.526-1.146 1.244h2.183z" fill="#fff"/></svg>