<svg xmlns="http://www.w3.org/2000/svg" width="135" height="40" viewBox="0 0 135 40"><path fill="#fff" d="M134.032 35.268c0 2.116-1.714 3.83-3.834 3.83H4.728c-2.118 0-3.838-1.714-3.838-3.83V4.725C.89 2.61 2.61.89 4.73.89h125.467c2.12 0 3.834 1.72 3.834 3.835l.008 30.543z"/><path d="M134.032 35.268c0 2.116-1.714 3.83-3.834 3.83H4.728c-2.118 0-3.838-1.714-3.838-3.83V4.725C.89 2.61 2.61.89 4.73.89h125.467c2.12 0 3.834 1.72 3.834 3.835l.008 30.543z"/><path fill="#fff" d="M30.128 19.784c-.03-3.223 2.64-4.79 2.76-4.864-1.51-2.203-3.852-2.504-4.675-2.528-1.967-.207-3.875 1.177-4.877 1.177-1.022 0-2.565-1.16-4.228-1.13-2.14.033-4.142 1.272-5.24 3.196-2.266 3.923-.576 9.69 1.595 12.86 1.086 1.553 2.355 3.286 4.016 3.225 1.62-.064 2.23-1.034 4.19-1.034 1.94 0 2.51 1.037 4.203.998 1.743-.026 2.84-1.56 3.89-3.127 1.254-1.776 1.758-3.53 1.778-3.62-.04-.015-3.385-1.293-3.42-5.155zm-3.2-9.478c.874-1.093 1.472-2.58 1.306-4.09-1.265.057-2.847.876-3.758 1.945-.806.95-1.526 2.49-1.34 3.94 1.42.11 2.88-.712 3.792-1.79z"/><linearGradient id="a" gradientUnits="userSpaceOnUse" x1="366.459" y1="450.097" x2="366.459" y2="414.051" gradientTransform="translate(-267.5 -410)"><stop offset="0" stop-color="#1A1A1A" stop-opacity=".1"/><stop offset=".123" stop-color="#212121" stop-opacity=".151"/><stop offset=".308" stop-color="#353535" stop-opacity=".227"/><stop offset=".532" stop-color="#575757" stop-opacity=".318"/><stop offset=".783" stop-color="#858585" stop-opacity=".421"/><stop offset="1" stop-color="#B3B3B3" stop-opacity=".51"/></linearGradient><path fill="url(#a)" d="M130.198 0H62.993l26.323 39.99h40.882c2.604 0 4.73-2.118 4.73-4.725V4.725c0-2.605-2.125-4.725-4.73-4.725z"/><path d="M53.665 31.504h-2.27l-1.245-3.908h-4.324l-1.185 3.908h-2.21l4.29-13.308h2.647l4.305 13.308zm-3.89-5.55L48.65 22.48c-.12-.355-.343-1.19-.67-2.507h-.04c-.133.566-.344 1.402-.633 2.507L46.2 25.955h3.575zm14.888.634c0 1.633-.443 2.922-1.33 3.87-.794.842-1.78 1.263-2.958 1.263-1.27 0-2.185-.45-2.74-1.36v5.04h-2.132V25.064c0-1.025-.027-2.076-.08-3.154H57.3l.118 1.52h.04c.71-1.146 1.79-1.72 3.238-1.72 1.132 0 2.077.447 2.833 1.342.75.9 1.13 2.08 1.13 3.54zm-2.172.078c0-.934-.21-1.704-.63-2.31-.46-.632-1.08-.948-1.85-.948-.527 0-1.005.176-1.43.523-.43.35-.71.81-.84 1.38-.067.264-.1.48-.1.648v1.602c0 .695.214 1.284.642 1.767.428.48.984.72 1.668.72.803 0 1.428-.31 1.875-.927.448-.62.67-1.436.67-2.45zm13.21-.078c0 1.633-.44 2.922-1.33 3.87-.79.842-1.78 1.263-2.96 1.263-1.27 0-2.18-.45-2.74-1.36v5.04h-2.13V25.064c0-1.025-.022-2.076-.08-3.154h1.88l.12 1.52h.04c.71-1.146 1.79-1.72 3.238-1.72 1.13 0 2.076.447 2.834 1.342.754.9 1.134 2.08 1.134 3.54zm-2.17.078c0-.934-.21-1.704-.63-2.31-.46-.632-1.08-.948-1.854-.948-.525 0-1.003.176-1.432.523-.427.35-.706.81-.837 1.38-.066.264-.102.48-.102.648v1.602c0 .695.216 1.284.643 1.767.428.48.983.72 1.67.72.804 0 1.43-.31 1.875-.927.45-.62.673-1.436.673-2.45zm14.51 1.104c0 1.134-.392 2.055-1.18 2.766-.865.776-2.074 1.165-3.624 1.165-1.433 0-2.58-.27-3.446-.822l.492-1.776c.933.553 1.96.83 3.08.83.8 0 1.427-.183 1.873-.544.447-.362.673-.846.673-1.45 0-.54-.187-.994-.554-1.363-.37-.367-.98-.71-1.834-1.025-2.33-.87-3.496-2.14-3.496-3.812 0-1.092.412-1.985 1.233-2.685.822-.697 1.912-1.046 3.27-1.046 1.21 0 2.22.21 3.02.633l-.535 1.738c-.756-.407-1.606-.61-2.56-.61-.75 0-1.342.184-1.764.552-.354.33-.535.73-.535 1.208 0 .525.205.96.613 1.303.354.317 1 .66 1.935 1.03 1.147.46 1.988 1 2.527 1.617.544.617.814 1.388.814 2.307zm7.07-4.262h-2.35v4.66c0 1.184.414 1.775 1.244 1.775.38 0 .698-.032.948-.1l.06 1.62c-.42.156-.973.235-1.657.235-.846 0-1.5-.258-1.98-.77-.473-.515-.71-1.376-.71-2.588v-4.837h-1.4v-1.6h1.4v-1.757l2.094-.632v2.39h2.35v1.604zm10.58 3.12c0 1.474-.422 2.685-1.265 3.632-.88.975-2.053 1.46-3.514 1.46-1.41 0-2.53-.466-3.37-1.4-.834-.934-1.252-2.11-1.252-3.532 0-1.487.432-2.705 1.292-3.652.86-.947 2.022-1.422 3.483-1.422 1.408 0 2.54.47 3.396 1.402.82.905 1.223 2.075 1.223 3.51zm-2.21.048c0-.88-.19-1.633-.57-2.264-.45-.762-1.09-1.143-1.92-1.143-.85 0-1.51.38-1.95 1.14-.384.63-.573 1.4-.573 2.3 0 .88.19 1.636.572 2.265.46.763 1.103 1.144 1.937 1.144.814 0 1.453-.39 1.916-1.16.39-.65.59-1.408.59-2.29zm9.14-2.893c-.21-.04-.434-.06-.67-.06-.75 0-1.33.282-1.74.85-.35.5-.53 1.133-.53 1.896v5.03h-2.13v-6.57c0-1.107-.02-2.116-.063-3.02h1.856l.08 1.832h.06c.226-.63.58-1.14 1.065-1.52.476-.345.988-.516 1.54-.516.198 0 .376.01.534.035v2.036zm9.538 2.47c0 .38-.025.703-.078.966h-6.398c.025.94.336 1.67.93 2.17.54.443 1.237.67 2.093.67.947 0 1.81-.15 2.588-.456l.336 1.48c-.91.394-1.98.59-3.22.59-1.49 0-2.656-.437-3.506-1.31-.848-.876-1.273-2.053-1.273-3.525 0-1.445.39-2.65 1.183-3.61.828-1.027 1.947-1.54 3.355-1.54 1.38 0 2.43.513 3.14 1.54.562.81.845 1.82.845 3.016zm-2.033-.554c.015-.64-.125-1.18-.414-1.64-.37-.6-.94-.89-1.7-.89-.696 0-1.264.282-1.696.862-.354.46-.565 1.016-.63 1.658l4.44.004zM48.747 13.43H47.63l-.61-1.92h-2.126l-.583 1.92h-1.08l2.107-6.54h1.3l2.118 6.54zm-1.912-2.727l-.553-1.708c-.058-.175-.165-.582-.33-1.232h-.02c-.068.28-.165.69-.31 1.232l-.544 1.708h1.757zm7.178-1.99l-1.786 4.717h-1.02L49.48 8.717h1.126l.806 2.494c.136.42.252.82.34 1.2h.028c.078-.34.194-.737.34-1.193l.795-2.493h1.098zm3.802 4.717l-.078-.543h-.03c-.32.436-.785.65-1.377.65-.844 0-1.446-.593-1.446-1.39 0-1.163 1.01-1.765 2.756-1.765V10.3c0-.622-.33-.933-.98-.933-.466 0-.874.117-1.232.35l-.213-.69c.437-.27.98-.407 1.62-.407 1.233 0 1.855.65 1.855 1.95v1.738c0 .476.02.845.068 1.126h-.943zm-.146-2.35c-1.17 0-1.75.283-1.75.952 0 .495.3.737.72.737.53 0 1.03-.41 1.03-.96v-.73zm3.35-3.143c-.35 0-.62-.273-.62-.63s.28-.623.64-.623.65.262.64.62c0 .38-.27.632-.66.632zm.542 5.492H60.52V8.712h1.048v4.716zm2.91 0H63.43V6.55h1.048v6.88zm4.454 0l-.078-.548h-.03c-.32.436-.785.65-1.377.65-.843 0-1.445-.593-1.445-1.39 0-1.163 1.01-1.765 2.758-1.765v-.08c0-.623-.33-.934-.98-.934-.466 0-.874.117-1.232.35l-.213-.69c.437-.272.98-.408 1.62-.408 1.232 0 1.855.65 1.855 1.95V12.3c0 .476.02.845.066 1.126h-.94zm-.146-2.35c-1.164 0-1.746.28-1.746.95 0 .492.3.734.717.734.536 0 1.03-.406 1.03-.96v-.727zm5.267 2.452c-.67 0-1.16-.283-1.48-.836h-.023l-.06.727h-.893c.03-.378.04-.806.04-1.27v-5.61h1.05V9.4h.02c.31-.523.815-.785 1.505-.785 1.136 0 1.932.972 1.932 2.388 0 1.464-.887 2.532-2.09 2.532zm-.21-4.097c-.605 0-1.157.523-1.157 1.25v.826c0 .65.497 1.186 1.138 1.186.785 0 1.253-.64 1.253-1.66 0-.95-.485-1.6-1.232-1.6zm4.895 3.99H77.69V6.55h1.046v6.88zm5.705-2.108H81.29c.02.892.61 1.396 1.485 1.396.466 0 .893-.08 1.27-.224l.163.73c-.444.192-.97.29-1.58.29-1.475 0-2.35-.933-2.35-2.378 0-1.447.896-2.534 2.23-2.534 1.205 0 1.964.893 1.964 2.242.005.184-.004.35-.034.475zm-.96-.748c0-.73-.37-1.244-1.04-1.244-.603 0-1.076.523-1.146 1.24h2.187zm7.312 2.96c-1.38 0-2.27-1.03-2.27-2.428 0-1.456.91-2.494 2.35-2.494 1.354 0 2.27.98 2.27 2.416 0 1.474-.944 2.503-2.35 2.503zm.04-4.156c-.76 0-1.244.708-1.244 1.698 0 .97.496 1.68 1.233 1.68s1.23-.758 1.23-1.7c.002-.96-.483-1.678-1.22-1.678zm7.942 4.047H97.73v-2.7c0-.835-.32-1.253-.95-1.253-.622 0-1.05.534-1.05 1.155v2.805h-1.047V10.06c0-.418-.012-.865-.04-1.35h.923l.05.73h.028c.28-.506.854-.827 1.494-.827.988 0 1.64.756 1.64 1.988v2.83zm6.857-3.93h-1.153v2.29c0 .584.204.875.61.875.186 0 .342-.02.467-.05l.03.797c-.205.078-.478.117-.815.117-.827 0-1.32-.456-1.32-1.65V9.5h-.687v-.787h.688V7.85l1.028-.31v1.174h1.155V9.5zm5.55 3.93h-1.05v-2.68c0-.845-.32-1.27-.95-1.27-.543 0-1.047.367-1.047 1.114v2.842h-1.05v-6.88h1.05V9.38h.02c.33-.515.807-.768 1.418-.768 1 0 1.61.775 1.61 2.008v2.805zm5.355-2.105h-3.146c.02.893.61 1.397 1.482 1.397.468 0 .894-.078 1.27-.223l.165.73c-.445.192-.97.29-1.582.29-1.476 0-2.35-.933-2.35-2.378 0-1.446.895-2.533 2.232-2.533 1.203 0 1.96.892 1.96 2.24.006.185-.004.35-.033.476zm-.962-.747c0-.73-.368-1.243-1.038-1.243-.603 0-1.077.525-1.146 1.243h2.183z" fill="#fff"/></svg>