<svg xmlns="http://www.w3.org/2000/svg" width="135" height="40" viewBox="0 0 135 40"><path fill="#fff" d="M134.032 35.268c0 2.116-1.714 3.83-3.834 3.83h-125.469c-2.119 0-3.839-1.714-3.839-3.83v-30.543c0-2.115 1.72-3.835 3.839-3.835h125.468c2.121 0 3.834 1.72 3.834 3.835l.001 30.543z"/><path d="M134.032 35.268c0 2.116-1.714 3.83-3.834 3.83h-125.469c-2.119 0-3.839-1.714-3.839-3.83v-30.543c0-2.115 1.72-3.835 3.839-3.835h125.468c2.121 0 3.834 1.72 3.834 3.835l.001 30.543z"/><path fill="#fff" d="M30.128 19.784c-.029-3.223 2.639-4.791 2.761-4.864-1.511-2.203-3.853-2.504-4.676-2.528-1.967-.207-3.875 1.177-4.877 1.177-1.022 0-2.565-1.157-4.228-1.123-2.14.033-4.142 1.272-5.24 3.196-2.266 3.923-.576 9.688 1.595 12.859 1.086 1.554 2.355 3.287 4.016 3.226 1.625-.065 2.232-1.035 4.193-1.035 1.943 0 2.513 1.035 4.207.996 1.744-.026 2.842-1.56 3.89-3.127 1.255-1.778 1.759-3.533 1.779-3.623-.04-.014-3.386-1.292-3.42-5.154zm-3.2-9.478c.874-1.093 1.472-2.58 1.306-4.089-1.265.056-2.847.875-3.758 1.944-.806.942-1.526 2.486-1.34 3.938 1.421.106 2.88-.717 3.792-1.793z"/><linearGradient id="a" gradientUnits="userSpaceOnUse" x1="366.459" y1="450.097" x2="366.459" y2="414.051" gradientTransform="translate(-267.5 -410)"><stop offset="0" stop-color="#1A1A1A" stop-opacity=".1"/><stop offset=".123" stop-color="#212121" stop-opacity=".151"/><stop offset=".308" stop-color="#353535" stop-opacity=".227"/><stop offset=".532" stop-color="#575757" stop-opacity=".318"/><stop offset=".783" stop-color="#858585" stop-opacity=".421"/><stop offset="1" stop-color="#B3B3B3" stop-opacity=".51"/></linearGradient><path fill="url(#a)" d="M130.198 0h-67.205l26.323 39.989h40.882c2.604 0 4.729-2.117 4.729-4.724v-30.539c.001-2.606-2.124-4.726-4.729-4.726z"/><path d="M53.665 31.504h-2.271l-1.244-3.908h-4.324l-1.185 3.908h-2.211l4.285-13.308h2.646l4.304 13.308zm-3.89-5.549l-1.125-3.475c-.119-.355-.343-1.191-.671-2.507h-.04c-.132.566-.343 1.402-.632 2.507l-1.106 3.475h3.574zm14.888.633c0 1.633-.443 2.922-1.33 3.869-.794.843-1.781 1.264-2.958 1.264-1.271 0-2.185-.453-2.74-1.361v5.035h-2.132v-10.333c0-1.025-.027-2.076-.079-3.154h1.875l.119 1.521h.04c.711-1.146 1.79-1.72 3.238-1.72 1.132 0 2.077.447 2.833 1.342.755.898 1.134 2.076 1.134 3.537zm-2.172.078c0-.934-.21-1.704-.632-2.311-.461-.631-1.08-.947-1.856-.947-.526 0-1.004.176-1.431.523-.428.35-.708.807-.839 1.373-.066.264-.099.479-.099.648v1.602c0 .696.214 1.285.642 1.768.428.479.984.721 1.668.721.803 0 1.428-.311 1.875-.928.448-.619.672-1.435.672-2.449zm13.209-.078c0 1.633-.443 2.922-1.33 3.869-.795.843-1.781 1.264-2.959 1.264-1.271 0-2.185-.453-2.74-1.361v5.035h-2.132v-10.333c0-1.025-.027-2.076-.079-3.154h1.875l.119 1.521h.04c.71-1.146 1.789-1.72 3.238-1.72 1.131 0 2.076.447 2.834 1.342.754.898 1.134 2.076 1.134 3.537zm-2.173.078c0-.934-.211-1.704-.633-2.311-.461-.631-1.078-.947-1.854-.947-.526 0-1.004.176-1.433.523-.428.35-.707.807-.838 1.373-.065.264-.101.479-.101.648v1.602c0 .696.215 1.285.642 1.768.428.479.983.721 1.67.721.804 0 1.429-.311 1.875-.928.448-.619.672-1.435.672-2.449zm14.513 1.105c0 1.133-.396 2.054-1.183 2.765-.866.776-2.075 1.165-3.625 1.165-1.433 0-2.58-.276-3.446-.829l.493-1.776c.935.553 1.962.829 3.08.829.804 0 1.429-.182 1.875-.543.447-.362.673-.846.673-1.45 0-.541-.187-.994-.554-1.363-.369-.367-.979-.711-1.836-1.025-2.33-.869-3.496-2.141-3.496-3.812 0-1.092.412-1.985 1.233-2.685.822-.698 1.912-1.047 3.269-1.047 1.211 0 2.22.211 3.021.632l-.535 1.738c-.754-.408-1.604-.612-2.557-.612-.752 0-1.343.185-1.765.553-.354.329-.535.73-.535 1.206 0 .525.205.961.613 1.303.354.315 1 .658 1.935 1.027 1.146.461 1.987 1 2.526 1.617.544.617.814 1.388.814 2.307zm7.067-4.263h-2.351v4.659c0 1.185.414 1.776 1.244 1.776.381 0 .697-.032.947-.1l.059 1.619c-.42.157-.973.236-1.657.236-.843 0-1.5-.258-1.976-.771-.474-.514-.711-1.375-.711-2.587v-4.837h-1.399v-1.6h1.399v-1.757l2.094-.632v2.389h2.351v1.605zm10.582 3.119c0 1.475-.422 2.686-1.265 3.633-.881.975-2.053 1.461-3.514 1.461-1.41 0-2.531-.467-3.367-1.4-.836-.935-1.254-2.112-1.254-3.533 0-1.487.433-2.705 1.293-3.652.862-.947 2.024-1.422 3.485-1.422 1.408 0 2.539.469 3.396 1.402.819.905 1.226 2.075 1.226 3.511zm-2.21.049c0-.879-.189-1.633-.57-2.264-.447-.762-1.088-1.143-1.916-1.143-.854 0-1.51.381-1.955 1.143-.383.631-.572 1.398-.572 2.304 0 .88.189 1.636.572 2.265.461.763 1.104 1.144 1.938 1.144.814 0 1.453-.39 1.916-1.162.39-.647.587-1.406.587-2.287zm9.143-2.893c-.211-.039-.437-.059-.672-.059-.75 0-1.33.281-1.738.85-.354.5-.532 1.132-.532 1.895v5.035h-2.132v-6.574c0-1.104-.021-2.113-.062-3.021h1.856l.078 1.836h.06c.226-.631.58-1.14 1.065-1.521.476-.344.988-.515 1.541-.515.197 0 .375.015.533.039l.003 2.035zm9.535 2.469c0 .382-.025.704-.078.967h-6.396c.023.948.334 1.674.928 2.174.539.446 1.236.67 2.092.67.947 0 1.811-.149 2.588-.453l.334 1.479c-.908.396-1.98.593-3.217.593-1.488 0-2.656-.438-3.506-1.312-.848-.875-1.273-2.052-1.273-3.524 0-1.445.395-2.65 1.186-3.611.828-1.026 1.947-1.539 3.355-1.539 1.383 0 2.43.513 3.141 1.539.563.812.846 1.82.846 3.017zm-2.033-.553c.015-.633-.125-1.178-.414-1.639-.369-.595-.937-.891-1.698-.891-.697 0-1.265.289-1.697.869-.354.461-.565 1.016-.631 1.658l4.44.003zm-71.377-12.266h-1.117l-.611-1.921h-2.125l-.583 1.921h-1.087l2.106-6.541h1.3l2.117 6.541zm-1.912-2.727l-.553-1.708c-.058-.175-.165-.582-.33-1.232h-.02c-.068.281-.165.689-.311 1.232l-.543 1.708h1.757zm7.178-1.989l-1.786 4.716h-1.019l-1.728-4.716h1.126l.806 2.494c.136.417.252.815.339 1.193h.029c.078-.339.194-.737.339-1.193l.796-2.494h1.098zm3.802 4.716l-.078-.543h-.029c-.32.437-.786.65-1.378.65-.844 0-1.446-.592-1.446-1.388 0-1.164 1.009-1.766 2.756-1.766v-.087c0-.621-.33-.932-.98-.932-.466 0-.874.117-1.232.35l-.213-.689c.437-.272.98-.408 1.621-.408 1.232 0 1.854.65 1.854 1.951v1.737c0 .476.02.845.068 1.126l-.943-.001zm-.146-2.349c-1.165 0-1.747.282-1.747.951 0 .495.301.737.718.737.534 0 1.029-.407 1.029-.96v-.728zm3.355-3.144c-.349 0-.621-.272-.621-.631s.281-.621.641-.621c.359 0 .65.262.64.621 0 .379-.271.631-.66.631zm.544 5.493h-1.048v-4.716h1.048v4.716zm2.91 0h-1.048v-6.88h1.048v6.88zm4.454 0l-.078-.543h-.028c-.32.437-.786.65-1.378.65-.844 0-1.446-.592-1.446-1.388 0-1.164 1.009-1.766 2.756-1.766v-.087c0-.621-.33-.932-.98-.932-.466 0-.874.117-1.232.35l-.214-.69c.437-.272.98-.408 1.621-.408 1.231 0 1.854.65 1.854 1.951v1.737c0 .476.021.845.066 1.126h-.941zm-.146-2.349c-1.165 0-1.747.282-1.747.951 0 .495.301.737.718.737.534 0 1.029-.407 1.029-.96v-.728zm5.266 2.456c-.669 0-1.163-.282-1.483-.835h-.021l-.06.728h-.893c.028-.378.038-.806.038-1.271v-5.609h1.05v2.854h.02c.311-.524.814-.786 1.504-.786 1.136 0 1.932.971 1.932 2.387 0 1.464-.884 2.532-2.087 2.532zm-.213-4.096c-.603 0-1.155.524-1.155 1.252v.825c0 .65.496 1.184 1.137 1.184.785 0 1.253-.64 1.253-1.659-.002-.951-.488-1.602-1.235-1.602zm4.897 3.989h-1.047v-6.88h1.047v6.88zm5.705-2.106h-3.146c.021.893.611 1.397 1.484 1.397.467 0 .894-.078 1.271-.223l.163.728c-.446.194-.97.291-1.581.291-1.476 0-2.349-.932-2.349-2.377 0-1.446.894-2.533 2.231-2.533 1.202 0 1.961.893 1.961 2.242.005.184-.004.349-.034.475zm-.961-.747c0-.728-.369-1.242-1.039-1.242-.603 0-1.076.524-1.146 1.242h2.185zm7.313 2.96c-1.378 0-2.271-1.029-2.271-2.426 0-1.456.912-2.494 2.351-2.494 1.356 0 2.271.98 2.271 2.417-.001 1.474-.943 2.503-2.351 2.503zm.04-4.154c-.757 0-1.242.708-1.242 1.698 0 .971.495 1.679 1.232 1.679s1.231-.757 1.231-1.699c.001-.96-.484-1.678-1.221-1.678zm7.944 4.047h-1.047v-2.708c0-.834-.32-1.252-.951-1.252-.621 0-1.049.534-1.049 1.155v2.805h-1.047v-3.368c0-.417-.012-.864-.039-1.349h.922l.049.728h.029c.279-.504.854-.825 1.494-.825.988 0 1.639.757 1.639 1.989v2.825zm6.857-3.93h-1.153v2.29c0 .583.203.874.61.874.185 0 .341-.02.466-.049l.029.796c-.204.078-.477.117-.814.117-.826 0-1.318-.456-1.318-1.65v-2.378h-.688v-.786h.688v-.864l1.027-.311v1.174h1.153v.787zm5.55 3.93h-1.049v-2.688c0-.844-.32-1.271-.951-1.271-.543 0-1.047.369-1.047 1.116v2.843h-1.049v-6.88h1.049v2.833h.021c.329-.514.806-.767 1.417-.767.999 0 1.609.776 1.609 2.009v2.805zm5.355-2.106h-3.145c.02.893.609 1.397 1.483 1.397.468 0 .894-.078 1.271-.223l.164.728c-.445.194-.971.291-1.582.291-1.476 0-2.349-.932-2.349-2.377 0-1.446.894-2.533 2.231-2.533 1.203 0 1.961.893 1.961 2.242.005.184-.005.349-.034.475zm-.961-.747c0-.728-.368-1.242-1.038-1.242-.603 0-1.077.524-1.146 1.242h2.184z" fill="#fff"/></svg>