<?xml version="1.0" encoding="utf-8"?>
<!-- Generator: Adobe Illustrator 16.0.0, SVG Export Plug-In . SVG Version: 6.00 Build 0)  -->
<!DOCTYPE svg PUBLIC "-//W3C//DTD SVG 1.1//EN" "http://www.w3.org/Graphics/SVG/1.1/DTD/svg11.dtd">
<svg version="1.1" id="wayfarer" xmlns="http://www.w3.org/2000/svg" xmlns:xlink="http://www.w3.org/1999/xlink" x="0px" y="0px"
	 width="1908.363px" height="774.078px" viewBox="0 0 1908.363 774.078" enable-background="new 0 0 1908.363 774.078"
	 xml:space="preserve">
<g>
	<path fill-rule="evenodd" clip-rule="evenodd" fill="#FFFFFF" d="M456.699,232.359c132.489-5.343,247.77,14.967,356,38
		c47.17,10.039,88.67,25.437,143.999,22c27.883-1.732,55.896-9.934,84-15c82.687-14.906,167.868-30.587,261-34
		c-106.46,13.655-212.717,25.097-314,47c-35.721,7.725-69.853,7.479-106.999-1c-63.845-14.572-129.409-32.04-200-41
		C609.489,239.32,535.324,236.894,456.699,232.359z"/>
	<path fill-rule="evenodd" clip-rule="evenodd" d="M1643.699,234.359c36.906-2.601,21.438,37.77,15,65
		c-3.201,13.546-5.119,33.173-12,39c-5.615,4.756-20.576,6.921-27,12c-25.064,19.818-37.01,69.898-50.001,100
		c-30.192,69.961-66.87,132.561-130,169c-31.305,18.07-70.067,30.698-109,40c-21.782,5.204-47.508,4.839-73,4
		c-17.306-0.569-32.079-1.847-49-5c-7.875-1.468-13.435-3.184-22.425-5.138c-8.625-1.875-14.551-4.266-21.75-6.5
		c-50.75-15.75-90.344-41.145-117.825-84.362c-21.867-34.391-37.475-77.964-51-122c-4.136-13.469-6.717-29.718-17-40
		c-15.574-15.574-61.944-18.423-80.999-4c-21.869,16.553-26.771,65.056-36,90c-22.799,61.625-52.599,112.125-112,139
		c-25.716,11.634-53.681,15.602-87,23c-3.518,0.781-10.277,1.722-14,2c-18.8,1.405-35.964,0.943-55-1
		c-20.131-2.055-28.792-2.939-49-8c-2.787-0.698-8.225-2.238-11-3c-17.801-4.888-36.688-9.083-53-16
		c-98.668-41.843-142.149-133.234-184-234c-7.476-18-18.102-45.175-34-56c-5.698-3.88-20.402-5.676-26-12
		c-5.126-5.79-8.133-26.963-11-38c-3.633-13.981-9.553-27.529-8-41c0.668-5.802,5.598-17.913,11-21 M359.699,222.359
		 M1040.698,277.359c-28.104,5.066-56.117,13.268-84,15c-55.329,3.437-96.829-11.961-143.999-22 M662.699,273.359
		c0.329,0.025,0.672-0.039,1,0c-6.518-0.768-22.147-2.101-34-3c-62.229-4.719-125.264-9.342-193-7c-54.047,1.869-94.695,4.943-95,57
		c-0.281,48.059,13.598,93.341,29,134c17.545,46.317,38.532,84.306,73,112c3.604,2.896,7.094,8.071,10,10
		c15.107,10.027,36.489,18.345,58,25c62.157,19.232,155.803,27.706,217,1c60.635-26.461,86.951-79.936,102-153
		c10.003-48.57,20.567-111.092-18.806-134.297c-3.083-1.817-6.601-4.076-10.194-5.703c-5.36-2.427-7.928-3.966-12-6
		C764.398,290.721,698.109,276.045,662.699,273.359z M1193.698,282.359c-51.659,7.743-110.731,18.814-138,42
		c-5.142,4.373-12.037,12.106-17,24c-7.348,17.613-4.812,41.307-3,59c1.87,18.24,5.512,36.78,9,52
		c22.224,96.934,71.996,156.21,174,168c69.12,7.989,134.659,0.242,189-24c51.779-23.099,80.529-64.967,102-117
		c10.069-24.398,19.195-53.001,25-84c5.007-26.728,13.452-73.125,3-97c-17.884-40.853-120.691-37.327-174-35
		C1303.546,272.984,1252.367,273.566,1193.698,282.359z M261.699,281.359c0.923-0.412,3.033,0.264,3,1c-5.26-0.26-9.317,0.683-13,2
		c13,12.621,47.062,20.647,67,11C310.159,283.625,276.495,274.751,261.699,281.359z M1565.698,308.359
		c19.823,9.65,55.333,2.89,68.001-10C1614.578,290.339,1574.257,290.83,1565.698,308.359z"/>
	<path fill-rule="evenodd" clip-rule="evenodd" d="M1637.699,231.359"/>
	<path fill-rule="evenodd" clip-rule="evenodd" fill="#FFFFFF" d="M318.699,295.359c-19.938,9.647-54,1.621-67-11
		c3.683-1.317,7.74-2.26,13-2c0.033-0.736-2.077-1.412-3-1C276.495,274.751,310.159,283.625,318.699,295.359z"/>
	<path fill-rule="evenodd" clip-rule="evenodd" fill="#FFFFFF" d="M1633.699,298.359c-12.668,12.89-48.178,19.65-68.001,10
		C1574.257,290.83,1614.578,290.339,1633.699,298.359z"/>
</g>
</svg>
