<svg xmlns="http://www.w3.org/2000/svg" width="169.672" height="58.875" viewBox="0 0 169.672 58.875"><path fill="#010101" d="M169.084 49.985c0 5.12-3.76 8.3-8.875 8.3H9.85c-5.117 0-9.267-4.15-9.267-9.27V9.855C.585 4.74 4.735.59 9.855.59h150.353c5.114 0 8.875 4.15 8.875 9.268v40.13zm0 0c0 5.12-3.76 8.3-8.875 8.3H9.85c-5.117 0-9.267-4.15-9.267-9.27V9.855C.585 4.74 4.735.59 9.855.59h150.353c5.114 0 8.875 4.15 8.875 9.268v40.13z"/><path d="M115.737 42.003l-1.268 1.192c-.3.16-.59.35-.88.48-.88.398-1.77.498-2.568.498-.847 0-2.17-.055-3.52-1.03-1.88-1.323-2.698-3.596-2.698-5.577 0-4.103 3.34-6.112 6.06-6.112.953 0 1.93.24 2.725.74 1.32.874 1.663 2.01 1.853 2.618l-6.22 2.514-2.037.158c.66 3.36 2.936 5.315 5.45 5.315 1.255 0 2.187-.41 3.042-.84-.005 0 .17-.09.044.032zm-3.752-6.688c.505-.184.768-.342.768-.71 0-1.058-1.195-2.275-2.62-2.275-1.058 0-3.042.82-3.042 3.68 0 .445.06.92.08 1.397l4.82-2.092zm-9.25 6.482c0 1.028.184 1.188 1.053 1.27l1.354.132-.98.58h-4.66c.612-.8.716-.87.716-1.4v-.6l-.01-15.73h-2.06l1.98-.954h3.782c-.82.475-1.065.763-1.17 1.69l-.005 15zm-7.228-9.045c.606.5 1.874 1.56 1.874 3.568 0 1.957-1.1 2.882-2.21 3.757-.34.344-.74.718-.74 1.296 0 .584.4.9.69 1.14l.96.735c1.16.98 2.22 1.88 2.22 3.706 0 2.487-2.407 4.996-6.958 4.996-3.835 0-5.69-1.823-5.69-3.78 0-.954.476-2.303 2.04-3.23 1.64-1 3.86-1.136 5.053-1.212-.372-.48-.797-.983-.797-1.803 0-.45.137-.717.266-1.03-.29.026-.58.057-.845.057-2.81 0-4.397-2.097-4.397-4.155 0-1.218.56-2.566 1.697-3.545 1.51-1.242 3.31-1.457 4.734-1.457h5.45l-1.69.957h-1.64zm-1.875 11.745c-.217-.027-.348-.027-.607-.027-.24 0-1.668.053-2.775.424-.584.215-2.277.847-2.277 2.726 0 1.875 1.827 3.23 4.653 3.23 2.54 0 3.89-1.22 3.89-2.857-.004-1.354-.876-2.067-2.884-3.496zm.76-5.028c.613-.62.665-1.46.665-1.94 0-1.9-1.134-4.87-3.333-4.87-.686 0-1.43.345-1.852.876-.445.553-.58 1.27-.58 1.953 0 1.77 1.033 4.71 3.305 4.71.664 0 1.377-.324 1.795-.74zm-15.285 4.65c-4.206 0-6.454-3.28-6.454-6.24 0-3.47 2.828-6.43 6.85-6.43 3.888 0 6.324 3.04 6.324 6.24 0 3.12-2.407 6.42-6.72 6.42zm3.308-2.15c.64-.846.794-1.9.794-2.93 0-2.33-1.11-6.77-4.4-6.77-.87 0-1.75.34-2.387.9-1.034.922-1.218 2.09-1.218 3.23 0 2.61 1.29 6.92 4.5 6.92 1.033 0 2.09-.5 2.7-1.347zm-17.387 2.15c-4.205 0-6.45-3.275-6.45-6.238 0-3.465 2.83-6.43 6.85-6.43 3.888 0 6.32 3.044 6.32 6.24 0 3.12-2.403 6.427-6.72 6.427zm3.31-2.14c.634-.847.793-1.9.793-2.93 0-2.33-1.11-6.776-4.39-6.776-.87 0-1.74.342-2.38.898-1.03.926-1.21 2.088-1.21 3.23 0 2.612 1.3 6.924 4.5 6.924 1.035 0 2.09-.5 2.7-1.348zm-11.44 1.223l-3.548.812c-1.437.23-2.727.428-4.093.428-6.84 0-9.446-5.035-9.446-8.977 0-4.813 3.7-9.274 10.02-9.274 1.34 0 2.63.195 3.8.515 1.86.52 2.73 1.16 3.27 1.54l-2.06 1.96-.87.19.62-.988c-.84-.82-2.38-2.334-5.3-2.334-3.913 0-6.864 2.973-6.864 7.316 0 4.662 3.37 9.05 8.774 9.05 1.585 0 2.403-.32 3.143-.616v-3.99l-3.743.2 1.985-1.065h5.252l-.644.62c-.174.147-.195.196-.244.396-.03.22-.05.94-.05 1.19v3.02h.002zm66.464-1.088v6.737h-1.338V31.71h1.338v1.95c.87-1.262 2.464-2.262 4.312-2.262 3.317 0 5.555 2.518 5.555 6.5 0 3.96-2.24 6.527-5.56 6.527-1.75.003-3.31-.897-4.31-2.308zm8.43-4.216c0-3-1.565-5.29-4.342-5.29-1.725 0-3.37 1.36-4.088 2.54v5.49c.717 1.183 2.363 2.59 4.088 2.59 2.777 0 4.342-2.31 4.342-5.32zm3.264 6.22V26.98h1.34v17.14h-1.34zm16.352 3.63c.285.13.772.21 1.083.21.82 0 1.39-.336 1.9-1.52l.98-2.21-5.27-12.514h1.49l4.53 10.847 4.48-10.846h1.515l-6.43 15.14c-.666 1.56-1.716 2.31-3.16 2.31-.432 0-1-.077-1.336-.18l.23-1.233zm-3.91-3.66c-.09-.43-.155-.81-.204-1.127-.04-.314-.062-.64-.062-.97-.46.676-1.11 1.235-1.938 1.678-.83.444-1.62.664-2.704.664-1.303 0-2.312-.32-3.037-.974-.72-.65-1.082-1.53-1.082-2.644s.53-2.02 1.57-2.702c1.05-.694 2.4-1.037 4.07-1.037h3.13V35.43c0-.89-.302-1.586-.91-2.094-.602-.51-1.46-.762-2.56-.762-1.01 0-1.83.232-2.45.688-.614.466-.93 1.042-.93 1.737h-1.37l-.022-.067c-.05-.94.378-1.76 1.29-2.47.905-.71 2.098-1.066 3.56-1.066 1.458 0 2.64.353 3.53 1.05.89.694 1.334 1.7 1.334 3.01v6.122c0 .44.02.863.076 1.277.056.417.144.83.266 1.23l-1.55.005zm-4.747-.975c1.14 0 1.96-.254 2.79-.756.83-.5 1.4-1.15 1.69-1.94v-2.39h-3.13c-1.193 0-2.184.266-2.97.8-.78.532-1.18 1.18-1.18 1.93 0 .71.257 1.272.75 1.7.508.433 1.19.65 2.06.65zm-102.88-30.2c0-2.634 1.96-4.33 4.398-4.33 1.63 0 2.697.78 3.36 1.733l-1.19.69c-.452-.63-1.243-1.118-2.17-1.118-1.657 0-2.887 1.25-2.887 3.02 0 1.744 1.23 3.023 2.886 3.023.856 0 1.607-.39 1.98-.75v-1.29h-2.51V12.6h3.97v3.124c-.815.917-1.995 1.53-3.438 1.53-2.434.003-4.39-1.715-4.39-4.34zm9.65 4.18V8.72h5.736v1.294h-4.27v2.157h4.18v1.3h-4.18v2.33h4.268v1.297H49.52zm9.8 0V10.02h-2.54V8.73h6.536v1.29H60.78v7.076h-1.47zm9.103 0V8.72h1.468v8.37h-1.47zm5.555 0V10.02H71.44V8.73h6.534v1.29H75.44v7.076h-1.47zm8.74-4.176c0-2.5 1.77-4.33 4.28-4.33 2.495 0 4.275 1.83 4.275 4.33s-1.78 4.33-4.278 4.33c-2.51 0-4.28-1.835-4.28-4.33zm7.052 0c0-1.73-1.09-3.025-2.77-3.025-1.695 0-2.774 1.294-2.774 3.024 0 1.72 1.08 3.02 2.776 3.02 1.68 0 2.77-1.305 2.77-3.024zm9.053 4.176l-4.366-5.984v5.983h-1.47V8.72h1.507l4.27 5.798V8.72h1.47v8.37h-1.416z" fill="#fff"/><path d="M22.34 37.204l4.292-4.292-4.293 4.292-13.7-13.7 13.7 13.702-13.73 13.72 13.72-13.72 4.31 4.31z" fill="none"/><linearGradient id="a" gradientUnits="userSpaceOnUse" x1="792.223" y1="-803.35" x2="774.135" y2="-814.67" gradientTransform="matrix(.707 .707 -.707 .707 -1108.779 43.968)"><stop offset="0" stop-color="#D7E69D"/><stop offset=".446" stop-color="#94C4AA"/><stop offset="1" stop-color="#01A4B6"/></linearGradient><path fill="url(#a)" d="M26.63 32.912L9.906 23.714c-.473-.26-.912-.32-1.266-.21l13.7 13.7 4.29-4.292z"/><linearGradient id="b" gradientUnits="userSpaceOnUse" x1="781.705" y1="-813.021" x2="805.162" y2="-806.89" gradientTransform="matrix(.707 .707 -.707 .707 -1108.779 43.968)"><stop offset="0" stop-color="#ED277B"/><stop offset=".019" stop-color="#EE2F7C"/><stop offset=".704" stop-color="#F7BD81"/><stop offset="1" stop-color="#FEEB74"/></linearGradient><path fill="url(#b)" d="M26.653 41.516l5.71-3.14c1.157-.642 1.157-1.68 0-2.315l-5.73-3.14-4.293 4.29 4.313 4.31z"/><linearGradient id="c" gradientUnits="userSpaceOnUse" x1="794.8" y1="-794.764" x2="769.367" y2="-809.727" gradientTransform="matrix(.707 .707 -.707 .707 -1108.779 43.968)"><stop offset="0" stop-color="#89CFBD"/><stop offset=".091" stop-color="#7DBEBB"/><stop offset=".54" stop-color="#457CAC"/><stop offset=".852" stop-color="#1C5AA2"/><stop offset="1" stop-color="#084D9F"/></linearGradient><path fill="url(#c)" d="M8.64 23.503c-.51.16-.84.675-.84 1.454l.004 24.52c0 .772.32 1.278.813 1.448L22.34 37.203l-13.7-13.7z"/><linearGradient id="d" gradientUnits="userSpaceOnUse" x1="804.033" y1="-806.645" x2="788.374" y2="-786.014" gradientTransform="matrix(.707 .707 -.707 .707 -1108.779 43.968)"><stop offset="0" stop-color="#F04A2B"/><stop offset=".47" stop-color="#B54F6B"/><stop offset=".835" stop-color="#8B5191"/><stop offset="1" stop-color="#7851A1"/></linearGradient><path fill="url(#d)" d="M8.617 50.926c.356.12.804.062 1.288-.2l16.746-9.21-4.31-4.312L8.62 50.926z"/></svg>