<svg xmlns="http://www.w3.org/2000/svg" width="169.672" height="58.875" viewBox="0 0 169.672 58.875"><path fill="#010101" d="M169.084 49.985c0 5.119-3.761 8.301-8.875 8.301h-150.355c-5.117 0-9.267-4.15-9.267-9.27v-39.16c0-5.117 4.149-9.268 9.267-9.268h150.354c5.114 0 8.875 4.15 8.875 9.268v40.129zM169.084 49.985c0 5.119-3.761 8.301-8.875 8.301h-150.355c-5.117 0-9.267-4.15-9.267-9.27v-39.16c0-5.117 4.149-9.268 9.267-9.268h150.354c5.114 0 8.875 4.15 8.875 9.268v40.129z"/><g fill="#fff"><path d="M115.737 42.003l-1.268 1.192c-.291.16-.582.349-.873.479-.878.399-1.771.499-2.563.499-.847 0-2.17-.055-3.521-1.031-1.879-1.322-2.697-3.595-2.697-5.576 0-4.103 3.34-6.112 6.062-6.112.952 0 1.929.239 2.724.741 1.322.873 1.664 2.01 1.854 2.617l-6.219 2.514-2.038.158c.66 3.361 2.936 5.315 5.449 5.315 1.256 0 2.188-.407 3.043-.831-.002.003.17-.087.047.035zm-3.752-6.688c.505-.184.768-.342.768-.711 0-1.057-1.195-2.274-2.621-2.274-1.057 0-3.041.821-3.041 3.681 0 .444.053.92.08 1.396l4.814-2.092zM102.735 41.797c0 1.028.184 1.188 1.053 1.27l1.354.132-.979.581h-4.66c.611-.793.715-.871.715-1.398v-.593l-.01-15.726h-2.059l1.979-.955h3.782c-.819.475-1.065.763-1.171 1.688l-.004 15.001zM95.507 32.752c.606.5 1.874 1.559 1.874 3.568 0 1.957-1.104 2.882-2.218 3.757-.342.344-.741.718-.741 1.296 0 .584.399.9.688 1.139l.957.736c1.158.98 2.22 1.881 2.22 3.706 0 2.487-2.407 4.996-6.958 4.996-3.834 0-5.688-1.823-5.688-3.78 0-.954.475-2.303 2.038-3.229 1.642-1.002 3.862-1.137 5.054-1.213-.372-.48-.797-.983-.797-1.803 0-.449.137-.717.266-1.031-.289.027-.58.058-.846.058-2.807 0-4.395-2.097-4.395-4.155 0-1.218.557-2.566 1.695-3.545 1.508-1.242 3.307-1.457 4.732-1.457h5.451l-1.691.957h-1.641zm-1.875 11.745c-.217-.027-.348-.027-.607-.027-.239 0-1.668.053-2.775.424-.584.215-2.277.847-2.277 2.726 0 1.875 1.827 3.229 4.653 3.229 2.54 0 3.889-1.219 3.889-2.856-.003-1.354-.875-2.067-2.883-3.496zm.76-5.028c.613-.611.665-1.453.665-1.933 0-1.901-1.134-4.865-3.333-4.865-.686 0-1.429.345-1.852.876-.445.553-.579 1.268-.579 1.953 0 1.771 1.032 4.71 3.304 4.71.664 0 1.377-.323 1.795-.741zM79.107 44.123c-4.206 0-6.454-3.274-6.454-6.237 0-3.465 2.828-6.43 6.85-6.43 3.888 0 6.324 3.044 6.324 6.24 0 3.121-2.407 6.427-6.72 6.427zm3.308-2.142c.64-.846.794-1.901.794-2.933 0-2.329-1.11-6.772-4.391-6.772-.872 0-1.75.342-2.384.898-1.034.926-1.218 2.088-1.218 3.229 0 2.613 1.292 6.925 4.499 6.925 1.035 0 2.09-.5 2.7-1.347zM65.028 44.123c-4.205 0-6.45-3.274-6.45-6.237 0-3.465 2.83-6.43 6.851-6.43 3.887 0 6.318 3.044 6.318 6.24 0 3.121-2.402 6.427-6.719 6.427zm3.31-2.142c.634-.846.793-1.901.793-2.933 0-2.329-1.112-6.772-4.391-6.772-.875 0-1.745.342-2.38.898-1.035.926-1.217 2.088-1.217 3.229 0 2.613 1.295 6.925 4.496 6.925 1.035 0 2.089-.5 2.699-1.347zM56.897 43.205l-3.547.812c-1.437.229-2.727.428-4.093.428-6.84 0-9.446-5.035-9.446-8.977 0-4.812 3.692-9.273 10.017-9.273 1.337 0 2.625.195 3.798.515 1.857.522 2.729 1.167 3.271 1.544l-2.062 1.958-.869.192.619-.986c-.838-.818-2.38-2.332-5.306-2.332-3.913 0-6.864 2.973-6.864 7.316 0 4.662 3.371 9.05 8.774 9.05 1.588 0 2.406-.319 3.146-.616v-3.998l-3.744.2 1.985-1.065h5.254l-.644.619c-.174.147-.195.196-.244.396-.026.227-.051.943-.051 1.195v3.022h.006zM123.362 42.117v6.737h-1.338v-17.145h1.338v1.951c.871-1.262 2.464-2.262 4.312-2.262 3.317 0 5.555 2.518 5.555 6.5 0 3.959-2.235 6.527-5.555 6.527-1.744.003-3.308-.897-4.312-2.308zm8.43-4.216c0-3.002-1.565-5.293-4.342-5.293-1.725 0-3.371 1.354-4.088 2.535v5.488c.717 1.184 2.363 2.588 4.088 2.588 2.777 0 4.342-2.309 4.342-5.318zM135.056 44.121v-17.144h1.341v17.144h-1.341zM151.408 47.746c.285.128.772.207 1.083.207.816 0 1.389-.336 1.898-1.519l.979-2.211-5.271-12.514h1.492l4.522 10.846 4.478-10.846h1.514l-6.43 15.139c-.666 1.562-1.716 2.312-3.158 2.312-.433 0-1.002-.078-1.337-.181l.23-1.233zM147.499 44.083c-.09-.432-.156-.811-.205-1.127-.041-.314-.062-.641-.062-.969-.459.675-1.109 1.234-1.938 1.677-.831.442-1.62.662-2.704.662-1.303 0-2.312-.319-3.037-.972-.72-.649-1.082-1.531-1.082-2.645s.525-2.018 1.57-2.705c1.046-.695 2.397-1.038 4.07-1.038h3.121v-1.544c0-.89-.305-1.586-.908-2.094-.606-.508-1.458-.762-2.562-.762-1.01 0-1.828.232-2.449.688-.617.466-.93 1.042-.93 1.737h-1.37l-.025-.066c-.05-.938.378-1.76 1.291-2.469.904-.711 2.097-1.066 3.561-1.066 1.456 0 2.638.353 3.528 1.051.889.693 1.334 1.697 1.334 3.009v6.122c0 .439.021.863.076 1.277.058.416.146.828.268 1.229l-1.547.005zm-4.748-.975c1.137 0 1.953-.254 2.789-.756.828-.5 1.394-1.149 1.689-1.938v-2.384h-3.137c-1.197 0-2.188.266-2.97.8-.781.532-1.179 1.179-1.179 1.931 0 .707.252 1.271.75 1.7.503.432 1.187.647 2.058.647z"/></g><g fill="#fff"><path d="M39.867 12.913c0-2.635 1.958-4.329 4.392-4.329 1.631 0 2.698.778 3.362 1.731l-1.19.689c-.453-.626-1.244-1.115-2.172-1.115-1.656 0-2.886 1.254-2.886 3.022 0 1.745 1.229 3.024 2.886 3.024.854 0 1.605-.39 1.982-.752v-1.293h-2.51v-1.293h3.965v3.125c-.815.916-1.995 1.531-3.438 1.531-2.433.001-4.391-1.717-4.391-4.34zM49.513 17.091v-8.37h5.734v1.293h-4.266v2.157h4.178v1.292h-4.178v2.334h4.266v1.293l-5.734.001zM59.31 17.091v-7.077h-2.535v-1.291h6.537v1.291h-2.535v7.077h-1.467zM68.413 17.091v-8.37h1.468v8.37h-1.468zM73.968 17.091v-7.077h-2.533v-1.291h6.535v1.291h-2.533v7.077h-1.469zM82.709 12.913c0-2.497 1.769-4.329 4.279-4.329 2.496 0 4.276 1.832 4.276 4.329s-1.78 4.329-4.276 4.329c-2.51 0-4.279-1.832-4.279-4.329zm7.052 0c0-1.73-1.092-3.023-2.771-3.023-1.694 0-2.773 1.293-2.773 3.023 0 1.72 1.079 3.023 2.773 3.023 1.679 0 2.771-1.304 2.771-3.023zM98.814 17.091l-4.366-5.985v5.985h-1.467v-8.37h1.506l4.275 5.797v-5.797h1.471v8.37h-1.419z"/></g><path fill="none" d="M22.339 37.204l4.293-4.292h-.001l-4.292 4.292-13.699-13.701 13.699 13.703-13.722 13.72 13.722-13.72 4.312 4.31h.002z"/><linearGradient id="a" gradientUnits="userSpaceOnUse" x1="792.223" y1="-803.35" x2="774.135" y2="-814.67" gradientTransform="matrix(.707 .707 -.707 .707 -1108.779 43.968)"><stop offset="0" stop-color="#D7E69D"/><stop offset=".446" stop-color="#94C4AA"/><stop offset="1" stop-color="#01A4B6"/></linearGradient><path fill="url(#a)" d="M26.631 32.912l-16.726-9.198c-.473-.259-.912-.319-1.266-.21l13.7 13.699 4.292-4.291z"/><linearGradient id="b" gradientUnits="userSpaceOnUse" x1="781.705" y1="-813.021" x2="805.162" y2="-806.89" gradientTransform="matrix(.707 .707 -.707 .707 -1108.779 43.968)"><stop offset="0" stop-color="#ED277B"/><stop offset=".019" stop-color="#EE2F7C"/><stop offset=".704" stop-color="#F7BD81"/><stop offset="1" stop-color="#FEEB74"/></linearGradient><path fill="url(#b)" d="M26.653 41.516l5.709-3.141c1.158-.641 1.158-1.68 0-2.314l-5.73-3.149-4.292 4.292 4.313 4.312z"/><linearGradient id="c" gradientUnits="userSpaceOnUse" x1="794.8" y1="-794.764" x2="769.367" y2="-809.727" gradientTransform="matrix(.707 .707 -.707 .707 -1108.779 43.968)"><stop offset="0" stop-color="#89CFBD"/><stop offset=".091" stop-color="#7DBEBB"/><stop offset=".54" stop-color="#457CAC"/><stop offset=".852" stop-color="#1C5AA2"/><stop offset="1" stop-color="#084D9F"/></linearGradient><path fill="url(#c)" d="M8.64 23.503c-.509.159-.839.675-.839 1.454l.003 24.521c0 .771.32 1.277.813 1.447l13.723-13.722-13.7-13.7z"/><linearGradient id="d" gradientUnits="userSpaceOnUse" x1="804.033" y1="-806.645" x2="788.374" y2="-786.014" gradientTransform="matrix(.707 .707 -.707 .707 -1108.779 43.968)"><stop offset="0" stop-color="#F04A2B"/><stop offset=".47" stop-color="#B54F6B"/><stop offset=".835" stop-color="#8B5191"/><stop offset="1" stop-color="#7851A1"/></linearGradient><path fill="url(#d)" d="M8.617 50.926c.356.121.804.062 1.288-.201l16.746-9.209-4.312-4.312-13.722 13.722z"/></svg>