<?xml version="1.0" encoding="utf-8"?>
<!-- Generator: Adobe Illustrator 16.0.0, SVG Export Plug-In . SVG Version: 6.00 Build 0)  -->
<!DOCTYPE svg PUBLIC "-//W3C//DTD SVG 1.1//EN" "http://www.w3.org/Graphics/SVG/1.1/DTD/svg11.dtd">
<svg version="1.1" id="Layer_1" xmlns="http://www.w3.org/2000/svg" xmlns:xlink="http://www.w3.org/1999/xlink" x="0px" y="0px"
	 width="169.672px" height="58.875px" viewBox="0 0 169.672 58.875" enable-background="new 0 0 169.672 58.875"
	 xml:space="preserve">
<g>
	<path fill="#010101" d="M169.084,49.985c0,5.119-3.761,8.301-8.875,8.301H9.854c-5.117,0-9.267-4.15-9.267-9.27V9.856
		c0-5.117,4.149-9.268,9.267-9.268h150.354c5.114,0,8.875,4.15,8.875,9.268V49.985z"/>
	<path fill="#010101" d="M169.084,49.985c0,5.119-3.761,8.301-8.875,8.301H9.854c-5.117,0-9.267-4.15-9.267-9.27V9.856
		c0-5.117,4.149-9.268,9.267-9.268h150.354c5.114,0,8.875,4.15,8.875,9.268V49.985z"/>
	<g>
		<g>
			<path fill="#FFFFFF" d="M115.737,42.003l-1.268,1.192c-0.291,0.16-0.582,0.349-0.873,0.479c-0.878,0.399-1.771,0.499-2.563,0.499
				c-0.847,0-2.17-0.055-3.521-1.031c-1.879-1.322-2.697-3.595-2.697-5.576c0-4.103,3.34-6.112,6.062-6.112
				c0.952,0,1.929,0.239,2.724,0.741c1.322,0.873,1.664,2.01,1.854,2.617l-6.219,2.514l-2.038,0.158
				c0.66,3.361,2.936,5.315,5.449,5.315c1.256,0,2.188-0.407,3.043-0.831C115.688,41.971,115.86,41.881,115.737,42.003z
				 M111.985,35.315c0.505-0.184,0.768-0.342,0.768-0.711c0-1.057-1.195-2.274-2.621-2.274c-1.057,0-3.041,0.821-3.041,3.681
				c0,0.444,0.053,0.92,0.08,1.396L111.985,35.315z"/>
			<path fill="#FFFFFF" d="M102.735,41.797c0,1.028,0.184,1.188,1.053,1.27c0.453,0.054,0.905,0.076,1.354,0.132l-0.979,0.581h-4.66
				c0.611-0.793,0.715-0.871,0.715-1.398v-0.593l-0.01-15.726h-2.059l1.979-0.955h3.782c-0.819,0.475-1.065,0.763-1.171,1.688
				L102.735,41.797z"/>
			<path fill="#FFFFFF" d="M95.507,32.752c0.606,0.5,1.874,1.559,1.874,3.568c0,1.957-1.104,2.882-2.218,3.757
				c-0.342,0.344-0.741,0.718-0.741,1.296c0,0.584,0.399,0.9,0.688,1.139l0.957,0.736c1.158,0.98,2.22,1.881,2.22,3.706
				c0,2.487-2.407,4.996-6.958,4.996c-3.834,0-5.688-1.823-5.688-3.78c0-0.954,0.475-2.303,2.038-3.229
				c1.642-1.002,3.862-1.137,5.054-1.213c-0.372-0.48-0.797-0.983-0.797-1.803c0-0.449,0.137-0.717,0.266-1.031
				c-0.289,0.027-0.58,0.058-0.846,0.058c-2.807,0-4.395-2.097-4.395-4.155c0-1.218,0.557-2.566,1.695-3.545
				c1.508-1.242,3.307-1.457,4.732-1.457h5.451l-1.691,0.957H95.507L95.507,32.752z M93.632,44.497
				c-0.217-0.027-0.348-0.027-0.607-0.027c-0.239,0-1.668,0.053-2.775,0.424c-0.584,0.215-2.277,0.847-2.277,2.726
				c0,1.875,1.827,3.229,4.653,3.229c2.54,0,3.889-1.219,3.889-2.856C96.512,46.639,95.64,45.926,93.632,44.497z M94.392,39.469
				c0.613-0.611,0.665-1.453,0.665-1.933c0-1.901-1.134-4.865-3.333-4.865c-0.686,0-1.429,0.345-1.852,0.876
				c-0.445,0.553-0.579,1.268-0.579,1.953c0,1.771,1.032,4.71,3.304,4.71C93.261,40.21,93.974,39.887,94.392,39.469z"/>
			<path fill="#FFFFFF" d="M79.107,44.123c-4.206,0-6.454-3.274-6.454-6.237c0-3.465,2.828-6.43,6.85-6.43
				c3.888,0,6.324,3.044,6.324,6.24C85.827,40.817,83.42,44.123,79.107,44.123z M82.415,41.981c0.64-0.846,0.794-1.901,0.794-2.933
				c0-2.329-1.11-6.772-4.391-6.772c-0.872,0-1.75,0.342-2.384,0.898c-1.034,0.926-1.218,2.088-1.218,3.229
				c0,2.613,1.292,6.925,4.499,6.925C80.75,43.328,81.805,42.828,82.415,41.981z"/>
			<path fill="#FFFFFF" d="M65.028,44.123c-4.205,0-6.45-3.274-6.45-6.237c0-3.465,2.83-6.43,6.851-6.43
				c3.887,0,6.318,3.044,6.318,6.24C71.747,40.817,69.345,44.123,65.028,44.123z M68.338,41.981
				c0.634-0.846,0.793-1.901,0.793-2.933c0-2.329-1.112-6.772-4.391-6.772c-0.875,0-1.745,0.342-2.38,0.898
				c-1.035,0.926-1.217,2.088-1.217,3.229c0,2.613,1.295,6.925,4.496,6.925C66.674,43.328,67.728,42.828,68.338,41.981z"/>
			<path fill="#FFFFFF" d="M56.897,43.205l-3.547,0.812c-1.437,0.229-2.727,0.428-4.093,0.428c-6.84,0-9.446-5.035-9.446-8.977
				c0-4.812,3.692-9.273,10.017-9.273c1.337,0,2.625,0.195,3.798,0.515c1.857,0.522,2.729,1.167,3.271,1.544l-2.062,1.958
				l-0.869,0.192l0.619-0.986c-0.838-0.818-2.38-2.332-5.306-2.332c-3.913,0-6.864,2.973-6.864,7.316c0,4.662,3.371,9.05,8.774,9.05
				c1.588,0,2.406-0.319,3.146-0.616v-3.998l-3.744,0.2l1.985-1.065h5.254l-0.644,0.619c-0.174,0.147-0.195,0.196-0.244,0.396
				c-0.026,0.227-0.051,0.943-0.051,1.195v3.022H56.897L56.897,43.205z"/>
		</g>
		<g>
			<path fill="#FFFFFF" d="M123.362,42.117v6.737h-1.338V31.709h1.338v1.951c0.871-1.262,2.464-2.262,4.312-2.262
				c3.317,0,5.555,2.518,5.555,6.5c0,3.959-2.235,6.527-5.555,6.527C125.93,44.428,124.366,43.528,123.362,42.117z M131.792,37.901
				c0-3.002-1.565-5.293-4.342-5.293c-1.725,0-3.371,1.354-4.088,2.535v5.488c0.717,1.184,2.363,2.588,4.088,2.588
				C130.227,43.219,131.792,40.91,131.792,37.901z"/>
			<path fill="#FFFFFF" d="M135.056,44.121V26.977h1.341v17.144H135.056z"/>
			<path fill="#FFFFFF" d="M151.408,47.746c0.285,0.128,0.772,0.207,1.083,0.207c0.816,0,1.389-0.336,1.898-1.519l0.979-2.211
				l-5.271-12.514h1.492l4.522,10.846l4.478-10.846h1.514l-6.43,15.139c-0.666,1.562-1.716,2.312-3.158,2.312
				c-0.433,0-1.002-0.078-1.337-0.181L151.408,47.746z"/>
			<path fill="#FFFFFF" d="M147.499,44.083c-0.09-0.432-0.156-0.811-0.205-1.127c-0.041-0.314-0.062-0.641-0.062-0.969
				c-0.459,0.675-1.109,1.234-1.938,1.677c-0.831,0.442-1.62,0.662-2.704,0.662c-1.303,0-2.312-0.319-3.037-0.972
				c-0.72-0.649-1.082-1.531-1.082-2.645s0.525-2.018,1.57-2.705c1.046-0.695,2.397-1.038,4.07-1.038h3.121v-1.544
				c0-0.89-0.305-1.586-0.908-2.094c-0.606-0.508-1.458-0.762-2.562-0.762c-1.01,0-1.828,0.232-2.449,0.688
				c-0.617,0.466-0.93,1.042-0.93,1.737h-1.37l-0.025-0.066c-0.05-0.938,0.378-1.76,1.291-2.469
				c0.904-0.711,2.097-1.066,3.561-1.066c1.456,0,2.638,0.353,3.528,1.051c0.889,0.693,1.334,1.697,1.334,3.009v6.122
				c0,0.439,0.021,0.863,0.076,1.277c0.058,0.416,0.146,0.828,0.268,1.229L147.499,44.083L147.499,44.083z M142.751,43.108
				c1.137,0,1.953-0.254,2.789-0.756c0.828-0.5,1.394-1.149,1.689-1.938V38.03h-3.137c-1.197,0-2.188,0.266-2.97,0.8
				c-0.781,0.532-1.179,1.179-1.179,1.931c0,0.707,0.252,1.271,0.75,1.7C141.196,42.893,141.88,43.108,142.751,43.108z"/>
		</g>
	</g>
	<g>
		<g>
			<path fill="#FFFFFF" d="M39.867,12.913c0-2.635,1.958-4.329,4.392-4.329c1.631,0,2.698,0.778,3.362,1.731l-1.19,0.689
				c-0.453-0.626-1.244-1.115-2.172-1.115c-1.656,0-2.886,1.254-2.886,3.022c0,1.745,1.229,3.024,2.886,3.024
				c0.854,0,1.605-0.39,1.982-0.752v-1.293h-2.51v-1.293h3.965v3.125c-0.815,0.916-1.995,1.531-3.438,1.531
				C41.825,17.254,39.867,15.536,39.867,12.913z"/>
			<path fill="#FFFFFF" d="M49.513,17.091v-8.37h5.734v1.293h-4.266v2.157h4.178v1.292h-4.178v2.334h4.266v1.293L49.513,17.091
				L49.513,17.091z"/>
			<path fill="#FFFFFF" d="M59.31,17.091v-7.077h-2.535V8.723h6.537v1.291h-2.535v7.077H59.31z"/>
			<path fill="#FFFFFF" d="M68.413,17.091v-8.37h1.468v8.37H68.413z"/>
			<path fill="#FFFFFF" d="M73.968,17.091v-7.077h-2.533V8.723h6.535v1.291h-2.533v7.077H73.968z"/>
			<path fill="#FFFFFF" d="M82.709,12.913c0-2.497,1.769-4.329,4.279-4.329c2.496,0,4.276,1.832,4.276,4.329
				s-1.78,4.329-4.276,4.329C84.478,17.242,82.709,15.41,82.709,12.913z M89.761,12.913c0-1.73-1.092-3.023-2.771-3.023
				c-1.694,0-2.773,1.293-2.773,3.023c0,1.72,1.079,3.023,2.773,3.023C88.669,15.936,89.761,14.632,89.761,12.913z"/>
			<path fill="#FFFFFF" d="M98.814,17.091l-4.366-5.985v5.985h-1.467v-8.37h1.506l4.275,5.797V8.721h1.471v8.37H98.814z"/>
		</g>
	</g>
	<g>
		<polygon fill="none" points="22.339,37.204 26.632,32.912 26.631,32.912 22.339,37.204 8.64,23.503 8.64,23.503 22.339,37.206 
			8.617,50.926 8.617,50.926 22.339,37.206 26.651,41.516 26.653,41.516 		"/>
		
			<linearGradient id="SVGID_1_" gradientUnits="userSpaceOnUse" x1="792.2227" y1="-803.3501" x2="774.1346" y2="-814.6703" gradientTransform="matrix(0.7071 0.7071 -0.7071 0.7071 -1108.7788 43.9685)">
			<stop  offset="0" style="stop-color:#D7E69D"/>
			<stop  offset="0.4456" style="stop-color:#94C4AA"/>
			<stop  offset="1" style="stop-color:#01A4B6"/>
		</linearGradient>
		<path fill="url(#SVGID_1_)" d="M26.631,32.912L9.905,23.714c-0.473-0.259-0.912-0.319-1.266-0.21l13.7,13.699L26.631,32.912z"/>
		
			<linearGradient id="SVGID_2_" gradientUnits="userSpaceOnUse" x1="781.7051" y1="-813.0215" x2="805.1619" y2="-806.8896" gradientTransform="matrix(0.7071 0.7071 -0.7071 0.7071 -1108.7788 43.9685)">
			<stop  offset="0" style="stop-color:#ED277B"/>
			<stop  offset="0.0192" style="stop-color:#EE2F7C"/>
			<stop  offset="0.7039" style="stop-color:#F7BD81"/>
			<stop  offset="1" style="stop-color:#FEEB74"/>
		</linearGradient>
		<path fill="url(#SVGID_2_)" d="M26.653,41.516l5.709-3.141c1.158-0.641,1.158-1.68,0-2.314l-5.73-3.149l-4.292,4.292
			L26.653,41.516z"/>
		
			<linearGradient id="SVGID_3_" gradientUnits="userSpaceOnUse" x1="794.7998" y1="-794.7642" x2="769.367" y2="-809.7273" gradientTransform="matrix(0.7071 0.7071 -0.7071 0.7071 -1108.7788 43.9685)">
			<stop  offset="0" style="stop-color:#89CFBD"/>
			<stop  offset="0.0907" style="stop-color:#7DBEBB"/>
			<stop  offset="0.5396" style="stop-color:#457CAC"/>
			<stop  offset="0.8523" style="stop-color:#1C5AA2"/>
			<stop  offset="1" style="stop-color:#084D9F"/>
		</linearGradient>
		<path fill="url(#SVGID_3_)" d="M8.64,23.503c-0.509,0.159-0.839,0.675-0.839,1.454l0.003,24.521c0,0.771,0.32,1.277,0.813,1.447
			L22.34,37.203L8.64,23.503z"/>
		
			<linearGradient id="SVGID_4_" gradientUnits="userSpaceOnUse" x1="804.0332" y1="-806.645" x2="788.3735" y2="-786.0142" gradientTransform="matrix(0.7071 0.7071 -0.7071 0.7071 -1108.7788 43.9685)">
			<stop  offset="0" style="stop-color:#F04A2B"/>
			<stop  offset="0.4704" style="stop-color:#B54F6B"/>
			<stop  offset="0.8353" style="stop-color:#8B5191"/>
			<stop  offset="1" style="stop-color:#7851A1"/>
		</linearGradient>
		<path fill="url(#SVGID_4_)" d="M8.617,50.926c0.356,0.121,0.804,0.062,1.288-0.201l16.746-9.209l-4.312-4.312L8.617,50.926z"/>
	</g>
</g>
</svg>
