<?xml version="1.0" encoding="utf-8"?>
<!-- Generator: Adobe Illustrator 16.0.0, SVG Export Plug-In . SVG Version: 6.00 Build 0)  -->
<!DOCTYPE svg PUBLIC "-//W3C//DTD SVG 1.1//EN" "http://www.w3.org/Graphics/SVG/1.1/DTD/svg11.dtd">
<svg version="1.1" id="Lager_1" xmlns="http://www.w3.org/2000/svg" xmlns:xlink="http://www.w3.org/1999/xlink" x="0px" y="0px"
	 width="100px" height="100px" viewBox="0 0 100 100" enable-background="new 0 0 100 100" xml:space="preserve">
<g>
	<path fill="#FFFFFF" d="M29.323,11.231l20.015,50.155l19.025-50.347l10.721,5.266L49.062,93.899L17.745,17.107L29.323,11.231z"/>
	<path fill="#FFFFFF" d="M2.731,49.1c0-12.595,4.617-23.415,13.853-32.457C25.779,7.603,36.829,3.082,49.735,3.082
		c12.75,0,23.686,4.561,32.805,13.678c9.156,9.119,13.736,20.072,13.736,32.862c0,12.867-4.599,23.78-13.794,32.745
		c-9.235,9.002-20.382,13.506-33.442,13.506c-11.552,0-21.926-3.999-31.123-11.998C7.792,75.026,2.731,63.435,2.731,49.1z
		 M16.352,49.246c0,9.883,3.323,18.008,9.969,24.378c6.607,6.37,14.238,9.556,22.894,9.556c9.389,0,17.31-3.244,23.763-9.731
		c6.452-6.561,9.679-14.551,9.679-23.972c0-9.536-3.188-17.526-9.563-23.973c-6.337-6.486-14.181-9.729-23.53-9.729
		c-9.313,0-17.176,3.242-23.589,9.729C19.558,31.912,16.352,39.825,16.352,49.246z"/>
</g>
</svg>
