<svg xmlns="http://www.w3.org/2000/svg" viewBox="0 0 595 459"><path d="M593.966 222.736l.44-2.183c-48.945-9.785-99.172-9.885-129.56-8.623 4.993-17.984 6.494-38.68 6.494-61.76 0-33.096-12.435-59.574-32.622-79.722 3.527-11.388 8.24-36.675-4.706-69.05 0 0-22.837-7.254-74.496 27.32-20.237-5.057-41.774-7.554-63.342-7.554-23.733 0-47.71 3.02-70.075 9.156-53.31-36.366-76.847-28.914-76.847-28.914-15.36 38.412-5.863 66.855-2.978 73.92-18.054 19.484-29.078 44.36-29.078 74.857 0 23.02 2.622 43.675 9.023 61.626-30.643-1.12-79.04-.69-126.24 8.75l.436 2.18c47.48-9.497 96.182-9.827 126.642-8.674 1.408 3.715 2.98 7.318 4.743 10.805-30.12.97-81.55 4.807-130.84 18.714l.608 2.136c49.68-14.006 101.556-17.747 131.386-18.662 17.995 33.546 53.477 55.212 116.6 62.016-8.96 6.02-18.1 16.257-21.802 33.57-12.21 5.84-50.86 20.095-74.045-19.79 0 0-12.983-23.728-37.827-25.585 0 0-24.1-.37-1.664 15.015 0 0 16.128 7.602 27.254 36.156 0 0 14.512 48.707 84.554 33.08v50.314s-1.48 17.795-17.795 23.724c0 0-9.64 6.673.745 10.374 0 0 45.22 3.707 45.22-33.358V357.71s-1.79-21.752 8.896-29.317v90.11s-.74 21.502-11.86 29.656c0 0-7.42 13.342 8.894 9.64 0 0 31.138-4.446 32.623-40.775l.703-91.192h7.482l.71 91.192c1.482 36.33 32.62 40.775 32.62 40.775 16.308 3.704 8.895-9.637 8.895-9.637-11.12-8.156-11.857-29.654-11.857-29.654v-89.335c10.68 8.317 8.892 28.538 8.892 28.538v54.863c0 37.068 45.224 33.358 45.224 33.358 10.375-3.702.744-10.376.744-10.376-16.313-5.93-17.796-23.727-17.796-23.727v-71.91c0-28.043-11.81-42.895-23.356-50.733 67.318-6.675 99.62-28.413 114.506-62.182 29.486.81 82.548 4.4 133.306 18.72l.603-2.137c-50.466-14.235-103.18-17.918-132.965-18.785 1.41-3.41 2.64-6.958 3.735-10.61 30.235-1.257 80.7-1.24 129.83 8.576l-.064-.037"/><path d="M405.503 148.62c14.497 13.135 22.978 28.997 22.978 46.087 0 79.796-59.48 81.957-132.85 81.957-73.38 0-132.86-11.048-132.86-81.957 0-16.98 8.364-32.74 22.683-45.822 23.888-21.8 64.314-10.257 110.18-10.257 45.657-.006 85.945-11.67 109.866 9.985l.007.007" fill="#F4CBB2"/><path d="M251.436 198.768c0 21.98-12.375 39.794-27.643 39.794-15.267 0-27.644-17.814-27.644-39.794 0-21.977 12.373-39.785 27.64-39.785 15.27.015 27.643 17.81 27.643 39.785zm148.318-1c0 21.98-12.377 39.794-27.644 39.794-15.266 0-27.643-17.814-27.643-39.794 0-21.977 12.377-39.785 27.643-39.785 15.267.015 27.644 17.81 27.644 39.785z" fill="#fff"/><path d="M242.578 199.27c0 14.65-8.262 26.524-18.43 26.524-10.17 0-18.428-11.874-18.428-26.524 0-14.654 8.254-26.535 18.428-26.535 10.163 0 18.424 11.875 18.424 26.53l.006.005zm148.302-1c0 14.65-8.262 26.524-18.43 26.524-10.17 0-18.428-11.874-18.428-26.524 0-14.654 8.253-26.535 18.428-26.535 10.162 0 18.424 11.875 18.424 26.53l.006.005zm-94.836 28.925c3.817 0 6.912 3.095 6.912 6.912 0 3.818-3.095 6.913-6.912 6.913-3.818 0-6.913-3.095-6.913-6.913 0-3.817 3.1-6.912 6.917-6.912m-16.133 24.395c-.408-1.16.2-2.428 1.35-2.836 1.16-.408 2.43.2 2.838 1.35 1.784 5.027 6.548 8.4 11.86 8.4s10.08-3.373 11.86-8.398c.41-1.16 1.678-1.76 2.837-1.35 1.16.408 1.76 1.674 1.353 2.833-2.403 6.79-8.86 11.352-16.05 11.352-7.19 0-13.632-4.54-16.035-11.34l-.01-.016" fill="#AD5C51"/><path d="M126.632 283.206c0 1.844-2.16 3.333-4.822 3.333-2.658 0-4.822-1.49-4.822-3.337 0-1.846 2.164-3.34 4.822-3.34 2.663 0 4.822 1.49 4.822 3.345v-.005zm13.35 6.414c0 1.844-2.16 3.333-4.82 3.333s-4.823-1.49-4.823-3.333c0-1.846 2.16-3.34 4.82-3.34s4.82 1.49 4.82 3.345v-.005zm8.16 9.644c0 1.843-2.162 3.333-4.823 3.333-2.66 0-4.826-1.49-4.826-3.333 0-1.846 2.163-3.34 4.822-3.34 2.66 0 4.82 1.49 4.82 3.345v-.01zm7.413 11.12c0 1.844-2.16 3.333-4.823 3.333-2.66 0-4.822-1.49-4.822-3.333 0-1.846 2.163-3.34 4.822-3.34 2.662 0 4.823 1.49 4.823 3.345v-.01zm8.148 10.382c0 1.844-2.16 3.333-4.822 3.333-2.655 0-4.82-1.49-4.82-3.337s2.165-3.34 4.82-3.34c2.665 0 4.826 1.49 4.826 3.345v-.005zm11.136 8.89c0 1.844-2.165 3.333-4.826 3.333-2.66 0-4.822-1.49-4.822-3.337 0-1.846 2.163-3.34 4.822-3.34 2.66 0 4.822 1.492 4.822 3.345v-.005zm15.56 5.937c0 1.844-2.16 3.333-4.82 3.333s-4.82-1.49-4.82-3.333c0-1.846 2.16-3.34 4.82-3.34s4.822 1.49 4.822 3.345v-.005zm15.503 0c0 1.844-2.16 3.333-4.82 3.333s-4.823-1.49-4.823-3.333c0-1.846 2.164-3.34 4.823-3.34 2.66 0 4.82 1.49 4.82 3.345v-.005zm15.723-2.575c0 1.843-2.162 3.332-4.823 3.332-2.66 0-4.822-1.49-4.822-3.332 0-1.846 2.164-3.34 4.823-3.34 2.66 0 4.822 1.49 4.822 3.343z" fill="#C3E4D8"/></svg>