<svg xmlns="http://www.w3.org/2000/svg" xmlns:xlink="http://www.w3.org/1999/xlink" width="762" height="224" viewBox="0 0 762 224"><defs><path class="path1" d="M2.55 8.458l12.002 6.446c.402.216.923.32 1.448.32.526 0 1.048-.104 1.45-.322l12-6.446c.782-.42 1.522-1.736.086-1.736H2.466c-1.435 0-.698 1.317.085 1.738zm27.23 3.2l-12.33 6.446s-.923.322-1.45.322c-.525 0-.904-.037-1.448-.322l-12.33-6.446c-.627-.326-.622.056-.622.35v11.736c0 .672.894 1.536 1.587 1.536h25.627c.694 0 1.586-.864 1.586-1.534V12.01c0-.296.006-.678-.62-.352z" id="a"/><path class="path1" d="M21.088 18.096c-1.15 0-2.08 1.29-2.08 2.878 0 1.59.93 2.88 2.08 2.88s2.08-1.29 2.08-2.88c-.002-1.59-.933-2.878-2.08-2.878zm7.242-7.494c.237-.584.248-3.904-1.014-7.082 0 0-2.9.317-7.283 3.326-.92-.254-2.477-.38-4.032-.38-1.55 0-3.11.127-4.03.38C7.59 3.836 4.69 3.52 4.69 3.52c-1.263 3.178-1.254 6.498-1.015 7.082-1.485 1.613-2.392 3.55-2.392 6.194 0 11.498 9.54 11.682 11.948 11.682l2.78.003h2.77c2.41 0 11.947-.18 11.947-11.68 0-2.643-.906-4.58-2.39-6.192zM16.045 27.064h-.088c-6.035 0-10.736-.72-10.736-6.586 0-1.405.5-2.71 1.68-3.79 1.967-1.803 5.29-.848 9.06-.848l.047-.002.043.002c3.772 0 7.097-.955 9.06.848 1.175 1.082 1.67 2.386 1.67 3.79 0 5.866-4.7 6.586-10.734 6.586zm-5.13-8.968c-1.15 0-2.08 1.29-2.08 2.878 0 1.59.93 2.88 2.08 2.88s2.08-1.29 2.08-2.88c0-1.59-.932-2.878-2.08-2.878z" id="b"/><path class="path1" d="M30.72 6.87c-1.085.48-2.248.804-3.47.95 1.248-.746 2.206-1.93 2.656-3.34-1.166.69-2.46 1.195-3.834 1.466C24.97 4.772 23.4 4.04 21.662 4.04c-3.336 0-6.04 2.703-6.04 6.037 0 .474.053.934.157 1.376-5.02-.25-9.47-2.656-12.45-6.31-.52.89-.82 1.93-.82 3.037 0 2.096 1.06 3.944 2.682 5.027-.99-.032-1.922-.302-2.736-.755v.075c0 2.926 2.083 5.366 4.845 5.923-.505.138-1.04.21-1.59.21-.39 0-.766-.036-1.136-.106.767 2.4 3 4.146 5.64 4.194-2.066 1.62-4.67 2.586-7.5 2.586-.488 0-.968-.03-1.44-.085 2.672 1.71 5.846 2.71 9.26 2.71 11.108 0 17.183-9.206 17.183-17.19 0-.26-.003-.52-.016-.78 1.18-.85 2.204-1.915 3.015-3.126z" id="c"/><path class="path1" d="M3.184 8.942c0 2.39.798 4.115 2.37 5.128 1.29.83 2.785.955 3.563.955l.445-.014s-.246 1.61.944 3.2h-.054c-2.062 0-8.79.43-8.79 5.962 0 5.627 6.18 5.91 7.418 5.91h.154l.253.002c.795 0 2.85-.1 4.762-1.03 2.47-1.2 3.73-3.292 3.73-6.214 0-2.824-1.917-4.504-3.31-5.733-.857-.746-1.59-1.392-1.59-2.02 0-.64.54-1.123 1.22-1.73 1.1-.988 2.14-2.39 2.14-5.044 0-2.333-.3-3.9-2.17-4.89.195-.1.882-.17 1.222-.22 1.01-.137 2.486-.293 2.486-1.117v-.16H10.62c-.073 0-7.44.275-7.44 7.02zm11.877 14.42c.148 2.25-1.78 3.91-4.67 4.12-2.93.217-5.35-1.105-5.49-3.354-.067-1.08.406-2.138 1.336-2.98.945-.854 2.238-1.38 3.647-1.486l.496-.018c2.714 0 4.554 1.597 4.687 3.718zm-1.92-15.96c.72 2.54-.37 5.194-2.1 5.683-.2.056-.405.085-.613.085-1.59 0-3.167-1.61-3.75-3.827-.327-1.246-.302-2.334.073-3.382C7.116 4.94 7.78 4.24 8.61 4c.2-.052.41-.08.616-.08 1.92 0 3.155.798 3.92 3.487zm12.4 5.53v-4.8H22.5v4.8h-4.8v3.04h4.8v4.8h3.04v-4.8h4.8v-3.04h-4.8z" id="d"/><path class="path1" d="M8.122 4.88c0 1.7-1.256 3.078-3.322 3.078-1.944 0-3.2-1.378-3.2-3.078 0-1.74 1.298-3.078 3.282-3.078s3.2 1.338 3.24 3.078zm-6.36 25.318V10.39H7.92v19.808H1.763zm9.843-13.49c0-2.47-.082-4.535-.163-6.317h5.347l.28 2.76h.12c.81-1.3 2.795-3.2 6.117-3.2 4.05 0 7.09 2.716 7.09 8.55v11.7H24.24V19.222c0-2.552-.893-4.294-3.12-4.294-1.7 0-2.712 1.174-3.158 2.31-.163.404-.203.97-.203 1.538V30.2H11.6V16.71z" id="e"/><path class="path1" d="M15.304 11.874C13.13 8.01 10.808 4.86 10.637 4.63 7.13 6.288 4.514 9.517 3.7 13.41c.33.005 5.567.068 11.604-1.535zm1.566 4.222l.498-.15c-.315-.714-.66-1.43-1.02-2.135C9.872 15.75 3.66 15.61 3.44 15.6l-.01.4c0 3.233 1.222 6.177 3.226 8.404l-.01-.01s3.442-6.103 10.224-8.3zM8.274 25.91l.003-.006-.285-.216.282.22zM12.99 3.794l-.033.008.032-.008zm11.31 2.77C22.086 4.614 19.182 3.43 16 3.43c-1.023 0-2.014.125-2.964.355.19.253 2.55 3.39 4.7 7.333 4.74-1.778 6.532-4.5 6.564-4.552zM16 30.72C7.872 30.72 1.28 24.13 1.28 16S7.87 1.28 16.002 1.28c8.13 0 14.718 6.59 14.718 14.72s-6.59 14.72-14.718 14.72zm2.137-12.664c-7.38 2.57-9.815 7.742-9.863 7.848 2.13 1.666 4.81 2.666 7.725 2.666 1.74 0 3.392-.354 4.9-.994-.186-1.102-.917-4.954-2.685-9.55l-.084.03zm.564-5.066c.3.6.58 1.208.84 1.824l.27.65c4.344-.546 8.618.38 8.757.41-.03-2.98-1.094-5.717-2.858-7.858-.027.037-2.043 2.95-7.006 4.974zm1.88 4.458c1.65 4.536 2.32 8.227 2.446 8.98 2.825-1.907 4.83-4.93 5.388-8.435-.246-.082-3.77-1.197-7.832-.546z" id="f"/><path class="path1" d="M16 1.92C8.224 1.92 1.92 8.224 1.92 16c0 3.555 1.317 6.802 3.49 9.278 2.203-2.202 5.22-3.438 8.684-3.326 4.418.142 7.904 2.235 9.904 5.637C27.672 25.04 30.08 20.8 30.08 16c0-7.78-6.306-14.08-14.08-14.08zm6.885 19.1c-.248.41-.78.537-1.187.29-3.26-1.993-7.363-2.443-12.195-1.34-.464.107-.93-.184-1.034-.65-.11-.465.18-.93.65-1.035 5.28-1.208 9.82-.686 13.48 1.546.4.25.53.788.28 1.19zm1.696-3.994c-.31.51-.97.667-1.48.354-3.73-2.29-9.42-2.955-13.83-1.616-.572.173-1.18-.15-1.35-.72-.172-.573.15-1.178.72-1.35 5.04-1.53 11.31-.79 15.595 1.843.51.315.67.978.354 1.49zm.15-4.138c-4.47-2.66-11.85-2.9-16.12-1.606-.684.21-1.41-.18-1.62-.864-.206-.686.18-1.413.867-1.62 4.905-1.49 13.054-1.2 18.203 1.857.617.366.82 1.163.453 1.78s-1.16.817-1.78.453zM14.007 26.162c-1.98-.064-3.63.71-4.834 2.154 2.02 1.123 4.35 1.765 6.83 1.765 1.193 0 2.355-.142 3.46-.43-1.06-2.172-2.912-3.4-5.46-3.48z" id="g"/><path class="path1" d="M32 19l-6-6V4h-4v5l-6-6L0 19v1h4v10h10v-6h4v6h10V20h4z" id="h"/><path class="path1" d="M27 0c2.76 0 5 2.24 5 5 0 1.126-.372 2.164-1 3l-2 2-7-7 2-2c.836-.628 1.874-1 3-1zM2 23l-2 9 9-2 18.5-18.5-7-7L2 23zm20.362-11.638l-14 14-1.724-1.724 14-14 1.724 1.724z" id="i"/><path class="path1" d="M12 20l4-2L30 4l-2-2-14 14-2 4zm-2.96 7.097c-.988-2.085-2.05-3.15-4.136-4.137L8 14.435 12 12 24 0h-6L6 12 0 32l20-6 12-12V8L20 20l-2.434 4z" id="j"/><path class="path1" d="M12 18.333s6.373-3.824 9.96-2.313c.745-1.133 1.478-2.354 2.195-3.6-3.51-.86-8.155-.087-8.155-.087s5.944-3.566 9.583-2.45c.73-1.316 1.44-2.614 2.124-3.822-2.9-.19-5.707.28-5.707.28s3.723-2.24 7.08-2.62C30.138 2.008 31.12.663 32 0 14.47 0 4 20 0 32h2l6-10s2 2 8 0c1.42-.474 2.842-1.79 4.237-3.56-3.52-.892-8.237-.106-8.237-.106z" id="k"/><path class="path1" d="M0 4v26h32V4H0zm30 24H2V6h28v22zm-8-17c0-1.657 1.343-3 3-3s3 1.343 3 3-1.343 3-3 3-3-1.343-3-3zm6 15H4l6-16 8 10 4-3z" id="l"/><path class="path1" d="M28 6H4v20h24V6zm4-4v28H0V2h32zm-6 22H6v-4l6-10 8.22 10L26 16v2zm-6-13c0-1.657 1.343-3 3-3s3 1.343 3 3-1.343 3-3 3-3-1.343-3-3z" id="m"/><path class="path1" d="M4 8v20h28V8H4zm26 16.667L26 18l-4.533 3.778L18 16 6 26V10h24v14.667zM8 15c0-1.657 1.343-3 3-3s3 1.343 3 3-1.343 3-3 3-3-1.343-3-3zM28 4H0v20h2V6h26z" id="n"/><path class="path1" d="M9.5 19c0 3.59 2.91 6.5 6.5 6.5s6.5-2.91 6.5-6.5-2.91-6.5-6.5-6.5-6.5 2.91-6.5 6.5zM30 8h-7c-.5-2-1-4-3-4h-8c-2 0-2.5 2-3 4H2c-1.1 0-2 .9-2 2v18c0 1.1.9 2 2 2h28c1.1 0 2-.9 2-2V10c0-1.1-.9-2-2-2zM16 27.875c-4.902 0-8.875-3.973-8.875-8.875s3.973-8.875 8.875-8.875 8.875 3.973 8.875 8.875-3.973 8.875-8.875 8.875zM30 14h-4v-2h4v2z" id="o"/><path class="path1" d="M6 18.07v13.86c.327.047.66.07 1 .07h1V18H7c-.34 0-.673.026-1 .072zM24 18v14h1c.34 0 .673-.025 1-.07V18.07c-.327-.047-.66-.07-1-.07h-1zm8-2c0-8.837-7.163-16-16-16S0 7.163 0 16c0 1.92.338 3.76.958 5.465C.348 22.503 0 23.71 0 25c0 2.792 1.635 5.202 4 6.326V18.674c-.63.3-1.206.69-1.714 1.153C2.1 18.914 2 17.967 2 17 2 9.268 8.268 3 16 3s14 6.268 14 14c0 .97-.098 1.914-.286 2.827-.51-.464-1.085-.854-1.714-1.153v12.652c2.365-1.124 4-3.534 4-6.326 0-1.29-.35-2.498-.958-3.535C31.662 19.76 32 17.92 32 16z" id="p"/><path class="path1" d="M30.662 5.003C26.174 4.358 21.214 4 16 4S5.826 4.358 1.338 5.003C.478 8.37 0 12.09 0 16s.477 7.63 1.338 10.997C5.828 27.642 10.786 28 16 28s10.174-.358 14.662-1.003C31.522 23.63 32 19.91 32 16s-.477-7.63-1.338-10.997zM12 22V10l10 6-10 6z" id="q"/><path class="path1" d="M12 9c0-2.76 2.24-5 5-5s5 2.24 5 5-2.24 5-5 5-5-2.24-5-5zM0 9c0-2.76 2.24-5 5-5s5 2.24 5 5-2.24 5-5 5-5-2.24-5-5zm24 10v-3c0-1.1-.9-2-2-2H2c-1.1 0-2 .9-2 2v10c0 1.1.9 2 2 2h20c1.1 0 2-.9 2-2v-3l8 5V14l-8 5zm-4 5H4v-6h16v6z" id="r"/><path class="path1" d="M28.232 6.232l-4.465-4.464C22.795.796 20.874 0 19.5 0h-15C3.123 0 2 1.125 2 2.5v27C2 30.875 3.123 32 4.5 32h23c1.374 0 2.5-1.125 2.5-2.5v-19c0-1.375-.797-3.296-1.77-4.268zm-1.414 1.414c.098.098.195.218.29.354H22V2.892c.136.095.256.192.354.29l4.465 4.464zM28 29.5c0 .27-.23.5-.5.5h-23c-.27 0-.5-.23-.5-.5v-27c0-.27.23-.5.5-.5h15c.15 0 .32.02.5.053V10h7.947c.034.18.053.35.053.5v19z" id="s"/><path class="path1" d="M28.994 0h-9.018c-1.653 0-3.962.956-5.13 2.125L.876 16.093c-1.17 1.17-1.17 3.082 0 4.25l10.78 10.78c1.167 1.168 3.08 1.168 4.25 0l13.967-13.97c1.17-1.168 2.125-3.477 2.125-5.13V3.005C32 1.352 30.645 0 28.992 0zM25 10c-1.657 0-3-1.343-3-3s1.343-3 3-3 3 1.343 3 3-1.343 3-3 3z" id="t"/><path class="path1" d="M31 2h-7c-1.65 0-3.955.955-5.12 2.12L7.12 15.88c-1.167 1.167-1.167 3.076 0 4.243l8.757 8.758c1.166 1.17 3.075 1.17 4.242 0l11.76-11.76C33.04 15.96 34 13.65 34 12V5c0-1.65-1.35-3-3-3zm-4 10c-1.657 0-3-1.343-3-3s1.343-3 3-3 3 1.343 3 3-1.343 3-3 3zM2.707 18.707l10.7 10.7c-1.134.598-2.578.422-3.53-.53L1.12 20.12c-1.165-1.165-1.165-3.074 0-4.24L12.88 4.12C14.045 2.955 16.348 2 17.998 2L2.708 17.293c-.39.39-.39 1.025 0 1.414z" id="u"/><path class="path1" d="M22 20c-2 2-2 4-4 4s-4-2-6-4-4-4-4-6l4-4S8 2 6 2L0 8c0 4 4.11 12.11 8 16s12 8 16 8c0 0 6-4 6-6s-6-8-8-6z" id="v"/><path class="path1" d="M16 0C10.477 0 6 4.477 6 10c0 10 10 22 10 22s10-12 10-22c0-5.523-4.477-10-10-10zm0 16c-3.314 0-6-2.686-6-6s2.686-6 6-6 6 2.686 6 6-2.686 6-6 6z" id="w"/><path class="path1" d="M16 0C7.163 0 0 7.163 0 16s7.163 16 16 16 16-7.163 16-16S24.837 0 16 0zm0 29C8.82 29 3 23.18 3 16S8.82 3 16 3s13 5.82 13 13-5.82 13-13 13zm3-16l-9-5H8v2l5 9 9 5h2v-2l-5-9zm-3 5c-1.105 0-2-.895-2-2s.895-2 2-2 2 .895 2 2-.895 2-2 2z" id="x"/><path class="path1" d="M16 2c8.837 0 16 5.82 16 13s-7.163 13-16 13c-.85 0-1.682-.054-2.495-.158C10.068 31.28 5.965 31.895 2 31.986v-.84c2.142-1.05 4-2.962 4-5.146 0-.305-.024-.604-.068-.897C2.312 22.72 0 19.08 0 15 0 7.82 7.163 2 16 2z" id="y"/><path class="path1" d="M34 28.16c0 1.423.813 2.654 2 3.257v.498c-.332.045-.67.07-1.016.07-2.125 0-4.042-.892-5.398-2.32-.82.217-1.688.335-2.587.335-4.978 0-9-3.582-9-8s4.022-8 9-8 9 3.582 9 8c0 1.73-.62 3.33-1.67 4.64-.217.463-.337.98-.337 1.522zM16 0c8.702 0 15.78 5.644 15.995 12.672-1.537-.685-3.237-1.047-4.995-1.047-2.986 0-5.807 1.045-7.942 2.943-2.214 1.968-3.433 4.607-3.433 7.432 0 1.396.298 2.747.867 3.993L16 26c-.85 0-1.682-.054-2.495-.158C10.068 29.28 5.965 29.895 2 29.986v-.84c2.142-1.05 4-2.962 4-5.146 0-.305-.024-.604-.068-.897C2.312 20.72 0 17.08 0 13 0 5.82 7.163 0 16 0z" id="z"/><path class="path1" d="M15 0c8.284 0 15 5.435 15 12.14s-6.716 12.138-15 12.138c-.796 0-1.576-.05-2.34-.147C9.44 27.34 5.72 27.92 2 28v-.785c2.008-.98 3.625-2.765 3.625-4.804 0-.28-.022-.56-.063-.83C2.17 19.35 0 15.95 0 12.14 0 5.436 6.716 0 15 0zm16.125 27.21c0 1.747 1.135 3.277 2.875 4.117V32c-3.223-.072-6.18-.566-8.973-3.316-.66.083-1.337.126-2.027.126-2.983 0-5.732-.805-7.925-2.157 4.52-.016 8.79-1.464 12.026-4.084 1.638-1.32 2.92-2.87 3.83-4.61.96-1.84 1.45-3.8 1.45-5.827 0-.327-.013-.652-.04-.975 2.265 1.88 3.66 4.43 3.66 7.245 0 3.265-1.88 6.18-4.82 8.086-.034.24-.053.48-.053.72z" id="A"/><path class="path1" d="M12 4c0-2.21 1.79-4 4-4s4 1.79 4 4-1.79 4-4 4-4-1.79-4-4zm8.485 3.515c0-2.21 1.79-4 4-4s4 1.79 4 4-1.79 4-4 4-4-1.79-4-4zM26 16c0-1.105.895-2 2-2s2 .895 2 2-.895 2-2 2-2-.895-2-2zm-3.515 8.485c0-1.105.895-2 2-2s2 .895 2 2-.895 2-2 2-2-.895-2-2zM14 28c0-1.105.895-2 2-2s2 .895 2 2-.895 2-2 2-2-.895-2-2zm-8.485-3.515c0-1.105.895-2 2-2s2 .895 2 2-.895 2-2 2-2-.895-2-2zm-1-16.97c0-1.657 1.343-3 3-3s3 1.343 3 3-1.343 3-3 3-3-1.343-3-3zM1.75 16c0-1.243 1.007-2.25 2.25-2.25S6.25 14.757 6.25 16 5.243 18.25 4 18.25 1.75 17.243 1.75 16z" id="B"/><path class="path1" d="M32 16c-.04-2.09-.493-4.172-1.33-6.077-.835-1.906-2.047-3.633-3.534-5.06-1.486-1.428-3.248-2.557-5.156-3.302C20.074.82 18.024.46 16 .5c-2.026.04-4.043.48-5.886 1.292-1.845.81-3.517 1.983-4.898 3.424S2.742 8.363 2.023 10.21C1.3 12.056.956 14.04 1 16c.04 1.96.468 3.91 1.254 5.694.784 1.784 1.92 3.4 3.316 4.736 1.394 1.336 3.046 2.39 4.832 3.085 1.785.697 3.7 1.028 5.598.985 1.897-.04 3.78-.455 5.502-1.216 1.723-.76 3.285-1.86 4.574-3.208 1.29-1.348 2.308-2.945 2.977-4.67.407-1.046.684-2.137.83-3.244l.117.004c1.105 0 2-.895 2-2L31.993 16H32zm-3.178 5.31c-.733 1.664-1.796 3.17-3.1 4.413s-2.843 2.225-4.507 2.868c-1.663.65-3.447.96-5.215.91-1.77-.04-3.52-.43-5.12-1.14-1.6-.702-3.052-1.73-4.25-2.99s-2.14-2.74-2.76-4.34C3.25 19.42 2.96 17.707 3 16c.04-1.706.417-3.39 1.102-4.93.683-1.54 1.672-2.936 2.883-4.087S9.627 4.925 11.17 4.33c1.54-.595 3.19-.874 4.83-.832 1.642.04 3.258.404 4.737 1.064 1.48.658 2.82 1.61 3.926 2.774s1.975 2.54 2.543 4.02c.57 1.482.837 3.065.794 4.642h.007l-.007.167c0 1.032.78 1.88 1.784 1.988-.195 1.088-.517 2.15-.962 3.156z" id="C"/><path class="path1" d="M6 16c0-.38.022-.756.063-1.126l-5.78-1.878C.096 13.97-.002 14.973-.002 16c0 4.6 1.942 8.748 5.05 11.666L8.62 22.75C6.992 20.97 6 18.6 6 16zm20 0c0 2.602-.994 4.972-2.623 6.75l3.57 4.917C30.057 24.747 32 20.602 32 16c0-1.026-.098-2.03-.283-3.003l-5.78 1.878c.04.37.062.745.062 1.126zm-8-9.8c2.873.583 5.298 2.398 6.702 4.87l5.78-1.878C28.197 4.335 23.54.815 18.002.125V6.2zM7.298 11.07C8.7 8.6 11.128 6.784 14 6.2V.124C8.463.814 3.805 4.334 1.518 9.19l5.78 1.88zm12.844 14.034C18.88 25.68 17.477 26 16 26s-2.88-.32-4.142-.896L8.286 30.02C10.574 31.28 13.203 32 16 32s5.426-.72 7.714-1.98l-3.572-4.916z" id="D"/><path class="path1" d="M16 0C7.163 0 0 7.163 0 16s7.163 16 16 16 16-7.163 16-16S24.837 0 16 0zm0 8c4.418 0 8 3.582 8 8s-3.582 8-8 8-8-3.582-8-8 3.582-8 8-8zm9.546 17.546c-2.55 2.55-5.94 3.954-9.546 3.954s-6.996-1.404-9.546-3.954C3.904 22.996 2.5 19.606 2.5 16s1.404-6.996 3.954-9.546l2.12 2.12c-4.093 4.095-4.093 10.756 0 14.85C10.56 25.407 13.194 26.5 16 26.5s5.44-1.093 7.425-3.076c4.094-4.094 4.094-10.755 0-14.85l2.12-2.12c2.55 2.55 3.955 5.94 3.955 9.546s-1.404 6.996-3.954 9.546z" id="E"/><path class="path1" d="M16 0C7.29 0 .204 6.96.005 15.624.19 8.066 5.937 2 13 2c7.18 0 13 6.268 13 14 0 1.657 1.343 3 3 3s3-1.343 3-3c0-8.837-7.163-16-16-16zm0 32c8.71 0 15.796-6.96 15.995-15.624C31.81 23.934 26.063 30 19 30c-7.18 0-13-6.268-13-14 0-1.657-1.343-3-3-3s-3 1.343-3 3c0 8.837 7.163 16 16 16z" id="F"/><path class="path1" d="M32 12H20l4.485-4.485C22.218 5.25 19.205 4 16 4S9.78 5.248 7.515 7.515C5.25 9.782 4 12.795 4 16s1.248 6.22 3.515 8.485C9.782 26.75 12.795 28 16 28s6.22-1.248 8.485-3.515c.19-.19.37-.384.546-.583l3.01 2.634C25.11 29.886 20.81 32 16 32 7.163 32 0 24.837 0 16S7.163 0 16 0c4.418 0 8.418 1.79 11.313 4.687L32 0v12z" id="G"/><path class="path1" d="M19.463 21.96c-.69-.11-.707-2.01-.707-2.01s2.03-2.01 2.473-4.713c1.19 0 1.92-2.873.73-3.884C22.01 10.29 23.49 3 16 3s-6.014 7.29-5.965 8.353c-1.19 1.01-.455 3.884.735 3.884.442 2.703 2.473 4.713 2.473 4.713s-.016 1.9-.707 2.01C10.31 22.314 2 25.98 2 30h28c0-4.02-8.312-7.685-10.538-8.04z" id="H"/><path class="path1" d="M7.03 14c3.867 0 7 3.134 7 7s-3.133 7-7 7-7-3.134-7-7L0 20C0 12.268 6.268 6 14 6v4c-2.67 0-5.182 1.04-7.07 2.93-.365.363-.696.75-.996 1.156C6.29 14.03 6.658 14 7.03 14zm18 0c3.867 0 7 3.134 7 7s-3.133 7-7 7-7-3.134-7-7L18 20c0-7.732 6.268-14 14-14v4c-2.67 0-5.182 1.04-7.07 2.93-.365.363-.696.75-.996 1.156.358-.056.724-.086 1.097-.086z" id="I"/><path class="path1" d="M32 19.003v-6.006l-4.587-.764c-.186-.567-.413-1.115-.678-1.64l2.702-3.783-4.247-4.247-3.776 2.697c-.528-.267-1.08-.497-1.65-.684L19.004 0h-6.007l-.763 4.576c-.57.188-1.12.417-1.65.684L6.81 2.563 2.56 6.81l2.703 3.782c-.265.526-.492 1.074-.678 1.64l-4.587.765v6.006l4.597.766c.186.56.413 1.1.676 1.62l-2.71 3.8 4.25 4.245 3.8-2.715c.515.26 1.055.486 1.614.67l.77 4.61H19l.77-4.61c.558-.185 1.098-.41 1.617-.67l3.802 2.715 4.24-4.247-2.71-3.8c.263-.52.49-1.064.675-1.626L32 19zM16 20c-2.21 0-4-1.79-4-4s1.79-4 4-4 4 1.79 4 4-1.79 4-4 4z" id="J"/><path class="path1" d="M29.18 19.07c-1.678-2.908-.668-6.634 2.256-8.328L28.29 5.295c-.897.527-1.942.83-3.057.83-3.36 0-6.085-2.743-6.085-6.126h-6.29c.01 1.04-.25 2.1-.81 3.07-1.68 2.9-5.41 3.89-8.34 2.21L.566 10.72c.905.515 1.69 1.268 2.246 2.234 1.677 2.904.673 6.624-2.24 8.32l3.145 5.447c.895-.522 1.935-.82 3.044-.82 3.35 0 6.07 2.725 6.09 6.092h6.29c-.005-1.036.257-2.08.81-3.04 1.675-2.903 5.4-3.894 8.324-2.22l3.145-5.446c-.9-.515-1.68-1.266-2.233-2.226zM16 22.48c-3.578 0-6.48-2.902-6.48-6.48S12.423 9.52 16 9.52c3.578 0 6.48 2.902 6.48 6.48s-2.902 6.48-6.48 6.48z" id="K"/><path class="path1" d="M11.366 22.564l1.29-1.807-1.413-1.414-1.807 1.29c-.335-.186-.694-.336-1.07-.443L8 18H6l-.365 2.19c-.377.107-.736.256-1.07.444l-1.808-1.29-1.414 1.413 1.29 1.807c-.186.335-.336.694-.442 1.07L0 24v2l2.19.365c.108.377.257.736.445 1.07l-1.29 1.808 1.413 1.414 1.807-1.29c.335.186.694.336 1.07.443L6.002 32h2l.366-2.19c.377-.107.736-.256 1.07-.444l1.808 1.29 1.414-1.413-1.29-1.807c.186-.335.336-.694.443-1.07L14 26v-2l-2.19-.365c-.106-.377-.255-.736-.443-1.07zM7 27c-1.105 0-2-.895-2-2s.895-2 2-2 2 .895 2 2-.895 2-2 2zm25-15v-2l-2.106-.383c-.04-.25-.088-.5-.148-.743l1.8-1.16-.766-1.847-2.092.452c-.132-.22-.273-.43-.422-.63l1.22-1.76-1.416-1.42-1.76 1.22c-.2-.15-.41-.29-.63-.425l.456-2.09L24.288.45l-1.16 1.8c-.243-.06-.49-.11-.742-.15L22 0h-2l-.383 2.106c-.25.04-.5.088-.743.148l-1.16-1.8-1.847.766.452 2.092c-.22.132-.43.273-.63.422l-1.76-1.22-1.42 1.416 1.22 1.76c-.15.2-.29.41-.425.63l-2.09-.456-.767 1.848 1.8 1.16c-.06.243-.11.49-.15.742L10 10v2l2.106.383c.04.25.088.5.148.743l-1.8 1.16.766 1.847 2.092-.452c.132.22.273.43.422.63l-1.22 1.76 1.415 1.42 1.76-1.22c.2.15.41.29.63.424l-.46 2.09 1.85.767 1.16-1.8c.243.06.49.11.742.15L20 22h2l.383-2.106c.25-.04.5-.088.743-.148l1.16 1.8 1.847-.766-.452-2.092c.22-.132.43-.273.63-.422l1.76 1.22 1.42-1.415-1.22-1.76c.15-.2.29-.41.424-.63l2.09.46.767-1.85-1.8-1.16c.06-.243.11-.49.15-.742L32 12zm-11 3.35c-2.402 0-4.35-1.948-4.35-4.35S18.598 6.65 21 6.65s4.35 1.948 4.35 4.35c0 2.402-1.948 4.35-4.35 4.35z" id="L"/><path class="path1" d="M26 10h-2V7c0-2.76-5.373-5-12-5S0 4.24 0 7v18c0 2.76 5.373 5 12 5s12-2.24 12-5v-3h2c3.3 0 6-2.7 6-6s-2.7-6-6-6zM5.502 5.925C7.312 5.328 9.62 5 12 5s4.688.33 6.498.925c1.156.38 1.857.79 2.232 1.075-.375.286-1.076.694-2.232 1.075C16.688 8.672 14.38 9 12 9s-4.688-.33-6.498-.925C4.346 7.695 3.645 7.285 3.27 7c.375-.286 1.075-.694 2.232-1.075zm22.76 11.836c-.277.28-.873.74-1.762.74H24v-5h2.5c.89 0 1.486.47 1.76.74s.74.87.74 1.76-.463 1.49-.74 1.76z" id="M"/><path class="path1" d="M24 20l-5.713-5.714L32 4l-4-4-17.14 6.858-5.4-5.398C3.906-.094 1.734-.466.634.634s-.727 3.273.828 4.828l5.396 5.397L0 28l4 4 10.287-13.715L20 23.998v8h4l2-6 6-2v-4h-8z" id="N"/><path class="path1" d="M32 18l-4-8h-6V6c0-1.1-.9-2-2-2H2C.9 4 0 4.9 0 6v16l2 2h2.536c-.34.588-.536 1.27-.536 2 0 2.21 1.79 4 4 4s4-1.79 4-4c0-.73-.196-1.412-.536-2h11.073c-.34.588-.537 1.27-.537 2 0 2.21 1.79 4 4 4s4-1.79 4-4c0-.73-.196-1.412-.537-2H32v-6zm-10 0v-5h4.146l2.5 5H22z" id="O"/><path class="path1" d="M0 0h8v8H0zm12 2h20v4H12zM0 12h8v8H0zm12 2h20v4H12zM0 24h8v8H0zm12 2h20v4H12z" id="P"/><path class="path1" d="M32 20.548c0-2.565-1.77-4.716-4.156-5.296C27.744 11.23 24.454 8 20.41 8c-2.368 0-4.476 1.11-5.838 2.835-.764-.987-1.96-1.624-3.303-1.624-2.31 0-4.18 1.878-4.18 4.18 0 .2.012.4.04.598-.35-.063-.71-.098-1.08-.098C2.71 13.887 0 16.597 0 19.942S2.713 26 6.057 26h20.508c3.004-.006 5.438-2.444 5.438-5.45z" id="Q"/><path class="path1" d="M27.314 4.686C30.336 7.708 32 11.726 32 16s-1.664 8.292-4.686 11.314C24.292 30.336 20.274 32 16 32s-8.292-1.664-11.314-4.686C1.664 24.292 0 20.274 0 16S1.664 7.708 4.686 4.686C7.708 1.664 11.726 0 16 0s8.292 1.664 11.314 4.686zM25.9 25.9c1.97-1.97 3.28-4.425 3.82-7.096-.42.62-.824.85-1.073-.538-.257-2.262-2.335-.817-3.64-1.62-1.376.926-4.467-1.803-3.942 1.275.81 1.39 4.375-1.85 2.598 1.08-1.134 2.05-4.145 6.598-3.753 8.95.05 3.43-3.504.717-4.73-.42-.823-2.28-.28-6.262-2.433-7.38-2.338-.1-4.344-.313-5.25-2.926-.545-1.87.58-4.653 2.584-5.083 2.94-1.844 3.98 2.157 6.738 2.23.854-.894 3.182-1.18 3.375-2.18-1.805-.32 2.29-1.517-.173-2.2-1.36.16-2.235 1.41-1.513 2.468-2.632.614-2.717-3.81-5.247-2.414-.064 2.206-4.132.715-1.407.268.936-.41-1.527-1.59-.196-1.38.654-.032 2.854-.803 2.26-1.32 1.224-.76 2.254 1.82 3.453-.06.866-1.447-.363-1.714-1.448-.98-.613-.686 1.08-2.166 2.572-2.805.5-.213.976-.33 1.34-.296.75.868 2.14 1.02 2.214-.104C20.18 2.47 18.126 2 16 2c-3.05 0-5.95.97-8.352 2.762.645.296 1.012.664.39 1.134-.483 1.44-2.443 3.37-4.163 3.098-.893 1.54-1.482 3.238-1.733 5.017 1.44.48 1.773 1.42 1.464 1.74-.734.64-1.185 1.55-1.418 2.54.47 2.87 1.818 5.52 3.915 7.616 2.644 2.645 6.16 4.1 9.9 4.1s7.254-1.455 9.898-4.1z" id="R"/><path class="path1" d="M29.794 2.333l-.126-.126c-2.942-2.942-7.756-2.942-10.698 0l-6.816 6.817c-2.942 2.942-2.942 7.756 0 10.697l.126.13c.245.248.505.47.773.67l2.495-2.49c-.29-.173-.566-.378-.816-.628l-.126-.126c-1.597-1.596-1.597-4.195 0-5.792l6.816-6.814c1.597-1.596 4.196-1.596 5.793 0l.126.127c1.6 1.597 1.6 4.197 0 5.793l-3.08 3.084c.538 1.32.79 2.73.77 4.136l4.77-4.768c2.94-2.942 2.94-7.756 0-10.697zm-10.074 9.82c-.245-.244-.505-.465-.773-.67l-2.495 2.496c.29.17.566.37.816.62l.126.126c1.597 1.597 1.597 4.196 0 5.793l-6.817 6.817c-1.597 1.6-4.196 1.6-5.793 0l-.126-.124c-1.597-1.598-1.597-4.196 0-5.793l3.084-3.082c-.535-1.325-.79-2.734-.767-4.14l-4.77 4.77c-2.94 2.94-2.94 7.755 0 10.697l.127.125c2.942 2.94 7.756 2.94 10.698 0l6.816-6.817c2.942-2.943 2.942-7.757 0-10.7l-.126-.125z" id="S"/><path class="path1" d="M32 12.408L20.944 10.8 16 .784 11.056 10.8 0 12.41l8 7.798-1.89 11.01L16 26.02l9.89 5.2L24 20.205l8-7.798z" id="T"/><path class="path1" d="M32 11.192c0 2.7-1.163 5.126-3.015 6.808H29L19 28c-1 1-2 2-3 2s-2-1-3-2L3.015 18C1.163 16.318 0 13.89 0 11.192 0 6.115 4.116 2 9.192 2c2.7 0 5.126 1.163 6.808 3.015C17.682 3.163 20.11 2 22.808 2 27.885 2 32 6.116 32 11.192z" id="U"/><path class="path1" d="M6 0v32l10-10 10 10V0z" id="V"/><path class="path1" d="M16 6C9.02 6 2.972 10.064 0 16c2.972 5.936 9.02 10 16 10s13.027-4.064 16-10c-2.972-5.936-9.02-10-16-10zm7.89 5.303c1.88 1.2 3.472 2.805 4.67 4.697-1.198 1.89-2.79 3.498-4.67 4.697C21.526 22.204 18.8 23 16 23s-5.527-.796-7.89-2.303c-1.88-1.2-3.47-2.805-4.67-4.697 1.198-1.89 2.79-3.498 4.67-4.697l.372-.228C8.172 11.93 8 12.85 8 13.812c0 4.418 3.582 8 8 8s8-3.582 8-8c0-.962-.17-1.883-.482-2.737l.37.228zM16 12.813c0 1.657-1.343 3-3 3s-3-1.343-3-3 1.343-3 3-3 3 1.343 3 3z" id="W"/><path class="path1" d="M16 32c8.837 0 16-7.163 16-16S24.837 0 16 0 0 7.163 0 16s7.163 16 16 16zm0-29c7.18 0 13 5.82 13 13s-5.82 13-13 13S3 23.18 3 16 8.82 3 16 3zm0 15.71c3.623 0 7.07-.962 10-2.653C25.545 21.633 21.215 26 16 26s-9.544-4.373-10-9.95c2.93 1.69 6.377 2.658 10 2.658zM8 11c0-1.657.895-3 2-3s2 1.343 2 3-.895 3-2 3-2-1.343-2-3zm12 0c0-1.657.895-3 2-3s2 1.343 2 3-.895 3-2 3-2-1.343-2-3z" id="X"/><path class="path1" d="M16 32c8.837 0 16-7.163 16-16S24.837 0 16 0 0 7.163 0 16s7.163 16 16 16zm0-29c7.18 0 13 5.82 13 13s-5.82 13-13 13S3 23.18 3 16 8.82 3 16 3zm-8 7c0-1.105.895-2 2-2s2 .895 2 2-.895 2-2 2-2-.895-2-2zm12 0c0-1.105.895-2 2-2s2 .895 2 2-.895 2-2 2-2-.895-2-2zm2.003 9.602l2.573 1.544C22.826 24.054 19.64 26 16 26s-6.827-1.945-8.576-4.854l2.573-1.544C11.22 21.638 13.45 23 16 23s4.78-1.362 6.003-3.398z" id="Y"/><path class="path1" d="M16 0C7.163 0 0 7.163 0 16s7.163 16 16 16 16-7.163 16-16S24.837 0 16 0zm6 8c1.105 0 2 .895 2 2s-.895 2-2 2-2-.895-2-2 .895-2 2-2zM10 8c1.105 0 2 .895 2 2s-.895 2-2 2-2-.895-2-2 .895-2 2-2zm6 18c-3.64 0-6.827-1.946-8.576-4.855L9.997 19.6C11.22 21.638 13.45 23 16 23s4.78-1.363 6.003-3.4l2.573 1.545C22.826 24.053 19.64 26 16 26z" id="Z"/><path class="path1" d="M16 0C7.163 0 0 7.163 0 16s7.163 16 16 16 16-7.163 16-16S24.837 0 16 0zm6 8c1.105 0 2 1.343 2 3s-.895 3-2 3-2-1.343-2-3 .895-3 2-3zM10 8c1.105 0 2 1.343 2 3s-.895 3-2 3-2-1.343-2-3 .895-3 2-3zm6 20c-5.215 0-9.544-4.37-10-9.947 2.93 1.69 6.377 2.658 10 2.658s7.07-.96 10-2.65C25.545 23.636 21.215 28 16 28z" id="aa"/><path class="path1" d="M16 0C7.163 0 0 7.163 0 16s7.163 16 16 16 16-7.163 16-16S24.837 0 16 0zm8 10.828L18.828 16 24 21.172V24h-2.828L16 18.828 10.828 24H8v-2.828L13.172 16 8 10.828V8h2.828L16 13.172 21.172 8H24v2.828z" id="ab"/><path class="path1" d="M16 0C7.163 0 0 7.163 0 16s7.163 16 16 16 16-7.163 16-16S24.837 0 16 0zm-3 26l-6.625-8.625 2.938-3.063L13 19l11.564-9.438L26.002 11l-13 15z" id="ac"/><path class="path1" d="M27 4L12 19l-7-7-5 5 12 12L32 9z" id="ad"/><path class="path1" d="M31.708 25.708L22 16l9.708-9.708c.105-.105.18-.227.23-.357.132-.356.056-.77-.23-1.057L27.122.292c-.286-.286-.702-.36-1.057-.23-.13.05-.252.125-.357.23L16 9.998 6.292.29C6.187.188 6.065.11 5.935.064c-.356-.133-.77-.057-1.057.23L.292 4.877c-.286.286-.36.702-.23 1.057.05.13.125.252.23.357L10 16 .292 25.708c-.104.105-.18.227-.23.357-.132.355-.056.77.23 1.057l4.586 4.586c.286.286.702.36 1.057.23.13-.05.252-.125.357-.23L16 22l9.708 9.708c.105.105.227.18.357.23.356.132.77.056 1.057-.23l4.586-4.586c.286-.286.362-.702.23-1.057-.05-.13-.125-.252-.23-.357z" id="ae"/><path class="path1" d="M0 13v6c0 .552.448 1 1 1h30c.552 0 1-.448 1-1v-6c0-.552-.448-1-1-1H1c-.552 0-1 .448-1 1z" id="af"/><path class="path1" d="M31 12H20V1c0-.552-.448-1-1-1h-6c-.552 0-1 .448-1 1v11H1c-.552 0-1 .448-1 1v6c0 .552.448 1 1 1h11v11c0 .552.448 1 1 1h6c.552 0 1-.448 1-1V20h11c.552 0 1-.448 1-1v-6c0-.552-.448-1-1-1z" id="ag"/><path class="path1" d="M22.485 25.985c-.384 0-.768-.146-1.06-.44-.587-.585-.587-1.534 0-2.12 4.093-4.094 4.093-10.755 0-14.85-.587-.585-.587-1.535 0-2.12s1.535-.586 2.12 0c2.55 2.55 3.954 5.94 3.954 9.546s-1.41 7-3.96 9.55c-.294.297-.678.44-1.06.44zm-5.328-2.828c-.384 0-.768-.146-1.06-.44-.587-.585-.587-1.534 0-2.12 2.533-2.534 2.533-6.658 0-9.192-.587-.586-.587-1.536 0-2.12s1.534-.587 2.12 0c3.704 3.703 3.704 9.73 0 13.434-.293.29-.677.432-1.06.432zm-4.615-20.7c.802-.8 1.458-.53 1.458.605v25.875c0 1.134-.656 1.406-1.458.604L5 22H0V10h5l7.542-7.543z" id="ah"/><path class="path1" d="M27.313 4.687C24.418 1.79 20.418 0 16 0 9.14 0 3.29 4.316 1.016 10.38l3.746 1.406C6.468 7.238 10.856 4 16 4c3.314 0 6.313 1.344 8.485 3.515L20 12h12V0l-4.687 4.687zM16 28c-3.314 0-6.313-1.343-8.485-3.515L12 20H0v12l4.687-4.687C7.582 30.21 11.58 32 16 32c6.86 0 12.71-4.316 14.984-10.38l-3.746-1.406C25.532 24.762 21.144 28 16 28z" id="ai"/><path class="path1" d="M16 0L0 16h10v16h12V16h10z" id="aj"/><path class="path1" d="M32 16L16 0v10H0v12h16v10z" id="ak"/><path class="path1" d="M16 32l16-16H22V0H10v16H0z" id="al"/><path class="path1" d="M0 16l16 16V22h16V10H16V0z" id="am"/><path class="path1" d="M27.414 12.586l-10-10c-.78-.78-2.047-.78-2.828 0l-10 10c-.78.78-.78 2.047 0 2.828s2.047.78 2.828 0L14 8.828V28c0 1.105.895 2 2 2s2-.895 2-2V8.828l6.586 6.586c.39.39.902.586 1.414.586s1.024-.195 1.414-.586c.78-.78.78-2.047 0-2.828z" id="an"/><path class="path1" d="M19.414 27.414l10-10c.78-.78.78-2.047 0-2.828l-10-10c-.78-.78-2.047-.78-2.828 0s-.78 2.047 0 2.828L23.172 14H4c-1.105 0-2 .895-2 2s.895 2 2 2h19.172l-6.586 6.586c-.39.39-.586.902-.586 1.414s.195 1.024.586 1.414c.78.78 2.047.78 2.828 0z" id="ao"/><path class="path1" d="M4.586 19.414l10 10c.78.78 2.047.78 2.828 0l10-10c.78-.78.78-2.047 0-2.828s-2.047-.78-2.828 0L18 23.172V4c0-1.105-.895-2-2-2s-2 .895-2 2v19.172l-6.586-6.586C7.024 16.196 6.512 16 6 16s-1.024.195-1.414.586c-.78.78-.78 2.047 0 2.828z" id="ap"/><path class="path1" d="M12.586 4.586l-10 10c-.78.78-.78 2.047 0 2.828l10 10c.78.78 2.047.78 2.828 0s.78-2.047 0-2.828L8.828 18H28c1.105 0 2-.895 2-2s-.895-2-2-2H8.828l6.586-6.586c.39-.39.586-.902.586-1.414s-.195-1.024-.586-1.414c-.78-.78-2.047-.78-2.828 0z" id="aq"/><path class="path1" d="M32 16c0 8.837-7.163 16-16 16S0 24.837 0 16 7.163 0 16 0s16 7.163 16 16zM3 16c0 7.18 5.82 13 13 13s13-5.82 13-13S23.18 3 16 3 3 8.82 3 16zm14.414-9.414l8 8c.78.78.78 2.047 0 2.828s-2.047.78-2.828 0L18 12.828V24c0 1.105-.895 2-2 2s-2-.895-2-2V12.828l-4.586 4.586c-.78.78-2.047.78-2.83 0C6.194 17.024 6 16.512 6 16s.194-1.024.585-1.414l8-8c.78-.78 2.047-.78 2.828 0z" id="ar"/><path class="path1" d="M16 0C7.163 0 0 7.163 0 16s7.163 16 16 16 16-7.163 16-16S24.837 0 16 0zm0 29C8.82 29 3 23.18 3 16S8.82 3 16 3s13 5.82 13 13-5.82 13-13 13zm9.414-14.414l-8-8c-.78-.78-2.047-.78-2.828 0s-.78 2.047 0 2.828L19.172 14H8c-1.105 0-2 .895-2 2s.895 2 2 2h11.172l-4.586 4.586c-.78.78-.78 2.047 0 2.83.39.39.902.585 1.414.585s1.024-.19 1.414-.58l8-8c.78-.78.78-2.046 0-2.83z" id="as"/><path class="path1" d="M32 16c0-8.837-7.163-16-16-16S0 7.163 0 16s7.163 16 16 16 16-7.163 16-16zM3 16C3 8.82 8.82 3 16 3s13 5.82 13 13-5.82 13-13 13S3 23.18 3 16zm14.414 9.414l8-8c.78-.78.78-2.047 0-2.828s-2.047-.78-2.828 0L18 19.172V8c0-1.105-.895-2-2-2s-2 .895-2 2v11.172l-4.586-4.586c-.78-.78-2.047-.78-2.83 0-.39.39-.585.902-.585 1.414s.19 1.024.58 1.414l8 8c.78.78 2.046.78 2.83 0z" id="at"/><path class="path1" d="M16 0c8.837 0 16 7.163 16 16s-7.163 16-16 16S0 24.837 0 16 7.163 0 16 0zm0 29c7.18 0 13-5.82 13-13S23.18 3 16 3 3 8.82 3 16s5.82 13 13 13zM6.586 14.586l8-8c.78-.78 2.047-.78 2.828 0s.78 2.047 0 2.828L12.828 14H24c1.105 0 2 .895 2 2s-.895 2-2 2H12.828l4.586 4.586c.78.78.78 2.047 0 2.83-.39.39-.902.585-1.414.585s-1.024-.19-1.414-.58l-8-8c-.78-.78-.78-2.046 0-2.83z" id="au"/><path class="path1" d="M0 0v32h32V0H0zm30 30H2V2h28v28z" id="av"/><path class="path1" d="M0 0v32h32V0H0zm30 30H2V2h28v28zM8 8h16v16H8z" id="aw"/><path class="path1" d="M16 0C7.163 0 0 7.163 0 16s7.163 16 16 16 16-7.163 16-16S24.837 0 16 0zm0 28C9.373 28 4 22.627 4 16S9.373 4 16 4s12 5.373 12 12-5.373 12-12 12zm-6-12c0-3.314 2.686-6 6-6s6 2.686 6 6-2.686 6-6 6-6-2.686-6-6z" id="ax"/><path class="path1" d="M16 0C7.163 0 0 7.163 0 16s7.163 16 16 16 16-7.163 16-16S24.837 0 16 0zm0 28C9.373 28 4 22.627 4 16S9.373 4 16 4s12 5.373 12 12-5.373 12-12 12z" id="ay"/><path class="path1" d="M4.26 23.467C1.91 23.467 0 25.384 0 27.72c0 2.348 1.91 4.243 4.26 4.243 2.357 0 4.264-1.895 4.264-4.244 0-2.34-1.907-4.26-4.265-4.26zM.004 10.873v6.133c3.993 0 7.75 1.562 10.577 4.39 2.83 2.824 4.39 6.596 4.39 10.604h6.16c0-11.65-9.477-21.127-21.12-21.127zM.012 0v6.136C14.255 6.136 25.848 17.74 25.848 32H32C32 14.36 17.648 0 .012 0z" id="az"/><path class="path1" d="M8 2h16v4H8zm22 6H2c-1.1 0-2 .9-2 2v10c0 1.1.9 2 2 2h6v8h16v-8h6c1.1 0 2-.9 2-2V10c0-1.1-.9-2-2-2zm-8 20H10V18h12v10zm8.45-17c0 .8-.65 1.45-1.45 1.45s-1.45-.65-1.45-1.45.65-1.45 1.45-1.45c.8 0 1.45.65 1.45 1.45z" id="aA"/><path class="path1" d="M28.232 6.232l-4.465-4.464C22.795.796 20.874 0 19.5 0h-15C3.123 0 2 1.125 2 2.5v27C2 30.875 3.123 32 4.5 32h23c1.374 0 2.5-1.125 2.5-2.5v-19c0-1.375-.797-3.296-1.77-4.268zm-1.414 1.414c.098.098.195.218.29.354H22V2.892c.136.095.256.192.354.29l4.465 4.464zM28 29.5c0 .27-.23.5-.5.5h-23c-.27 0-.5-.23-.5-.5v-27c0-.27.23-.5.5-.5h15c.15 0 .32.02.5.053V10h7.947c.034.18.053.35.053.5v19z" id="aB"/></defs><use xlink:href="#a"/><use xlink:href="#b" transform="translate(48)"/><use xlink:href="#c" transform="translate(96)"/><use xlink:href="#d" transform="translate(144)"/><use xlink:href="#e" transform="translate(192)"/><use xlink:href="#f" transform="translate(242)"/><use xlink:href="#g" transform="translate(290)"/><use xlink:href="#h" transform="translate(338)"/><use xlink:href="#i" transform="translate(386)"/><use xlink:href="#j" transform="translate(434)"/><use xlink:href="#k" transform="translate(486)"/><use xlink:href="#l" transform="translate(538)"/><use xlink:href="#m" transform="translate(586)"/><use xlink:href="#n" transform="translate(634)"/><use xlink:href="#o" transform="translate(682)"/><use xlink:href="#p" transform="translate(730)"/><use xlink:href="#q" transform="translate(0 48)"/><use xlink:href="#r" transform="translate(48 48)"/><use xlink:href="#s" transform="translate(96 48)"/><use xlink:href="#t" transform="translate(144 48)"/><use xlink:href="#u" transform="translate(192 48)"/><use xlink:href="#v" transform="translate(242 48)"/><use xlink:href="#w" transform="translate(290 48)"/><use xlink:href="#x" transform="translate(338 48)"/><use xlink:href="#y" transform="translate(386 48)"/><use xlink:href="#z" transform="translate(434 48)"/><use xlink:href="#A" transform="translate(486 48)"/><use xlink:href="#B" transform="translate(538 48)"/><use xlink:href="#C" transform="translate(586 48)"/><use xlink:href="#D" transform="translate(634 48)"/><use xlink:href="#E" transform="translate(682 48)"/><use xlink:href="#F" transform="translate(730 48)"/><use xlink:href="#G" transform="translate(0 96)"/><use xlink:href="#H" transform="translate(48 96)"/><use xlink:href="#I" transform="translate(96 96)"/><use xlink:href="#J" transform="translate(144 96)"/><use xlink:href="#K" transform="translate(192 96)"/><use xlink:href="#L" transform="translate(242 96)"/><use xlink:href="#M" transform="translate(290 96)"/><use xlink:href="#N" transform="translate(338 96)"/><use xlink:href="#O" transform="translate(386 96)"/><use xlink:href="#P" transform="translate(434 96)"/><use xlink:href="#Q" transform="translate(486 96)"/><use xlink:href="#R" transform="translate(538 96)"/><use xlink:href="#S" transform="translate(586 96)"/><use xlink:href="#T" transform="translate(634 96)"/><use xlink:href="#U" transform="translate(682 96)"/><use xlink:href="#V" transform="translate(730 96)"/><use xlink:href="#W" transform="translate(0 144)"/><use xlink:href="#X" transform="translate(48 144)"/><use xlink:href="#Y" transform="translate(96 144)"/><use xlink:href="#Z" transform="translate(144 144)"/><use xlink:href="#aa" transform="translate(192 144)"/><use xlink:href="#ab" transform="translate(242 144)"/><use xlink:href="#ac" transform="translate(290 144)"/><use xlink:href="#ad" transform="translate(338 144)"/><use xlink:href="#ae" transform="translate(386 144)"/><use xlink:href="#af" transform="translate(434 144)"/><use xlink:href="#ag" transform="translate(486 144)"/><use xlink:href="#ah" transform="translate(538 144)"/><use xlink:href="#ai" transform="translate(586 144)"/><use xlink:href="#aj" transform="translate(634 144)"/><use xlink:href="#ak" transform="translate(682 144)"/><use xlink:href="#al" transform="translate(730 144)"/><use xlink:href="#am" transform="translate(0 192)"/><use xlink:href="#an" transform="translate(48 192)"/><use xlink:href="#ao" transform="translate(96 192)"/><use xlink:href="#ap" transform="translate(144 192)"/><use xlink:href="#aq" transform="translate(192 192)"/><use xlink:href="#ar" transform="translate(242 192)"/><use xlink:href="#as" transform="translate(290 192)"/><use xlink:href="#at" transform="translate(338 192)"/><use xlink:href="#au" transform="translate(386 192)"/><use xlink:href="#av" transform="translate(434 192)"/><use xlink:href="#aw" transform="translate(486 192)"/><use xlink:href="#ax" transform="translate(538 192)"/><use xlink:href="#ay" transform="translate(586 192)"/><use xlink:href="#az" transform="translate(634 192)"/><use xlink:href="#aA" transform="translate(682 192)"/><use xlink:href="#aB" transform="translate(730 192)"/></svg>