<svg width="1200" height="800" viewBox="0 0 1200 800" xmlns="http://www.w3.org/2000/svg"><title>Artboard 1</title><defs><linearGradient x1="4.454%" y1="-22.288%" x2="122.642%" y2="209.031%" id="a"><stop stop-color="#E61464" offset="0%"/><stop stop-color="#F1842B" offset="100%"/></linearGradient><linearGradient x1="2.418%" y1="-99.774%" x2="123.123%" y2="278.116%" id="b"><stop stop-color="#E61464" offset="0%"/><stop stop-color="#F1842B" offset="100%"/></linearGradient><linearGradient x1="-44.444%" y1="-121.019%" x2="265.921%" y2="384.765%" id="c"><stop stop-color="#E61464" offset="0%"/><stop stop-color="#F1842B" offset="100%"/></linearGradient><linearGradient x1="-44.444%" y1="-121.014%" x2="265.922%" y2="384.752%" id="d"><stop stop-color="#E61464" offset="0%"/><stop stop-color="#F1842B" offset="100%"/></linearGradient></defs><g fill="none"><path fill="#ED7F28" d="M0 0h1206v820H0z"/><path d="M561.757 186.65l47.316 77.64c-13.83-1.398-26.046-.39-36.3 2.79-10.673 3.312-19.26 8.962-25.35 16.726-6.336 8.048-9.908 18.4-10.117 30.583-.193 12.72 3.28 27.43 11.058 43.44 8.014 16.62 19.776 32.843 34.09 47.78 14.594 15.113 31.558 28.64 49.594 39.614 18.01 10.94 36.725 19.186 54.835 23.99 17.74 4.717 34.548 6.1 49.297 3.614L829 625.12c-30.666 13.163-68.584 16.186-110.807 9.308-44.678-7.31-92.187-25.4-138.203-52.52-46.482-27.397-89.05-62.708-123.62-102.823-33.174-38.53-57.324-79.64-69.944-120.214-11.616-37.34-11.98-69.72-3.922-96.02 7.347-23.93 21.67-42.72 40.77-56.063 17.485-12.237 39.06-19.952 63.426-23.123 22.574-2.927 47.837-1.997 75.057 2.995z" fill="url(#a)"/><path d="M829 625.13c-30.628 13.16-68.495 16.173-110.665 9.29-44.62-7.306-92.068-25.38-138.024-52.48-46.42-27.392-88.93-62.686-123.46-102.783C423.72 440.645 399.6 399.557 387 359c12.6 40.555 36.72 81.645 69.85 120.157 34.518 40.097 77.03 75.39 123.46 102.784 45.957 27.11 93.405 45.18 138.025 52.48 42.17 6.888 80.037 3.87 110.665-9.29z" fill="url(#b)"/><path d="M609 265l127.028 209c14.152-2.352 24.962-8.02 32.386-15.97 7.134-7.622 11.17-17.338 12.27-28.395 1.068-10.576-.584-22.396-4.845-34.795-4.1-11.974-10.69-24.608-19.7-37.397 9.004 12.796 15.593 25.43 19.693 37.397 4.255 12.4 5.912 24.228 4.845 34.795-1.1 11.05-5.136 20.773-12.27 28.396-7.424 7.95-18.235 13.62-32.387 15.97L609 265zm0 0l127.028 209c14.152-2.352 24.962-8.02 32.386-15.97 7.134-7.622 11.17-17.338 12.27-28.395 1.068-10.576-.584-22.396-4.845-34.795-4.1-11.974-10.69-24.608-19.7-37.397 9.004 12.796 15.593 25.43 19.693 37.397 4.255 12.4 5.912 24.228 4.845 34.795-1.1 11.05-5.136 20.773-12.27 28.396-7.424 7.95-18.235 13.62-32.387 15.97L609 265z" fill="url(#c)"/><path d="M609 265c13.423 1.39 27.25 4.937 40.892 10.18 13.38 5.11 26.773 11.906 39.52 19.953 12.755 8.046 25.027 17.4 36.195 27.77 11.35 10.47 21.755 22.092 30.536 34.543 9.007 12.795 15.596 25.427 19.696 37.396 4.25 12.398 5.91 24.228 4.84 34.794-1.1 11.05-5.137 20.772-12.27 28.395-7.425 7.95-18.236 13.62-32.388 15.97L609 265z" fill="url(#d)"/><path fill-opacity=".6" fill="#000" d="M0 0h1200v800H0z"/></g></svg>