<?xml version="1.0" encoding="utf-8"?>
<!-- Generator: Adobe Illustrator 16.0.0, SVG Export Plug-In . SVG Version: 6.00 Build 0)  -->
<!DOCTYPE svg PUBLIC "-//W3C//DTD SVG 1.1//EN" "http://www.w3.org/Graphics/SVG/1.1/DTD/svg11.dtd">
<svg version="1.1" id="_x37_" xmlns="http://www.w3.org/2000/svg" xmlns:xlink="http://www.w3.org/1999/xlink" x="0px" y="0px"
	 width="100px" height="154px" viewBox="0 0 100 154" enable-background="new 0 0 100 154" xml:space="preserve">
<g>
	<rect y="19" fill="#B26D01" width="100" height="135"/>
	<rect fill="#FFFFFF" width="100" height="19"/>
	<path d="M85.742,27.778c4.707,0,8.523-3.816,8.523-8.523s-3.816-8.522-8.523-8.522s-8.523,3.815-8.523,8.522
		S81.035,27.778,85.742,27.778"/>
	<path d="M14.801,10.713c0.025,0,0.034,0,0.034-0.012c0-0.022-0.009-0.06-0.043-0.159l-0.124-0.359
		c-0.004-0.017-0.013-0.034-0.025-0.034c-0.013,0-0.026,0.013-0.035,0.029l-0.145,0.373c-0.039,0.085-0.056,0.132-0.056,0.154
		c0,0.004,0.004,0.008,0.017,0.008H14.801z M14.399,10.868c-0.03,0-0.06,0.026-0.077,0.068l-0.094,0.223
		c-0.06,0.137-0.111,0.265-0.111,0.346c0,0.132,0.239,0.064,0.239,0.146c0,0.03-0.017,0.047-0.077,0.047
		c-0.064,0-0.103-0.017-0.304-0.017c-0.201,0-0.244,0.017-0.291,0.017c-0.034,0-0.047-0.013-0.047-0.034
		c0-0.085,0.201-0.039,0.278-0.209l0.765-1.681c0.018-0.038,0.043-0.051,0.064-0.051s0.039,0.017,0.051,0.051l0.659,1.694
		c0.085,0.201,0.252,0.116,0.252,0.188c0,0.039-0.021,0.043-0.094,0.043c-0.089,0-0.183-0.017-0.329-0.017
		c-0.206,0-0.316,0.017-0.368,0.017c-0.051,0-0.064-0.013-0.064-0.039c0-0.09,0.256-0.026,0.256-0.124c0-0.077-0.03-0.171-0.141-0.5
		l-0.03-0.094c-0.017-0.047-0.047-0.073-0.085-0.073H14.399z"/>
	<path d="M17.534,11.466c0,0.077,0.077,0.12,0.308,0.12c0.402,0,0.573-0.223,0.573-0.458c0-0.286-0.214-0.449-0.59-0.449
		c-0.269,0-0.291,0.009-0.291,0.086V11.466z M17.534,10.53c0,0.051,0.039,0.056,0.273,0.056c0.347,0,0.479-0.154,0.479-0.359
		c0-0.273-0.158-0.376-0.513-0.376c-0.214,0-0.239,0.018-0.239,0.06V10.53z M18.354,10.556c0,0.047,0.376,0.132,0.376,0.53
		c0,0.381-0.342,0.595-1.035,0.595c-0.342,0-0.599,0.017-0.684,0.017c-0.064,0-0.094-0.017-0.094-0.047
		c0-0.051,0.077-0.051,0.175-0.064c0.073-0.008,0.124-0.051,0.124-0.141v-1.313c0-0.132-0.009-0.205-0.09-0.235
		c-0.12-0.047-0.201-0.021-0.201-0.068c0-0.035,0.013-0.056,0.064-0.056c0.115,0,0.252,0.013,0.419,0.004
		c0.192-0.008,0.337-0.021,0.569-0.021c0.333,0,0.599,0.179,0.599,0.462C18.577,10.457,18.354,10.538,18.354,10.556"/>
	<path d="M20.112,11.638c0.479,0,0.718-0.325,0.718-0.903c0-0.585-0.308-0.902-0.693-0.902c-0.393,0-0.709,0.317-0.709,0.902
		C19.428,11.312,19.667,11.638,20.112,11.638 M20.138,9.722c0.599,0,1.052,0.428,1.052,1.013c0,0.578-0.453,1.014-1.077,1.014
		c-0.616,0-1.061-0.436-1.061-1.014C19.052,10.149,19.497,9.722,20.138,9.722"/>
	<path d="M22.597,11.638c0.479,0,0.718-0.325,0.718-0.903c0-0.585-0.308-0.902-0.692-0.902c-0.394,0-0.71,0.317-0.71,0.902
		C21.913,11.312,22.152,11.638,22.597,11.638 M22.623,9.722c0.599,0,1.052,0.428,1.052,1.013c0,0.578-0.453,1.014-1.078,1.014
		c-0.616,0-1.061-0.436-1.061-1.014C21.536,10.149,21.981,9.722,22.623,9.722"/>
	<path d="M24.517,10.585c0,0.034,0.009,0.051,0.021,0.051c0.009,0,0.034-0.021,0.069-0.051l0.577-0.483
		c0.085-0.073,0.171-0.137,0.171-0.175s-0.047-0.043-0.098-0.043c-0.073-0.004-0.158,0.004-0.158-0.055
		c0-0.03,0.03-0.056,0.089-0.056c0.099,0,0.201,0.017,0.347,0.017c0.175,0,0.265-0.017,0.325-0.017c0.051,0,0.077,0.013,0.077,0.051
		c0,0.034-0.051,0.043-0.12,0.056c-0.09,0.017-0.167,0.056-0.227,0.098l-0.731,0.547c-0.013,0.013-0.026,0.021-0.026,0.034
		c0,0.017,0.013,0.021,0.026,0.034l0.825,0.766c0.244,0.227,0.381,0.244,0.381,0.299c0,0.043-0.034,0.039-0.081,0.039
		c-0.086,0-0.209-0.017-0.368-0.017c-0.214,0-0.308,0.017-0.372,0.017c-0.034,0-0.06-0.017-0.06-0.047
		c0-0.111,0.218-0.017,0.218-0.107c0-0.039-0.051-0.094-0.167-0.201l-0.607-0.547c-0.017-0.017-0.047-0.047-0.064-0.047
		c-0.026,0-0.047,0.022-0.047,0.051v0.561c0,0.218,0.073,0.223,0.176,0.235c0.081,0.009,0.115,0.026,0.115,0.056
		c0,0.034-0.017,0.047-0.082,0.047c-0.098,0-0.222-0.017-0.363-0.017c-0.142,0-0.278,0.017-0.385,0.017
		c-0.042,0-0.06-0.017-0.06-0.047c0-0.039,0.021-0.056,0.12-0.064c0.12-0.009,0.162-0.061,0.162-0.154v-1.394
		c0-0.111-0.038-0.15-0.162-0.158c-0.081-0.004-0.098-0.021-0.098-0.051c0-0.039,0.021-0.056,0.081-0.056
		c0.064,0,0.146,0.017,0.364,0.017c0.201,0,0.27-0.017,0.333-0.017c0.043,0,0.064,0.021,0.064,0.051c0,0.043-0.052,0.06-0.146,0.06
		c-0.082,0-0.12,0.035-0.12,0.163V10.585z"/>
	<path d="M28.335,10.713c0.026,0,0.034,0,0.034-0.012c0-0.022-0.008-0.06-0.043-0.159l-0.124-0.359
		c-0.004-0.017-0.013-0.034-0.026-0.034c-0.013,0-0.025,0.013-0.034,0.029l-0.145,0.373c-0.039,0.085-0.056,0.132-0.056,0.154
		c0,0.004,0.004,0.008,0.017,0.008H28.335z M27.934,10.868c-0.03,0-0.06,0.026-0.077,0.068l-0.094,0.223
		c-0.061,0.137-0.111,0.265-0.111,0.346c0,0.132,0.239,0.064,0.239,0.146c0,0.03-0.017,0.047-0.077,0.047
		c-0.064,0-0.102-0.017-0.304-0.017c-0.201,0-0.244,0.017-0.291,0.017c-0.034,0-0.047-0.013-0.047-0.034
		c0-0.085,0.201-0.039,0.278-0.209l0.765-1.681c0.017-0.038,0.043-0.051,0.064-0.051s0.039,0.017,0.051,0.051l0.659,1.694
		c0.085,0.201,0.252,0.116,0.252,0.188c0,0.039-0.021,0.043-0.094,0.043c-0.09,0-0.184-0.017-0.329-0.017
		c-0.206,0-0.317,0.017-0.368,0.017c-0.051,0-0.064-0.013-0.064-0.039c0-0.09,0.256-0.026,0.256-0.124c0-0.077-0.03-0.171-0.141-0.5
		l-0.03-0.094c-0.017-0.047-0.047-0.073-0.085-0.073H27.934z"/>
	<path d="M29.973,10.692c0,0.068,0.06,0.111,0.252,0.111c0.274,0,0.5-0.184,0.5-0.496c0-0.287-0.227-0.44-0.552-0.44
		c-0.158,0-0.201,0.038-0.201,0.141V10.692z M29.657,10.042c0-0.149-0.056-0.154-0.248-0.175c-0.039-0.004-0.051-0.013-0.051-0.047
		c0-0.025,0.03-0.047,0.085-0.047c0.077,0,0.214,0.017,0.385,0.017c0.206,0,0.342-0.017,0.59-0.017c0.308,0,0.624,0.137,0.624,0.521
		c0,0.385-0.29,0.637-0.603,0.637c-0.27,0-0.359-0.034-0.466-0.064v0.585c0,0.094,0.03,0.125,0.128,0.133
		c0.137,0.013,0.163,0.03,0.163,0.06c0,0.039-0.013,0.051-0.064,0.051c-0.141,0-0.244-0.017-0.389-0.017
		c-0.146,0-0.291,0.017-0.385,0.017c-0.047,0-0.068-0.013-0.068-0.047c0-0.06,0.077-0.056,0.15-0.064
		c0.077-0.008,0.149-0.021,0.149-0.12V10.042z"/>
	<path d="M32.073,10.713c0.026,0,0.034,0,0.034-0.012c0-0.022-0.008-0.06-0.043-0.159l-0.124-0.359
		c-0.004-0.017-0.013-0.034-0.026-0.034c-0.013,0-0.025,0.013-0.034,0.029l-0.145,0.373c-0.039,0.085-0.056,0.132-0.056,0.154
		c0,0.004,0.004,0.008,0.017,0.008H32.073z M31.671,10.868c-0.03,0-0.06,0.026-0.077,0.068L31.5,11.159
		c-0.06,0.137-0.111,0.265-0.111,0.346c0,0.132,0.239,0.064,0.239,0.146c0,0.03-0.017,0.047-0.077,0.047
		c-0.064,0-0.102-0.017-0.303-0.017c-0.201,0-0.244,0.017-0.291,0.017c-0.034,0-0.047-0.013-0.047-0.034
		c0-0.085,0.201-0.039,0.278-0.209l0.766-1.681c0.017-0.038,0.043-0.051,0.064-0.051c0.021,0,0.039,0.017,0.052,0.051l0.658,1.694
		c0.085,0.201,0.252,0.116,0.252,0.188c0,0.039-0.021,0.043-0.094,0.043c-0.09,0-0.184-0.017-0.329-0.017
		c-0.206,0-0.316,0.017-0.368,0.017s-0.064-0.013-0.064-0.039c0-0.09,0.257-0.026,0.257-0.124c0-0.077-0.03-0.171-0.141-0.5
		l-0.03-0.094c-0.017-0.047-0.047-0.073-0.086-0.073H31.671z"/>
	<path d="M33.835,9.867c-0.171,0-0.201,0.021-0.201,0.077v0.633c0,0.069,0.035,0.086,0.223,0.086c0.303,0,0.444-0.142,0.444-0.385
		C34.301,10.008,34.13,9.867,33.835,9.867 M34.232,10.718c0,0.025,0.021,0.042,0.06,0.111l0.342,0.586
		c0.073,0.124,0.146,0.149,0.244,0.171c0.051,0.008,0.081,0.017,0.081,0.055c0,0.025-0.021,0.039-0.064,0.039
		c-0.094,0-0.312,0.017-0.393,0.017c-0.03,0-0.051-0.013-0.082-0.068l-0.415-0.744c-0.056-0.099-0.137-0.146-0.24-0.146
		c-0.098,0-0.132,0.034-0.132,0.128v0.59c0,0.077,0.039,0.12,0.128,0.128c0.133,0.013,0.179,0.025,0.179,0.068
		c0,0.034-0.017,0.042-0.085,0.042c-0.111,0-0.197-0.017-0.377-0.017c-0.205,0-0.307,0.017-0.419,0.017
		c-0.008,0-0.051-0.009-0.051-0.039c0-0.056,0.077-0.064,0.153-0.072c0.077-0.009,0.154-0.03,0.154-0.133V9.978
		c0-0.081-0.026-0.09-0.111-0.107c-0.068-0.013-0.137-0.004-0.137-0.047s0.021-0.051,0.077-0.051c0.081,0,0.209,0.017,0.385,0.017
		c0.196,0,0.364-0.017,0.487-0.017c0.368,0,0.573,0.205,0.573,0.462C34.591,10.663,34.232,10.649,34.232,10.718"/>
	<path d="M36.187,11.398c0,0.132,0.094,0.18,0.188,0.188c0.094,0.008,0.188,0.013,0.188,0.069c0,0.038-0.043,0.042-0.068,0.042
		c-0.154,0-0.303-0.017-0.457-0.017c-0.154,0-0.304,0.017-0.458,0.017c-0.034,0-0.06-0.017-0.06-0.047
		c0-0.056,0.09-0.056,0.176-0.064c0.089-0.008,0.175-0.056,0.175-0.188v-1.172c0-0.286-0.03-0.308-0.188-0.308
		c-0.53,0-0.513,0.342-0.62,0.342c-0.042,0-0.047-0.017-0.047-0.042c0-0.034,0.021-0.077,0.103-0.316
		c0.068-0.214,0.085-0.24,0.124-0.24c0.047,0,0.09,0.163,0.218,0.163h1.095c0.085,0,0.235-0.009,0.316-0.051
		c0.056-0.026,0.056-0.085,0.094-0.085c0.042,0,0.034,0.051,0.034,0.27c0,0.239-0.034,0.278-0.068,0.278
		c-0.047,0-0.042-0.06-0.089-0.163c-0.043-0.09-0.12-0.154-0.394-0.154c-0.235,0-0.26,0.021-0.26,0.308V11.398z"/>
	<path fill="#E8E6D4" d="M12.823,10.705c0,1.031-0.836,1.867-1.867,1.867c-1.031,0-1.867-0.835-1.867-1.867
		c0-1.031,0.836-1.867,1.867-1.867C11.987,8.838,12.823,9.674,12.823,10.705"/>
	<path fill="#998F52" d="M12.414,9.006c-0.013,0.046-0.01,0.099-0.036,0.141c0.002,0.031-0.023,0.051-0.016,0.084
		c-0.036,0.072-0.051,0.153-0.092,0.225c-0.002,0.051-0.036,0.095-0.049,0.143c-0.031,0.107-0.102,0.202-0.143,0.289
		c-0.046,0.01-0.023,0.056-0.056,0.074c-0.026,0.062-0.094,0.103-0.139,0.162c-0.082,0.11-0.225,0.141-0.33,0.202
		c-0.043,0.021-0.053,0.064-0.107,0.062c-0.013-0.031-0.008-0.116-0.008-0.116c0.016-0.036-0.015-0.069,0.008-0.107
		c0.008-0.077-0.018-0.169,0.023-0.235c0.003-0.115,0.062-0.197,0.107-0.279c0.125-0.159,0.322-0.273,0.478-0.412
		c0.028-0.007,0.044-0.025,0.064-0.045c0.023-0.023,0.064-0.021,0.069-0.059c0.056-0.039,0.121-0.103,0.18-0.138
		C12.384,8.999,12.407,8.989,12.414,9.006"/>
	<path fill="#998F52" d="M10.943,9.658c0,0.036,0.033,0.046,0.03,0.082c0.021,0.011,0.018,0.097,0.042,0.102
		c-0.008,0.046,0.013,0.087,0.021,0.125l0.012,0.409c0,0-0.031,0.171-0.051,0.253c-0.028,0.007,0,0.049-0.023,0.059
		c0.003,0.041-0.023,0.079-0.041,0.11c-0.015,0.069-0.077,0.125-0.11,0.184c-0.019,0.007-0.031,0.023-0.033,0.043
		c-0.069,0.069-0.1,0.151-0.151,0.23c-0.031,0.026-0.021-0.028-0.042-0.038c-0.015-0.046-0.03-0.097-0.056-0.133
		c0-0.02-0.005-0.041-0.023-0.051c-0.038-0.099-0.072-0.212-0.097-0.322c0.005-0.03-0.007-0.066,0.01-0.092
		c-0.015-0.066,0.026-0.118,0.024-0.192c0.038-0.036,0.03-0.112,0.076-0.143c-0.002-0.056,0.044-0.076,0.046-0.13
		c0.026-0.043,0.044-0.072,0.069-0.118c0.01-0.031,0.015-0.069,0.038-0.097c0.029-0.026,0.052-0.123,0.069-0.143
		c0.019-0.013,0.019-0.044,0.042-0.051c0.015-0.029,0.028-0.075,0.056-0.098c-0.013-0.041,0.039-0.043,0.036-0.083
		C10.949,9.559,10.92,9.63,10.943,9.658"/>
	<path fill="#998F52" d="M12.468,10.298c-0.043,0.064-0.123,0.092-0.151,0.171c-0.072,0.069-0.118,0.146-0.189,0.22
		c-0.109,0.12-0.222,0.23-0.368,0.312c-0.019,0.01-0.049,0.005-0.052,0.028c-0.041,0.025-0.094,0.038-0.143,0.051
		c-0.146,0.059-0.299,0.113-0.468,0.098c-0.057-0.008-0.128,0.056-0.159,0c-0.005-0.075,0.083-0.118,0.103-0.172
		c0.041-0.015,0.051-0.051,0.074-0.076l0.023-0.028c0,0,0.056-0.069,0.097-0.097c0.123-0.103,0.23-0.184,0.353-0.287
		c0.059-0.015,0.107-0.038,0.156-0.071c0.061-0.034,0.107-0.021,0.166-0.057c0.097-0.033,0.215-0.066,0.314-0.102
		c0.09,0.01,0.154-0.054,0.243-0.031V10.298z"/>
	<path fill="#998F52" d="M10.705,11.492c0.228,0.016,0.453,0.064,0.683,0.046c-0.002,0.015-0.018,0.046-0.041,0.046
		c-0.025,0.016-0.171,0.097-0.171,0.097c-0.046-0.008-0.059,0.026-0.097,0.031c-0.021,0.025-0.077,0.023-0.097,0.056
		c-0.036,0.015-0.074,0.041-0.105,0.064c-0.051-0.01-0.059,0.051-0.11,0.041c-0.123,0.077-0.327,0.095-0.476,0.051
		c-0.074-0.025-0.164-0.021-0.23-0.074c-0.018,0.002-0.049-0.013-0.059-0.028c-0.031-0.025-0.11-0.034-0.105-0.082
		c0.051-0.023,0.087-0.066,0.138-0.082c0,0,0.044-0.031,0.069-0.051c0.007-0.002,0.063-0.044,0.1-0.056
		c0.028,0.01,0.028-0.021,0.051-0.023c0.121-0.036,0.266-0.066,0.397-0.028L10.705,11.492z"/>
	<path fill="#FFFFFF" d="M85.483,15.851l-0.881-1.259l-0.109-0.197v1.224l0.061,0.091h0.159c0.005,0.018,0.008,0.038,0.008,0.058
		c0,0.02-0.002,0.041-0.008,0.058h-0.575c-0.005-0.018-0.008-0.038-0.008-0.058c0-0.023,0.002-0.038,0.008-0.058h0.146l0.061-0.091
		v-1.285h-0.207c-0.005-0.021-0.008-0.038-0.008-0.058c0-0.021,0.002-0.038,0.008-0.058h0.507l0.719,1.03l0.108,0.197v-1.02
		l-0.061-0.091h-0.162c-0.005-0.021-0.008-0.038-0.008-0.058c0-0.021,0.003-0.041,0.008-0.058h0.555
		c0.005,0.018,0.007,0.038,0.007,0.058c0,0.02-0.002,0.041-0.007,0.058h-0.124l-0.061,0.091v1.426H85.483z"/>
	<path fill="#FFFFFF" d="M86.554,15.346c-0.343,0-0.585-0.232-0.585-0.585c0-0.333,0.27-0.588,0.593-0.588
		c0.343,0,0.586,0.232,0.586,0.585C87.147,15.091,86.877,15.346,86.554,15.346z M86.907,14.758c0-0.277-0.141-0.474-0.346-0.474
		c-0.197,0-0.353,0.174-0.353,0.477c0,0.277,0.141,0.475,0.346,0.475C86.751,15.235,86.907,15.061,86.907,14.758z"/>
	<path fill="#FFFFFF" d="M87.517,15.346c-0.096,0-0.154-0.071-0.154-0.154c0-0.091,0.058-0.157,0.157-0.157
		c0.096,0,0.154,0.071,0.154,0.157C87.673,15.28,87.615,15.346,87.517,15.346z"/>
	<rect x="9.089" y="107.071" width="72.727" height="0.252"/>
	<rect x="9.089" y="135.606" width="72.727" height="0.252"/>
	<path fill="#FFFFFF" d="M83.674,25.536c0.063-0.682,0.568-2.045,1.692-3.712l2.235-3.333h-4.369l0.202-0.998h4.748v1.061
		l-2.045,3.473c-0.947,1.604-1.364,2.917-1.452,3.51H83.674z"/>
	<path d="M12.199,131.339H9.73V112.35h2.184c1.448,0,2.208,0.712,2.469,1.899c0.166,0.854,0.214,3.157,0.214,7.168
		c0,2.184,0,7.097-0.214,8.046C14.169,130.413,13.718,131.339,12.199,131.339z M13.125,121.394c0-0.688-0.024-5.388-0.024-6.076
		c0-0.997-0.499-1.519-1.116-1.519h-0.783v16.188h1.044c0.427,0,0.831-0.285,0.854-1.068
		C13.125,128.135,13.125,122.082,13.125,121.394z"/>
	<path d="M15.854,131.339V112.35h4.249v1.424h-2.777v7.263h2.445v1.424h-2.445v7.453h2.801v1.424H15.854z"/>
	<path d="M22.999,131.481c-1.543,0-2.397-0.878-2.397-2.421v-2.682h1.376v2.397c0,0.997,0.38,1.353,0.95,1.353
		c0.641,0,0.997-0.427,0.997-1.994c0-2.136-0.261-3.465-1.092-5.317c-0.213-0.451-0.641-1.353-0.902-1.875
		c-0.973-1.923-1.424-3.276-1.424-5.388c0-2.136,0.926-3.299,2.516-3.299c1.709,0,2.326,1.282,2.35,3.157
		c0,0.119,0.023,2.136,0.023,2.136h-1.448v-2.088c0-1.116-0.19-1.757-0.949-1.757c-0.712,0-0.95,0.546-0.95,1.994
		c0,1.52,0.403,2.92,1.21,4.439c0.285,0.546,0.617,1.187,0.902,1.78c0.926,1.922,1.306,3.655,1.306,5.958
		C25.467,130.532,24.565,131.481,22.999,131.481z"/>
	<path d="M26.583,131.339V112.35h1.496v18.989H26.583z"/>
	<path d="M33.276,131.339l-0.071-0.665c-0.237,0.522-0.878,0.783-1.472,0.783c-1.306,0-2.16-0.736-2.231-2.468
		c-0.023-0.522-0.071-5.388-0.071-7.145c0-1.757-0.024-5.293,0.047-6.812c0.047-1.59,0.807-2.801,2.397-2.801
		c1.685,0,2.231,1.234,2.302,2.374c0.023,0.902,0,3.655,0,3.655h-1.448c0,0,0-1.875,0-3.204c0-0.973-0.309-1.282-0.854-1.282
		c-0.522,0-0.902,0.38-0.902,1.4c0,1.14-0.023,5.436-0.023,6.693c0,0.95,0.023,5.958,0.023,6.765c0,0.926,0.285,1.401,0.926,1.401
		c0.593,0,0.926-0.427,0.926-1.306c0-0.593,0-6.029,0-6.029h-1.234v-1.424h2.659c0,0,0,4.605,0,5.815
		c0,2.16,0.023,4.249,0.023,4.249H33.276z"/>
	<path d="M38.712,131.339l-1.852-12.319v12.319h-1.329V112.35h1.59l1.899,13.435V112.35h1.353v18.989H38.712z"/>
	<path fill="#FFFFFF" d="M43.769,131.339V112.35h1.496v18.989H43.769z"/>
	<path fill="#FFFFFF" d="M48.706,131.481c-1.542,0-2.397-0.878-2.397-2.421v-2.682h1.376v2.397c0,0.997,0.38,1.353,0.95,1.353
		c0.641,0,0.997-0.427,0.997-1.994c0-2.136-0.261-3.465-1.092-5.317c-0.213-0.451-0.641-1.353-0.902-1.875
		c-0.973-1.923-1.424-3.276-1.424-5.388c0-2.136,0.926-3.299,2.516-3.299c1.709,0,2.326,1.282,2.35,3.157
		c0,0.119,0.024,2.136,0.024,2.136h-1.448v-2.088c0-1.116-0.19-1.757-0.95-1.757c-0.712,0-0.949,0.546-0.949,1.994
		c0,1.52,0.404,2.92,1.21,4.439c0.285,0.546,0.617,1.187,0.902,1.78c0.925,1.922,1.305,3.655,1.305,5.958
		C51.175,130.532,50.273,131.481,48.706,131.481z"/>
	<path fill="#FFFFFF" d="M55.922,131.339h-1.448l1.97-18.989h1.97l1.543,18.989h-1.472c0,0-0.261-4.106-0.285-4.628
		c0,0-1.898,0-1.922,0C56.278,127.233,55.922,131.339,55.922,131.339z M57.465,117.738c0-0.475-0.119-3.631-0.119-3.631
		s-0.142,3.133-0.166,3.608c-0.047,0.664-0.76,7.571-0.76,7.571h1.686C58.106,125.286,57.465,118.213,57.465,117.738z"/>
	<path fill="#FFFFFF" d="M64.277,131.363c-0.499,0-0.76-0.024-1.139-0.095v-1.4c0.308,0.023,0.522,0.047,0.902,0.023
		c0.854,0,1.021-0.475,1.021-1.234V112.35h1.52v16.283C66.58,130.58,65.915,131.363,64.277,131.363z"/>
	<path fill="#FFFFFF" d="M72.989,115.436c0,0.854,0.023,4.462,0.023,6.337c0,2.089,0,5.317-0.023,6.551
		c-0.071,2.088-0.831,3.157-2.563,3.157c-1.733,0-2.469-0.997-2.516-3.109c-0.024-0.522-0.024-4.534-0.024-6.575
		c0-1.756,0-5.649,0.024-6.29c0.047-2.184,0.783-3.252,2.516-3.252C72.086,112.255,72.917,113.229,72.989,115.436z M71.446,128.609
		c0.047-0.831,0.047-5.34,0.047-6.789c0-1.282,0-5.744-0.023-6.503c-0.024-1.092-0.261-1.566-1.021-1.566
		c-0.854,0-1.021,0.617-1.021,1.59c0,0.784-0.024,5.175-0.024,6.551c0,1.448,0,5.91,0.024,6.717s0.237,1.4,1.044,1.4
		C71.185,130.01,71.398,129.369,71.446,128.609z"/>
	<path fill="#FFFFFF" d="M77.214,131.339h-2.896V112.35h2.729c1.021,0,1.851,0.451,2.041,1.472c0.095,0.522,0.143,2.231,0.143,3.157
		c0,0.973-0.047,2.706-0.119,3.204c-0.119,0.878-0.38,1.353-0.997,1.519c0.617,0.119,0.95,0.546,1.068,1.306
		c0.119,0.688,0.143,2.184,0.143,3.133c0,1.14,0.047,2.896-0.143,3.608C78.899,130.817,78.472,131.339,77.214,131.339z
		 M77.688,114.866c0-0.641-0.38-1.092-0.926-1.092h-0.997v7.311h1.305c0.261,0,0.594-0.237,0.617-0.878
		c0.024-0.38,0.024-1.78,0.024-2.919C77.712,116.291,77.688,115.293,77.688,114.866z M77.783,125.951
		c0-0.759-0.023-2.16-0.047-2.634c-0.024-0.641-0.309-0.878-0.641-0.878h-1.329v7.5h1.305c0.404,0,0.665-0.237,0.688-0.878
		C77.783,128.562,77.783,126.663,77.783,125.951z"/>
	<path fill="#FFFFFF" d="M12.344,104.504c-0.01-0.035-0.015-0.101-0.015-0.142c0-0.045,0.005-0.101,0.015-0.141h0.374v-2.056
		l0.041-0.479l-1.081,2.869h-0.384l-0.854-2.39l-0.131-0.479l-0.05,2.394l0.106,0.142h0.268c0.01,0.035,0.016,0.101,0.016,0.141
		c0,0.041-0.005,0.106-0.016,0.142H9.536c-0.01-0.035-0.016-0.101-0.016-0.142c0-0.045,0.005-0.101,0.016-0.141h0.222l0.106-0.142
		l0.086-2.51H9.545c-0.01-0.041-0.015-0.101-0.015-0.142s0.005-0.106,0.015-0.142h1.309l0.642,1.773l0.177,0.617l0.187-0.617
		l0.657-1.773h1.252c0.01,0.036,0.015,0.101,0.015,0.142s-0.005,0.106-0.015,0.142h-0.354v2.652h0.354
		c0.01,0.035,0.015,0.101,0.015,0.141c0,0.041-0.005,0.106-0.015,0.142H12.344z"/>
	<path fill="#FFFFFF" d="M14.061,104.504c-0.01-0.035-0.015-0.081-0.015-0.136s0.005-0.096,0.015-0.136h0.293v-1.425l-0.283-0.318
		v-0.086l0.864-0.197h0.091v2.026h0.288c0.01,0.04,0.015,0.081,0.015,0.136s-0.005,0.101-0.015,0.136H14.061z M14.278,101.483
		c0-0.222,0.116-0.389,0.384-0.389c0.252,0,0.374,0.177,0.374,0.389c-0.005,0.217-0.121,0.384-0.379,0.384
		C14.394,101.868,14.278,101.691,14.278,101.483z"/>
	<path fill="#FFFFFF" d="M17.203,104.504v-0.111l-0.571-0.869l-0.182-0.076v0.783h0.273c0.01,0.04,0.015,0.081,0.015,0.136
		s-0.005,0.101-0.015,0.136h-1.238c-0.01-0.035-0.015-0.081-0.015-0.136s0.005-0.096,0.015-0.136h0.293v-2.784l-0.283-0.293v-0.086
		l0.874-0.212h0.081v2.384h0.177l0.646-0.566l-0.055-0.146H17c-0.01-0.041-0.015-0.076-0.015-0.131s0.005-0.101,0.015-0.142h1.116
		c0.01,0.041,0.015,0.086,0.015,0.142s-0.005,0.091-0.015,0.131h-0.202l-0.768,0.626l0.752,1.076h0.228
		c0.01,0.04,0.015,0.085,0.015,0.136c0,0.061-0.005,0.101-0.015,0.136H17.203z"/>
	<path fill="#FFFFFF" d="M20.263,103.989c-0.167,0.338-0.48,0.566-0.884,0.566c-0.672,0-1.152-0.435-1.152-1.117
		c0-0.742,0.536-1.232,1.157-1.232c0.581,0,0.919,0.323,0.919,0.778c0,0.096-0.01,0.172-0.025,0.243h-1.364
		c-0.005,0.04-0.005,0.065-0.005,0.091c0,0.435,0.263,0.738,0.728,0.738c0.248,0,0.439-0.091,0.586-0.228L20.263,103.989z
		 M19.657,102.979c0.005-0.051,0.005-0.096,0.005-0.131c0-0.096-0.015-0.217-0.03-0.268c-0.016-0.05-0.046-0.076-0.096-0.091
		s-0.121-0.025-0.177-0.025c-0.051,0-0.131,0.01-0.172,0.021c-0.035,0.01-0.061,0.02-0.086,0.045
		c-0.065,0.066-0.151,0.283-0.172,0.45H19.657z"/>
	<path fill="#FFFFFF" d="M24.662,104.504c-0.01-0.035-0.015-0.101-0.015-0.142c0-0.045,0.005-0.101,0.015-0.141h0.374v-2.056
		l0.041-0.479l-1.081,2.869h-0.384l-0.854-2.39l-0.131-0.479l-0.05,2.394l0.106,0.142h0.268c0.01,0.035,0.015,0.101,0.015,0.141
		c0,0.041-0.005,0.106-0.015,0.142h-1.096c-0.01-0.035-0.015-0.101-0.015-0.142c0-0.045,0.005-0.101,0.015-0.141h0.222l0.106-0.142
		l0.085-2.51h-0.404c-0.01-0.041-0.015-0.101-0.015-0.142s0.005-0.106,0.015-0.142h1.308l0.642,1.773l0.177,0.617l0.187-0.617
		l0.657-1.773h1.253c0.01,0.036,0.015,0.101,0.015,0.142s-0.005,0.106-0.015,0.142h-0.354v2.652h0.354
		c0.01,0.035,0.015,0.101,0.015,0.141c0,0.041-0.005,0.106-0.015,0.142H24.662z"/>
	<path fill="#FFFFFF" d="M26.298,103.378c0-0.697,0.566-1.172,1.238-1.172c0.717,0,1.228,0.46,1.228,1.177
		c0,0.697-0.566,1.172-1.243,1.172C26.808,104.555,26.298,104.095,26.298,103.378z M27.536,102.52c-0.308,0-0.495,0.272-0.495,0.858
		c0,0.541,0.157,0.864,0.48,0.864c0.308,0,0.5-0.272,0.5-0.859C28.021,102.843,27.859,102.52,27.536,102.52z"/>
	<path fill="#FFFFFF" d="M30.465,104.504c-0.01-0.035-0.015-0.086-0.015-0.142c0-0.055,0.005-0.091,0.015-0.131h0.243v-1.435
		c-0.076-0.096-0.207-0.131-0.333-0.131c-0.146,0-0.329,0.05-0.48,0.141v1.425h0.243c0.01,0.04,0.015,0.081,0.015,0.131
		c0,0.056-0.005,0.106-0.015,0.142h-1.208c-0.01-0.035-0.015-0.086-0.015-0.142c0-0.055,0.005-0.091,0.015-0.131h0.293v-1.425
		l-0.283-0.318v-0.086l0.788-0.197h0.081l0.066,0.45c0.293-0.344,0.55-0.45,0.838-0.45c0.359,0,0.667,0.182,0.667,0.682v1.344h0.288
		c0.01,0.04,0.015,0.076,0.015,0.131c0,0.056-0.005,0.106-0.015,0.142H30.465z"/>
	<path fill="#FFFFFF" d="M32.601,104.555c-0.369,0-0.616-0.207-0.616-0.561v-1.45h-0.313c-0.01-0.045-0.015-0.086-0.015-0.142
		c0-0.05,0.005-0.101,0.015-0.146h0.313v-0.45l0.672-0.187v0.636h0.556c0.01,0.046,0.015,0.096,0.015,0.146
		c0,0.061-0.005,0.096-0.015,0.142h-0.556v1.495c0.041,0.066,0.126,0.101,0.227,0.101c0.116,0,0.228-0.061,0.309-0.141l0.045,0.192
		C33.101,104.414,32.874,104.555,32.601,104.555z"/>
	<path fill="#FFFFFF" d="M35.399,103.989c-0.167,0.338-0.48,0.566-0.884,0.566c-0.672,0-1.151-0.435-1.151-1.117
		c0-0.742,0.535-1.232,1.157-1.232c0.581,0,0.919,0.323,0.919,0.778c0,0.096-0.01,0.172-0.025,0.243h-1.364
		c-0.005,0.04-0.005,0.065-0.005,0.091c0,0.435,0.263,0.738,0.728,0.738c0.248,0,0.439-0.091,0.586-0.228L35.399,103.989z
		 M34.793,102.979c0.005-0.051,0.005-0.096,0.005-0.131c0-0.096-0.015-0.217-0.03-0.268c-0.015-0.05-0.045-0.076-0.096-0.091
		c-0.05-0.015-0.121-0.025-0.177-0.025c-0.05,0-0.131,0.01-0.172,0.021c-0.035,0.01-0.061,0.02-0.086,0.045
		c-0.065,0.066-0.151,0.283-0.171,0.45H34.793z"/>
	<path fill="#FFFFFF" d="M35.636,104.504c-0.01-0.035-0.015-0.081-0.015-0.136s0.005-0.096,0.015-0.136h0.293v-1.425l-0.283-0.318
		v-0.086l0.864-0.197h0.091v2.026h0.288c0.01,0.04,0.015,0.081,0.015,0.136s-0.005,0.101-0.015,0.136H35.636z M35.854,101.483
		c0-0.222,0.116-0.389,0.384-0.389c0.253,0,0.374,0.177,0.374,0.389c-0.005,0.217-0.121,0.384-0.379,0.384
		C35.97,101.868,35.854,101.691,35.854,101.483z"/>
	<path fill="#FFFFFF" d="M37.081,104.504c-0.01-0.035-0.015-0.081-0.015-0.136s0.005-0.096,0.015-0.136h0.293v-1.425l-0.283-0.318
		v-0.086l0.788-0.197h0.081l0.066,0.53c0.268-0.424,0.439-0.53,0.651-0.53c0.238,0,0.364,0.151,0.364,0.328
		c0,0.162-0.076,0.298-0.212,0.409l-0.086,0.071l-0.399-0.237c-0.056,0-0.137,0.02-0.298,0.131v1.324h0.318
		c0.01,0.04,0.015,0.085,0.015,0.136c0,0.056-0.005,0.101-0.015,0.136H37.081z"/>
	<path fill="#FFFFFF" d="M39.136,103.378c0-0.697,0.566-1.172,1.238-1.172c0.717,0,1.228,0.46,1.228,1.177
		c0,0.697-0.566,1.172-1.243,1.172C39.646,104.555,39.136,104.095,39.136,103.378z M40.374,102.52c-0.308,0-0.495,0.272-0.495,0.858
		c0,0.541,0.157,0.864,0.48,0.864c0.308,0,0.5-0.272,0.5-0.859C40.859,102.843,40.697,102.52,40.374,102.52z"/>
</g>
</svg>
