<svg xmlns="http://www.w3.org/2000/svg" width="100" height="154" viewBox="0 0 100 154"><path fill="#B26D01" d="M0 19h100v135h-100z"/><path fill="#fff" d="M0 0h100v19h-100z"/><path d="M85.742 27.778c4.707 0 8.523-3.816 8.523-8.523s-3.816-8.522-8.523-8.522-8.523 3.815-8.523 8.522 3.816 8.523 8.523 8.523m-70.941-17.065l.034-.012-.043-.159-.124-.359-.025-.034-.035.029-.145.373-.056.154.017.008h.377zm-.402.155l-.077.068-.094.223c-.06.137-.111.265-.111.346 0 .132.239.064.239.146l-.077.047-.304-.017-.291.017-.047-.034c0-.085.201-.039.278-.209l.765-1.681.064-.051.051.051.659 1.694c.085.201.252.116.252.188l-.094.043-.329-.017-.368.017-.064-.039.256-.124c0-.077-.03-.171-.141-.5l-.03-.094-.085-.073h-.452zm3.135.598c0 .077.077.12.308.12.402 0 .573-.223.573-.458 0-.286-.214-.449-.59-.449-.269 0-.291.009-.291.086v.701zm0-.936c0 .051.039.056.273.056.347 0 .479-.154.479-.359 0-.273-.158-.376-.513-.376-.214 0-.239.018-.239.06v.619zm.82.026c0 .047.376.132.376.53 0 .381-.342.595-1.035.595l-.684.017-.094-.047c0-.051.077-.051.175-.064.073-.008.124-.051.124-.141v-1.313c0-.132-.009-.205-.09-.235l-.201-.068.064-.056.419.004.569-.021c.333 0 .599.179.599.462.001.238-.222.319-.222.337m1.758 1.082c.479 0 .718-.325.718-.903 0-.585-.308-.902-.693-.902-.393 0-.709.317-.709.902 0 .577.239.903.684.903m.026-1.916c.599 0 1.052.428 1.052 1.013 0 .578-.453 1.014-1.077 1.014-.616 0-1.061-.436-1.061-1.014 0-.586.445-1.013 1.086-1.013m2.459 1.916c.479 0 .718-.325.718-.903 0-.585-.308-.902-.692-.902-.394 0-.71.317-.71.902 0 .577.239.903.684.903m.026-1.916c.599 0 1.052.428 1.052 1.013 0 .578-.453 1.014-1.078 1.014-.616 0-1.061-.436-1.061-1.014 0-.586.445-1.013 1.087-1.013m1.894.863l.021.051.069-.051.577-.483c.085-.073.171-.137.171-.175l-.098-.043c-.073-.004-.158.004-.158-.055l.089-.056.347.017.325-.017.077.051-.12.056c-.09.017-.167.056-.227.098l-.731.547-.026.034.026.034.825.766c.244.227.381.244.381.299l-.081.039-.368-.017-.372.017-.06-.047.218-.107c0-.039-.051-.094-.167-.201l-.607-.547-.064-.047-.047.051v.561c0 .218.073.223.176.235l.115.056-.082.047-.363-.017-.385.017-.06-.047c0-.039.021-.056.12-.064.12-.009.162-.061.162-.154v-1.394c0-.111-.038-.15-.162-.158l-.098-.051.081-.056.364.017.333-.017.064.051c0 .043-.052.06-.146.06-.082 0-.12.035-.12.163v.537zm3.818.128l.034-.012-.043-.159-.124-.359-.026-.034-.034.029-.145.373-.056.154.017.008h.377zm-.401.155l-.077.068-.094.223c-.061.137-.111.265-.111.346 0 .132.239.064.239.146l-.077.047-.304-.017-.291.017-.047-.034c0-.085.201-.039.278-.209l.765-1.681.064-.051.051.051.659 1.694c.085.201.252.116.252.188l-.094.043-.329-.017-.368.017-.064-.039.256-.124c0-.077-.03-.171-.141-.5l-.03-.094-.085-.073h-.452zm2.039-.176c0 .068.06.111.252.111.274 0 .5-.184.5-.496 0-.287-.227-.44-.552-.44-.158 0-.201.038-.201.141v.684zm-.316-.65c0-.149-.056-.154-.248-.175l-.051-.047.085-.047.385.017.59-.017c.308 0 .624.137.624.521 0 .385-.29.637-.603.637-.27 0-.359-.034-.466-.064v.585c0 .094.03.125.128.133.137.013.163.03.163.06l-.064.051-.389-.017-.385.017-.068-.047c0-.06.077-.056.15-.064.077-.008.149-.021.149-.12v-1.423zm2.416.671l.034-.012-.043-.159-.124-.359-.026-.034-.034.029-.145.373-.056.154.017.008h.377zm-.402.155l-.077.068-.094.223c-.06.137-.111.265-.111.346 0 .132.239.064.239.146l-.077.047-.303-.017-.291.017-.047-.034c0-.085.201-.039.278-.209l.766-1.681.064-.051.052.051.658 1.694c.085.201.252.116.252.188l-.094.043-.329-.017-.368.017-.064-.039.257-.124c0-.077-.03-.171-.141-.5l-.03-.094-.086-.073h-.454zm2.164-1.001c-.171 0-.201.021-.201.077v.633c0 .069.035.086.223.086.303 0 .444-.142.444-.385 0-.27-.171-.411-.466-.411m.397.851l.06.111.342.586c.073.124.146.149.244.171l.081.055-.064.039-.393.017-.082-.068-.415-.744c-.056-.099-.137-.146-.24-.146-.098 0-.132.034-.132.128v.59c0 .077.039.12.128.128.133.013.179.025.179.068l-.085.042-.377-.017-.419.017-.051-.039c0-.056.077-.064.153-.072.077-.009.154-.03.154-.133v-1.473c0-.081-.026-.09-.111-.107l-.137-.047.077-.051.385.017.487-.017c.368 0 .573.205.573.462.002.428-.357.414-.357.483"/><path d="M36.187 11.398c0 .132.094.18.188.188.094.008.188.013.188.069l-.068.042-.457-.017-.458.017-.06-.047c0-.056.09-.056.176-.064.089-.008.175-.056.175-.188v-1.172c0-.286-.03-.308-.188-.308-.53 0-.513.342-.62.342l-.047-.042.103-.316c.068-.214.085-.24.124-.24.047 0 .09.163.218.163h1.095c.085 0 .235-.009.316-.051l.094-.085c.042 0 .034.051.034.27 0 .239-.034.278-.068.278l-.089-.163c-.043-.09-.12-.154-.394-.154-.235 0-.26.021-.26.308v1.17z"/><path fill="#E8E6D4" d="M12.823 10.705c0 1.031-.836 1.867-1.867 1.867-1.031 0-1.867-.835-1.867-1.867 0-1.031.836-1.867 1.867-1.867 1.031 0 1.867.836 1.867 1.867"/><path fill="#998F52" d="M12.414 9.006l-.036.141-.016.084-.092.225-.049.143-.143.289-.056.074-.139.162c-.082.11-.225.141-.33.202l-.107.062-.008-.116.008-.107c.008-.077-.018-.169.023-.235.003-.115.062-.197.107-.279.125-.159.322-.273.478-.412l.064-.045.069-.059.18-.138.047.009m-1.471.652l.03.082.042.102.021.125.012.409-.051.253-.023.059-.041.11-.11.184-.033.043-.151.23-.042-.038-.056-.133-.023-.051-.097-.322.01-.092.024-.192.076-.143.046-.13.069-.118.038-.097.069-.143.042-.051.056-.098.036-.083.056.094"/><path fill="#998F52" d="M12.468 10.298l-.151.171-.189.22c-.109.12-.222.23-.368.312l-.052.028-.143.051c-.146.059-.299.113-.468.098h-.159l.103-.172.074-.076.023-.028.097-.097.353-.287.156-.071.166-.057.314-.102.243-.031v.041zm-1.763 1.194c.228.016.453.064.683.046l-.041.046-.171.097-.097.031-.097.056-.105.064-.11.041c-.123.077-.327.095-.476.051l-.23-.074-.059-.028-.105-.082.138-.082.069-.051.1-.056.051-.023c.121-.036.266-.066.397-.028l.053-.008z"/><path fill="#fff" d="M85.483 15.851l-.881-1.259-.109-.197v1.224l.061.091h.159l.008.058-.008.058h-.575l-.008-.058.008-.058h.146l.061-.091v-1.285h-.207l-.008-.058.008-.058h.507l.719 1.03.108.197v-1.02l-.061-.091h-.162l-.008-.058.008-.058h.555l.007.058-.007.058h-.124l-.061.091v1.426h-.136zm1.071-.505c-.343 0-.585-.232-.585-.585 0-.333.27-.588.593-.588.343 0 .586.232.586.585-.001.333-.271.588-.594.588zm.353-.588c0-.277-.141-.474-.346-.474-.197 0-.353.174-.353.477 0 .277.141.475.346.475.197-.001.353-.175.353-.478zm.61.588c-.096 0-.154-.071-.154-.154 0-.091.058-.157.157-.157.096 0 .154.071.154.157-.001.088-.059.154-.157.154z"/><path d="M9.089 107.071h72.727v.252h-72.727zm0 28.535h72.727v.252h-72.727z"/><path fill="#fff" d="M83.674 25.536c.063-.682.568-2.045 1.692-3.712l2.235-3.333h-4.369l.202-.998h4.748v1.061l-2.045 3.473c-.947 1.604-1.364 2.917-1.452 3.51h-1.011z"/><path d="M12.199 131.339h-2.469v-18.989h2.184c1.448 0 2.208.712 2.469 1.899.166.854.214 3.157.214 7.168 0 2.184 0 7.097-.214 8.046-.214.95-.665 1.876-2.184 1.876zm.926-9.945l-.024-6.076c0-.997-.499-1.519-1.116-1.519h-.783v16.188h1.044c.427 0 .831-.285.854-1.068.025-.784.025-6.837.025-7.525zm2.729 9.945v-18.989h4.249v1.424h-2.777v7.263h2.445v1.424h-2.445v7.453h2.801v1.424h-4.273zm7.145.142c-1.543 0-2.397-.878-2.397-2.421v-2.682h1.376v2.397c0 .997.38 1.353.95 1.353.641 0 .997-.427.997-1.994 0-2.136-.261-3.465-1.092-5.317-.213-.451-.641-1.353-.902-1.875-.973-1.923-1.424-3.276-1.424-5.388 0-2.136.926-3.299 2.516-3.299 1.709 0 2.326 1.282 2.35 3.157l.023 2.136h-1.448v-2.088c0-1.116-.19-1.757-.949-1.757-.712 0-.95.546-.95 1.994 0 1.52.403 2.92 1.21 4.439.285.546.617 1.187.902 1.78.926 1.922 1.306 3.655 1.306 5.958 0 2.658-.902 3.607-2.468 3.607zm3.584-.142v-18.989h1.496v18.989h-1.496zm6.693 0l-.071-.665c-.237.522-.878.783-1.472.783-1.306 0-2.16-.736-2.231-2.468-.023-.522-.071-5.388-.071-7.145 0-1.757-.024-5.293.047-6.812.047-1.59.807-2.801 2.397-2.801 1.685 0 2.231 1.234 2.302 2.374.023.902 0 3.655 0 3.655h-1.448v-3.204c0-.973-.309-1.282-.854-1.282-.522 0-.902.38-.902 1.4l-.023 6.693.023 6.765c0 .926.285 1.401.926 1.401.593 0 .926-.427.926-1.306v-6.029h-1.234v-1.424h2.659v5.815c0 2.16.023 4.249.023 4.249h-.997zm5.436 0l-1.852-12.319v12.319h-1.329v-18.989h1.59l1.899 13.435v-13.435h1.353v18.989h-1.661z"/><path fill="#fff" d="M43.769 131.339v-18.989h1.496v18.989h-1.496zm4.937.142c-1.542 0-2.397-.878-2.397-2.421v-2.682h1.376v2.397c0 .997.38 1.353.95 1.353.641 0 .997-.427.997-1.994 0-2.136-.261-3.465-1.092-5.317-.213-.451-.641-1.353-.902-1.875-.973-1.923-1.424-3.276-1.424-5.388 0-2.136.926-3.299 2.516-3.299 1.709 0 2.326 1.282 2.35 3.157l.024 2.136h-1.448v-2.088c0-1.116-.19-1.757-.95-1.757-.712 0-.949.546-.949 1.994 0 1.52.404 2.92 1.21 4.439.285.546.617 1.187.902 1.78.925 1.922 1.305 3.655 1.305 5.958.001 2.658-.901 3.607-2.468 3.607zm7.216-.142h-1.448l1.97-18.989h1.97l1.543 18.989h-1.472s-.261-4.106-.285-4.628h-1.922c0 .522-.356 4.628-.356 4.628zm1.543-13.601c0-.475-.119-3.631-.119-3.631s-.142 3.133-.166 3.608c-.047.664-.76 7.571-.76 7.571h1.686s-.641-7.073-.641-7.548zm6.812 13.625c-.499 0-.76-.024-1.139-.095v-1.4c.308.023.522.047.902.023.854 0 1.021-.475 1.021-1.234v-16.307h1.52v16.283c-.001 1.947-.666 2.73-2.304 2.73zm8.712-15.927c0 .854.023 4.462.023 6.337 0 2.089 0 5.317-.023 6.551-.071 2.088-.831 3.157-2.563 3.157-1.733 0-2.469-.997-2.516-3.109-.024-.522-.024-4.534-.024-6.575 0-1.756 0-5.649.024-6.29.047-2.184.783-3.252 2.516-3.252 1.66 0 2.491.974 2.563 3.181zm-1.543 13.173c.047-.831.047-5.34.047-6.789 0-1.282 0-5.744-.023-6.503-.024-1.092-.261-1.566-1.021-1.566-.854 0-1.021.617-1.021 1.59 0 .784-.024 5.175-.024 6.551 0 1.448 0 5.91.024 6.717s.237 1.4 1.044 1.4c.713.001.926-.64.974-1.4zm5.768 2.73h-2.896v-18.989h2.729c1.021 0 1.851.451 2.041 1.472.095.522.143 2.231.143 3.157 0 .973-.047 2.706-.119 3.204-.119.878-.38 1.353-.997 1.519.617.119.95.546 1.068 1.306.119.688.143 2.184.143 3.133 0 1.14.047 2.896-.143 3.608-.284 1.068-.711 1.59-1.969 1.59zm.474-16.473c0-.641-.38-1.092-.926-1.092h-.997v7.311h1.305c.261 0 .594-.237.617-.878.024-.38.024-1.78.024-2.919.001-.997-.023-1.995-.023-2.422zm.095 11.085c0-.759-.023-2.16-.047-2.634-.024-.641-.309-.878-.641-.878h-1.329v7.5h1.305c.404 0 .665-.237.688-.878.024-.499.024-2.398.024-3.11zm-65.439-21.447l-.015-.142.015-.141h.374v-2.056l.041-.479-1.081 2.869h-.384l-.854-2.39-.131-.479-.05 2.394.106.142h.268l.016.141-.016.142h-1.097l-.016-.142.016-.141h.222l.106-.142.086-2.51h-.405l-.015-.142.015-.142h1.309l.642 1.773.177.617.187-.617.657-1.773h1.252l.015.142-.015.142h-.354v2.652h.354l.015.141-.015.142h-1.425zm1.717 0l-.015-.136.015-.136h.293v-1.425l-.283-.318v-.086l.864-.197h.091v2.026h.288l.015.136-.015.136h-1.253zm.217-3.021c0-.222.116-.389.384-.389.252 0 .374.177.374.389-.005.217-.121.384-.379.384-.263.001-.379-.176-.379-.384zm2.925 3.021v-.111l-.571-.869-.182-.076v.783h.273l.015.136-.015.136h-1.238l-.015-.136.015-.136h.293v-2.784l-.283-.293v-.086l.874-.212h.081v2.384h.177l.646-.566-.055-.146h-.218l-.015-.131.015-.142h1.116l.015.142-.015.131h-.202l-.768.626.752 1.076h.228l.015.136-.015.136h-.923zm3.06-.515c-.167.338-.48.566-.884.566-.672 0-1.152-.435-1.152-1.117 0-.742.536-1.232 1.157-1.232.581 0 .919.323.919.778l-.025.243h-1.364l-.005.091c0 .435.263.738.728.738.248 0 .439-.091.586-.228l.04.161zm-.606-1.01l.005-.131-.03-.268-.096-.091-.177-.025-.172.021-.086.045c-.065.066-.151.283-.172.45h.728zm5.005 1.525l-.015-.142.015-.141h.374v-2.056l.041-.479-1.081 2.869h-.384l-.854-2.39-.131-.479-.05 2.394.106.142h.268l.015.141-.015.142h-1.096l-.015-.142.015-.141h.222l.106-.142.085-2.51h-.404l-.015-.142.015-.142h1.308l.642 1.773.177.617.187-.617.657-1.773h1.253l.015.142-.015.142h-.354v2.652h.354l.015.141-.015.142h-1.426zm1.636-1.126c0-.697.566-1.172 1.238-1.172.717 0 1.228.46 1.228 1.177 0 .697-.566 1.172-1.243 1.172-.713 0-1.223-.46-1.223-1.177zm1.238-.858c-.308 0-.495.272-.495.858 0 .541.157.864.48.864.308 0 .5-.272.5-.859 0-.54-.162-.863-.485-.863zm2.929 1.984l-.015-.142.015-.131h.243v-1.435c-.076-.096-.207-.131-.333-.131-.146 0-.329.05-.48.141v1.425h.243l.015.131-.015.142h-1.208l-.015-.142.015-.131h.293v-1.425l-.283-.318v-.086l.788-.197h.081l.066.45c.293-.344.55-.45.838-.45.359 0 .667.182.667.682v1.344h.288l.015.131-.015.142h-1.203zm2.136.051c-.369 0-.616-.207-.616-.561v-1.45h-.313l-.015-.142.015-.146h.313v-.45l.672-.187v.636h.556l.015.146-.015.142h-.556v1.495c.041.066.126.101.227.101.116 0 .228-.061.309-.141l.045.192c-.137.224-.364.365-.637.365zm2.798-.566c-.167.338-.48.566-.884.566-.672 0-1.151-.435-1.151-1.117 0-.742.535-1.232 1.157-1.232.581 0 .919.323.919.778l-.025.243h-1.364l-.005.091c0 .435.263.738.728.738.248 0 .439-.091.586-.228l.039.161zm-.606-1.01l.005-.131-.03-.268-.096-.091-.177-.025-.172.021-.086.045c-.065.066-.151.283-.171.45h.727zm.843 1.525l-.015-.136.015-.136h.293v-1.425l-.283-.318v-.086l.864-.197h.091v2.026h.288l.015.136-.015.136h-1.253zm.218-3.021c0-.222.116-.389.384-.389.253 0 .374.177.374.389-.005.217-.121.384-.379.384-.263.001-.379-.176-.379-.384zm1.227 3.021l-.015-.136.015-.136h.293v-1.425l-.283-.318v-.086l.788-.197h.081l.066.53c.268-.424.439-.53.651-.53.238 0 .364.151.364.328 0 .162-.076.298-.212.409l-.086.071-.399-.237c-.056 0-.137.02-.298.131v1.324h.318l.015.136-.015.136h-1.283zm2.055-1.126c0-.697.566-1.172 1.238-1.172.717 0 1.228.46 1.228 1.177 0 .697-.566 1.172-1.243 1.172-.713 0-1.223-.46-1.223-1.177zm1.238-.858c-.308 0-.495.272-.495.858 0 .541.157.864.48.864.308 0 .5-.272.5-.859 0-.54-.162-.863-.485-.863z"/></svg>