<?xml version="1.0" encoding="utf-8"?>
<!-- Generator: Adobe Illustrator 16.0.0, SVG Export Plug-In . SVG Version: 6.00 Build 0)  -->
<!DOCTYPE svg PUBLIC "-//W3C//DTD SVG 1.1//EN" "http://www.w3.org/Graphics/SVG/1.1/DTD/svg11.dtd">
<svg version="1.1" id="Lager_1" xmlns="http://www.w3.org/2000/svg" xmlns:xlink="http://www.w3.org/1999/xlink" x="0px" y="0px"
	 width="50px" height="50px" viewBox="0 0 50 50" enable-background="new 0 0 50 50" xml:space="preserve">
<path fill-rule="evenodd" clip-rule="evenodd" fill="#181616" d="M24.999,0C11.195,0,0,11.476,0,25.634
	c0,11.325,7.163,20.932,17.098,24.321c1.25,0.235,1.707-0.555,1.707-1.234c0-0.609-0.022-2.221-0.034-4.36
	c-6.955,1.549-8.422-3.435-8.422-3.435c-1.137-2.962-2.776-3.75-2.776-3.75c-2.27-1.591,0.172-1.56,0.172-1.56
	c2.509,0.182,3.829,2.642,3.829,2.642c2.23,3.919,5.851,2.786,7.276,2.132c0.227-1.658,0.873-2.786,1.587-3.429
	C14.886,36.314,9.05,34.114,9.05,24.293c0-2.798,0.974-5.087,2.573-6.878c-0.257-0.648-1.115-3.255,0.245-6.784
	c0,0,2.1-0.689,6.875,2.628c1.994-0.569,4.133-0.853,6.259-0.863c2.123,0.01,4.262,0.294,6.259,0.863
	c4.773-3.317,6.87-2.628,6.87-2.628c1.363,3.529,0.504,6.136,0.248,6.784c1.6,1.791,2.568,4.08,2.568,6.878
	c0,9.847-5.846,12.014-11.414,12.649c0.897,0.79,1.695,2.354,1.695,4.746c0,3.427-0.029,6.191-0.029,7.032
	c0,0.686,0.449,1.482,1.719,1.232C42.845,46.556,50,36.955,50,25.634C50,11.476,38.808,0,24.999,0z"/>
</svg>
