<svg xmlns="http://www.w3.org/2000/svg" width="50" height="50" viewBox="0 0 50 50"><path fill-rule="evenodd" clip-rule="evenodd" fill="#181616" d="M24.999 0c-13.804 0-24.999 11.476-24.999 25.634 0 11.325 7.163 20.932 17.098 24.321 1.25.235 1.707-.555 1.707-1.234 0-.609-.022-2.221-.034-4.36-6.955 1.549-8.422-3.435-8.422-3.435-1.137-2.962-2.776-3.75-2.776-3.75-2.27-1.591.172-1.56.172-1.56 2.509.182 3.829 2.642 3.829 2.642 2.23 3.919 5.851 2.786 7.276 2.132.227-1.658.873-2.786 1.587-3.429-5.551-.647-11.387-2.847-11.387-12.668 0-2.798.974-5.087 2.573-6.878-.257-.648-1.115-3.255.245-6.784 0 0 2.1-.689 6.875 2.628 1.994-.569 4.133-.853 6.259-.863 2.123.01 4.262.294 6.259.863 4.773-3.317 6.87-2.628 6.87-2.628 1.363 3.529.504 6.136.248 6.784 1.6 1.791 2.568 4.08 2.568 6.878 0 9.847-5.846 12.014-11.414 12.649.897.79 1.695 2.354 1.695 4.746 0 3.427-.029 6.191-.029 7.032 0 .686.449 1.482 1.719 1.232 9.927-3.396 17.082-12.997 17.082-24.318 0-14.158-11.192-25.634-25.001-25.634z"/></svg>