<?xml version="1.0" encoding="utf-8"?>
<!-- Generator: Adobe Illustrator 16.0.0, SVG Export Plug-In . SVG Version: 6.00 Build 0)  -->
<!DOCTYPE svg PUBLIC "-//W3C//DTD SVG 1.1//EN" "http://www.w3.org/Graphics/SVG/1.1/DTD/svg11.dtd">
<svg version="1.1" id="Lager_1" xmlns="http://www.w3.org/2000/svg" xmlns:xlink="http://www.w3.org/1999/xlink" x="0px" y="0px"
	 width="327px" height="367.5px" viewBox="59.5 82.5 327 367.5" enable-background="new 59.5 82.5 327 367.5" xml:space="preserve">
<title>HTML5 Logo</title>
<polygon fill="#E44D26" points="92.609,410.857 63.595,85.436 382.404,85.436 353.36,410.806 222.805,447 "/>
<polygon fill="#F16529" points="223,419.335 328.495,390.088 353.315,112.043 223,112.043 "/>
<polygon fill="#EBEBEB" points="223,232.738 170.187,232.738 166.539,191.868 223,191.868 223,151.956 222.862,151.956 
	122.921,151.956 123.876,162.663 133.686,272.648 223,272.648 "/>
<polygon fill="#EBEBEB" points="223,336.393 222.825,336.439 178.375,324.437 175.534,292.605 153.935,292.605 135.469,292.605 
	141.061,355.271 222.816,377.969 223,377.917 "/>
<polygon fill="#FFFFFF" points="222.862,232.738 222.862,272.648 272.009,272.648 267.376,324.411 222.862,336.426 222.862,377.949 
	304.683,355.271 305.283,348.529 314.662,243.455 315.636,232.738 304.881,232.738 "/>
<polygon fill="#FFFFFF" points="222.862,151.956 222.862,176.744 222.862,191.77 222.862,191.868 319.139,191.868 319.139,191.868 
	319.268,191.868 320.068,182.896 321.887,162.663 322.841,151.956 "/>
</svg>
