<svg xmlns="http://www.w3.org/2000/svg" width="50" height="50" viewBox="0 0 50 50"><path fill="#3AAAE1" d="M50 9.493c-1.84.816-3.816 1.367-5.892 1.615 2.118-1.27 3.744-3.28 4.511-5.675-1.982 1.176-4.178 2.029-6.515 2.489-1.871-1.994-4.537-3.239-7.487-3.239-5.665 0-10.258 4.593-10.258 10.258 0 .804.09 1.587.266 2.338-8.525-.428-16.085-4.512-21.145-10.718-.883 1.515-1.389 3.277-1.389 5.157 0 3.559 1.811 6.699 4.563 8.539-1.681-.054-3.263-.515-4.646-1.283l-.002.129c0 4.97 3.537 9.116 8.229 10.059-.86.234-1.767.36-2.702.36-.661 0-1.304-.064-1.93-.184 1.306 4.075 5.094 7.041 9.583 7.124-3.512 2.751-7.935 4.391-12.74 4.391-.828 0-1.645-.048-2.447-.144 4.539 2.911 9.932 4.609 15.725 4.609 18.868 0 29.187-15.631 29.187-29.187 0-.445-.01-.887-.03-1.327 2.005-1.447 3.744-3.254 5.119-5.311z"/></svg>